<?xml version="1.0" standalone="no"?>
 <!DOCTYPE svg PUBLIC "-//W3C//DTD SVG 1.1//EN" 
 "http://www.w3.org/Graphics/SVG/1.1/DTD/svg11.dtd"> 
<svg
  xmlns:svg="http://www.w3.org/2000/svg"
  xmlns="http://www.w3.org/2000/svg"
  xmlns:xlink="http://www.w3.org/1999/xlink"
  version="1.1"
  width="29.700220cm" height="21.000720cm" viewBox="0 0 116930 82680">
<title>SVG Picture created as sesame-fonctionnel-F_Fab.svg date 2021/11/24 13:31:41 </title>
  <desc>Picture generated by PCBNEW </desc>
<g style="fill:#000000; fill-opacity:1;stroke:#000000; stroke-opacity:1;
stroke-linecap:round; stroke-linejoin:round;"
 transform="translate(0 0) scale(1 1)">
</g>
<g style="fill:#000000; fill-opacity:0.0; 
stroke:#000000; stroke-width:-0.000393701; stroke-opacity:1; 
stroke-linecap:round; stroke-linejoin:round;">
</g>
<g style="fill:#000000; fill-opacity:0.0; 
stroke:#000000; stroke-width:59.0551; stroke-opacity:1; 
stroke-linecap:round; stroke-linejoin:round;">
<text x="76888.2" y="38203.9"
textLength="758.663" font-size="524.934" lengthAdjust="spacingAndGlyphs"
text-anchor="middle" opacity="0">L2</text>
<path d="M76822 38185
L76635 38185
L76635 37791
" />
<path d="M76935 37828
L76953 37810
L76991 37791
L77085 37791
L77122 37810
L77141 37828
L77160 37866
L77160 37903
L77141 37960
L76916 38185
L77160 38185
" />
</g>
<g style="fill:#000000; fill-opacity:0.0; 
stroke:#000000; stroke-width:19.685; stroke-opacity:1; 
stroke-linecap:round; stroke-linejoin:round;">
<circle cx="33488.2" cy="28057.1" r="656.168" /> 
<path d="M32503 28057
L34472 28057
" />
<path d="M33488 27072
L33488 29041
" />
<path d="M92519 23622
L33464 23622
" />
<path d="M94488 61023
L94488 25590
" />
<path d="M33464 62992
L92519 62992
" />
<path d="M31496 25590
L31496 61023
" />
<path d="M92519.7 62992.1 A1968.5 1968.5 0.0 0 0 94488.2 61023.6" />
<path d="M94488.2 25590.6 A1968.5 1968.5 0.0 0 0 92519.7 23622" />
<path d="M33464.6 23622 A1968.5 1968.5 0.0 0 0 31496.1 25590.6" />
<path d="M31496.1 61023.6 A1968.5 1968.5 0.0 0 0 33464.6 62992.1" />
</g>
<g style="fill:#000000; fill-opacity:0.0; 
stroke:#000000; stroke-width:50; stroke-opacity:1; 
stroke-linecap:round; stroke-linejoin:round;">
<circle cx="33519.7" cy="33775.6" r="98.4252" /> 
<path d="M34897 33185
L34897 30429
" />
<path d="M36078 33185
L36078 30429
" />
<path d="M37948 34267
L33027 34267
" />
<path d="M33027 29346
L37948 29346
" />
<path d="M33027 34267
L33027 29346
" />
<path d="M37948 34267
L37948 29346
" />
</g>
<g style="fill:#000000; fill-opacity:0.0; 
stroke:#000000; stroke-width:39.3701; stroke-opacity:1; 
stroke-linecap:round; stroke-linejoin:round;">
<path d="M61692 25716
L62578 25716
" />
<path d="M62578 25716
L62578 26897
" />
<path d="M62578 26897
L61397 26897
" />
<path d="M61397 26897
L61397 26011
" />
<path d="M61397 26011
L61692 25716
" />
<path d="M62283 60897
L61397 60897
" />
<path d="M61397 60897
L61397 59716
" />
<path d="M61397 59716
L62578 59716
" />
<path d="M62578 59716
L62578 60602
" />
<path d="M62578 60602
L62283 60897
" />
<path d="M52678 37896
L54371 37896
" />
<path d="M54371 37896
L54371 40337
" />
<path d="M54371 40337
L52284 40337
" />
<path d="M52284 40337
L52284 38290
" />
<path d="M52284 38290
L52678 37896
" />
<path d="M56017 29206
L56017 27513
" />
<path d="M56017 27513
L58458 27513
" />
<path d="M58458 27513
L58458 29600
" />
<path d="M58458 29600
L56411 29600
" />
<path d="M56411 29600
L56017 29206
" />
<path d="M56017 58706
L56017 57013
" />
<path d="M56017 57013
L58458 57013
" />
<path d="M58458 57013
L58458 59100
" />
<path d="M58458 59100
L56411 59100
" />
<path d="M56411 59100
L56017 58706
" />
<path d="M35495 37298
L37188 37298
" />
<path d="M37188 37298
L37188 39739
" />
<path d="M37188 39739
L35101 39739
" />
<path d="M35101 39739
L35101 37692
" />
<path d="M35101 37692
L35495 37298
" />
<path d="M44558 38826
L46251 38826
" />
<path d="M46251 38826
L46251 41267
" />
<path d="M46251 41267
L44164 41267
" />
<path d="M44164 41267
L44164 39220
" />
<path d="M44164 39220
L44558 38826
" />
<path d="M47470 26726
L47854 26342
" />
<path d="M47470 28271
L47470 26726
" />
<path d="M49005 28271
L47470 28271
" />
<path d="M49005 26342
L49005 28271
" />
<path d="M47854 26342
L49005 26342
" />
<path d="M47470 58726
L47854 58342
" />
<path d="M47470 60271
L47470 58726
" />
<path d="M49005 60271
L47470 60271
" />
<path d="M49005 58342
L49005 60271
" />
<path d="M47854 58342
L49005 58342
" />
<path d="M41604 58354
L42755 58354
" />
<path d="M42755 58354
L42755 61759
" />
<path d="M42755 61759
L41220 61759
" />
<path d="M41220 61759
L41220 58738
" />
<path d="M41220 58738
L41604 58354
" />
<path d="M48437 53185
L48437 54336
" />
<path d="M48437 54336
L44539 54336
" />
<path d="M44539 54336
L44539 52801
" />
<path d="M44539 52801
L48053 52801
" />
<path d="M48053 52801
L48437 53185
" />
<path d="M43687 53173
L43687 54324
" />
<path d="M43687 54324
L39789 54324
" />
<path d="M39789 54324
L39789 52789
" />
<path d="M39789 52789
L43303 52789
" />
<path d="M43303 52789
L43687 53173
" />
<path d="M38122 56255
L36970 56255
" />
<path d="M36970 56255
L36970 52358
" />
<path d="M36970 52358
L38505 52358
" />
<path d="M38505 52358
L38505 55872
" />
<path d="M38505 55872
L38122 56255
" />
</g>
<g style="fill:#000000; fill-opacity:0.0; 
stroke:#000000; stroke-width:47.2441; stroke-opacity:1; 
stroke-linecap:round; stroke-linejoin:round;">
<path d="M81377 38385
L67598 38385
" />
<path d="M67598 38385
L67598 48228
" />
<path d="M67598 48228
L81377 48228
" />
<path d="M81377 48228
L81377 38385
" />
<path d="M81181 46456
L67795 46456
" />
<path d="M67795 46456
L67795 40157
" />
<path d="M81181 46456
L81181 40157
" />
<path d="M81181 40157
L67795 40157
" />
</g>
<g style="fill:#000000; fill-opacity:0.0; 
stroke:#000000; stroke-width:590.551; stroke-opacity:1; 
stroke-linecap:round; stroke-linejoin:round;">
<path d="M70551 39763
L70551 46850
" />
<path d="M69763 39763
L69763 46850
" />
<path d="M68976 39763
L68976 46850
" />
<path d="M68188 39763
L68188 46850
" />
<path d="M71338 39763
L71338 46850
" />
<path d="M72125 39763
L72125 46850
" />
<path d="M72913 39763
L72913 46850
" />
<path d="M73700 39763
L73700 46850
" />
<path d="M74488 39763
L74488 46850
" />
<path d="M75275 39763
L75275 46850
" />
<path d="M76062 39763
L76062 46850
" />
<path d="M76850 39763
L76850 46850
" />
<path d="M77637 39763
L77637 46850
" />
<path d="M78425 39763
L78425 46850
" />
<path d="M79212 39763
L79212 46850
" />
<path d="M80000 39763
L80000 46850
" />
<path d="M80787 39763
L80787 46850
" />
</g>
<g style="fill:#000000; fill-opacity:0.0; 
stroke:#000000; stroke-width:47.2441; stroke-opacity:1; 
stroke-linecap:round; stroke-linejoin:round;">
<circle cx="45238.2" cy="31307.1" r="511.811" /> 
<path d="M44883 31385
L44883 31228
" />
<path d="M45592 31385
L44883 31385
" />
<path d="M45592 31228
L45592 31385
" />
<path d="M44883 31228
L45592 31228
" />
<circle cx="51238.2" cy="31307.1" r="511.811" /> 
<path d="M50883 31385
L50883 31228
" />
<path d="M51592 31385
L50883 31385
" />
<path d="M51592 31228
L51592 31385
" />
<path d="M50883 31228
L51592 31228
" />
</g>
<g style="fill:#000000; fill-opacity:0.0; 
stroke:#000000; stroke-width:39.3701; stroke-opacity:1; 
stroke-linecap:round; stroke-linejoin:round;">
<path d="M45316 36557
L45415 36557
" />
<path d="M45316 36694
L45120 36557
" />
<path d="M45316 36419
L45316 36694
" />
<path d="M45120 36557
L45316 36419
" />
<path d="M45120 36557
L45041 36557
" />
<path d="M45120 36419
L45120 36694
" />
<path d="M44883 36832
L44883 36281
" />
<path d="M45592 36832
L44883 36832
" />
<path d="M45592 36281
L45592 36832
" />
<path d="M44883 36281
L45592 36281
" />
</g>
<g style="fill:#000000; fill-opacity:0.0; 
stroke:#000000; stroke-width:47.2441; stroke-opacity:1; 
stroke-linecap:round; stroke-linejoin:round;">
<circle cx="47238.2" cy="35557.1" r="511.811" /> 
<path d="M46883 35635
L46883 35478
" />
<path d="M47592 35635
L46883 35635
" />
<path d="M47592 35478
L47592 35635
" />
<path d="M46883 35478
L47592 35478
" />
<circle cx="49238.2" cy="35557.1" r="511.811" /> 
<path d="M48883 35635
L48883 35478
" />
<path d="M49592 35635
L48883 35635
" />
<path d="M49592 35478
L49592 35635
" />
<path d="M48883 35478
L49592 35478
" />
</g>
<g style="fill:#000000; fill-opacity:0.0; 
stroke:#000000; stroke-width:39.3701; stroke-opacity:1; 
stroke-linecap:round; stroke-linejoin:round;">
<path d="M43734 31163
L43734 31950
" />
<path d="M43242 31163
L43734 31163
" />
<path d="M43242 31950
L43242 31163
" />
<path d="M43734 31950
L43242 31950
" />
<path d="M52984 30913
L52984 31700
" />
<path d="M52492 30913
L52984 30913
" />
<path d="M52492 31700
L52492 30913
" />
<path d="M52984 31700
L52492 31700
" />
<path d="M47238 32812
L46923 32359
" />
<path d="M47238 32812
L47533 32359
" />
<path d="M47533 32359
L46923 32359
" />
<path d="M46923 32812
L47553 32812
" />
<path d="M47238 32359
L47238 31966
" />
<path d="M47238 32812
L47238 33167
" />
<path d="M46647 31651
L46647 33462
" />
<path d="M46647 31651
L47828 31651
" />
<path d="M47828 33462
L46647 33462
" />
<path d="M47828 31651
L47828 33462
" />
<path d="M45237 33801
L45552 34254
" />
<path d="M45237 33801
L44942 34254
" />
<path d="M44942 34254
L45552 34254
" />
<path d="M45552 33801
L44922 33801
" />
<path d="M45237 34254
L45237 34647
" />
<path d="M45237 33801
L45237 33446
" />
<path d="M45828 34962
L45828 33151
" />
<path d="M45828 34962
L44647 34962
" />
<path d="M44647 33151
L45828 33151
" />
<path d="M44647 34962
L44647 33151
" />
<path d="M44687 29452
L45789 29452
" />
<path d="M45789 29452
L45789 30161
" />
<path d="M45789 30161
L44687 30161
" />
<path d="M44687 30161
L44687 29452
" />
<path d="M44942 29807
L45100 29807
" />
<path d="M45100 29807
L45100 29590
" />
<path d="M45100 29807
L45100 30023
" />
<path d="M45100 29807
L45336 29649
" />
<path d="M45336 29649
L45336 29964
" />
<path d="M45336 29964
L45100 29807
" />
<path d="M45336 29807
L45533 29807
" />
<path d="M49238 32812
L48923 32359
" />
<path d="M49238 32812
L49533 32359
" />
<path d="M49533 32359
L48923 32359
" />
<path d="M48923 32812
L49553 32812
" />
<path d="M49238 32359
L49238 31966
" />
<path d="M49238 32812
L49238 33167
" />
<path d="M48647 31651
L48647 33462
" />
<path d="M48647 31651
L49828 31651
" />
<path d="M49828 33462
L48647 33462
" />
<path d="M49828 31651
L49828 33462
" />
<path d="M51237 33801
L51552 34254
" />
<path d="M51237 33801
L50942 34254
" />
<path d="M50942 34254
L51552 34254
" />
<path d="M51552 33801
L50922 33801
" />
<path d="M51237 34254
L51237 34647
" />
<path d="M51237 33801
L51237 33446
" />
<path d="M51828 34962
L51828 33151
" />
<path d="M51828 34962
L50647 34962
" />
<path d="M50647 33151
L51828 33151
" />
<path d="M50647 34962
L50647 33151
" />
<path d="M44687 61452
L45789 61452
" />
<path d="M45789 61452
L45789 62161
" />
<path d="M45789 62161
L44687 62161
" />
<path d="M44687 62161
L44687 61452
" />
<path d="M44942 61807
L45100 61807
" />
<path d="M45100 61807
L45100 61590
" />
<path d="M45100 61807
L45100 62023
" />
<path d="M45100 61807
L45336 61649
" />
<path d="M45336 61649
L45336 61964
" />
<path d="M45336 61964
L45100 61807
" />
<path d="M45336 61807
L45533 61807
" />
<path d="M43242 34450
L43242 33663
" />
<path d="M43734 34450
L43242 34450
" />
<path d="M43734 33663
L43734 34450
" />
<path d="M43242 33663
L43734 33663
" />
<path d="M53742 31700
L53742 30913
" />
<path d="M54234 31700
L53742 31700
" />
<path d="M54234 30913
L54234 31700
" />
<path d="M53742 30913
L54234 30913
" />
<path d="M43734 24913
L43734 25700
" />
<path d="M43242 24913
L43734 24913
" />
<path d="M43242 25700
L43242 24913
" />
<path d="M43734 25700
L43242 25700
" />
<path d="M41742 25700
L41742 24913
" />
<path d="M42234 25700
L41742 25700
" />
<path d="M42234 24913
L42234 25700
" />
<path d="M41742 24913
L42234 24913
" />
<path d="M43212 27905
L43763 27905
" />
<path d="M43763 26708
L43763 27905
" />
<path d="M43212 26933
L43429 26708
" />
<path d="M43429 26708
L43763 26708
" />
<path d="M43212 26933
L43212 27897
" />
<path d="M43242 29700
L43242 28913
" />
<path d="M43734 29700
L43242 29700
" />
<path d="M43734 28913
L43734 29700
" />
<path d="M43242 28913
L43734 28913
" />
<path d="M41742 27700
L41742 26913
" />
<path d="M42234 27700
L41742 27700
" />
<path d="M42234 26913
L42234 27700
" />
<path d="M41742 26913
L42234 26913
" />
<path d="M68492 60913
L68984 60913
" />
<path d="M68984 60913
L68984 61700
" />
<path d="M68984 61700
L68492 61700
" />
<path d="M68492 61700
L68492 60913
" />
<circle cx="47244.1" cy="48779.5" r="295.276" /> 
<path d="M46299 49251
L47677 49251
" />
<path d="M47677 49251
L47677 47362
" />
<path d="M47677 47362
L46299 47362
" />
<path d="M46299 47362
L46299 49251
" />
<path d="M47536 48779
L46951 48779
" />
<path d="M47536 48779
L46951 48779
" />
<circle cx="42244.1" cy="48779.5" r="295.276" /> 
<path d="M41299 49251
L42677 49251
" />
<path d="M42677 49251
L42677 47362
" />
<path d="M42677 47362
L41299 47362
" />
<path d="M41299 47362
L41299 49251
" />
<path d="M42536 48779
L41951 48779
" />
<path d="M42536 48779
L41951 48779
" />
<circle cx="52244.1" cy="48779.5" r="295.276" /> 
<path d="M51299 49251
L52677 49251
" />
<path d="M52677 49251
L52677 47362
" />
<path d="M52677 47362
L51299 47362
" />
<path d="M51299 47362
L51299 49251
" />
<path d="M52536 48779
L51951 48779
" />
<path d="M52536 48779
L51951 48779
" />
<path d="M44844 56561
L45631 56561
" />
<path d="M44844 57053
L44844 56561
" />
<path d="M45631 57053
L44844 57053
" />
<path d="M45631 56561
L45631 57053
" />
<path d="M44844 24561
L45631 24561
" />
<path d="M44844 25053
L44844 24561
" />
<path d="M45631 25053
L44844 25053
" />
<path d="M45631 24561
L45631 25053
" />
<path d="M39150 32102
L39150 31216
" />
<path d="M39150 31216
L40725 31216
" />
<path d="M40725 31216
L40725 32397
" />
<path d="M40725 32397
L39446 32397
" />
<path d="M39446 32397
L39150 32102
" />
<path d="M84984 34200
L84492 34200
" />
<path d="M84492 34200
L84492 33413
" />
<path d="M84492 33413
L84984 33413
" />
<path d="M84984 33413
L84984 34200
" />
<path d="M70234 34200
L69742 34200
" />
<path d="M69742 34200
L69742 33413
" />
<path d="M69742 33413
L70234 33413
" />
<path d="M70234 33413
L70234 34200
" />
<path d="M81594 37303
L81594 36811
" />
<path d="M81594 36811
L82381 36811
" />
<path d="M82381 36811
L82381 37303
" />
<path d="M82381 37303
L81594 37303
" />
<path d="M68594 37303
L68594 36811
" />
<path d="M68594 36811
L69381 36811
" />
<path d="M69381 36811
L69381 37303
" />
<path d="M69381 37303
L68594 37303
" />
<path d="M81594 49803
L81594 49311
" />
<path d="M81594 49311
L82381 49311
" />
<path d="M82381 49311
L82381 49803
" />
<path d="M82381 49803
L81594 49803
" />
<path d="M68594 49803
L68594 49311
" />
<path d="M68594 49311
L69381 49311
" />
<path d="M69381 49311
L69381 49803
" />
<path d="M69381 49803
L68594 49803
" />
<path d="M84984 53200
L84492 53200
" />
<path d="M84492 53200
L84492 52413
" />
<path d="M84492 52413
L84984 52413
" />
<path d="M84984 52413
L84984 53200
" />
<path d="M70234 53200
L69742 53200
" />
<path d="M69742 53200
L69742 52413
" />
<path d="M69742 52413
L70234 52413
" />
<path d="M70234 52413
L70234 53200
" />
<path d="M52844 28303
L52844 27811
" />
<path d="M52844 27811
L53631 27811
" />
<path d="M53631 27811
L53631 28303
" />
<path d="M53631 28303
L52844 28303
" />
<path d="M52844 25303
L52844 24811
" />
<path d="M52844 24811
L53631 24811
" />
<path d="M53631 24811
L53631 25303
" />
<path d="M53631 25303
L52844 25303
" />
<path d="M51631 27811
L51631 28303
" />
<path d="M51631 28303
L50844 28303
" />
<path d="M50844 28303
L50844 27811
" />
<path d="M50844 27811
L51631 27811
" />
<path d="M51631 24811
L51631 25303
" />
<path d="M51631 25303
L50844 25303
" />
<path d="M50844 25303
L50844 24811
" />
<path d="M50844 24811
L51631 24811
" />
<path d="M41742 31163
L42234 31163
" />
<path d="M42234 31163
L42234 31950
" />
<path d="M42234 31950
L41742 31950
" />
<path d="M41742 31950
L41742 31163
" />
<path d="M41742 28913
L42234 28913
" />
<path d="M42234 28913
L42234 29700
" />
<path d="M42234 29700
L41742 29700
" />
<path d="M41742 29700
L41742 28913
" />
<path d="M40242 33913
L40734 33913
" />
<path d="M40734 33913
L40734 34700
" />
<path d="M40734 34700
L40242 34700
" />
<path d="M40242 34700
L40242 33913
" />
<path d="M40734 29700
L40242 29700
" />
<path d="M40242 29700
L40242 28913
" />
<path d="M40242 28913
L40734 28913
" />
<path d="M40734 28913
L40734 29700
" />
<path d="M37734 57950
L37242 57950
" />
<path d="M37242 57950
L37242 57163
" />
<path d="M37242 57163
L37734 57163
" />
<path d="M37734 57163
L37734 57950
" />
<path d="M36234 57950
L35742 57950
" />
<path d="M35742 57950
L35742 57163
" />
<path d="M35742 57163
L36234 57163
" />
<path d="M36234 57163
L36234 57950
" />
<path d="M39234 57950
L38742 57950
" />
<path d="M38742 57950
L38742 57163
" />
<path d="M38742 57163
L39234 57163
" />
<path d="M39234 57163
L39234 57950
" />
<path d="M48484 37950
L47992 37950
" />
<path d="M47992 37950
L47992 37163
" />
<path d="M47992 37163
L48484 37163
" />
<path d="M48484 37163
L48484 37950
" />
<path d="M48484 39700
L47992 39700
" />
<path d="M47992 39700
L47992 38913
" />
<path d="M47992 38913
L48484 38913
" />
<path d="M48484 38913
L48484 39700
" />
<path d="M47992 40913
L48484 40913
" />
<path d="M48484 40913
L48484 41700
" />
<path d="M48484 41700
L47992 41700
" />
<path d="M47992 41700
L47992 40913
" />
<path d="M49984 39700
L49492 39700
" />
<path d="M49492 39700
L49492 38913
" />
<path d="M49492 38913
L49984 38913
" />
<path d="M49984 38913
L49984 39700
" />
<path d="M49984 37950
L49492 37950
" />
<path d="M49492 37950
L49492 37163
" />
<path d="M49492 37163
L49984 37163
" />
<path d="M49984 37163
L49984 37950
" />
<path d="M49984 41700
L49492 41700
" />
<path d="M49492 41700
L49492 40913
" />
<path d="M49492 40913
L49984 40913
" />
<path d="M49984 40913
L49984 41700
" />
<path d="M52844 60303
L52844 59811
" />
<path d="M52844 59811
L53631 59811
" />
<path d="M53631 59811
L53631 60303
" />
<path d="M53631 60303
L52844 60303
" />
<path d="M52844 57303
L52844 56811
" />
<path d="M52844 56811
L53631 56811
" />
<path d="M53631 56811
L53631 57303
" />
<path d="M53631 57303
L52844 57303
" />
<path d="M51631 59811
L51631 60303
" />
<path d="M51631 60303
L50844 60303
" />
<path d="M50844 60303
L50844 59811
" />
<path d="M50844 59811
L51631 59811
" />
<path d="M51525 56811
L51525 57303
" />
<path d="M51525 57303
L50738 57303
" />
<path d="M50738 57303
L50738 56811
" />
<path d="M50738 56811
L51525 56811
" />
<path d="M66234 26450
L65742 26450
" />
<path d="M65742 26450
L65742 25663
" />
<path d="M65742 25663
L66234 25663
" />
<path d="M66234 25663
L66234 26450
" />
<path d="M66234 28450
L65742 28450
" />
<path d="M65742 28450
L65742 27663
" />
<path d="M65742 27663
L66234 27663
" />
<path d="M66234 27663
L66234 28450
" />
<path d="M59594 25053
L59594 24561
" />
<path d="M59594 24561
L60381 24561
" />
<path d="M60381 24561
L60381 25053
" />
<path d="M60381 25053
L59594 25053
" />
<path d="M61242 27663
L61734 27663
" />
<path d="M61734 27663
L61734 28450
" />
<path d="M61734 28450
L61242 28450
" />
<path d="M61242 28450
L61242 27663
" />
<path d="M64242 27663
L64734 27663
" />
<path d="M64734 27663
L64734 28450
" />
<path d="M64734 28450
L64242 28450
" />
<path d="M64242 28450
L64242 27663
" />
<path d="M62742 27663
L63234 27663
" />
<path d="M63234 27663
L63234 28450
" />
<path d="M63234 28450
L62742 28450
" />
<path d="M62742 28450
L62742 27663
" />
<path d="M59742 27663
L60234 27663
" />
<path d="M60234 27663
L60234 28450
" />
<path d="M60234 28450
L59742 28450
" />
<path d="M59742 28450
L59742 27663
" />
<path d="M73381 24811
L73381 25303
" />
<path d="M73381 25303
L72594 25303
" />
<path d="M72594 25303
L72594 24811
" />
<path d="M72594 24811
L73381 24811
" />
<path d="M68984 25700
L68492 25700
" />
<path d="M68492 25700
L68492 24913
" />
<path d="M68492 24913
L68984 24913
" />
<path d="M68984 24913
L68984 25700
" />
<path d="M67484 25700
L66992 25700
" />
<path d="M66992 25700
L66992 24913
" />
<path d="M66992 24913
L67484 24913
" />
<path d="M67484 24913
L67484 25700
" />
<path d="M81844 25303
L81844 24811
" />
<path d="M81844 24811
L82631 24811
" />
<path d="M82631 24811
L82631 25303
" />
<path d="M82631 25303
L81844 25303
" />
<path d="M73381 61311
L73381 61803
" />
<path d="M73381 61803
L72594 61803
" />
<path d="M72594 61803
L72594 61311
" />
<path d="M72594 61311
L73381 61311
" />
<path d="M66992 60913
L67484 60913
" />
<path d="M67484 60913
L67484 61700
" />
<path d="M67484 61700
L66992 61700
" />
<path d="M66992 61700
L66992 60913
" />
<path d="M81844 61803
L81844 61311
" />
<path d="M81844 61311
L82631 61311
" />
<path d="M82631 61311
L82631 61803
" />
<path d="M82631 61803
L81844 61803
" />
<path d="M65742 60163
L66234 60163
" />
<path d="M66234 60163
L66234 60950
" />
<path d="M66234 60950
L65742 60950
" />
<path d="M65742 60950
L65742 60163
" />
<path d="M65742 58163
L66234 58163
" />
<path d="M66234 58163
L66234 58950
" />
<path d="M66234 58950
L65742 58950
" />
<path d="M65742 58950
L65742 58163
" />
<path d="M59488 62053
L59488 61561
" />
<path d="M59488 61561
L60275 61561
" />
<path d="M60275 61561
L60275 62053
" />
<path d="M60275 62053
L59488 62053
" />
<path d="M60234 58950
L59742 58950
" />
<path d="M59742 58950
L59742 58163
" />
<path d="M59742 58163
L60234 58163
" />
<path d="M60234 58163
L60234 58950
" />
<path d="M63234 58950
L62742 58950
" />
<path d="M62742 58950
L62742 58163
" />
<path d="M62742 58163
L63234 58163
" />
<path d="M63234 58163
L63234 58950
" />
<path d="M64734 58950
L64242 58950
" />
<path d="M64242 58950
L64242 58163
" />
<path d="M64242 58163
L64734 58163
" />
<path d="M64734 58163
L64734 58950
" />
<path d="M61734 58950
L61242 58950
" />
<path d="M61242 58950
L61242 58163
" />
<path d="M61242 58163
L61734 58163
" />
<path d="M61734 58163
L61734 58950
" />
<path d="M35492 40913
L35984 40913
" />
<path d="M35984 40913
L35984 41700
" />
<path d="M35984 41700
L35492 41700
" />
<path d="M35492 41700
L35492 40913
" />
<path d="M39234 41700
L38742 41700
" />
<path d="M38742 41700
L38742 40913
" />
<path d="M38742 40913
L39234 40913
" />
<path d="M39234 40913
L39234 41700
" />
<path d="M37242 40913
L37734 40913
" />
<path d="M37734 40913
L37734 41700
" />
<path d="M37734 41700
L37242 41700
" />
<path d="M37242 41700
L37242 40913
" />
<path d="M33484 41700
L32992 41700
" />
<path d="M32992 41700
L32992 40913
" />
<path d="M32992 40913
L33484 40913
" />
<path d="M33484 40913
L33484 41700
" />
<path d="M38742 36913
L39234 36913
" />
<path d="M39234 36913
L39234 37700
" />
<path d="M39234 37700
L38742 37700
" />
<path d="M38742 37700
L38742 36913
" />
<path d="M33484 39700
L32992 39700
" />
<path d="M32992 39700
L32992 38913
" />
<path d="M32992 38913
L33484 38913
" />
<path d="M33484 38913
L33484 39700
" />
<path d="M33484 37700
L32992 37700
" />
<path d="M32992 37700
L32992 36913
" />
<path d="M32992 36913
L33484 36913
" />
<path d="M33484 36913
L33484 37700
" />
<path d="M52984 52950
L52492 52950
" />
<path d="M52492 52950
L52492 52163
" />
<path d="M52492 52163
L52984 52163
" />
<path d="M52984 52163
L52984 52950
" />
<path d="M51242 52163
L51734 52163
" />
<path d="M51734 52163
L51734 52950
" />
<path d="M51734 52950
L51242 52950
" />
<path d="M51242 52950
L51242 52163
" />
<path d="M52984 55200
L52492 55200
" />
<path d="M52492 55200
L52492 54413
" />
<path d="M52492 54413
L52984 54413
" />
<path d="M52984 54413
L52984 55200
" />
<path d="M51734 55200
L51242 55200
" />
<path d="M51242 55200
L51242 54413
" />
<path d="M51242 54413
L51734 54413
" />
<path d="M51734 54413
L51734 55200
" />
<path d="M54234 52950
L53742 52950
" />
<path d="M53742 52950
L53742 52163
" />
<path d="M53742 52163
L54234 52163
" />
<path d="M54234 52163
L54234 52950
" />
<path d="M49992 52163
L50484 52163
" />
<path d="M50484 52163
L50484 52950
" />
<path d="M50484 52950
L49992 52950
" />
<path d="M49992 52950
L49992 52163
" />
<path d="M49992 54413
L50484 54413
" />
<path d="M50484 54413
L50484 55200
" />
<path d="M50484 55200
L49992 55200
" />
<path d="M49992 55200
L49992 54413
" />
<path d="M53742 54413
L54234 54413
" />
<path d="M54234 54413
L54234 55200
" />
<path d="M54234 55200
L53742 55200
" />
<path d="M53742 55200
L53742 54413
" />
<path d="M44594 50303
L44594 49811
" />
<path d="M44594 49811
L45381 49811
" />
<path d="M45381 49811
L45381 50303
" />
<path d="M45381 50303
L44594 50303
" />
<path d="M41881 51061
L41881 51553
" />
<path d="M41881 51553
L41094 51553
" />
<path d="M41094 51553
L41094 51061
" />
<path d="M41094 51061
L41881 51061
" />
<path d="M40234 51450
L39742 51450
" />
<path d="M39742 51450
L39742 50663
" />
<path d="M39742 50663
L40234 50663
" />
<path d="M40234 50663
L40234 51450
" />
<path d="M38984 51450
L38492 51450
" />
<path d="M38492 51450
L38492 50663
" />
<path d="M38492 50663
L38984 50663
" />
<path d="M38984 50663
L38984 51450
" />
<path d="M37734 51450
L37242 51450
" />
<path d="M37242 51450
L37242 50663
" />
<path d="M37242 50663
L37734 50663
" />
<path d="M37734 50663
L37734 51450
" />
<path d="M36484 51450
L35992 51450
" />
<path d="M35992 51450
L35992 50663
" />
<path d="M35992 50663
L36484 50663
" />
<path d="M36484 50663
L36484 51450
" />
<path d="M40492 43913
L40984 43913
" />
<path d="M40984 43913
L40984 44700
" />
<path d="M40984 44700
L40492 44700
" />
<path d="M40492 44700
L40492 43913
" />
<path d="M34992 43913
L35484 43913
" />
<path d="M35484 43913
L35484 44700
" />
<path d="M35484 44700
L34992 44700
" />
<path d="M34992 44700
L34992 43913
" />
<path d="M49742 45913
L50234 45913
" />
<path d="M50234 45913
L50234 46700
" />
<path d="M50234 46700
L49742 46700
" />
<path d="M49742 46700
L49742 45913
" />
<path d="M48242 45913
L48734 45913
" />
<path d="M48734 45913
L48734 46700
" />
<path d="M48734 46700
L48242 46700
" />
<path d="M48242 46700
L48242 45913
" />
<path d="M46742 45913
L47234 45913
" />
<path d="M47234 45913
L47234 46700
" />
<path d="M47234 46700
L46742 46700
" />
<path d="M46742 46700
L46742 45913
" />
<path d="M44742 45913
L45234 45913
" />
<path d="M45234 45913
L45234 46700
" />
<path d="M45234 46700
L44742 46700
" />
<path d="M44742 46700
L44742 45913
" />
<path d="M43242 45901
L43734 45901
" />
<path d="M43734 45901
L43734 46688
" />
<path d="M43734 46688
L43242 46688
" />
<path d="M43242 46688
L43242 45901
" />
<path d="M41742 45913
L42234 45913
" />
<path d="M42234 45913
L42234 46700
" />
<path d="M42234 46700
L41742 46700
" />
<path d="M41742 46700
L41742 45913
" />
<path d="M48242 47913
L48734 47913
" />
<path d="M48734 47913
L48734 48700
" />
<path d="M48734 48700
L48242 48700
" />
<path d="M48242 48700
L48242 47913
" />
<path d="M50234 48700
L49742 48700
" />
<path d="M49742 48700
L49742 47913
" />
<path d="M49742 47913
L50234 47913
" />
<path d="M50234 47913
L50234 48700
" />
<path d="M43242 47913
L43734 47913
" />
<path d="M43734 47913
L43734 48700
" />
<path d="M43734 48700
L43242 48700
" />
<path d="M43242 48700
L43242 47913
" />
<path d="M45234 48700
L44742 48700
" />
<path d="M44742 48700
L44742 47913
" />
<path d="M44742 47913
L45234 47913
" />
<path d="M45234 47913
L45234 48700
" />
<path d="M43492 36975
L43984 36975
" />
<path d="M43984 36975
L43984 37762
" />
<path d="M43984 37762
L43492 37762
" />
<path d="M43492 37762
L43492 36975
" />
<path d="M40492 36913
L40984 36913
" />
<path d="M40984 36913
L40984 37700
" />
<path d="M40984 37700
L40492 37700
" />
<path d="M40492 37700
L40492 36913
" />
<path d="M41992 38913
L42484 38913
" />
<path d="M42484 38913
L42484 39700
" />
<path d="M42484 39700
L41992 39700
" />
<path d="M41992 39700
L41992 38913
" />
<path d="M40492 40913
L40984 40913
" />
<path d="M40984 40913
L40984 41700
" />
<path d="M40984 41700
L40492 41700
" />
<path d="M40492 41700
L40492 40913
" />
<path d="M54742 45913
L55234 45913
" />
<path d="M55234 45913
L55234 46700
" />
<path d="M55234 46700
L54742 46700
" />
<path d="M54742 46700
L54742 45913
" />
<path d="M53242 45913
L53734 45913
" />
<path d="M53734 45913
L53734 46700
" />
<path d="M53734 46700
L53242 46700
" />
<path d="M53242 46700
L53242 45913
" />
<path d="M51742 45913
L52234 45913
" />
<path d="M52234 45913
L52234 46700
" />
<path d="M52234 46700
L51742 46700
" />
<path d="M51742 46700
L51742 45913
" />
<path d="M53242 47913
L53734 47913
" />
<path d="M53734 47913
L53734 48700
" />
<path d="M53734 48700
L53242 48700
" />
<path d="M53242 48700
L53242 47913
" />
<path d="M55234 48700
L54742 48700
" />
<path d="M54742 48700
L54742 47913
" />
<path d="M54742 47913
L55234 47913
" />
<path d="M55234 47913
L55234 48700
" />
<path d="M59881 29811
L59881 30303
" />
<path d="M59881 30303
L59094 30303
" />
<path d="M59094 30303
L59094 29811
" />
<path d="M59094 29811
L59881 29811
" />
<path d="M56881 36561
L56881 37053
" />
<path d="M56881 37053
L56094 37053
" />
<path d="M56094 37053
L56094 36561
" />
<path d="M56094 36561
L56881 36561
" />
<path d="M79344 37303
L79344 36811
" />
<path d="M79344 36811
L80131 36811
" />
<path d="M80131 36811
L80131 37303
" />
<path d="M80131 37303
L79344 37303
" />
<path d="M66344 37303
L66344 36811
" />
<path d="M66344 36811
L67131 36811
" />
<path d="M67131 36811
L67131 37303
" />
<path d="M67131 37303
L66344 37303
" />
<path d="M79344 49803
L79344 49311
" />
<path d="M79344 49311
L80131 49311
" />
<path d="M80131 49311
L80131 49803
" />
<path d="M80131 49803
L79344 49803
" />
<path d="M66344 49803
L66344 49311
" />
<path d="M66344 49311
L67131 49311
" />
<path d="M67131 49311
L67131 49803
" />
<path d="M67131 49803
L66344 49803
" />
<path d="M59881 56311
L59881 56803
" />
<path d="M59881 56803
L59094 56803
" />
<path d="M59094 56803
L59094 56311
" />
<path d="M59094 56311
L59881 56311
" />
<path d="M56881 49561
L56881 50053
" />
<path d="M56881 50053
L56094 50053
" />
<path d="M56094 50053
L56094 49561
" />
<path d="M56094 49561
L56881 49561
" />
<path d="M44844 28803
L44844 28311
" />
<path d="M44844 28311
L45631 28311
" />
<path d="M45631 28311
L45631 28803
" />
<path d="M45631 28803
L44844 28803
" />
<path d="M44844 27553
L44844 27061
" />
<path d="M44844 27061
L45631 27061
" />
<path d="M45631 27061
L45631 27553
" />
<path d="M45631 27553
L44844 27553
" />
<path d="M45631 25811
L45631 26303
" />
<path d="M45631 26303
L44844 26303
" />
<path d="M44844 26303
L44844 25811
" />
<path d="M44844 25811
L45631 25811
" />
<path d="M38742 33913
L39234 33913
" />
<path d="M39234 33913
L39234 34700
" />
<path d="M39234 34700
L38742 34700
" />
<path d="M38742 34700
L38742 33913
" />
<path d="M42234 34700
L41742 34700
" />
<path d="M41742 34700
L41742 33913
" />
<path d="M41742 33913
L42234 33913
" />
<path d="M42234 33913
L42234 34700
" />
<path d="M39234 29750
L38742 29750
" />
<path d="M38742 29750
L38742 28963
" />
<path d="M38742 28963
L39234 28963
" />
<path d="M39234 28963
L39234 29750
" />
<path d="M53631 36561
L53631 37053
" />
<path d="M53631 37053
L52844 37053
" />
<path d="M52844 37053
L52844 36561
" />
<path d="M52844 36561
L53631 36561
" />
<path d="M44844 60803
L44844 60311
" />
<path d="M44844 60311
L45631 60311
" />
<path d="M45631 60311
L45631 60803
" />
<path d="M45631 60803
L44844 60803
" />
<path d="M44844 59553
L44844 59061
" />
<path d="M44844 59061
L45631 59061
" />
<path d="M45631 59061
L45631 59553
" />
<path d="M45631 59553
L44844 59553
" />
<path d="M45631 57811
L45631 58303
" />
<path d="M45631 58303
L44844 58303
" />
<path d="M44844 58303
L44844 57811
" />
<path d="M44844 57811
L45631 57811
" />
<path d="M54742 28163
L55234 28163
" />
<path d="M55234 28163
L55234 28950
" />
<path d="M55234 28950
L54742 28950
" />
<path d="M54742 28950
L54742 28163
" />
<path d="M62381 24561
L62381 25053
" />
<path d="M62381 25053
L61594 25053
" />
<path d="M61594 25053
L61594 24561
" />
<path d="M61594 24561
L62381 24561
" />
<path d="M54742 57663
L55234 57663
" />
<path d="M55234 57663
L55234 58450
" />
<path d="M55234 58450
L54742 58450
" />
<path d="M54742 58450
L54742 57663
" />
<path d="M61594 62053
L61594 61561
" />
<path d="M61594 61561
L62381 61561
" />
<path d="M62381 61561
L62381 62053
" />
<path d="M62381 62053
L61594 62053
" />
<path d="M38742 38663
L39234 38663
" />
<path d="M39234 38663
L39234 39450
" />
<path d="M39234 39450
L38742 39450
" />
<path d="M38742 39450
L38742 38663
" />
<path d="M36538 36061
L36538 36553
" />
<path d="M36538 36553
L35751 36553
" />
<path d="M35751 36553
L35751 36061
" />
<path d="M35751 36061
L36538 36061
" />
<path d="M42881 55561
L42881 56053
" />
<path d="M42881 56053
L42094 56053
" />
<path d="M42094 56053
L42094 55561
" />
<path d="M42094 55561
L42881 55561
" />
<path d="M49484 53950
L48992 53950
" />
<path d="M48992 53950
L48992 53163
" />
<path d="M48992 53163
L49484 53163
" />
<path d="M49484 53163
L49484 53950
" />
<path d="M45381 51061
L45381 51553
" />
<path d="M45381 51553
L44594 51553
" />
<path d="M44594 51553
L44594 51061
" />
<path d="M44594 51061
L45381 51061
" />
<path d="M41631 57061
L41631 57553
" />
<path d="M41631 57553
L40844 57553
" />
<path d="M40844 57553
L40844 57061
" />
<path d="M40844 57061
L41631 57061
" />
<path d="M35484 56042
L34992 56042
" />
<path d="M34992 56042
L34992 55254
" />
<path d="M34992 55254
L35484 55254
" />
<path d="M35484 55254
L35484 56042
" />
<path d="M40234 49450
L39742 49450
" />
<path d="M39742 49450
L39742 48663
" />
<path d="M39742 48663
L40234 48663
" />
<path d="M40234 48663
L40234 49450
" />
<path d="M40381 42561
L40381 43053
" />
<path d="M40381 43053
L39594 43053
" />
<path d="M39594 43053
L39594 42561
" />
<path d="M39594 42561
L40381 42561
" />
<path d="M40984 46700
L40492 46700
" />
<path d="M40492 46700
L40492 45913
" />
<path d="M40492 45913
L40984 45913
" />
<path d="M40984 45913
L40984 46700
" />
<path d="M35594 43053
L35594 42561
" />
<path d="M35594 42561
L36381 42561
" />
<path d="M36381 42561
L36381 43053
" />
<path d="M36381 43053
L35594 43053
" />
<path d="M35484 46700
L34992 46700
" />
<path d="M34992 46700
L34992 45913
" />
<path d="M34992 45913
L35484 45913
" />
<path d="M35484 45913
L35484 46700
" />
<path d="M38381 42561
L38381 43053
" />
<path d="M38381 43053
L37594 43053
" />
<path d="M37594 43053
L37594 42561
" />
<path d="M37594 42561
L38381 42561
" />
<path d="M41881 35561
L41881 36053
" />
<path d="M41881 36053
L41094 36053
" />
<path d="M41094 36053
L41094 35561
" />
<path d="M41094 35561
L41881 35561
" />
<path d="M41992 36913
L42484 36913
" />
<path d="M42484 36913
L42484 37700
" />
<path d="M42484 37700
L41992 37700
" />
<path d="M41992 37700
L41992 36913
" />
<path d="M41992 40913
L42484 40913
" />
<path d="M42484 40913
L42484 41700
" />
<path d="M42484 41700
L41992 41700
" />
<path d="M41992 41700
L41992 40913
" />
<path d="M40492 38913
L40984 38913
" />
<path d="M40984 38913
L40984 39700
" />
<path d="M40984 39700
L40492 39700
" />
<path d="M40492 39700
L40492 38913
" />
<path d="M45631 37561
L45631 38053
" />
<path d="M45631 38053
L44844 38053
" />
<path d="M44844 38053
L44844 37561
" />
<path d="M44844 37561
L45631 37561
" />
<circle cx="39988.2" cy="27307.1" r="787.402" /> 
<path d="M40834 26460
L40834 28153
" />
<path d="M39535 26460
L40834 26460
" />
<path d="M39535 28153
L40834 28153
" />
<path d="M39141 26854
L39141 27759
" />
<path d="M39141 26854
L39535 26460
" />
<path d="M39141 27759
L39535 28153
" />
<path d="M34588 42807
L34588 58807
" />
<path d="M32588 42807
L34588 42807
" />
<path d="M32588 58413
L32588 42807
" />
<path d="M32981 58807
L32588 58413
" />
<path d="M34588 58807
L32981 58807
" />
</g>
<g style="fill:#000000; fill-opacity:0.0; 
stroke:#000000; stroke-width:59.0551; stroke-opacity:1; 
stroke-linecap:round; stroke-linejoin:round;">
<path d="M37338 43836
L39031 43836
" />
<path d="M39031 43836
L39031 46277
" />
<path d="M39031 46277
L36944 46277
" />
<path d="M36944 46277
L36944 44230
" />
<path d="M36944 44230
L37338 43836
" />
</g>
<g style="fill:#000000; fill-opacity:0.0; 
stroke:#000000; stroke-width:47.2441; stroke-opacity:1; 
stroke-linecap:round; stroke-linejoin:round;">
<path d="M69633 35478
L70342 35478
" />
<path d="M70342 35478
L70342 35635
" />
<path d="M70342 35635
L69633 35635
" />
<path d="M69633 35635
L69633 35478
" />
<circle cx="69988.2" cy="35557.1" r="511.811" /> 
<path d="M69633 31978
L70342 31978
" />
<path d="M70342 31978
L70342 32135
" />
<path d="M70342 32135
L69633 32135
" />
<path d="M69633 32135
L69633 31978
" />
<circle cx="69988.2" cy="32057.1" r="511.811" /> 
<path d="M84383 35478
L85092 35478
" />
<path d="M85092 35478
L85092 35635
" />
<path d="M85092 35635
L84383 35635
" />
<path d="M84383 35635
L84383 35478
" />
<circle cx="84738.2" cy="35557.1" r="511.811" /> 
<path d="M39909 25911
L39909 25202
" />
<path d="M39909 25202
L40066 25202
" />
<path d="M40066 25202
L40066 25911
" />
<path d="M40066 25911
L39909 25911
" />
<circle cx="39988.2" cy="25557.1" r="511.811" /> 
<path d="M33409 28411
L33409 27702
" />
<path d="M33409 27702
L33566 27702
" />
<path d="M33566 27702
L33566 28411
" />
<path d="M33566 28411
L33409 28411
" />
<circle cx="33488.2" cy="28057.1" r="511.811" /> 
<path d="M33842 35635
L33133 35635
" />
<path d="M33133 35635
L33133 35478
" />
<path d="M33133 35478
L33842 35478
" />
<path d="M33842 35478
L33842 35635
" />
<circle cx="33488.2" cy="35557.1" r="511.811" /> 
<path d="M54490 36728
L55199 36728
" />
<path d="M55199 36728
L55199 36885
" />
<path d="M55199 36885
L54490 36885
" />
<path d="M54490 36885
L54490 36728
" />
<circle cx="54845.3" cy="36807.1" r="511.811" /> 
<path d="M51133 36728
L51842 36728
" />
<path d="M51842 36728
L51842 36885
" />
<path d="M51842 36885
L51133 36885
" />
<path d="M51133 36885
L51133 36728
" />
<circle cx="51488.2" cy="36807.1" r="511.811" /> 
<path d="M46633 37478
L47342 37478
" />
<path d="M47342 37478
L47342 37635
" />
<path d="M47342 37635
L46633 37635
" />
<path d="M46633 37635
L46633 37478
" />
<circle cx="46988.2" cy="37557.1" r="511.811" /> 
<path d="M84383 54478
L85092 54478
" />
<path d="M85092 54478
L85092 54635
" />
<path d="M85092 54635
L84383 54635
" />
<path d="M84383 54635
L84383 54478
" />
<circle cx="84738.2" cy="54557.1" r="511.811" /> 
<path d="M69633 50978
L70342 50978
" />
<path d="M70342 50978
L70342 51135
" />
<path d="M70342 51135
L69633 51135
" />
<path d="M69633 51135
L69633 50978
" />
<circle cx="69988.2" cy="51057.1" r="511.811" /> 
<path d="M69633 54478
L70342 54478
" />
<path d="M70342 54478
L70342 54635
" />
<path d="M70342 54635
L69633 54635
" />
<path d="M69633 54635
L69633 54478
" />
<circle cx="69988.2" cy="54557.1" r="511.811" /> 
<path d="M55133 25228
L55842 25228
" />
<path d="M55842 25228
L55842 25385
" />
<path d="M55842 25385
L55133 25385
" />
<path d="M55133 25385
L55133 25228
" />
<circle cx="55488.2" cy="25307.1" r="511.811" /> 
<path d="M55133 31228
L55842 31228
" />
<path d="M55842 31228
L55842 31385
" />
<path d="M55842 31385
L55133 31385
" />
<path d="M55133 31385
L55133 31228
" />
<circle cx="55488.2" cy="31307.1" r="511.811" /> 
<path d="M57633 25228
L58342 25228
" />
<path d="M58342 25228
L58342 25385
" />
<path d="M58342 25385
L57633 25385
" />
<path d="M57633 25385
L57633 25228
" />
<circle cx="57988.2" cy="25307.1" r="511.811" /> 
<path d="M68592 29635
L67883 29635
" />
<path d="M67883 29635
L67883 29478
" />
<path d="M67883 29478
L68592 29478
" />
<path d="M68592 29478
L68592 29635
" />
<circle cx="68238.2" cy="29557.1" r="511.811" /> 
<path d="M77842 25385
L77133 25385
" />
<path d="M77133 25385
L77133 25228
" />
<path d="M77133 25228
L77842 25228
" />
<path d="M77842 25228
L77842 25385
" />
<circle cx="77488.2" cy="25307.1" r="511.811" /> 
<path d="M90092 26885
L89383 26885
" />
<path d="M89383 26885
L89383 26728
" />
<path d="M89383 26728
L90092 26728
" />
<path d="M90092 26728
L90092 26885
" />
<circle cx="89738.2" cy="26807.1" r="511.811" /> 
<path d="M67883 56978
L68592 56978
" />
<path d="M68592 56978
L68592 57135
" />
<path d="M68592 57135
L67883 57135
" />
<path d="M67883 57135
L67883 56978
" />
<circle cx="68238.2" cy="57057.1" r="511.811" /> 
<path d="M77133 61228
L77842 61228
" />
<path d="M77842 61228
L77842 61385
" />
<path d="M77842 61385
L77133 61385
" />
<path d="M77133 61385
L77133 61228
" />
<circle cx="77488.2" cy="61307.1" r="511.811" /> 
<path d="M89383 59728
L90092 59728
" />
<path d="M90092 59728
L90092 59885
" />
<path d="M90092 59885
L89383 59885
" />
<path d="M89383 59885
L89383 59728
" />
<circle cx="89738.2" cy="59807.1" r="511.811" /> 
<path d="M55133 54978
L55842 54978
" />
<path d="M55842 54978
L55842 55135
" />
<path d="M55842 55135
L55133 55135
" />
<path d="M55133 55135
L55133 54978
" />
<circle cx="55488.2" cy="55057.1" r="511.811" /> 
<path d="M55133 61228
L55842 61228
" />
<path d="M55842 61228
L55842 61385
" />
<path d="M55842 61385
L55133 61385
" />
<path d="M55133 61385
L55133 61228
" />
<circle cx="55488.2" cy="61307.1" r="511.811" /> 
<path d="M57633 61228
L58342 61228
" />
<path d="M58342 61228
L58342 61385
" />
<path d="M58342 61385
L57633 61385
" />
<path d="M57633 61385
L57633 61228
" />
<circle cx="57988.2" cy="61307.1" r="511.811" /> 
<path d="M38242 36185
L37533 36185
" />
<path d="M37533 36185
L37533 36028
" />
<path d="M37533 36028
L38242 36028
" />
<path d="M38242 36028
L38242 36185
" />
<circle cx="37888.2" cy="36107.1" r="511.811" /> 
<path d="M51633 50728
L52342 50728
" />
<path d="M52342 50728
L52342 50885
" />
<path d="M52342 50885
L51633 50885
" />
<path d="M51633 50885
L51633 50728
" />
<circle cx="51988.2" cy="50807.1" r="511.811" /> 
<path d="M54092 50885
L53383 50885
" />
<path d="M53383 50885
L53383 50728
" />
<path d="M53383 50728
L54092 50728
" />
<path d="M54092 50728
L54092 50885
" />
<circle cx="53738.2" cy="50807.1" r="511.811" /> 
<path d="M48133 50728
L48842 50728
" />
<path d="M48842 50728
L48842 50885
" />
<path d="M48842 50885
L48133 50885
" />
<path d="M48133 50885
L48133 50728
" />
<circle cx="48488.2" cy="50807.1" r="511.811" /> 
<path d="M50592 50885
L49883 50885
" />
<path d="M49883 50885
L49883 50728
" />
<path d="M49883 50728
L50592 50728
" />
<path d="M50592 50728
L50592 50885
" />
<circle cx="50238.2" cy="50807.1" r="511.811" /> 
<path d="M54883 51478
L55592 51478
" />
<path d="M55592 51478
L55592 51635
" />
<path d="M55592 51635
L54883 51635
" />
<path d="M54883 51635
L54883 51478
" />
<circle cx="55238.2" cy="51557.1" r="511.811" /> 
<path d="M42633 57228
L43342 57228
" />
<path d="M43342 57228
L43342 57385
" />
<path d="M43342 57385
L42633 57385
" />
<path d="M42633 57385
L42633 57228
" />
<circle cx="42988.2" cy="57307.1" r="511.811" /> 
<path d="M47092 50885
L46383 50885
" />
<path d="M46383 50885
L46383 50728
" />
<path d="M46383 50728
L47092 50728
" />
<path d="M47092 50728
L47092 50885
" />
<circle cx="46738.2" cy="50807.1" r="511.811" /> 
<path d="M37633 47228
L38342 47228
" />
<path d="M38342 47228
L38342 47385
" />
<path d="M38342 47385
L37633 47385
" />
<path d="M37633 47385
L37633 47228
" />
<circle cx="37988.2" cy="47307.1" r="511.811" /> 
<path d="M52883 41228
L53592 41228
" />
<path d="M53592 41228
L53592 41385
" />
<path d="M53592 41385
L52883 41385
" />
<path d="M52883 41385
L52883 41228
" />
<circle cx="53238.2" cy="41307.1" r="511.811" /> 
<path d="M55092 41385
L54383 41385
" />
<path d="M54383 41385
L54383 41228
" />
<path d="M54383 41228
L55092 41228
" />
<path d="M55092 41228
L55092 41385
" />
<circle cx="54738.2" cy="41307.1" r="511.811" /> 
<path d="M83383 43228
L84092 43228
" />
<path d="M84092 43228
L84092 43385
" />
<path d="M84092 43385
L83383 43385
" />
<path d="M83383 43385
L83383 43228
" />
<circle cx="83738.2" cy="43307.1" r="511.811" /> 
</g>
<g style="fill:#000000; fill-opacity:0.0; 
stroke:#000000; stroke-width:39.3701; stroke-opacity:1; 
stroke-linecap:round; stroke-linejoin:round;">
<path d="M63478 29427
L63478 30687
" />
<path d="M63478 30687
L60998 30687
" />
<path d="M60998 30687
L60998 29427
" />
<path d="M60998 29427
L63478 29427
" />
<path d="M63478 55925
L63478 57185
" />
<path d="M63478 57185
L60998 57185
" />
<path d="M60998 57185
L60998 55925
" />
<path d="M60998 55925
L63478 55925
" />
<path d="M62929 35775
L62535 35775
" />
<path d="M62535 35775
L62535 31838
" />
<path d="M62535 31838
L62929 31838
" />
<path d="M62929 35775
L62929 31838
" />
<path d="M62929 31838
L66570 31838
" />
<path d="M66570 31838
L66570 35381
" />
<path d="M66570 35381
L66177 35775
" />
<path d="M66177 35775
L62929 35775
" />
<path d="M66570 35003
L68421 35003
" />
<path d="M68421 35003
L68421 34610
" />
<path d="M68421 34610
L66570 34610
" />
<path d="M66570 33003
L68421 33003
" />
<path d="M68421 33003
L68421 32610
" />
<path d="M68421 32610
L66570 32610
" />
<path d="M77929 35775
L77535 35775
" />
<path d="M77535 35775
L77535 31838
" />
<path d="M77535 31838
L77929 31838
" />
<path d="M77929 35775
L77929 31838
" />
<path d="M77929 31838
L81570 31838
" />
<path d="M81570 31838
L81570 35381
" />
<path d="M81570 35381
L81177 35775
" />
<path d="M81177 35775
L77929 35775
" />
<path d="M81570 35003
L83421 35003
" />
<path d="M83421 35003
L83421 34610
" />
<path d="M83421 34610
L81570 34610
" />
<path d="M81570 33003
L83421 33003
" />
<path d="M83421 33003
L83421 32610
" />
<path d="M83421 32610
L81570 32610
" />
<path d="M62929 54775
L62535 54775
" />
<path d="M62535 54775
L62535 50838
" />
<path d="M62535 50838
L62929 50838
" />
<path d="M62929 54775
L62929 50838
" />
<path d="M62929 50838
L66570 50838
" />
<path d="M66570 50838
L66570 54381
" />
<path d="M66570 54381
L66177 54775
" />
<path d="M66177 54775
L62929 54775
" />
<path d="M66570 54003
L68421 54003
" />
<path d="M68421 54003
L68421 53610
" />
<path d="M68421 53610
L66570 53610
" />
<path d="M66570 52003
L68421 52003
" />
<path d="M68421 52003
L68421 51610
" />
<path d="M68421 51610
L66570 51610
" />
<path d="M77929 54775
L77535 54775
" />
<path d="M77535 54775
L77535 50838
" />
<path d="M77535 50838
L77929 50838
" />
<path d="M77929 54775
L77929 50838
" />
<path d="M77929 50838
L81570 50838
" />
<path d="M81570 50838
L81570 54381
" />
<path d="M81570 54381
L81177 54775
" />
<path d="M81177 54775
L77929 54775
" />
<path d="M81570 54003
L83421 54003
" />
<path d="M83421 54003
L83421 53610
" />
<path d="M83421 53610
L81570 53610
" />
<path d="M81570 52003
L83421 52003
" />
<path d="M83421 52003
L83421 51610
" />
<path d="M83421 51610
L81570 51610
" />
<path d="M64763 26681
L64763 25716
" />
<path d="M64547 26905
L64212 26905
" />
<path d="M64763 26681
L64547 26905
" />
<path d="M64212 26905
L64212 25708
" />
<path d="M64763 25708
L64212 25708
" />
<path d="M59212 25933
L59212 26897
" />
<path d="M59429 25708
L59763 25708
" />
<path d="M59212 25933
L59429 25708
" />
<path d="M59763 25708
L59763 26905
" />
<path d="M59212 26905
L59763 26905
" />
<path d="M70929 30275
L70535 30275
" />
<path d="M70535 30275
L70535 26338
" />
<path d="M70535 26338
L70929 26338
" />
<path d="M70929 30275
L70929 26338
" />
<path d="M70929 26338
L74570 26338
" />
<path d="M74570 26338
L74570 29881
" />
<path d="M74570 29881
L74177 30275
" />
<path d="M74177 30275
L70929 30275
" />
<path d="M74570 29503
L76421 29503
" />
<path d="M76421 29503
L76421 29110
" />
<path d="M76421 29110
L74570 29110
" />
<path d="M74570 27503
L76421 27503
" />
<path d="M76421 27503
L76421 27110
" />
<path d="M76421 27110
L74570 27110
" />
<path d="M68362 26781
L67397 26781
" />
<path d="M68586 26998
L68586 27332
" />
<path d="M68362 26781
L68586 26998
" />
<path d="M68586 27332
L67389 27332
" />
<path d="M67389 26781
L67389 27332
" />
<path d="M84047 26338
L84440 26338
" />
<path d="M84440 26338
L84440 30275
" />
<path d="M84440 30275
L84047 30275
" />
<path d="M84047 26338
L84047 30275
" />
<path d="M84047 30275
L80405 30275
" />
<path d="M80405 30275
L80405 26732
" />
<path d="M80405 26732
L80799 26338
" />
<path d="M80799 26338
L84047 26338
" />
<path d="M80405 27110
L78555 27110
" />
<path d="M78555 27110
L78555 27503
" />
<path d="M78555 27503
L80405 27503
" />
<path d="M80405 29110
L78555 29110
" />
<path d="M78555 29110
L78555 29503
" />
<path d="M78555 29503
L80405 29503
" />
<path d="M70929 60275
L70535 60275
" />
<path d="M70535 60275
L70535 56338
" />
<path d="M70535 56338
L70929 56338
" />
<path d="M70929 60275
L70929 56338
" />
<path d="M70929 56338
L74570 56338
" />
<path d="M74570 56338
L74570 59881
" />
<path d="M74570 59881
L74177 60275
" />
<path d="M74177 60275
L70929 60275
" />
<path d="M74570 59503
L76421 59503
" />
<path d="M76421 59503
L76421 59110
" />
<path d="M76421 59110
L74570 59110
" />
<path d="M74570 57503
L76421 57503
" />
<path d="M76421 57503
L76421 57110
" />
<path d="M76421 57110
L74570 57110
" />
<path d="M67614 59832
L68578 59832
" />
<path d="M67389 59616
L67389 59281
" />
<path d="M67614 59832
L67389 59616
" />
<path d="M67389 59281
L68586 59281
" />
<path d="M68586 59832
L68586 59281
" />
<path d="M84047 56338
L84440 56338
" />
<path d="M84440 56338
L84440 60275
" />
<path d="M84440 60275
L84047 60275
" />
<path d="M84047 56338
L84047 60275
" />
<path d="M84047 60275
L80405 60275
" />
<path d="M80405 60275
L80405 56732
" />
<path d="M80405 56732
L80799 56338
" />
<path d="M80799 56338
L84047 56338
" />
<path d="M80405 57110
L78555 57110
" />
<path d="M78555 57110
L78555 57503
" />
<path d="M78555 57503
L80405 57503
" />
<path d="M80405 59110
L78555 59110
" />
<path d="M78555 59110
L78555 59503
" />
<path d="M78555 59503
L80405 59503
" />
<path d="M59212 59933
L59212 60897
" />
<path d="M59429 59708
L59763 59708
" />
<path d="M59212 59933
L59429 59708
" />
<path d="M59763 59708
L59763 60905
" />
<path d="M59212 60905
L59763 60905
" />
<path d="M64763 60681
L64763 59716
" />
<path d="M64547 60905
L64212 60905
" />
<path d="M64763 60681
L64547 60905
" />
<path d="M64212 60905
L64212 59708
" />
<path d="M64763 59708
L64212 59708
" />
<path d="M42864 50832
L43828 50832
" />
<path d="M42639 50616
L42639 50281
" />
<path d="M42864 50832
L42639 50616
" />
<path d="M42639 50281
L43836 50281
" />
<path d="M43836 50832
L43836 50281
" />
<path d="M38212 48683
L38212 49647
" />
<path d="M38429 48458
L38763 48458
" />
<path d="M38212 48683
L38429 48458
" />
<path d="M38763 48458
L38763 49655
" />
<path d="M38212 49655
L38763 49655
" />
<path d="M36763 49431
L36763 48466
" />
<path d="M36547 49655
L36212 49655
" />
<path d="M36763 49431
L36547 49655
" />
<path d="M36212 49655
L36212 48458
" />
<path d="M36763 48458
L36212 48458
" />
<path d="M37738 61807
L36988 61807
" />
<path d="M36988 61807
L36988 58807
" />
<path d="M36988 58807
L37988 58807
" />
<path d="M37988 58807
L37988 61557
" />
<path d="M37988 61557
L37738 61807
" />
<path d="M36238 61807
L35488 61807
" />
<path d="M35488 61807
L35488 58807
" />
<path d="M35488 58807
L36488 58807
" />
<path d="M36488 58807
L36488 61557
" />
<path d="M36488 61557
L36238 61807
" />
<path d="M39238 61807
L38488 61807
" />
<path d="M38488 61807
L38488 58807
" />
<path d="M38488 58807
L39488 58807
" />
<path d="M39488 58807
L39488 61557
" />
<path d="M39488 61557
L39238 61807
" />
<path d="M52988 32557
L53738 32557
" />
<path d="M53738 32557
L53738 35557
" />
<path d="M53738 35557
L52738 35557
" />
<path d="M52738 35557
L52738 32807
" />
<path d="M52738 32807
L52988 32557
" />
<path d="M54488 32557
L55238 32557
" />
<path d="M55238 32557
L55238 35557
" />
<path d="M55238 35557
L54238 35557
" />
<path d="M54238 35557
L54238 32807
" />
<path d="M54238 32807
L54488 32557
" />
<path d="M50238 44807
L49488 44807
" />
<path d="M49488 44807
L49488 42807
" />
<path d="M49488 42807
L50488 42807
" />
<path d="M50488 42807
L50488 44557
" />
<path d="M50488 44557
L50238 44807
" />
<path d="M48738 44807
L47988 44807
" />
<path d="M47988 44807
L47988 42807
" />
<path d="M47988 42807
L48988 42807
" />
<path d="M48988 42807
L48988 44557
" />
<path d="M48988 44557
L48738 44807
" />
<path d="M47238 44807
L46488 44807
" />
<path d="M46488 44807
L46488 42807
" />
<path d="M46488 42807
L47488 42807
" />
<path d="M47488 42807
L47488 44557
" />
<path d="M47488 44557
L47238 44807
" />
<path d="M45238 44807
L44488 44807
" />
<path d="M44488 44807
L44488 42807
" />
<path d="M44488 42807
L45488 42807
" />
<path d="M45488 42807
L45488 44557
" />
<path d="M45488 44557
L45238 44807
" />
<path d="M43738 44807
L42988 44807
" />
<path d="M42988 44807
L42988 42807
" />
<path d="M42988 42807
L43988 42807
" />
<path d="M43988 42807
L43988 44557
" />
<path d="M43988 44557
L43738 44807
" />
<path d="M42238 44807
L41488 44807
" />
<path d="M41488 44807
L41488 42807
" />
<path d="M41488 42807
L42488 42807
" />
<path d="M42488 42807
L42488 44557
" />
<path d="M42488 44557
L42238 44807
" />
<path d="M55238 44807
L54488 44807
" />
<path d="M54488 44807
L54488 42807
" />
<path d="M54488 42807
L55488 42807
" />
<path d="M55488 42807
L55488 44557
" />
<path d="M55488 44557
L55238 44807
" />
<path d="M53738 44807
L52988 44807
" />
<path d="M52988 44807
L52988 42807
" />
<path d="M52988 42807
L53988 42807
" />
<path d="M53988 42807
L53988 44557
" />
<path d="M53988 44557
L53738 44807
" />
<path d="M52238 44807
L51488 44807
" />
<path d="M51488 44807
L51488 42807
" />
<path d="M51488 42807
L52488 42807
" />
<path d="M52488 42807
L52488 44557
" />
<path d="M52488 44557
L52238 44807
" />
<path d="M53143 30147
L51332 30147
" />
<path d="M51332 30147
L51332 28966
" />
<path d="M53143 28966
L53143 30147
" />
<path d="M53143 28966
L51332 28966
" />
<path d="M51982 29557
L51627 29557
" />
<path d="M52435 29557
L52828 29557
" />
<path d="M51982 29242
L51982 29872
" />
<path d="M52435 29852
L52435 29242
" />
<path d="M51982 29557
L52435 29852
" />
<path d="M51982 29557
L52435 29242
" />
<path d="M53143 27147
L51332 27147
" />
<path d="M51332 27147
L51332 25966
" />
<path d="M53143 25966
L53143 27147
" />
<path d="M53143 25966
L51332 25966
" />
<path d="M51982 26557
L51627 26557
" />
<path d="M52435 26557
L52828 26557
" />
<path d="M51982 26242
L51982 26872
" />
<path d="M52435 26852
L52435 26242
" />
<path d="M51982 26557
L52435 26852
" />
<path d="M51982 26557
L52435 26242
" />
<path d="M47332 28966
L49143 28966
" />
<path d="M49143 28966
L49143 30147
" />
<path d="M47332 30147
L47332 28966
" />
<path d="M47332 30147
L49143 30147
" />
<path d="M48493 29556
L48848 29556
" />
<path d="M48040 29556
L47647 29556
" />
<path d="M48493 29871
L48493 29241
" />
<path d="M48040 29261
L48040 29871
" />
<path d="M48493 29556
L48040 29261
" />
<path d="M48493 29556
L48040 29871
" />
<path d="M49143 25647
L47332 25647
" />
<path d="M47332 25647
L47332 24466
" />
<path d="M49143 24466
L49143 25647
" />
<path d="M49143 24466
L47332 24466
" />
<path d="M47982 25057
L47627 25057
" />
<path d="M48435 25057
L48828 25057
" />
<path d="M47982 24742
L47982 25372
" />
<path d="M48435 25352
L48435 24742
" />
<path d="M47982 25057
L48435 25352
" />
<path d="M47982 25057
L48435 24742
" />
<path d="M36332 25216
L38143 25216
" />
<path d="M38143 25216
L38143 26397
" />
<path d="M36332 26397
L36332 25216
" />
<path d="M36332 26397
L38143 26397
" />
<path d="M37493 25806
L37848 25806
" />
<path d="M37040 25806
L36647 25806
" />
<path d="M37493 26121
L37493 25491
" />
<path d="M37040 25511
L37040 26121
" />
<path d="M37493 25806
L37040 25511
" />
<path d="M37493 25806
L37040 26121
" />
<path d="M74143 32897
L72332 32897
" />
<path d="M72332 32897
L72332 31716
" />
<path d="M74143 31716
L74143 32897
" />
<path d="M74143 31716
L72332 31716
" />
<path d="M72982 32307
L72627 32307
" />
<path d="M73435 32307
L73828 32307
" />
<path d="M72982 31992
L72982 32622
" />
<path d="M73435 32602
L73435 31992
" />
<path d="M72982 32307
L73435 32602
" />
<path d="M72982 32307
L73435 31992
" />
<path d="M74143 54897
L72332 54897
" />
<path d="M72332 54897
L72332 53716
" />
<path d="M74143 53716
L74143 54897
" />
<path d="M74143 53716
L72332 53716
" />
<path d="M72982 54307
L72627 54307
" />
<path d="M73435 54307
L73828 54307
" />
<path d="M72982 53992
L72982 54622
" />
<path d="M73435 54602
L73435 53992
" />
<path d="M72982 54307
L73435 54602
" />
<path d="M72982 54307
L73435 53992
" />
<path d="M53143 62147
L51332 62147
" />
<path d="M51332 62147
L51332 60966
" />
<path d="M53143 60966
L53143 62147
" />
<path d="M53143 60966
L51332 60966
" />
<path d="M51982 61557
L51627 61557
" />
<path d="M52435 61557
L52828 61557
" />
<path d="M51982 61242
L51982 61872
" />
<path d="M52435 61852
L52435 61242
" />
<path d="M51982 61557
L52435 61852
" />
<path d="M51982 61557
L52435 61242
" />
<path d="M53143 59147
L51332 59147
" />
<path d="M51332 59147
L51332 57966
" />
<path d="M53143 57966
L53143 59147
" />
<path d="M53143 57966
L51332 57966
" />
<path d="M51982 58557
L51627 58557
" />
<path d="M52435 58557
L52828 58557
" />
<path d="M51982 58242
L51982 58872
" />
<path d="M52435 58852
L52435 58242
" />
<path d="M51982 58557
L52435 58852
" />
<path d="M51982 58557
L52435 58242
" />
<path d="M47332 60966
L49143 60966
" />
<path d="M49143 60966
L49143 62147
" />
<path d="M47332 62147
L47332 60966
" />
<path d="M47332 62147
L49143 62147
" />
<path d="M48493 61556
L48848 61556
" />
<path d="M48040 61556
L47647 61556
" />
<path d="M48493 61871
L48493 61241
" />
<path d="M48040 61261
L48040 61871
" />
<path d="M48493 61556
L48040 61261
" />
<path d="M48493 61556
L48040 61871
" />
<path d="M49143 57647
L47332 57647
" />
<path d="M47332 57647
L47332 56466
" />
<path d="M49143 56466
L49143 57647
" />
<path d="M49143 56466
L47332 56466
" />
<path d="M47982 57057
L47627 57057
" />
<path d="M48435 57057
L48828 57057
" />
<path d="M47982 56742
L47982 57372
" />
<path d="M48435 57352
L48435 56742
" />
<path d="M47982 57057
L48435 57352
" />
<path d="M47982 57057
L48435 56742
" />
<path d="M75139 25057
L74942 25057
" />
<path d="M75139 24899
L75375 25057
" />
<path d="M75139 25214
L75139 24899
" />
<path d="M75375 25057
L75139 25214
" />
<path d="M75375 25057
L75375 24840
" />
<path d="M75375 25057
L75375 25273
" />
<path d="M75533 25057
L75375 25057
" />
<path d="M75789 24702
L75789 25411
" />
<path d="M74687 24702
L75789 24702
" />
<path d="M74687 25411
L74687 24702
" />
<path d="M75789 25411
L74687 25411
" />
<path d="M70836 25057
L71033 25057
" />
<path d="M70836 25214
L70600 25057
" />
<path d="M70836 24899
L70836 25214
" />
<path d="M70600 25057
L70836 24899
" />
<path d="M70600 25057
L70600 25273
" />
<path d="M70600 25057
L70600 24840
" />
<path d="M70442 25057
L70600 25057
" />
<path d="M70187 25411
L70187 24702
" />
<path d="M71289 25411
L70187 25411
" />
<path d="M71289 24702
L71289 25411
" />
<path d="M70187 24702
L71289 24702
" />
<path d="M79836 25057
L80033 25057
" />
<path d="M79836 25214
L79600 25057
" />
<path d="M79836 24899
L79836 25214
" />
<path d="M79600 25057
L79836 24899
" />
<path d="M79600 25057
L79600 25273
" />
<path d="M79600 25057
L79600 24840
" />
<path d="M79442 25057
L79600 25057
" />
<path d="M79187 25411
L79187 24702
" />
<path d="M80289 25411
L79187 25411
" />
<path d="M80289 24702
L80289 25411
" />
<path d="M79187 24702
L80289 24702
" />
<path d="M75139 61557
L74942 61557
" />
<path d="M75139 61399
L75375 61557
" />
<path d="M75139 61714
L75139 61399
" />
<path d="M75375 61557
L75139 61714
" />
<path d="M75375 61557
L75375 61340
" />
<path d="M75375 61557
L75375 61773
" />
<path d="M75533 61557
L75375 61557
" />
<path d="M75789 61202
L75789 61911
" />
<path d="M74687 61202
L75789 61202
" />
<path d="M74687 61911
L74687 61202
" />
<path d="M75789 61911
L74687 61911
" />
<path d="M70836 61557
L71033 61557
" />
<path d="M70836 61714
L70600 61557
" />
<path d="M70836 61399
L70836 61714
" />
<path d="M70600 61557
L70836 61399
" />
<path d="M70600 61557
L70600 61773
" />
<path d="M70600 61557
L70600 61340
" />
<path d="M70442 61557
L70600 61557
" />
<path d="M70187 61911
L70187 61202
" />
<path d="M71289 61911
L70187 61911
" />
<path d="M71289 61202
L71289 61911
" />
<path d="M70187 61202
L71289 61202
" />
<path d="M79836 61557
L80033 61557
" />
<path d="M79836 61714
L79600 61557
" />
<path d="M79836 61399
L79836 61714
" />
<path d="M79600 61557
L79836 61399
" />
<path d="M79600 61557
L79600 61773
" />
<path d="M79600 61557
L79600 61340
" />
<path d="M79442 61557
L79600 61557
" />
<path d="M79187 61911
L79187 61202
" />
<path d="M80289 61911
L79187 61911
" />
<path d="M80289 61202
L80289 61911
" />
<path d="M79187 61202
L80289 61202
" />
<circle cx="58503.9" cy="33807.1" r="2460.63" /> 
<path d="M60616 34884
L60124 34884
" />
<path d="M60370 35130
L60370 34638
" />
<circle cx="58488.2" cy="39822.8" r="2460.63" /> 
<path d="M59565 37710
L59565 38202
" />
<path d="M59812 37956
L59319 37956
" />
<circle cx="64488.2" cy="39791.3" r="2460.63" /> 
<path d="M65565 37678
L65565 38170
" />
<path d="M65812 37924
L65319 37924
" />
<circle cx="58503.9" cy="52807.1" r="2460.63" /> 
<path d="M60616 53884
L60124 53884
" />
<path d="M60370 54130
L60370 53638
" />
<circle cx="58488.2" cy="46791.3" r="2460.63" /> 
<path d="M57410 48904
L57410 48412
" />
<path d="M57164 48658
L57656 48658
" />
<circle cx="64488.2" cy="46791.3" r="2460.63" /> 
<path d="M63410 48904
L63410 48412
" />
<path d="M63164 48658
L63656 48658
" />
<path d="M36118 27742
L36118 28372
" />
<path d="M36118 28372
L34858 28372
" />
<path d="M34858 28372
L34858 27742
" />
<path d="M34858 27742
L36118 27742
" />
<g >
</g>
<g >
</g>
<g >
</g>
<g >
</g>
<g >
</g>
<g >
</g>
<g >
</g>
<g >
</g>
<g >
</g>
<g >
</g>
<g >
</g>
<g >
</g>
<g >
</g>
<g >
</g>
<g >
</g>
<g >
</g>
<g >
</g>
<g >
</g>
<g >
</g>
<g >
</g>
<g >
</g>
<g >
</g>
<g >
</g>
<g >
</g>
<g >
</g>
<g >
</g>
<g >
</g>
<g >
</g>
<g >
</g>
<g >
</g>
<g >
</g>
<g >
</g>
<g >
</g>
<g >
</g>
<g >
</g>
<g >
</g>
<g >
</g>
<g >
</g>
<g >
</g>
<g >
</g>
<g >
</g>
<g >
</g>
<g >
</g>
<g >
</g>
<g >
</g>
<g >
</g>
<g >
</g>
<g >
</g>
<g >
</g>
<g >
</g>
<g >
</g>
<g >
</g>
<g >
</g>
<g >
</g>
<g >
</g>
<g >
</g>
<g >
</g>
<g >
</g>
<g >
</g>
<g >
</g>
<g >
</g>
<g >
</g>
<g >
</g>
<g >
</g>
<g >
</g>
<g >
</g>
<g >
</g>
<g >
</g>
<g >
</g>
<g >
</g>
<g >
</g>
<g >
</g>
<g >
</g>
<g >
</g>
<g >
</g>
<g >
</g>
<g >
</g>
<g >
</g>
<g >
</g>
<g >
</g>
<g >
</g>
<g >
</g>
<g >
</g>
<g >
</g>
<g >
</g>
<g >
</g>
<g >
</g>
<g >
</g>
<g >
</g>
<g >
</g>
<g >
</g>
<g >
</g>
<g >
</g>
<g >
</g>
<g >
</g>
<g >
</g>
<g >
</g>
<g >
</g>
<g >
</g>
<g >
</g>
<g >
</g>
<g >
</g>
<g >
</g>
<g >
</g>
<g >
</g>
<g >
</g>
<g >
</g>
<g >
</g>
<g >
</g>
<g >
</g>
<g >
</g>
<g >
</g>
<g >
</g>
<g >
</g>
<g >
</g>
<g >
</g>
<g >
</g>
<g >
</g>
<g >
</g>
<g >
</g>
<g >
</g>
<g >
</g>
<g >
</g>
<g >
</g>
<g >
</g>
<g >
</g>
<g >
</g>
<g >
</g>
<g >
</g>
<g >
</g>
<g >
</g>
<g >
</g>
<g >
</g>
<g >
</g>
<g >
</g>
<g >
</g>
<g >
</g>
<g >
</g>
<g >
</g>
<g >
</g>
<g >
</g>
<g >
</g>
<g >
</g>
<g >
</g>
<g >
</g>
<g >
</g>
<g >
</g>
<g >
</g>
<g >
</g>
<g >
</g>
<g >
</g>
<g >
</g>
<g >
</g>
<g >
</g>
<g >
</g>
<g >
</g>
<g >
</g>
<g >
</g>
<g >
</g>
<g >
</g>
<g >
</g>
<g >
</g>
<g >
</g>
<g >
</g>
<g >
</g>
<g >
</g>
<g >
</g>
<g >
</g>
<g >
</g>
<g >
</g>
<g >
</g>
<g >
</g>
<g >
</g>
<g >
</g>
<g >
</g>
<g >
</g>
<g >
</g>
<g >
</g>
<g >
</g>
<g >
</g>
<g >
</g>
<g >
</g>
<g >
</g>
<g >
</g>
<g >
</g>
<g >
</g>
<g >
</g>
<g >
</g>
<g >
</g>
<g >
</g>
<g >
</g>
<g >
</g>
<g >
</g>
<g >
</g>
<g >
</g>
<g >
</g>
<g >
</g>
<g >
</g>
<g >
</g>
<g >
</g>
<g >
</g>
<g >
</g>
<g >
</g>
<g >
</g>
<g >
</g>
<g >
</g>
<g >
</g>
<g >
</g>
<g >
</g>
<g >
</g>
<g >
</g>
<g >
</g>
<g >
</g>
<g >
</g>
<g >
</g>
<g >
</g>
<g >
</g>
<g >
</g>
<g >
</g>
<g >
</g>
<g >
</g>
<g >
</g>
<g >
</g>
<g >
</g>
<g >
</g>
<g >
</g>
<g >
</g>
<g >
</g>
<g >
</g>
<g >
</g>
<g >
</g>
<g >
</g>
<g >
</g>
<g >
</g>
<g >
</g>
<g >
</g>
<g >
</g>
<g >
</g>
<g >
</g>
<g >
</g>
<g >
</g>
<g >
</g>
<g >
</g>
<g >
</g>
<g >
</g>
<g >
</g>
<g >
</g>
<g >
</g>
<g >
</g>
<g >
</g>
<g >
</g>
<g >
</g>
<g >
</g>
<g >
</g>
<g >
</g>
<g >
</g>
<g >
</g>
<g >
</g>
<g >
</g>
<g >
</g>
<g >
</g>
<g >
</g>
<g >
</g>
<g >
</g>
<g >
</g>
<g >
</g>
<g >
</g>
<g >
</g>
<g >
</g>
<g >
</g>
<g >
</g>
<g >
</g>
<g >
</g>
<g >
</g>
<g >
</g>
<g >
</g>
<g >
</g>
<g >
</g>
<g >
</g>
<g >
</g>
<g >
</g>
<g >
</g>
<g >
</g>
<g >
</g>
<g >
</g>
<g >
</g>
<g >
</g>
<g >
</g>
<g >
</g>
<g >
</g>
<g >
</g>
<g >
</g>
<g >
</g>
<g >
</g>
<g >
</g>
<g >
</g>
<g >
</g>
</g>
<g style="fill:#000000; fill-opacity:0.0; 
stroke:#000000; stroke-width:39.3701; stroke-opacity:1; 
stroke-linecap:round; stroke-linejoin:round;">
</g>
<g style="fill:#000000; fill-opacity:0.0; 
stroke:#000000; stroke-width:50; stroke-opacity:1; 
stroke-linecap:round; stroke-linejoin:round;">
<text x="87715.7" y="25257.1"
textLength="457.724" font-size="533.333" lengthAdjust="spacingAndGlyphs"
text-anchor="middle" opacity="0">2</text>
<path d="M87601 24876
L87620 24857
L87658 24838
L87753 24838
L87791 24857
L87810 24876
L87830 24914
L87830 24952
L87810 25009
L87582 25238
L87830 25238
" />
<text x="86770.9" y="25257.1"
textLength="445.952" font-size="533.333" lengthAdjust="spacingAndGlyphs"
text-anchor="middle" opacity="0">1</text>
<path d="M86885 25238
L86656 25238
" />
<path d="M86770 25238
L86770 24838
L86732 24895
L86694 24933
L86656 24952
" />
<text x="89605.5" y="25257.1"
transform="scale(-1 1) translate(-179211.023622 0)"
textLength="315.952" font-size="533.333" lengthAdjust="spacingAndGlyphs"
text-anchor="middle" opacity="0">4</text>
<path d="M89529 24971
L89529 25238
" />
<path d="M89624 24818
L89719 25104
L89472 25104
" />
<text x="88660.6" y="25257.1"
transform="scale(-1 1) translate(-177321.259843 0)"
textLength="315.952" font-size="533.333" lengthAdjust="spacingAndGlyphs"
text-anchor="middle" opacity="0">3</text>
<path d="M88793 24838
L88546 24838
L88679 24990
L88622 24990
L88584 25009
L88565 25028
L88546 25066
L88546 25161
L88565 25199
L88584 25218
L88622 25238
L88736 25238
L88774 25218
L88793 25199
" />
<text x="88188.2" y="25257.1"
textLength="3417.38" font-size="533.333" lengthAdjust="spacingAndGlyphs"
text-anchor="middle" opacity="0">           </text>
<text x="88188.2" y="25257.1"
transform="scale(-1 1) translate(-176376.377953 0)"
textLength="3287.38" font-size="533.333" lengthAdjust="spacingAndGlyphs"
text-anchor="middle" opacity="0">           </text>
<g >
</g>
</g> 
</svg>
