%TF.GenerationSoftware,KiCad,Pcbnew,(5.1.10-1-10_14)*%
%TF.CreationDate,2021-10-01T13:06:55+02:00*%
%TF.ProjectId,sesame-fonctionnel,73657361-6d65-42d6-966f-6e6374696f6e,A*%
%TF.SameCoordinates,Original*%
%TF.FileFunction,Soldermask,Bot*%
%TF.FilePolarity,Negative*%
%FSLAX46Y46*%
G04 Gerber Fmt 4.6, Leading zero omitted, Abs format (unit mm)*
G04 Created by KiCad (PCBNEW (5.1.10-1-10_14)) date 2021-10-01 13:06:55*
%MOMM*%
%LPD*%
G01*
G04 APERTURE LIST*
%ADD10C,0.100000*%
%ADD11C,0.150000*%
%ADD12C,0.300000*%
%ADD13C,0.400000*%
%ADD14C,6.000000*%
%ADD15C,3.000000*%
%ADD16O,3.300000X4.300000*%
%ADD17R,1.000000X1.500000*%
%ADD18C,2.000000*%
%ADD19C,6.800000*%
%ADD20O,1.700000X1.700000*%
%ADD21R,1.700000X1.700000*%
%ADD22C,2.400000*%
%ADD23R,2.400000X2.400000*%
G04 APERTURE END LIST*
D10*
D11*
X177002200Y-166007200D02*
X177002200Y-198007200D01*
X285002200Y-198007200D01*
X285002200Y-166007200D01*
X177002200Y-166007200D01*
D10*
D11*
X10000000Y-10000000D02*
X10000000Y-200007200D01*
X287002200Y-200007200D01*
X287002200Y-10000000D01*
X10000000Y-10000000D01*
D10*
D11*
X12000000Y-12000000D02*
X12000000Y-198007200D01*
X285002200Y-198007200D01*
X285002200Y-12000000D01*
X12000000Y-12000000D01*
D10*
D11*
X60000000Y-12000000D02*
X60000000Y-10000000D01*
D10*
D11*
X110000000Y-12000000D02*
X110000000Y-10000000D01*
D10*
D11*
X160000000Y-12000000D02*
X160000000Y-10000000D01*
D10*
D11*
X210000000Y-12000000D02*
X210000000Y-10000000D01*
D10*
D11*
X260000000Y-12000000D02*
X260000000Y-10000000D01*
D10*
D11*
X36065476Y-11588095D02*
X35322619Y-11588095D01*
X35694047Y-11588095D02*
X35694047Y-10288095D01*
X35570238Y-10473809D01*
X35446428Y-10597619D01*
X35322619Y-10659523D01*
D10*
D11*
X85322619Y-10411904D02*
X85384523Y-10350000D01*
X85508333Y-10288095D01*
X85817857Y-10288095D01*
X85941666Y-10350000D01*
X86003571Y-10411904D01*
X86065476Y-10535714D01*
X86065476Y-10659523D01*
X86003571Y-10845238D01*
X85260714Y-11588095D01*
X86065476Y-11588095D01*
D10*
D11*
X135260714Y-10288095D02*
X136065476Y-10288095D01*
X135632142Y-10783333D01*
X135817857Y-10783333D01*
X135941666Y-10845238D01*
X136003571Y-10907142D01*
X136065476Y-11030952D01*
X136065476Y-11340476D01*
X136003571Y-11464285D01*
X135941666Y-11526190D01*
X135817857Y-11588095D01*
X135446428Y-11588095D01*
X135322619Y-11526190D01*
X135260714Y-11464285D01*
D10*
D11*
X185941666Y-10721428D02*
X185941666Y-11588095D01*
X185632142Y-10226190D02*
X185322619Y-11154761D01*
X186127380Y-11154761D01*
D10*
D11*
X236003571Y-10288095D02*
X235384523Y-10288095D01*
X235322619Y-10907142D01*
X235384523Y-10845238D01*
X235508333Y-10783333D01*
X235817857Y-10783333D01*
X235941666Y-10845238D01*
X236003571Y-10907142D01*
X236065476Y-11030952D01*
X236065476Y-11340476D01*
X236003571Y-11464285D01*
X235941666Y-11526190D01*
X235817857Y-11588095D01*
X235508333Y-11588095D01*
X235384523Y-11526190D01*
X235322619Y-11464285D01*
D10*
D11*
X285941666Y-10288095D02*
X285694047Y-10288095D01*
X285570238Y-10350000D01*
X285508333Y-10411904D01*
X285384523Y-10597619D01*
X285322619Y-10845238D01*
X285322619Y-11340476D01*
X285384523Y-11464285D01*
X285446428Y-11526190D01*
X285570238Y-11588095D01*
X285817857Y-11588095D01*
X285941666Y-11526190D01*
X286003571Y-11464285D01*
X286065476Y-11340476D01*
X286065476Y-11030952D01*
X286003571Y-10907142D01*
X285941666Y-10845238D01*
X285817857Y-10783333D01*
X285570238Y-10783333D01*
X285446428Y-10845238D01*
X285384523Y-10907142D01*
X285322619Y-11030952D01*
D10*
D11*
X60000000Y-198007200D02*
X60000000Y-200007200D01*
D10*
D11*
X110000000Y-198007200D02*
X110000000Y-200007200D01*
D10*
D11*
X160000000Y-198007200D02*
X160000000Y-200007200D01*
D10*
D11*
X210000000Y-198007200D02*
X210000000Y-200007200D01*
D10*
D11*
X260000000Y-198007200D02*
X260000000Y-200007200D01*
D10*
D11*
X36065476Y-199595295D02*
X35322619Y-199595295D01*
X35694047Y-199595295D02*
X35694047Y-198295295D01*
X35570238Y-198481009D01*
X35446428Y-198604819D01*
X35322619Y-198666723D01*
D10*
D11*
X85322619Y-198419104D02*
X85384523Y-198357200D01*
X85508333Y-198295295D01*
X85817857Y-198295295D01*
X85941666Y-198357200D01*
X86003571Y-198419104D01*
X86065476Y-198542914D01*
X86065476Y-198666723D01*
X86003571Y-198852438D01*
X85260714Y-199595295D01*
X86065476Y-199595295D01*
D10*
D11*
X135260714Y-198295295D02*
X136065476Y-198295295D01*
X135632142Y-198790533D01*
X135817857Y-198790533D01*
X135941666Y-198852438D01*
X136003571Y-198914342D01*
X136065476Y-199038152D01*
X136065476Y-199347676D01*
X136003571Y-199471485D01*
X135941666Y-199533390D01*
X135817857Y-199595295D01*
X135446428Y-199595295D01*
X135322619Y-199533390D01*
X135260714Y-199471485D01*
D10*
D11*
X185941666Y-198728628D02*
X185941666Y-199595295D01*
X185632142Y-198233390D02*
X185322619Y-199161961D01*
X186127380Y-199161961D01*
D10*
D11*
X236003571Y-198295295D02*
X235384523Y-198295295D01*
X235322619Y-198914342D01*
X235384523Y-198852438D01*
X235508333Y-198790533D01*
X235817857Y-198790533D01*
X235941666Y-198852438D01*
X236003571Y-198914342D01*
X236065476Y-199038152D01*
X236065476Y-199347676D01*
X236003571Y-199471485D01*
X235941666Y-199533390D01*
X235817857Y-199595295D01*
X235508333Y-199595295D01*
X235384523Y-199533390D01*
X235322619Y-199471485D01*
D10*
D11*
X285941666Y-198295295D02*
X285694047Y-198295295D01*
X285570238Y-198357200D01*
X285508333Y-198419104D01*
X285384523Y-198604819D01*
X285322619Y-198852438D01*
X285322619Y-199347676D01*
X285384523Y-199471485D01*
X285446428Y-199533390D01*
X285570238Y-199595295D01*
X285817857Y-199595295D01*
X285941666Y-199533390D01*
X286003571Y-199471485D01*
X286065476Y-199347676D01*
X286065476Y-199038152D01*
X286003571Y-198914342D01*
X285941666Y-198852438D01*
X285817857Y-198790533D01*
X285570238Y-198790533D01*
X285446428Y-198852438D01*
X285384523Y-198914342D01*
X285322619Y-199038152D01*
D10*
D11*
X10000000Y-60000000D02*
X12000000Y-60000000D01*
D10*
D11*
X10000000Y-110000000D02*
X12000000Y-110000000D01*
D10*
D11*
X10000000Y-160000000D02*
X12000000Y-160000000D01*
D10*
D11*
X10690476Y-35216666D02*
X11309523Y-35216666D01*
X10566666Y-35588095D02*
X11000000Y-34288095D01*
X11433333Y-35588095D01*
D10*
D11*
X11092857Y-84907142D02*
X11278571Y-84969047D01*
X11340476Y-85030952D01*
X11402380Y-85154761D01*
X11402380Y-85340476D01*
X11340476Y-85464285D01*
X11278571Y-85526190D01*
X11154761Y-85588095D01*
X10659523Y-85588095D01*
X10659523Y-84288095D01*
X11092857Y-84288095D01*
X11216666Y-84350000D01*
X11278571Y-84411904D01*
X11340476Y-84535714D01*
X11340476Y-84659523D01*
X11278571Y-84783333D01*
X11216666Y-84845238D01*
X11092857Y-84907142D01*
X10659523Y-84907142D01*
D10*
D11*
X11402380Y-135464285D02*
X11340476Y-135526190D01*
X11154761Y-135588095D01*
X11030952Y-135588095D01*
X10845238Y-135526190D01*
X10721428Y-135402380D01*
X10659523Y-135278571D01*
X10597619Y-135030952D01*
X10597619Y-134845238D01*
X10659523Y-134597619D01*
X10721428Y-134473809D01*
X10845238Y-134350000D01*
X11030952Y-134288095D01*
X11154761Y-134288095D01*
X11340476Y-134350000D01*
X11402380Y-134411904D01*
D10*
D11*
X10659523Y-185588095D02*
X10659523Y-184288095D01*
X10969047Y-184288095D01*
X11154761Y-184350000D01*
X11278571Y-184473809D01*
X11340476Y-184597619D01*
X11402380Y-184845238D01*
X11402380Y-185030952D01*
X11340476Y-185278571D01*
X11278571Y-185402380D01*
X11154761Y-185526190D01*
X10969047Y-185588095D01*
X10659523Y-185588095D01*
D10*
D11*
X287002200Y-60000000D02*
X285002200Y-60000000D01*
D10*
D11*
X287002200Y-110000000D02*
X285002200Y-110000000D01*
D10*
D11*
X287002200Y-160000000D02*
X285002200Y-160000000D01*
D10*
D11*
X285692676Y-35216666D02*
X286311723Y-35216666D01*
X285568866Y-35588095D02*
X286002200Y-34288095D01*
X286435533Y-35588095D01*
D10*
D11*
X286095057Y-84907142D02*
X286280771Y-84969047D01*
X286342676Y-85030952D01*
X286404580Y-85154761D01*
X286404580Y-85340476D01*
X286342676Y-85464285D01*
X286280771Y-85526190D01*
X286156961Y-85588095D01*
X285661723Y-85588095D01*
X285661723Y-84288095D01*
X286095057Y-84288095D01*
X286218866Y-84350000D01*
X286280771Y-84411904D01*
X286342676Y-84535714D01*
X286342676Y-84659523D01*
X286280771Y-84783333D01*
X286218866Y-84845238D01*
X286095057Y-84907142D01*
X285661723Y-84907142D01*
D10*
D11*
X286404580Y-135464285D02*
X286342676Y-135526190D01*
X286156961Y-135588095D01*
X286033152Y-135588095D01*
X285847438Y-135526190D01*
X285723628Y-135402380D01*
X285661723Y-135278571D01*
X285599819Y-135030952D01*
X285599819Y-134845238D01*
X285661723Y-134597619D01*
X285723628Y-134473809D01*
X285847438Y-134350000D01*
X286033152Y-134288095D01*
X286156961Y-134288095D01*
X286342676Y-134350000D01*
X286404580Y-134411904D01*
D10*
D11*
X285661723Y-185588095D02*
X285661723Y-184288095D01*
X285971247Y-184288095D01*
X286156961Y-184350000D01*
X286280771Y-184473809D01*
X286342676Y-184597619D01*
X286404580Y-184845238D01*
X286404580Y-185030952D01*
X286342676Y-185278571D01*
X286280771Y-185402380D01*
X286156961Y-185526190D01*
X285971247Y-185588095D01*
X285661723Y-185588095D01*
D10*
D11*
X200434342Y-193785771D02*
X200434342Y-192285771D01*
X200791485Y-192285771D01*
X201005771Y-192357200D01*
X201148628Y-192500057D01*
X201220057Y-192642914D01*
X201291485Y-192928628D01*
X201291485Y-193142914D01*
X201220057Y-193428628D01*
X201148628Y-193571485D01*
X201005771Y-193714342D01*
X200791485Y-193785771D01*
X200434342Y-193785771D01*
X202577200Y-193785771D02*
X202577200Y-193000057D01*
X202505771Y-192857200D01*
X202362914Y-192785771D01*
X202077200Y-192785771D01*
X201934342Y-192857200D01*
X202577200Y-193714342D02*
X202434342Y-193785771D01*
X202077200Y-193785771D01*
X201934342Y-193714342D01*
X201862914Y-193571485D01*
X201862914Y-193428628D01*
X201934342Y-193285771D01*
X202077200Y-193214342D01*
X202434342Y-193214342D01*
X202577200Y-193142914D01*
X203077200Y-192785771D02*
X203648628Y-192785771D01*
X203291485Y-192285771D02*
X203291485Y-193571485D01*
X203362914Y-193714342D01*
X203505771Y-193785771D01*
X203648628Y-193785771D01*
X204720057Y-193714342D02*
X204577200Y-193785771D01*
X204291485Y-193785771D01*
X204148628Y-193714342D01*
X204077200Y-193571485D01*
X204077200Y-193000057D01*
X204148628Y-192857200D01*
X204291485Y-192785771D01*
X204577200Y-192785771D01*
X204720057Y-192857200D01*
X204791485Y-193000057D01*
X204791485Y-193142914D01*
X204077200Y-193285771D01*
X205434342Y-193642914D02*
X205505771Y-193714342D01*
X205434342Y-193785771D01*
X205362914Y-193714342D01*
X205434342Y-193642914D01*
X205434342Y-193785771D01*
X205434342Y-192857200D02*
X205505771Y-192928628D01*
X205434342Y-193000057D01*
X205362914Y-192928628D01*
X205434342Y-192857200D01*
X205434342Y-193000057D01*
X207220057Y-192428628D02*
X207291485Y-192357200D01*
X207434342Y-192285771D01*
X207791485Y-192285771D01*
X207934342Y-192357200D01*
X208005771Y-192428628D01*
X208077200Y-192571485D01*
X208077200Y-192714342D01*
X208005771Y-192928628D01*
X207148628Y-193785771D01*
X208077200Y-193785771D01*
X209005771Y-192285771D02*
X209148628Y-192285771D01*
X209291485Y-192357200D01*
X209362914Y-192428628D01*
X209434342Y-192571485D01*
X209505771Y-192857200D01*
X209505771Y-193214342D01*
X209434342Y-193500057D01*
X209362914Y-193642914D01*
X209291485Y-193714342D01*
X209148628Y-193785771D01*
X209005771Y-193785771D01*
X208862914Y-193714342D01*
X208791485Y-193642914D01*
X208720057Y-193500057D01*
X208648628Y-193214342D01*
X208648628Y-192857200D01*
X208720057Y-192571485D01*
X208791485Y-192428628D01*
X208862914Y-192357200D01*
X209005771Y-192285771D01*
X210077200Y-192428628D02*
X210148628Y-192357200D01*
X210291485Y-192285771D01*
X210648628Y-192285771D01*
X210791485Y-192357200D01*
X210862914Y-192428628D01*
X210934342Y-192571485D01*
X210934342Y-192714342D01*
X210862914Y-192928628D01*
X210005771Y-193785771D01*
X210934342Y-193785771D01*
X212362914Y-193785771D02*
X211505771Y-193785771D01*
X211934342Y-193785771D02*
X211934342Y-192285771D01*
X211791485Y-192500057D01*
X211648628Y-192642914D01*
X211505771Y-192714342D01*
X213005771Y-193214342D02*
X214148628Y-193214342D01*
X215648628Y-193785771D02*
X214791485Y-193785771D01*
X215220057Y-193785771D02*
X215220057Y-192285771D01*
X215077200Y-192500057D01*
X214934342Y-192642914D01*
X214791485Y-192714342D01*
X216577200Y-192285771D02*
X216720057Y-192285771D01*
X216862914Y-192357200D01*
X216934342Y-192428628D01*
X217005771Y-192571485D01*
X217077200Y-192857200D01*
X217077200Y-193214342D01*
X217005771Y-193500057D01*
X216934342Y-193642914D01*
X216862914Y-193714342D01*
X216720057Y-193785771D01*
X216577200Y-193785771D01*
X216434342Y-193714342D01*
X216362914Y-193642914D01*
X216291485Y-193500057D01*
X216220057Y-193214342D01*
X216220057Y-192857200D01*
X216291485Y-192571485D01*
X216362914Y-192428628D01*
X216434342Y-192357200D01*
X216577200Y-192285771D01*
X217720057Y-193214342D02*
X218862914Y-193214342D01*
X219862914Y-192285771D02*
X220005771Y-192285771D01*
X220148628Y-192357200D01*
X220220057Y-192428628D01*
X220291485Y-192571485D01*
X220362914Y-192857200D01*
X220362914Y-193214342D01*
X220291485Y-193500057D01*
X220220057Y-193642914D01*
X220148628Y-193714342D01*
X220005771Y-193785771D01*
X219862914Y-193785771D01*
X219720057Y-193714342D01*
X219648628Y-193642914D01*
X219577200Y-193500057D01*
X219505771Y-193214342D01*
X219505771Y-192857200D01*
X219577200Y-192571485D01*
X219648628Y-192428628D01*
X219720057Y-192357200D01*
X219862914Y-192285771D01*
X221791485Y-193785771D02*
X220934342Y-193785771D01*
X221362914Y-193785771D02*
X221362914Y-192285771D01*
X221220057Y-192500057D01*
X221077200Y-192642914D01*
X220934342Y-192714342D01*
D10*
D11*
X177002200Y-194507200D02*
X285002200Y-194507200D01*
D10*
D11*
X178434342Y-196585771D02*
X178434342Y-195085771D01*
X179291485Y-196585771D02*
X178648628Y-195728628D01*
X179291485Y-195085771D02*
X178434342Y-195942914D01*
X179934342Y-196585771D02*
X179934342Y-195585771D01*
X179934342Y-195085771D02*
X179862914Y-195157200D01*
X179934342Y-195228628D01*
X180005771Y-195157200D01*
X179934342Y-195085771D01*
X179934342Y-195228628D01*
X181505771Y-196442914D02*
X181434342Y-196514342D01*
X181220057Y-196585771D01*
X181077200Y-196585771D01*
X180862914Y-196514342D01*
X180720057Y-196371485D01*
X180648628Y-196228628D01*
X180577200Y-195942914D01*
X180577200Y-195728628D01*
X180648628Y-195442914D01*
X180720057Y-195300057D01*
X180862914Y-195157200D01*
X181077200Y-195085771D01*
X181220057Y-195085771D01*
X181434342Y-195157200D01*
X181505771Y-195228628D01*
X182791485Y-196585771D02*
X182791485Y-195800057D01*
X182720057Y-195657200D01*
X182577200Y-195585771D01*
X182291485Y-195585771D01*
X182148628Y-195657200D01*
X182791485Y-196514342D02*
X182648628Y-196585771D01*
X182291485Y-196585771D01*
X182148628Y-196514342D01*
X182077200Y-196371485D01*
X182077200Y-196228628D01*
X182148628Y-196085771D01*
X182291485Y-196014342D01*
X182648628Y-196014342D01*
X182791485Y-195942914D01*
X184148628Y-196585771D02*
X184148628Y-195085771D01*
X184148628Y-196514342D02*
X184005771Y-196585771D01*
X183720057Y-196585771D01*
X183577200Y-196514342D01*
X183505771Y-196442914D01*
X183434342Y-196300057D01*
X183434342Y-195871485D01*
X183505771Y-195728628D01*
X183577200Y-195657200D01*
X183720057Y-195585771D01*
X184005771Y-195585771D01*
X184148628Y-195657200D01*
X186005771Y-195800057D02*
X186505771Y-195800057D01*
X186720057Y-196585771D02*
X186005771Y-196585771D01*
X186005771Y-195085771D01*
X186720057Y-195085771D01*
X187362914Y-196442914D02*
X187434342Y-196514342D01*
X187362914Y-196585771D01*
X187291485Y-196514342D01*
X187362914Y-196442914D01*
X187362914Y-196585771D01*
X188077200Y-196585771D02*
X188077200Y-195085771D01*
X188434342Y-195085771D01*
X188648628Y-195157200D01*
X188791485Y-195300057D01*
X188862914Y-195442914D01*
X188934342Y-195728628D01*
X188934342Y-195942914D01*
X188862914Y-196228628D01*
X188791485Y-196371485D01*
X188648628Y-196514342D01*
X188434342Y-196585771D01*
X188077200Y-196585771D01*
X189577200Y-196442914D02*
X189648628Y-196514342D01*
X189577200Y-196585771D01*
X189505771Y-196514342D01*
X189577200Y-196442914D01*
X189577200Y-196585771D01*
X190220057Y-196157200D02*
X190934342Y-196157200D01*
X190077200Y-196585771D02*
X190577200Y-195085771D01*
X191077200Y-196585771D01*
X191577200Y-196442914D02*
X191648628Y-196514342D01*
X191577200Y-196585771D01*
X191505771Y-196514342D01*
X191577200Y-196442914D01*
X191577200Y-196585771D01*
X194577200Y-196585771D02*
X194577200Y-195085771D01*
X194720057Y-196014342D02*
X195148628Y-196585771D01*
X195148628Y-195585771D02*
X194577200Y-196157200D01*
X195791485Y-196585771D02*
X195791485Y-195585771D01*
X195791485Y-195085771D02*
X195720057Y-195157200D01*
X195791485Y-195228628D01*
X195862914Y-195157200D01*
X195791485Y-195085771D01*
X195791485Y-195228628D01*
X197148628Y-196514342D02*
X197005771Y-196585771D01*
X196720057Y-196585771D01*
X196577200Y-196514342D01*
X196505771Y-196442914D01*
X196434342Y-196300057D01*
X196434342Y-195871485D01*
X196505771Y-195728628D01*
X196577200Y-195657200D01*
X196720057Y-195585771D01*
X197005771Y-195585771D01*
X197148628Y-195657200D01*
X198434342Y-196585771D02*
X198434342Y-195800057D01*
X198362914Y-195657200D01*
X198220057Y-195585771D01*
X197934342Y-195585771D01*
X197791485Y-195657200D01*
X198434342Y-196514342D02*
X198291485Y-196585771D01*
X197934342Y-196585771D01*
X197791485Y-196514342D01*
X197720057Y-196371485D01*
X197720057Y-196228628D01*
X197791485Y-196085771D01*
X197934342Y-196014342D01*
X198291485Y-196014342D01*
X198434342Y-195942914D01*
X199791485Y-196585771D02*
X199791485Y-195085771D01*
X199791485Y-196514342D02*
X199648628Y-196585771D01*
X199362914Y-196585771D01*
X199220057Y-196514342D01*
X199148628Y-196442914D01*
X199077200Y-196300057D01*
X199077200Y-195871485D01*
X199148628Y-195728628D01*
X199220057Y-195657200D01*
X199362914Y-195585771D01*
X199648628Y-195585771D01*
X199791485Y-195657200D01*
X202077200Y-197157200D02*
X202005771Y-197085771D01*
X201862914Y-196871485D01*
X201791485Y-196728628D01*
X201720057Y-196514342D01*
X201648628Y-196157200D01*
X201648628Y-195871485D01*
X201720057Y-195514342D01*
X201791485Y-195300057D01*
X201862914Y-195157200D01*
X202005771Y-194942914D01*
X202077200Y-194871485D01*
X203362914Y-195085771D02*
X202648628Y-195085771D01*
X202577200Y-195800057D01*
X202648628Y-195728628D01*
X202791485Y-195657200D01*
X203148628Y-195657200D01*
X203291485Y-195728628D01*
X203362914Y-195800057D01*
X203434342Y-195942914D01*
X203434342Y-196300057D01*
X203362914Y-196442914D01*
X203291485Y-196514342D01*
X203148628Y-196585771D01*
X202791485Y-196585771D01*
X202648628Y-196514342D01*
X202577200Y-196442914D01*
X204077200Y-196442914D02*
X204148628Y-196514342D01*
X204077200Y-196585771D01*
X204005771Y-196514342D01*
X204077200Y-196442914D01*
X204077200Y-196585771D01*
X205577200Y-196585771D02*
X204720057Y-196585771D01*
X205148628Y-196585771D02*
X205148628Y-195085771D01*
X205005771Y-195300057D01*
X204862914Y-195442914D01*
X204720057Y-195514342D01*
X206220057Y-196442914D02*
X206291485Y-196514342D01*
X206220057Y-196585771D01*
X206148628Y-196514342D01*
X206220057Y-196442914D01*
X206220057Y-196585771D01*
X207720057Y-196585771D02*
X206862914Y-196585771D01*
X207291485Y-196585771D02*
X207291485Y-195085771D01*
X207148628Y-195300057D01*
X207005771Y-195442914D01*
X206862914Y-195514342D01*
X208648628Y-195085771D02*
X208791485Y-195085771D01*
X208934342Y-195157200D01*
X209005771Y-195228628D01*
X209077200Y-195371485D01*
X209148628Y-195657200D01*
X209148628Y-196014342D01*
X209077200Y-196300057D01*
X209005771Y-196442914D01*
X208934342Y-196514342D01*
X208791485Y-196585771D01*
X208648628Y-196585771D01*
X208505771Y-196514342D01*
X208434342Y-196442914D01*
X208362914Y-196300057D01*
X208291485Y-196014342D01*
X208291485Y-195657200D01*
X208362914Y-195371485D01*
X208434342Y-195228628D01*
X208505771Y-195157200D01*
X208648628Y-195085771D01*
X209791485Y-196014342D02*
X210934342Y-196014342D01*
X212434342Y-196585771D02*
X211577200Y-196585771D01*
X212005771Y-196585771D02*
X212005771Y-195085771D01*
X211862914Y-195300057D01*
X211720057Y-195442914D01*
X211577200Y-195514342D01*
X213077200Y-196014342D02*
X214220057Y-196014342D01*
X215720057Y-196585771D02*
X214862914Y-196585771D01*
X215291485Y-196585771D02*
X215291485Y-195085771D01*
X215148628Y-195300057D01*
X215005771Y-195442914D01*
X214862914Y-195514342D01*
X216648628Y-195085771D02*
X216791485Y-195085771D01*
X216934342Y-195157200D01*
X217005771Y-195228628D01*
X217077200Y-195371485D01*
X217148628Y-195657200D01*
X217148628Y-196014342D01*
X217077200Y-196300057D01*
X217005771Y-196442914D01*
X216934342Y-196514342D01*
X216791485Y-196585771D01*
X216648628Y-196585771D01*
X216505771Y-196514342D01*
X216434342Y-196442914D01*
X216362914Y-196300057D01*
X216291485Y-196014342D01*
X216291485Y-195657200D01*
X216362914Y-195371485D01*
X216434342Y-195228628D01*
X216505771Y-195157200D01*
X216648628Y-195085771D01*
X217434342Y-196728628D02*
X218577200Y-196728628D01*
X219720057Y-196585771D02*
X218862914Y-196585771D01*
X219291485Y-196585771D02*
X219291485Y-195085771D01*
X219148628Y-195300057D01*
X219005771Y-195442914D01*
X218862914Y-195514342D01*
X221005771Y-195585771D02*
X221005771Y-196585771D01*
X220648628Y-195014342D02*
X220291485Y-196085771D01*
X221220057Y-196085771D01*
X221648628Y-197157200D02*
X221720057Y-197085771D01*
X221862914Y-196871485D01*
X221934342Y-196728628D01*
X222005771Y-196514342D01*
X222077200Y-196157200D01*
X222077200Y-195871485D01*
X222005771Y-195514342D01*
X221934342Y-195300057D01*
X221862914Y-195157200D01*
X221720057Y-194942914D01*
X221648628Y-194871485D01*
D10*
D11*
X177002200Y-191507200D02*
X285002200Y-191507200D01*
D10*
D12*
X264411485Y-193785771D02*
X263911485Y-193071485D01*
X263554342Y-193785771D02*
X263554342Y-192285771D01*
X264125771Y-192285771D01*
X264268628Y-192357200D01*
X264340057Y-192428628D01*
X264411485Y-192571485D01*
X264411485Y-192785771D01*
X264340057Y-192928628D01*
X264268628Y-193000057D01*
X264125771Y-193071485D01*
X263554342Y-193071485D01*
X265625771Y-193714342D02*
X265482914Y-193785771D01*
X265197200Y-193785771D01*
X265054342Y-193714342D01*
X264982914Y-193571485D01*
X264982914Y-193000057D01*
X265054342Y-192857200D01*
X265197200Y-192785771D01*
X265482914Y-192785771D01*
X265625771Y-192857200D01*
X265697200Y-193000057D01*
X265697200Y-193142914D01*
X264982914Y-193285771D01*
X266197200Y-192785771D02*
X266554342Y-193785771D01*
X266911485Y-192785771D01*
X267482914Y-193642914D02*
X267554342Y-193714342D01*
X267482914Y-193785771D01*
X267411485Y-193714342D01*
X267482914Y-193642914D01*
X267482914Y-193785771D01*
X267482914Y-192857200D02*
X267554342Y-192928628D01*
X267482914Y-193000057D01*
X267411485Y-192928628D01*
X267482914Y-192857200D01*
X267482914Y-193000057D01*
X269268628Y-193357200D02*
X269982914Y-193357200D01*
X269125771Y-193785771D02*
X269625771Y-192285771D01*
X270125771Y-193785771D01*
D10*
D11*
X178362914Y-193714342D02*
X178577200Y-193785771D01*
X178934342Y-193785771D01*
X179077200Y-193714342D01*
X179148628Y-193642914D01*
X179220057Y-193500057D01*
X179220057Y-193357200D01*
X179148628Y-193214342D01*
X179077200Y-193142914D01*
X178934342Y-193071485D01*
X178648628Y-193000057D01*
X178505771Y-192928628D01*
X178434342Y-192857200D01*
X178362914Y-192714342D01*
X178362914Y-192571485D01*
X178434342Y-192428628D01*
X178505771Y-192357200D01*
X178648628Y-192285771D01*
X179005771Y-192285771D01*
X179220057Y-192357200D01*
X179862914Y-193785771D02*
X179862914Y-192785771D01*
X179862914Y-192285771D02*
X179791485Y-192357200D01*
X179862914Y-192428628D01*
X179934342Y-192357200D01*
X179862914Y-192285771D01*
X179862914Y-192428628D01*
X180434342Y-192785771D02*
X181220057Y-192785771D01*
X180434342Y-193785771D01*
X181220057Y-193785771D01*
X182362914Y-193714342D02*
X182220057Y-193785771D01*
X181934342Y-193785771D01*
X181791485Y-193714342D01*
X181720057Y-193571485D01*
X181720057Y-193000057D01*
X181791485Y-192857200D01*
X181934342Y-192785771D01*
X182220057Y-192785771D01*
X182362914Y-192857200D01*
X182434342Y-193000057D01*
X182434342Y-193142914D01*
X181720057Y-193285771D01*
X183077200Y-193642914D02*
X183148628Y-193714342D01*
X183077200Y-193785771D01*
X183005771Y-193714342D01*
X183077200Y-193642914D01*
X183077200Y-193785771D01*
X183077200Y-192857200D02*
X183148628Y-192928628D01*
X183077200Y-193000057D01*
X183005771Y-192928628D01*
X183077200Y-192857200D01*
X183077200Y-193000057D01*
X184862914Y-193357200D02*
X185577200Y-193357200D01*
X184720057Y-193785771D02*
X185220057Y-192285771D01*
X185720057Y-193785771D01*
X186862914Y-192785771D02*
X186862914Y-193785771D01*
X186505771Y-192214342D02*
X186148628Y-193285771D01*
X187077200Y-193285771D01*
D10*
D11*
X263434342Y-196585771D02*
X263434342Y-195085771D01*
X264791485Y-196585771D02*
X264791485Y-195085771D01*
X264791485Y-196514342D02*
X264648628Y-196585771D01*
X264362914Y-196585771D01*
X264220057Y-196514342D01*
X264148628Y-196442914D01*
X264077200Y-196300057D01*
X264077200Y-195871485D01*
X264148628Y-195728628D01*
X264220057Y-195657200D01*
X264362914Y-195585771D01*
X264648628Y-195585771D01*
X264791485Y-195657200D01*
X265505771Y-196442914D02*
X265577200Y-196514342D01*
X265505771Y-196585771D01*
X265434342Y-196514342D01*
X265505771Y-196442914D01*
X265505771Y-196585771D01*
X265505771Y-195657200D02*
X265577200Y-195728628D01*
X265505771Y-195800057D01*
X265434342Y-195728628D01*
X265505771Y-195657200D01*
X265505771Y-195800057D01*
X268148628Y-196585771D02*
X267291485Y-196585771D01*
X267720057Y-196585771D02*
X267720057Y-195085771D01*
X267577200Y-195300057D01*
X267434342Y-195442914D01*
X267291485Y-195514342D01*
X269862914Y-195014342D02*
X268577200Y-196942914D01*
X271148628Y-196585771D02*
X270291485Y-196585771D01*
X270720057Y-196585771D02*
X270720057Y-195085771D01*
X270577200Y-195300057D01*
X270434342Y-195442914D01*
X270291485Y-195514342D01*
D10*
D11*
X177002200Y-187507200D02*
X285002200Y-187507200D01*
D10*
D13*
X178714580Y-188211961D02*
X179857438Y-188211961D01*
X179036009Y-190211961D02*
X179286009Y-188211961D01*
X180274104Y-190211961D02*
X180440771Y-188878628D01*
X180524104Y-188211961D02*
X180416961Y-188307200D01*
X180500295Y-188402438D01*
X180607438Y-188307200D01*
X180524104Y-188211961D01*
X180500295Y-188402438D01*
X181107438Y-188878628D02*
X181869342Y-188878628D01*
X181476485Y-188211961D02*
X181262200Y-189926247D01*
X181333628Y-190116723D01*
X181512200Y-190211961D01*
X181702676Y-190211961D01*
X182655057Y-190211961D02*
X182476485Y-190116723D01*
X182405057Y-189926247D01*
X182619342Y-188211961D01*
X184190771Y-190116723D02*
X183988390Y-190211961D01*
X183607438Y-190211961D01*
X183428866Y-190116723D01*
X183357438Y-189926247D01*
X183452676Y-189164342D01*
X183571723Y-188973866D01*
X183774104Y-188878628D01*
X184155057Y-188878628D01*
X184333628Y-188973866D01*
X184405057Y-189164342D01*
X184381247Y-189354819D01*
X183405057Y-189545295D01*
X185155057Y-190021485D02*
X185238390Y-190116723D01*
X185131247Y-190211961D01*
X185047914Y-190116723D01*
X185155057Y-190021485D01*
X185131247Y-190211961D01*
X185286009Y-188973866D02*
X185369342Y-189069104D01*
X185262200Y-189164342D01*
X185178866Y-189069104D01*
X185286009Y-188973866D01*
X185262200Y-189164342D01*
X187524104Y-190116723D02*
X187797914Y-190211961D01*
X188274104Y-190211961D01*
X188476485Y-190116723D01*
X188583628Y-190021485D01*
X188702676Y-189831009D01*
X188726485Y-189640533D01*
X188655057Y-189450057D01*
X188571723Y-189354819D01*
X188393152Y-189259580D01*
X188024104Y-189164342D01*
X187845533Y-189069104D01*
X187762200Y-188973866D01*
X187690771Y-188783390D01*
X187714580Y-188592914D01*
X187833628Y-188402438D01*
X187940771Y-188307200D01*
X188143152Y-188211961D01*
X188619342Y-188211961D01*
X188893152Y-188307200D01*
X189643152Y-189164342D02*
X190309819Y-189164342D01*
X190464580Y-190211961D02*
X189512200Y-190211961D01*
X189762200Y-188211961D01*
X190714580Y-188211961D01*
X191238390Y-190116723D02*
X191512200Y-190211961D01*
X191988390Y-190211961D01*
X192190771Y-190116723D01*
X192297914Y-190021485D01*
X192416961Y-189831009D01*
X192440771Y-189640533D01*
X192369342Y-189450057D01*
X192286009Y-189354819D01*
X192107438Y-189259580D01*
X191738390Y-189164342D01*
X191559819Y-189069104D01*
X191476485Y-188973866D01*
X191405057Y-188783390D01*
X191428866Y-188592914D01*
X191547914Y-188402438D01*
X191655057Y-188307200D01*
X191857438Y-188211961D01*
X192333628Y-188211961D01*
X192607438Y-188307200D01*
X193202676Y-189640533D02*
X194155057Y-189640533D01*
X192940771Y-190211961D02*
X193857438Y-188211961D01*
X194274104Y-190211961D01*
X194940771Y-190211961D02*
X195190771Y-188211961D01*
X195678866Y-189640533D01*
X196524104Y-188211961D01*
X196274104Y-190211961D01*
X197357438Y-189164342D02*
X198024104Y-189164342D01*
X198178866Y-190211961D02*
X197226485Y-190211961D01*
X197476485Y-188211961D01*
X198428866Y-188211961D01*
D10*
D11*
X178934342Y-185600057D02*
X178434342Y-185600057D01*
X178434342Y-186385771D02*
X178434342Y-184885771D01*
X179148628Y-184885771D01*
X179720057Y-186385771D02*
X179720057Y-185385771D01*
X179720057Y-184885771D02*
X179648628Y-184957200D01*
X179720057Y-185028628D01*
X179791485Y-184957200D01*
X179720057Y-184885771D01*
X179720057Y-185028628D01*
X180648628Y-186385771D02*
X180505771Y-186314342D01*
X180434342Y-186171485D01*
X180434342Y-184885771D01*
X181791485Y-186314342D02*
X181648628Y-186385771D01*
X181362914Y-186385771D01*
X181220057Y-186314342D01*
X181148628Y-186171485D01*
X181148628Y-185600057D01*
X181220057Y-185457200D01*
X181362914Y-185385771D01*
X181648628Y-185385771D01*
X181791485Y-185457200D01*
X181862914Y-185600057D01*
X181862914Y-185742914D01*
X181148628Y-185885771D01*
X182505771Y-186242914D02*
X182577200Y-186314342D01*
X182505771Y-186385771D01*
X182434342Y-186314342D01*
X182505771Y-186242914D01*
X182505771Y-186385771D01*
X182505771Y-185457200D02*
X182577200Y-185528628D01*
X182505771Y-185600057D01*
X182434342Y-185528628D01*
X182505771Y-185457200D01*
X182505771Y-185600057D01*
X184291485Y-186314342D02*
X184434342Y-186385771D01*
X184720057Y-186385771D01*
X184862914Y-186314342D01*
X184934342Y-186171485D01*
X184934342Y-186100057D01*
X184862914Y-185957200D01*
X184720057Y-185885771D01*
X184505771Y-185885771D01*
X184362914Y-185814342D01*
X184291485Y-185671485D01*
X184291485Y-185600057D01*
X184362914Y-185457200D01*
X184505771Y-185385771D01*
X184720057Y-185385771D01*
X184862914Y-185457200D01*
X186148628Y-186314342D02*
X186005771Y-186385771D01*
X185720057Y-186385771D01*
X185577200Y-186314342D01*
X185505771Y-186171485D01*
X185505771Y-185600057D01*
X185577200Y-185457200D01*
X185720057Y-185385771D01*
X186005771Y-185385771D01*
X186148628Y-185457200D01*
X186220057Y-185600057D01*
X186220057Y-185742914D01*
X185505771Y-185885771D01*
X186791485Y-186314342D02*
X186934342Y-186385771D01*
X187220057Y-186385771D01*
X187362914Y-186314342D01*
X187434342Y-186171485D01*
X187434342Y-186100057D01*
X187362914Y-185957200D01*
X187220057Y-185885771D01*
X187005771Y-185885771D01*
X186862914Y-185814342D01*
X186791485Y-185671485D01*
X186791485Y-185600057D01*
X186862914Y-185457200D01*
X187005771Y-185385771D01*
X187220057Y-185385771D01*
X187362914Y-185457200D01*
X188720057Y-186385771D02*
X188720057Y-185600057D01*
X188648628Y-185457200D01*
X188505771Y-185385771D01*
X188220057Y-185385771D01*
X188077200Y-185457200D01*
X188720057Y-186314342D02*
X188577200Y-186385771D01*
X188220057Y-186385771D01*
X188077200Y-186314342D01*
X188005771Y-186171485D01*
X188005771Y-186028628D01*
X188077200Y-185885771D01*
X188220057Y-185814342D01*
X188577200Y-185814342D01*
X188720057Y-185742914D01*
X189434342Y-186385771D02*
X189434342Y-185385771D01*
X189434342Y-185528628D02*
X189505771Y-185457200D01*
X189648628Y-185385771D01*
X189862914Y-185385771D01*
X190005771Y-185457200D01*
X190077200Y-185600057D01*
X190077200Y-186385771D01*
X190077200Y-185600057D02*
X190148628Y-185457200D01*
X190291485Y-185385771D01*
X190505771Y-185385771D01*
X190648628Y-185457200D01*
X190720057Y-185600057D01*
X190720057Y-186385771D01*
X192005771Y-186314342D02*
X191862914Y-186385771D01*
X191577200Y-186385771D01*
X191434342Y-186314342D01*
X191362914Y-186171485D01*
X191362914Y-185600057D01*
X191434342Y-185457200D01*
X191577200Y-185385771D01*
X191862914Y-185385771D01*
X192005771Y-185457200D01*
X192077200Y-185600057D01*
X192077200Y-185742914D01*
X191362914Y-185885771D01*
X192720057Y-185814342D02*
X193862914Y-185814342D01*
X194362914Y-185385771D02*
X194934342Y-185385771D01*
X194577200Y-186385771D02*
X194577200Y-185100057D01*
X194648628Y-184957200D01*
X194791485Y-184885771D01*
X194934342Y-184885771D01*
X195648628Y-186385771D02*
X195505771Y-186314342D01*
X195434342Y-186242914D01*
X195362914Y-186100057D01*
X195362914Y-185671485D01*
X195434342Y-185528628D01*
X195505771Y-185457200D01*
X195648628Y-185385771D01*
X195862914Y-185385771D01*
X196005771Y-185457200D01*
X196077200Y-185528628D01*
X196148628Y-185671485D01*
X196148628Y-186100057D01*
X196077200Y-186242914D01*
X196005771Y-186314342D01*
X195862914Y-186385771D01*
X195648628Y-186385771D01*
X196791485Y-185385771D02*
X196791485Y-186385771D01*
X196791485Y-185528628D02*
X196862914Y-185457200D01*
X197005771Y-185385771D01*
X197220057Y-185385771D01*
X197362914Y-185457200D01*
X197434342Y-185600057D01*
X197434342Y-186385771D01*
X198791485Y-186314342D02*
X198648628Y-186385771D01*
X198362914Y-186385771D01*
X198220057Y-186314342D01*
X198148628Y-186242914D01*
X198077200Y-186100057D01*
X198077200Y-185671485D01*
X198148628Y-185528628D01*
X198220057Y-185457200D01*
X198362914Y-185385771D01*
X198648628Y-185385771D01*
X198791485Y-185457200D01*
X199220057Y-185385771D02*
X199791485Y-185385771D01*
X199434342Y-184885771D02*
X199434342Y-186171485D01*
X199505771Y-186314342D01*
X199648628Y-186385771D01*
X199791485Y-186385771D01*
X200291485Y-186385771D02*
X200291485Y-185385771D01*
X200291485Y-184885771D02*
X200220057Y-184957200D01*
X200291485Y-185028628D01*
X200362914Y-184957200D01*
X200291485Y-184885771D01*
X200291485Y-185028628D01*
X201220057Y-186385771D02*
X201077200Y-186314342D01*
X201005771Y-186242914D01*
X200934342Y-186100057D01*
X200934342Y-185671485D01*
X201005771Y-185528628D01*
X201077200Y-185457200D01*
X201220057Y-185385771D01*
X201434342Y-185385771D01*
X201577200Y-185457200D01*
X201648628Y-185528628D01*
X201720057Y-185671485D01*
X201720057Y-186100057D01*
X201648628Y-186242914D01*
X201577200Y-186314342D01*
X201434342Y-186385771D01*
X201220057Y-186385771D01*
X202362914Y-185385771D02*
X202362914Y-186385771D01*
X202362914Y-185528628D02*
X202434342Y-185457200D01*
X202577200Y-185385771D01*
X202791485Y-185385771D01*
X202934342Y-185457200D01*
X203005771Y-185600057D01*
X203005771Y-186385771D01*
X203720057Y-185385771D02*
X203720057Y-186385771D01*
X203720057Y-185528628D02*
X203791485Y-185457200D01*
X203934342Y-185385771D01*
X204148628Y-185385771D01*
X204291485Y-185457200D01*
X204362914Y-185600057D01*
X204362914Y-186385771D01*
X205648628Y-186314342D02*
X205505771Y-186385771D01*
X205220057Y-186385771D01*
X205077200Y-186314342D01*
X205005771Y-186171485D01*
X205005771Y-185600057D01*
X205077200Y-185457200D01*
X205220057Y-185385771D01*
X205505771Y-185385771D01*
X205648628Y-185457200D01*
X205720057Y-185600057D01*
X205720057Y-185742914D01*
X205005771Y-185885771D01*
X206577200Y-186385771D02*
X206434342Y-186314342D01*
X206362914Y-186171485D01*
X206362914Y-184885771D01*
X207148628Y-186242914D02*
X207220057Y-186314342D01*
X207148628Y-186385771D01*
X207077200Y-186314342D01*
X207148628Y-186242914D01*
X207148628Y-186385771D01*
X207862914Y-186385771D02*
X207862914Y-184885771D01*
X208005771Y-185814342D02*
X208434342Y-186385771D01*
X208434342Y-185385771D02*
X207862914Y-185957200D01*
X209077200Y-186385771D02*
X209077200Y-185385771D01*
X209077200Y-184885771D02*
X209005771Y-184957200D01*
X209077200Y-185028628D01*
X209148628Y-184957200D01*
X209077200Y-184885771D01*
X209077200Y-185028628D01*
X210434342Y-186314342D02*
X210291485Y-186385771D01*
X210005771Y-186385771D01*
X209862914Y-186314342D01*
X209791485Y-186242914D01*
X209720057Y-186100057D01*
X209720057Y-185671485D01*
X209791485Y-185528628D01*
X209862914Y-185457200D01*
X210005771Y-185385771D01*
X210291485Y-185385771D01*
X210434342Y-185457200D01*
X211720057Y-186385771D02*
X211720057Y-185600057D01*
X211648628Y-185457200D01*
X211505771Y-185385771D01*
X211220057Y-185385771D01*
X211077200Y-185457200D01*
X211720057Y-186314342D02*
X211577200Y-186385771D01*
X211220057Y-186385771D01*
X211077200Y-186314342D01*
X211005771Y-186171485D01*
X211005771Y-186028628D01*
X211077200Y-185885771D01*
X211220057Y-185814342D01*
X211577200Y-185814342D01*
X211720057Y-185742914D01*
X213077200Y-186385771D02*
X213077200Y-184885771D01*
X213077200Y-186314342D02*
X212934342Y-186385771D01*
X212648628Y-186385771D01*
X212505771Y-186314342D01*
X212434342Y-186242914D01*
X212362914Y-186100057D01*
X212362914Y-185671485D01*
X212434342Y-185528628D01*
X212505771Y-185457200D01*
X212648628Y-185385771D01*
X212934342Y-185385771D01*
X213077200Y-185457200D01*
X213434342Y-186528628D02*
X214577200Y-186528628D01*
X214934342Y-185385771D02*
X214934342Y-186885771D01*
X214934342Y-185457200D02*
X215077200Y-185385771D01*
X215362914Y-185385771D01*
X215505771Y-185457200D01*
X215577200Y-185528628D01*
X215648628Y-185671485D01*
X215648628Y-186100057D01*
X215577200Y-186242914D01*
X215505771Y-186314342D01*
X215362914Y-186385771D01*
X215077200Y-186385771D01*
X214934342Y-186314342D01*
X216934342Y-186314342D02*
X216791485Y-186385771D01*
X216505771Y-186385771D01*
X216362914Y-186314342D01*
X216291485Y-186242914D01*
X216220057Y-186100057D01*
X216220057Y-185671485D01*
X216291485Y-185528628D01*
X216362914Y-185457200D01*
X216505771Y-185385771D01*
X216791485Y-185385771D01*
X216934342Y-185457200D01*
X217577200Y-186385771D02*
X217577200Y-184885771D01*
X217577200Y-185457200D02*
X217720057Y-185385771D01*
X218005771Y-185385771D01*
X218148628Y-185457200D01*
X218220057Y-185528628D01*
X218291485Y-185671485D01*
X218291485Y-186100057D01*
X218220057Y-186242914D01*
X218148628Y-186314342D01*
X218005771Y-186385771D01*
X217720057Y-186385771D01*
X217577200Y-186314342D01*
D10*
D11*
X177002200Y-181507200D02*
X285002200Y-181507200D01*
D10*
D11*
X178362914Y-183614342D02*
X178577200Y-183685771D01*
X178934342Y-183685771D01*
X179077200Y-183614342D01*
X179148628Y-183542914D01*
X179220057Y-183400057D01*
X179220057Y-183257200D01*
X179148628Y-183114342D01*
X179077200Y-183042914D01*
X178934342Y-182971485D01*
X178648628Y-182900057D01*
X178505771Y-182828628D01*
X178434342Y-182757200D01*
X178362914Y-182614342D01*
X178362914Y-182471485D01*
X178434342Y-182328628D01*
X178505771Y-182257200D01*
X178648628Y-182185771D01*
X179005771Y-182185771D01*
X179220057Y-182257200D01*
X179862914Y-183685771D02*
X179862914Y-182185771D01*
X180505771Y-183685771D02*
X180505771Y-182900057D01*
X180434342Y-182757200D01*
X180291485Y-182685771D01*
X180077200Y-182685771D01*
X179934342Y-182757200D01*
X179862914Y-182828628D01*
X181791485Y-183614342D02*
X181648628Y-183685771D01*
X181362914Y-183685771D01*
X181220057Y-183614342D01*
X181148628Y-183471485D01*
X181148628Y-182900057D01*
X181220057Y-182757200D01*
X181362914Y-182685771D01*
X181648628Y-182685771D01*
X181791485Y-182757200D01*
X181862914Y-182900057D01*
X181862914Y-183042914D01*
X181148628Y-183185771D01*
X183077200Y-183614342D02*
X182934342Y-183685771D01*
X182648628Y-183685771D01*
X182505771Y-183614342D01*
X182434342Y-183471485D01*
X182434342Y-182900057D01*
X182505771Y-182757200D01*
X182648628Y-182685771D01*
X182934342Y-182685771D01*
X183077200Y-182757200D01*
X183148628Y-182900057D01*
X183148628Y-183042914D01*
X182434342Y-183185771D01*
X183577200Y-182685771D02*
X184148628Y-182685771D01*
X183791485Y-182185771D02*
X183791485Y-183471485D01*
X183862914Y-183614342D01*
X184005771Y-183685771D01*
X184148628Y-183685771D01*
X184648628Y-183542914D02*
X184720057Y-183614342D01*
X184648628Y-183685771D01*
X184577200Y-183614342D01*
X184648628Y-183542914D01*
X184648628Y-183685771D01*
X184648628Y-182757200D02*
X184720057Y-182828628D01*
X184648628Y-182900057D01*
X184577200Y-182828628D01*
X184648628Y-182757200D01*
X184648628Y-182900057D01*
D10*
D12*
X178482914Y-180257200D02*
X179197200Y-180257200D01*
X178340057Y-180685771D02*
X178840057Y-179185771D01*
X179340057Y-180685771D01*
X180554342Y-180685771D02*
X179840057Y-180685771D01*
X179840057Y-179185771D01*
X181054342Y-179900057D02*
X181554342Y-179900057D01*
X181768628Y-180685771D02*
X181054342Y-180685771D01*
X181054342Y-179185771D01*
X181768628Y-179185771D01*
X182411485Y-179900057D02*
X182911485Y-179900057D01*
X183125771Y-180685771D02*
X182411485Y-180685771D01*
X182411485Y-179185771D01*
X183125771Y-179185771D01*
X183697200Y-180257200D02*
X184411485Y-180257200D01*
X183554342Y-180685771D02*
X184054342Y-179185771D01*
X184554342Y-180685771D01*
D10*
D11*
X178434342Y-177685771D02*
X178434342Y-176185771D01*
X178791485Y-176185771D01*
X179005771Y-176257200D01*
X179148628Y-176400057D01*
X179220057Y-176542914D01*
X179291485Y-176828628D01*
X179291485Y-177042914D01*
X179220057Y-177328628D01*
X179148628Y-177471485D01*
X179005771Y-177614342D01*
X178791485Y-177685771D01*
X178434342Y-177685771D01*
X180505771Y-177614342D02*
X180362914Y-177685771D01*
X180077200Y-177685771D01*
X179934342Y-177614342D01*
X179862914Y-177471485D01*
X179862914Y-176900057D01*
X179934342Y-176757200D01*
X180077200Y-176685771D01*
X180362914Y-176685771D01*
X180505771Y-176757200D01*
X180577200Y-176900057D01*
X180577200Y-177042914D01*
X179862914Y-177185771D01*
X181148628Y-177614342D02*
X181291485Y-177685771D01*
X181577200Y-177685771D01*
X181720057Y-177614342D01*
X181791485Y-177471485D01*
X181791485Y-177400057D01*
X181720057Y-177257200D01*
X181577200Y-177185771D01*
X181362914Y-177185771D01*
X181220057Y-177114342D01*
X181148628Y-176971485D01*
X181148628Y-176900057D01*
X181220057Y-176757200D01*
X181362914Y-176685771D01*
X181577200Y-176685771D01*
X181720057Y-176757200D01*
X182362914Y-177614342D02*
X182505771Y-177685771D01*
X182791485Y-177685771D01*
X182934342Y-177614342D01*
X183005771Y-177471485D01*
X183005771Y-177400057D01*
X182934342Y-177257200D01*
X182791485Y-177185771D01*
X182577200Y-177185771D01*
X182434342Y-177114342D01*
X182362914Y-176971485D01*
X182362914Y-176900057D01*
X182434342Y-176757200D01*
X182577200Y-176685771D01*
X182791485Y-176685771D01*
X182934342Y-176757200D01*
X183648628Y-177685771D02*
X183648628Y-176685771D01*
X183648628Y-176185771D02*
X183577200Y-176257200D01*
X183648628Y-176328628D01*
X183720057Y-176257200D01*
X183648628Y-176185771D01*
X183648628Y-176328628D01*
X184362914Y-176685771D02*
X184362914Y-177685771D01*
X184362914Y-176828628D02*
X184434342Y-176757200D01*
X184577200Y-176685771D01*
X184791485Y-176685771D01*
X184934342Y-176757200D01*
X185005771Y-176900057D01*
X185005771Y-177685771D01*
X185720057Y-177542914D02*
X185791485Y-177614342D01*
X185720057Y-177685771D01*
X185648628Y-177614342D01*
X185720057Y-177542914D01*
X185720057Y-177685771D01*
X185720057Y-176757200D02*
X185791485Y-176828628D01*
X185720057Y-176900057D01*
X185648628Y-176828628D01*
X185720057Y-176757200D01*
X185720057Y-176900057D01*
X188362914Y-176257200D02*
X188220057Y-176185771D01*
X188005771Y-176185771D01*
X187791485Y-176257200D01*
X187648628Y-176400057D01*
X187577200Y-176542914D01*
X187505771Y-176828628D01*
X187505771Y-177042914D01*
X187577200Y-177328628D01*
X187648628Y-177471485D01*
X187791485Y-177614342D01*
X188005771Y-177685771D01*
X188148628Y-177685771D01*
X188362914Y-177614342D01*
X188434342Y-177542914D01*
X188434342Y-177042914D01*
X188148628Y-177042914D01*
X189720057Y-176685771D02*
X189720057Y-177685771D01*
X189077200Y-176685771D02*
X189077200Y-177471485D01*
X189148628Y-177614342D01*
X189291485Y-177685771D01*
X189505771Y-177685771D01*
X189648628Y-177614342D01*
X189720057Y-177542914D01*
X190434342Y-177685771D02*
X190434342Y-176685771D01*
X190434342Y-176185771D02*
X190362914Y-176257200D01*
X190434342Y-176328628D01*
X190505771Y-176257200D01*
X190434342Y-176185771D01*
X190434342Y-176328628D01*
X191362914Y-177685771D02*
X191220057Y-177614342D01*
X191148628Y-177471485D01*
X191148628Y-176185771D01*
X192148628Y-177685771D02*
X192005771Y-177614342D01*
X191934342Y-177471485D01*
X191934342Y-176185771D01*
X193362914Y-177685771D02*
X193362914Y-176900057D01*
X193291485Y-176757200D01*
X193148628Y-176685771D01*
X192862914Y-176685771D01*
X192720057Y-176757200D01*
X193362914Y-177614342D02*
X193220057Y-177685771D01*
X192862914Y-177685771D01*
X192720057Y-177614342D01*
X192648628Y-177471485D01*
X192648628Y-177328628D01*
X192720057Y-177185771D01*
X192862914Y-177114342D01*
X193220057Y-177114342D01*
X193362914Y-177042914D01*
X194720057Y-176685771D02*
X194720057Y-177685771D01*
X194077200Y-176685771D02*
X194077200Y-177471485D01*
X194148628Y-177614342D01*
X194291485Y-177685771D01*
X194505771Y-177685771D01*
X194648628Y-177614342D01*
X194720057Y-177542914D01*
X195434342Y-177685771D02*
X195434342Y-176685771D01*
X195434342Y-176828628D02*
X195505771Y-176757200D01*
X195648628Y-176685771D01*
X195862914Y-176685771D01*
X196005771Y-176757200D01*
X196077200Y-176900057D01*
X196077200Y-177685771D01*
X196077200Y-176900057D02*
X196148628Y-176757200D01*
X196291485Y-176685771D01*
X196505771Y-176685771D01*
X196648628Y-176757200D01*
X196720057Y-176900057D01*
X196720057Y-177685771D01*
X198005771Y-177614342D02*
X197862914Y-177685771D01*
X197577200Y-177685771D01*
X197434342Y-177614342D01*
X197362914Y-177471485D01*
X197362914Y-176900057D01*
X197434342Y-176757200D01*
X197577200Y-176685771D01*
X197862914Y-176685771D01*
X198005771Y-176757200D01*
X198077200Y-176900057D01*
X198077200Y-177042914D01*
X197362914Y-177185771D01*
X199791485Y-177257200D02*
X200505771Y-177257200D01*
X199648628Y-177685771D02*
X200148628Y-176185771D01*
X200648628Y-177685771D01*
X201148628Y-177685771D02*
X201148628Y-176685771D01*
X201148628Y-176971485D02*
X201220057Y-176828628D01*
X201291485Y-176757200D01*
X201434342Y-176685771D01*
X201577200Y-176685771D01*
X201862914Y-176685771D02*
X202434342Y-176685771D01*
X202077200Y-176185771D02*
X202077200Y-177471485D01*
X202148628Y-177614342D01*
X202291485Y-177685771D01*
X202434342Y-177685771D01*
X202934342Y-177685771D02*
X202934342Y-176185771D01*
X203577200Y-177685771D02*
X203577200Y-176900057D01*
X203505771Y-176757200D01*
X203362914Y-176685771D01*
X203148628Y-176685771D01*
X203005771Y-176757200D01*
X202934342Y-176828628D01*
X204934342Y-177685771D02*
X204934342Y-176900057D01*
X204862914Y-176757200D01*
X204720057Y-176685771D01*
X204434342Y-176685771D01*
X204291485Y-176757200D01*
X204934342Y-177614342D02*
X204791485Y-177685771D01*
X204434342Y-177685771D01*
X204291485Y-177614342D01*
X204220057Y-177471485D01*
X204220057Y-177328628D01*
X204291485Y-177185771D01*
X204434342Y-177114342D01*
X204791485Y-177114342D01*
X204934342Y-177042914D01*
X206291485Y-176685771D02*
X206291485Y-177685771D01*
X205648628Y-176685771D02*
X205648628Y-177471485D01*
X205720057Y-177614342D01*
X205862914Y-177685771D01*
X206077200Y-177685771D01*
X206220057Y-177614342D01*
X206291485Y-177542914D01*
X207648628Y-177685771D02*
X207648628Y-176185771D01*
X207648628Y-177614342D02*
X207505771Y-177685771D01*
X207220057Y-177685771D01*
X207077200Y-177614342D01*
X207005771Y-177542914D01*
X206934342Y-177400057D01*
X206934342Y-176971485D01*
X207005771Y-176828628D01*
X207077200Y-176757200D01*
X207220057Y-176685771D01*
X207505771Y-176685771D01*
X207648628Y-176757200D01*
D10*
D11*
X197002200Y-191507200D02*
X197002200Y-194507200D01*
D10*
D11*
X261002200Y-191507200D02*
X261002200Y-198007200D01*
D10*
%TO.C,REF\u002A\u002A*%
G36*
X226198000Y-64645000D02*
G01*
X224198000Y-64645000D01*
X224198000Y-62645000D01*
X226198000Y-62645000D01*
X226198000Y-64645000D01*
G37*
X226198000Y-64645000D02*
X224198000Y-64645000D01*
X224198000Y-62645000D01*
X226198000Y-62645000D01*
X226198000Y-64645000D01*
G36*
X228598000Y-64645000D02*
G01*
X226598000Y-64645000D01*
X226598000Y-62645000D01*
X228598000Y-62645000D01*
X228598000Y-64645000D01*
G37*
X228598000Y-64645000D02*
X226598000Y-64645000D01*
X226598000Y-62645000D01*
X228598000Y-62645000D01*
X228598000Y-64645000D01*
%TD*%
%TO.C,L2*%
G36*
X192249388Y-100507798D02*
G01*
X190749388Y-110007798D01*
X190746918Y-110017283D01*
X190742644Y-110026105D01*
X190736732Y-110033922D01*
X190729409Y-110040437D01*
X190720955Y-110045397D01*
X190711695Y-110048613D01*
X190700000Y-110050000D01*
X187700000Y-110050000D01*
X187690245Y-110049039D01*
X187680866Y-110046194D01*
X187672221Y-110041573D01*
X187664645Y-110035355D01*
X187658427Y-110027779D01*
X187653806Y-110019134D01*
X187650612Y-110007798D01*
X186150612Y-100507798D01*
X186150383Y-100503888D01*
X186150000Y-100500000D01*
X186150000Y-95500000D01*
X186150961Y-95490245D01*
X186153806Y-95480866D01*
X186158427Y-95472221D01*
X186164645Y-95464645D01*
X186172221Y-95458427D01*
X186180866Y-95453806D01*
X186190245Y-95450961D01*
X186200000Y-95450000D01*
X192200000Y-95450000D01*
X192209755Y-95450961D01*
X192219134Y-95453806D01*
X192227779Y-95458427D01*
X192235355Y-95464645D01*
X192241573Y-95472221D01*
X192246194Y-95480866D01*
X192249039Y-95490245D01*
X192250000Y-95500000D01*
X192250000Y-100500000D01*
X192249388Y-100507798D01*
G37*
D14*
X189200000Y-95395000D03*
D15*
X189200000Y-124605000D03*
D10*
G36*
X192198946Y-120060212D02*
G01*
X192196386Y-120072482D01*
X192196386Y-120147203D01*
X192167530Y-120440191D01*
X192110094Y-120728941D01*
X192024632Y-121010670D01*
X191976310Y-121127330D01*
X190748946Y-127010212D01*
X190746013Y-127019564D01*
X190741312Y-127028165D01*
X190735024Y-127035684D01*
X190727389Y-127041831D01*
X190718702Y-127046371D01*
X190709296Y-127049128D01*
X190700000Y-127050000D01*
X187700000Y-127050000D01*
X187690245Y-127049039D01*
X187680866Y-127046194D01*
X187672221Y-127041573D01*
X187664645Y-127035355D01*
X187658427Y-127027779D01*
X187653806Y-127019134D01*
X187651054Y-127010212D01*
X186423690Y-121127329D01*
X186375368Y-121010670D01*
X186289906Y-120728941D01*
X186232470Y-120440191D01*
X186203614Y-120147203D01*
X186203614Y-120072482D01*
X186201054Y-120060212D01*
X186200002Y-120050467D01*
X186200872Y-120040704D01*
X186203614Y-120031349D01*
X186203614Y-119852797D01*
X186232470Y-119559809D01*
X186289906Y-119271059D01*
X186375368Y-118989330D01*
X186488032Y-118717335D01*
X186626814Y-118457692D01*
X186790377Y-118212902D01*
X186977147Y-117985323D01*
X187185323Y-117777147D01*
X187412902Y-117590377D01*
X187657692Y-117426814D01*
X187917335Y-117288032D01*
X188189330Y-117175368D01*
X188471059Y-117089906D01*
X188759809Y-117032470D01*
X189052797Y-117003614D01*
X189347203Y-117003614D01*
X189640191Y-117032470D01*
X189928941Y-117089906D01*
X190210670Y-117175368D01*
X190482665Y-117288032D01*
X190742308Y-117426814D01*
X190987098Y-117590377D01*
X191214677Y-117777147D01*
X191422853Y-117985323D01*
X191609623Y-118212902D01*
X191773186Y-118457692D01*
X191911968Y-118717335D01*
X192024632Y-118989330D01*
X192110094Y-119271059D01*
X192167530Y-119559809D01*
X192196386Y-119852797D01*
X192196386Y-120031499D01*
X192199039Y-120040245D01*
X192200000Y-120050000D01*
X192198946Y-120060212D01*
G37*
D16*
X189200000Y-110000000D03*
X189200000Y-127000000D03*
%TD*%
D10*
%TO.C,JP20*%
G36*
X122800000Y-82695000D02*
G01*
X122300000Y-83445000D01*
X121300000Y-83445000D01*
X121300000Y-81945000D01*
X122300000Y-81945000D01*
X122800000Y-82695000D01*
G37*
G36*
X123750000Y-83445000D02*
G01*
X122600000Y-83445000D01*
X123100000Y-82695000D01*
X122600000Y-81945000D01*
X123750000Y-81945000D01*
X123750000Y-83445000D01*
G37*
%TD*%
%TO.C,JP19*%
G36*
X122340000Y-87140000D02*
G01*
X122840000Y-86390000D01*
X123840000Y-86390000D01*
X123840000Y-87890000D01*
X122840000Y-87890000D01*
X122340000Y-87140000D01*
G37*
G36*
X121390000Y-86390000D02*
G01*
X122540000Y-86390000D01*
X122040000Y-87140000D01*
X122540000Y-87890000D01*
X121390000Y-87890000D01*
X121390000Y-86390000D01*
G37*
%TD*%
D17*
%TO.C,JP18*%
X138400000Y-101110000D03*
X137100000Y-101110000D03*
X139700000Y-101110000D03*
%TD*%
%TO.C,JP17*%
X138430000Y-97935000D03*
X139730000Y-97935000D03*
X137130000Y-97935000D03*
%TD*%
%TO.C,JP16*%
X132685000Y-101110000D03*
X131385000Y-101110000D03*
X133985000Y-101110000D03*
%TD*%
%TO.C,JP15*%
X132685000Y-97935000D03*
X133985000Y-97935000D03*
X131385000Y-97935000D03*
%TD*%
D18*
%TO.C,TP49*%
X114905000Y-79520000D03*
%TD*%
%TO.C,TP48*%
X130145000Y-79520000D03*
%TD*%
%TO.C,TP44*%
X119985000Y-90315000D03*
%TD*%
%TO.C,TP43*%
X125065000Y-90315000D03*
%TD*%
D19*
%TO.C,H4*%
X85000000Y-65000000D03*
%TD*%
%TO.C,H3*%
X85000000Y-155000000D03*
%TD*%
%TO.C,H2*%
X235000000Y-155000000D03*
%TD*%
%TO.C,H1*%
X235000000Y-65000000D03*
%TD*%
D10*
%TO.C,J1*%
G36*
X218050961Y-131640245D02*
G01*
X218053806Y-131630866D01*
X218058427Y-131622221D01*
X218064645Y-131614645D01*
X218072221Y-131608427D01*
X218080866Y-131603806D01*
X218090245Y-131600961D01*
X218100000Y-131600000D01*
X239300000Y-131600000D01*
X239309755Y-131600961D01*
X239319134Y-131603806D01*
X239327779Y-131608427D01*
X239335355Y-131614645D01*
X239341573Y-131622221D01*
X239346194Y-131630866D01*
X239349039Y-131640245D01*
X239350000Y-131650000D01*
X239350000Y-148350000D01*
X239349039Y-148359755D01*
X239346194Y-148369134D01*
X239341573Y-148377779D01*
X239335355Y-148385355D01*
X239327779Y-148391573D01*
X239319134Y-148396194D01*
X239309755Y-148399039D01*
X239300000Y-148400000D01*
X218100000Y-148400000D01*
X218090245Y-148399039D01*
X218080866Y-148396194D01*
X218072221Y-148391573D01*
X218064645Y-148385355D01*
X218058427Y-148377779D01*
X218053806Y-148369134D01*
X218050961Y-148359755D01*
X218050000Y-148350000D01*
X218050000Y-131650000D01*
X218050961Y-131640245D01*
G37*
D18*
X233000000Y-143000000D03*
X233000000Y-137000000D03*
X226000000Y-134000000D03*
X230000000Y-134000000D03*
X233000000Y-134000000D03*
X236000000Y-134000000D03*
X236000000Y-137000000D03*
X236000000Y-140000000D03*
X236000000Y-143000000D03*
X236000000Y-146000000D03*
X233000000Y-146000000D03*
X230000000Y-146000000D03*
X226000000Y-146000000D03*
X223000000Y-137000000D03*
X223000000Y-143000000D03*
X223000000Y-146000000D03*
X223000000Y-134000000D03*
X220000000Y-134000000D03*
X220000000Y-137000000D03*
X220000000Y-146000000D03*
X220000000Y-143000000D03*
X220000000Y-140000000D03*
%TD*%
D10*
%TO.C,J7*%
G36*
X218050961Y-71650245D02*
G01*
X218053806Y-71640866D01*
X218058427Y-71632221D01*
X218064645Y-71624645D01*
X218072221Y-71618427D01*
X218080866Y-71613806D01*
X218090245Y-71610961D01*
X218100000Y-71610000D01*
X239300000Y-71610000D01*
X239309755Y-71610961D01*
X239319134Y-71613806D01*
X239327779Y-71618427D01*
X239335355Y-71624645D01*
X239341573Y-71632221D01*
X239346194Y-71640866D01*
X239349039Y-71650245D01*
X239350000Y-71660000D01*
X239350000Y-88360000D01*
X239349039Y-88369755D01*
X239346194Y-88379134D01*
X239341573Y-88387779D01*
X239335355Y-88395355D01*
X239327779Y-88401573D01*
X239319134Y-88406194D01*
X239309755Y-88409039D01*
X239300000Y-88410000D01*
X218100000Y-88410000D01*
X218090245Y-88409039D01*
X218080866Y-88406194D01*
X218072221Y-88401573D01*
X218064645Y-88395355D01*
X218058427Y-88387779D01*
X218053806Y-88379134D01*
X218050961Y-88369755D01*
X218050000Y-88360000D01*
X218050000Y-71660000D01*
X218050961Y-71650245D01*
G37*
D18*
X233000000Y-83010000D03*
X233000000Y-77010000D03*
X226000000Y-74010000D03*
X230000000Y-74010000D03*
X233000000Y-74010000D03*
X236000000Y-74010000D03*
X236000000Y-77010000D03*
X236000000Y-80010000D03*
X236000000Y-83010000D03*
X236000000Y-86010000D03*
X233000000Y-86010000D03*
X230000000Y-86010000D03*
X226000000Y-86010000D03*
X223000000Y-77010000D03*
X223000000Y-83010000D03*
X223000000Y-86010000D03*
X223000000Y-74010000D03*
X220000000Y-74010000D03*
X220000000Y-77010000D03*
X220000000Y-86010000D03*
X220000000Y-83010000D03*
X220000000Y-80010000D03*
%TD*%
D10*
%TO.C,J8*%
G36*
X218050961Y-111640245D02*
G01*
X218053806Y-111630866D01*
X218058427Y-111622221D01*
X218064645Y-111614645D01*
X218072221Y-111608427D01*
X218080866Y-111603806D01*
X218090245Y-111600961D01*
X218100000Y-111600000D01*
X239300000Y-111600000D01*
X239309755Y-111600961D01*
X239319134Y-111603806D01*
X239327779Y-111608427D01*
X239335355Y-111614645D01*
X239341573Y-111622221D01*
X239346194Y-111630866D01*
X239349039Y-111640245D01*
X239350000Y-111650000D01*
X239350000Y-128350000D01*
X239349039Y-128359755D01*
X239346194Y-128369134D01*
X239341573Y-128377779D01*
X239335355Y-128385355D01*
X239327779Y-128391573D01*
X239319134Y-128396194D01*
X239309755Y-128399039D01*
X239300000Y-128400000D01*
X218100000Y-128400000D01*
X218090245Y-128399039D01*
X218080866Y-128396194D01*
X218072221Y-128391573D01*
X218064645Y-128385355D01*
X218058427Y-128377779D01*
X218053806Y-128369134D01*
X218050961Y-128359755D01*
X218050000Y-128350000D01*
X218050000Y-111650000D01*
X218050961Y-111640245D01*
G37*
D18*
X233000000Y-123000000D03*
X233000000Y-117000000D03*
X226000000Y-114000000D03*
X230000000Y-114000000D03*
X233000000Y-114000000D03*
X236000000Y-114000000D03*
X236000000Y-117000000D03*
X236000000Y-120000000D03*
X236000000Y-123000000D03*
X236000000Y-126000000D03*
X233000000Y-126000000D03*
X230000000Y-126000000D03*
X226000000Y-126000000D03*
X223000000Y-117000000D03*
X223000000Y-123000000D03*
X223000000Y-126000000D03*
X223000000Y-114000000D03*
X220000000Y-114000000D03*
X220000000Y-117000000D03*
X220000000Y-126000000D03*
X220000000Y-123000000D03*
X220000000Y-120000000D03*
%TD*%
D10*
%TO.C,J2*%
G36*
X218050961Y-91640245D02*
G01*
X218053806Y-91630866D01*
X218058427Y-91622221D01*
X218064645Y-91614645D01*
X218072221Y-91608427D01*
X218080866Y-91603806D01*
X218090245Y-91600961D01*
X218100000Y-91600000D01*
X239300000Y-91600000D01*
X239309755Y-91600961D01*
X239319134Y-91603806D01*
X239327779Y-91608427D01*
X239335355Y-91614645D01*
X239341573Y-91622221D01*
X239346194Y-91630866D01*
X239349039Y-91640245D01*
X239350000Y-91650000D01*
X239350000Y-108350000D01*
X239349039Y-108359755D01*
X239346194Y-108369134D01*
X239341573Y-108377779D01*
X239335355Y-108385355D01*
X239327779Y-108391573D01*
X239319134Y-108396194D01*
X239309755Y-108399039D01*
X239300000Y-108400000D01*
X218100000Y-108400000D01*
X218090245Y-108399039D01*
X218080866Y-108396194D01*
X218072221Y-108391573D01*
X218064645Y-108385355D01*
X218058427Y-108377779D01*
X218053806Y-108369134D01*
X218050961Y-108359755D01*
X218050000Y-108350000D01*
X218050000Y-91650000D01*
X218050961Y-91640245D01*
G37*
D18*
X233000000Y-103000000D03*
X233000000Y-97000000D03*
X226000000Y-94000000D03*
X230000000Y-94000000D03*
X233000000Y-94000000D03*
X236000000Y-94000000D03*
X236000000Y-97000000D03*
X236000000Y-100000000D03*
X236000000Y-103000000D03*
X236000000Y-106000000D03*
X233000000Y-106000000D03*
X230000000Y-106000000D03*
X226000000Y-106000000D03*
X223000000Y-97000000D03*
X223000000Y-103000000D03*
X223000000Y-106000000D03*
X223000000Y-94000000D03*
X220000000Y-94000000D03*
X220000000Y-97000000D03*
X220000000Y-106000000D03*
X220000000Y-103000000D03*
X220000000Y-100000000D03*
%TD*%
D20*
%TO.C,J9*%
X86584000Y-110000000D03*
X84044000Y-110000000D03*
X86584000Y-112540000D03*
X84044000Y-112540000D03*
X86584000Y-115080000D03*
X84044000Y-115080000D03*
X86584000Y-117620000D03*
X84044000Y-117620000D03*
X86584000Y-120160000D03*
X84044000Y-120160000D03*
X86584000Y-122700000D03*
X84044000Y-122700000D03*
X86584000Y-125240000D03*
X84044000Y-125240000D03*
X86584000Y-127780000D03*
X84044000Y-127780000D03*
X86584000Y-130320000D03*
X84044000Y-130320000D03*
X86584000Y-132860000D03*
X84044000Y-132860000D03*
X86584000Y-135400000D03*
X84044000Y-135400000D03*
X86584000Y-137940000D03*
X84044000Y-137940000D03*
X86584000Y-140480000D03*
X84044000Y-140480000D03*
X86584000Y-143020000D03*
X84044000Y-143020000D03*
X86584000Y-145560000D03*
X84044000Y-145560000D03*
X86584000Y-148100000D03*
D21*
X84044000Y-148100000D03*
%TD*%
D18*
%TO.C,TP47*%
X177770000Y-90315000D03*
%TD*%
%TO.C,TP46*%
X177770000Y-81425000D03*
%TD*%
%TO.C,TP45*%
X215235000Y-90315000D03*
%TD*%
%TO.C,TP42*%
X101570000Y-64915000D03*
%TD*%
%TO.C,TP41*%
X95220000Y-71265000D03*
%TD*%
%TO.C,TP40*%
X85060000Y-71265000D03*
%TD*%
%TO.C,TP39*%
X85060000Y-90315000D03*
%TD*%
%TO.C,TP38*%
X139307000Y-93490000D03*
%TD*%
%TO.C,TP37*%
X130780000Y-93490000D03*
%TD*%
%TO.C,TP36*%
X119350000Y-95395000D03*
%TD*%
%TO.C,TP35*%
X131415000Y-104920000D03*
%TD*%
%TO.C,TP34*%
X215235000Y-138575000D03*
%TD*%
%TO.C,TP33*%
X177770000Y-129685000D03*
%TD*%
%TO.C,TP32*%
X177770000Y-138575000D03*
%TD*%
%TO.C,TP31*%
X140940000Y-64280000D03*
%TD*%
%TO.C,TP30*%
X140940000Y-79520000D03*
%TD*%
%TO.C,TP29*%
X147290000Y-64280000D03*
%TD*%
%TO.C,TP28*%
X173325000Y-75075000D03*
%TD*%
%TO.C,TP27*%
X196820000Y-64280000D03*
%TD*%
%TO.C,TP26*%
X227935000Y-68090000D03*
%TD*%
%TO.C,TP25*%
X173325000Y-144925000D03*
%TD*%
%TO.C,TP24*%
X196820000Y-155720000D03*
%TD*%
%TO.C,TP23*%
X227935000Y-151910000D03*
%TD*%
%TO.C,TP22*%
X140940000Y-139845000D03*
%TD*%
%TO.C,TP21*%
X140940000Y-155720000D03*
%TD*%
%TO.C,TP20*%
X147290000Y-155720000D03*
%TD*%
%TO.C,TP19*%
X96236000Y-91712000D03*
%TD*%
%TO.C,TP18*%
X87600000Y-104920000D03*
%TD*%
%TO.C,TP17*%
X132050000Y-129050000D03*
%TD*%
%TO.C,TP16*%
X136495000Y-129050000D03*
%TD*%
%TO.C,TP15*%
X123160000Y-129050000D03*
%TD*%
%TO.C,TP14*%
X127605000Y-129050000D03*
%TD*%
%TO.C,TP13*%
X140305000Y-130955000D03*
%TD*%
%TO.C,TP12*%
X109190000Y-145560000D03*
%TD*%
%TO.C,TP11*%
X116175000Y-141750000D03*
%TD*%
%TO.C,TP10*%
X112365000Y-141750000D03*
%TD*%
%TO.C,TP9*%
X118715000Y-129050000D03*
%TD*%
%TO.C,TP8*%
X105380000Y-127145000D03*
%TD*%
%TO.C,TP7*%
X96490000Y-120160000D03*
%TD*%
%TO.C,TP6*%
X100300000Y-120160000D03*
%TD*%
%TO.C,TP5*%
X92680000Y-120160000D03*
%TD*%
%TO.C,TP4*%
X135225000Y-104920000D03*
%TD*%
%TO.C,TP3*%
X110460000Y-90950000D03*
%TD*%
%TO.C,TP2*%
X139035000Y-104920000D03*
%TD*%
%TO.C,TP1*%
X212695000Y-110000000D03*
%TD*%
D20*
%TO.C,JP14*%
X95220000Y-150640000D03*
X95220000Y-153180000D03*
D21*
X95220000Y-155720000D03*
%TD*%
D20*
%TO.C,JP13*%
X91410000Y-150640000D03*
X91410000Y-153180000D03*
D21*
X91410000Y-155720000D03*
%TD*%
D20*
%TO.C,JP12*%
X99030000Y-150640000D03*
X99030000Y-153180000D03*
D21*
X99030000Y-155720000D03*
%TD*%
D20*
%TO.C,JP11*%
X135225000Y-89045000D03*
X135225000Y-86505000D03*
D21*
X135225000Y-83965000D03*
%TD*%
D20*
%TO.C,JP10*%
X139035000Y-89045000D03*
X139035000Y-86505000D03*
D21*
X139035000Y-83965000D03*
%TD*%
D20*
%TO.C,JP9*%
X126970000Y-110000000D03*
D21*
X126970000Y-112540000D03*
%TD*%
D20*
%TO.C,JP8*%
X123160000Y-110000000D03*
D21*
X123160000Y-112540000D03*
%TD*%
D20*
%TO.C,JP7*%
X119350000Y-110000000D03*
D21*
X119350000Y-112540000D03*
%TD*%
D20*
%TO.C,JP6*%
X114270000Y-110000000D03*
D21*
X114270000Y-112540000D03*
%TD*%
D20*
%TO.C,JP5*%
X110460000Y-110000000D03*
D21*
X110460000Y-112540000D03*
%TD*%
D20*
%TO.C,JP4*%
X106650000Y-110000000D03*
D21*
X106650000Y-112540000D03*
%TD*%
D20*
%TO.C,JP3*%
X139670000Y-110000000D03*
D21*
X139670000Y-112540000D03*
%TD*%
D20*
%TO.C,JP2*%
X135860000Y-110000000D03*
D21*
X135860000Y-112540000D03*
%TD*%
D20*
%TO.C,JP1*%
X132050000Y-110000000D03*
D21*
X132050000Y-112540000D03*
%TD*%
D22*
%TO.C,C49*%
X146100000Y-85870000D03*
D23*
X151100000Y-85870000D03*
%TD*%
D22*
%TO.C,C48*%
X148560000Y-103650000D03*
D23*
X148560000Y-98650000D03*
%TD*%
D22*
%TO.C,C47*%
X163800000Y-103570000D03*
D23*
X163800000Y-98570000D03*
%TD*%
D22*
%TO.C,C38*%
X146100000Y-134130000D03*
D23*
X151100000Y-134130000D03*
%TD*%
D22*
%TO.C,C37*%
X148560000Y-116350000D03*
D23*
X148560000Y-121350000D03*
%TD*%
D22*
%TO.C,C36*%
X163800000Y-116350000D03*
D23*
X163800000Y-121350000D03*
%TD*%
M02*
