<?xml version="1.0" standalone="no"?>
 <!DOCTYPE svg PUBLIC "-//W3C//DTD SVG 1.1//EN" 
 "http://www.w3.org/Graphics/SVG/1.1/DTD/svg11.dtd"> 
<svg
  xmlns:svg="http://www.w3.org/2000/svg"
  xmlns="http://www.w3.org/2000/svg"
  xmlns:xlink="http://www.w3.org/1999/xlink"
  version="1.1"
  width="29.700220cm" height="21.000720cm" viewBox="0 0 116930 82680">
<title>SVG Picture created as sesame-fonctionnel-Dwgs_User.svg date 2021/10/01 12:38:40 </title>
  <desc>Picture generated by PCBNEW </desc>
<g style="fill:#000000; fill-opacity:1;stroke:#000000; stroke-opacity:1;
stroke-linecap:round; stroke-linejoin:round;"
 transform="translate(0 0) scale(1 1)">
</g>
<g style="fill:#000000; fill-opacity:0.0; 
stroke:#000000; stroke-width:-0.000393701; stroke-opacity:1; 
stroke-linecap:round; stroke-linejoin:round;">
</g>
<g style="fill:#000000; fill-opacity:0.0; 
stroke:#000000; stroke-width:39.3701; stroke-opacity:1; 
stroke-linecap:round; stroke-linejoin:round;">
</g>
<g style="fill:#000000; fill-opacity:0.0; 
stroke:#000000; stroke-width:59.0551; stroke-opacity:1; 
stroke-linecap:round; stroke-linejoin:round;">
<rect x="69685.9" y="65357.2" width="42519.7" height="12598.4" rx="0" />
</g>
<g style="fill:#000000; fill-opacity:0.0; 
stroke:#000000; stroke-width:39.3701; stroke-opacity:1; 
stroke-linecap:round; stroke-linejoin:round;">
</g>
<g style="fill:#000000; fill-opacity:0.0; 
stroke:#000000; stroke-width:59.0551; stroke-opacity:1; 
stroke-linecap:round; stroke-linejoin:round;">
<rect x="3937.01" y="3937.01" width="109056" height="74806" rx="0" />
</g>
<g style="fill:#000000; fill-opacity:0.0; 
stroke:#000000; stroke-width:39.3701; stroke-opacity:1; 
stroke-linecap:round; stroke-linejoin:round;">
</g>
<g style="fill:#000000; fill-opacity:0.0; 
stroke:#000000; stroke-width:59.0551; stroke-opacity:1; 
stroke-linecap:round; stroke-linejoin:round;">
<rect x="4724.41" y="4724.41" width="107481" height="73231.2" rx="0" />
</g>
<g style="fill:#000000; fill-opacity:0.0; 
stroke:#000000; stroke-width:39.3701; stroke-opacity:1; 
stroke-linecap:round; stroke-linejoin:round;">
</g>
<g style="fill:#000000; fill-opacity:0.0; 
stroke:#000000; stroke-width:59.0551; stroke-opacity:1; 
stroke-linecap:round; stroke-linejoin:round;">
<path d="M23622 4724
L23622 3937
" />
</g>
<g style="fill:#000000; fill-opacity:0.0; 
stroke:#000000; stroke-width:39.3701; stroke-opacity:1; 
stroke-linecap:round; stroke-linejoin:round;">
</g>
<g style="fill:#000000; fill-opacity:0.0; 
stroke:#000000; stroke-width:59.0551; stroke-opacity:1; 
stroke-linecap:round; stroke-linejoin:round;">
<path d="M43307 4724
L43307 3937
" />
</g>
<g style="fill:#000000; fill-opacity:0.0; 
stroke:#000000; stroke-width:39.3701; stroke-opacity:1; 
stroke-linecap:round; stroke-linejoin:round;">
</g>
<g style="fill:#000000; fill-opacity:0.0; 
stroke:#000000; stroke-width:59.0551; stroke-opacity:1; 
stroke-linecap:round; stroke-linejoin:round;">
<path d="M62992 4724
L62992 3937
" />
</g>
<g style="fill:#000000; fill-opacity:0.0; 
stroke:#000000; stroke-width:39.3701; stroke-opacity:1; 
stroke-linecap:round; stroke-linejoin:round;">
</g>
<g style="fill:#000000; fill-opacity:0.0; 
stroke:#000000; stroke-width:59.0551; stroke-opacity:1; 
stroke-linecap:round; stroke-linejoin:round;">
<path d="M82677 4724
L82677 3937
" />
</g>
<g style="fill:#000000; fill-opacity:0.0; 
stroke:#000000; stroke-width:39.3701; stroke-opacity:1; 
stroke-linecap:round; stroke-linejoin:round;">
</g>
<g style="fill:#000000; fill-opacity:0.0; 
stroke:#000000; stroke-width:59.0551; stroke-opacity:1; 
stroke-linecap:round; stroke-linejoin:round;">
<path d="M102362 4724
L102362 3937
" />
</g>
<g style="fill:#000000; fill-opacity:0.0; 
stroke:#000000; stroke-width:39.3701; stroke-opacity:1; 
stroke-linecap:round; stroke-linejoin:round;">
</g>
<g style="fill:#000000; fill-opacity:0.0; 
stroke:#000000; stroke-width:59.0551; stroke-opacity:1; 
stroke-linecap:round; stroke-linejoin:round;">
<text x="13779.5" y="4586.61"
textLength="564.211" font-size="682.415" lengthAdjust="spacingAndGlyphs"
text-anchor="start" opacity="0">1</text>
<path d="M14199 4562
L13906 4562
" />
<path d="M14052 4562
L14052 4050
L14004 4123
L13955 4172
L13906 4196
" />
</g>
<g style="fill:#000000; fill-opacity:0.0; 
stroke:#000000; stroke-width:39.3701; stroke-opacity:1; 
stroke-linecap:round; stroke-linejoin:round;">
</g>
<g style="fill:#000000; fill-opacity:0.0; 
stroke:#000000; stroke-width:59.0551; stroke-opacity:1; 
stroke-linecap:round; stroke-linejoin:round;">
<text x="33464.6" y="4586.61"
textLength="546.494" font-size="682.415" lengthAdjust="spacingAndGlyphs"
text-anchor="start" opacity="0">2</text>
<path d="M33591 4099
L33615 4074
L33664 4050
L33786 4050
L33835 4074
L33859 4099
L33884 4147
L33884 4196
L33859 4269
L33567 4562
L33884 4562
" />
</g>
<g style="fill:#000000; fill-opacity:0.0; 
stroke:#000000; stroke-width:39.3701; stroke-opacity:1; 
stroke-linecap:round; stroke-linejoin:round;">
</g>
<g style="fill:#000000; fill-opacity:0.0; 
stroke:#000000; stroke-width:59.0551; stroke-opacity:1; 
stroke-linecap:round; stroke-linejoin:round;">
<text x="53149.6" y="4586.61"
textLength="546.494" font-size="682.415" lengthAdjust="spacingAndGlyphs"
text-anchor="start" opacity="0">3</text>
<path d="M53252 4050
L53569 4050
L53398 4245
L53471 4245
L53520 4269
L53544 4294
L53569 4342
L53569 4464
L53544 4513
L53520 4537
L53471 4562
L53325 4562
L53276 4537
L53252 4513
" />
</g>
<g style="fill:#000000; fill-opacity:0.0; 
stroke:#000000; stroke-width:39.3701; stroke-opacity:1; 
stroke-linecap:round; stroke-linejoin:round;">
</g>
<g style="fill:#000000; fill-opacity:0.0; 
stroke:#000000; stroke-width:59.0551; stroke-opacity:1; 
stroke-linecap:round; stroke-linejoin:round;">
<text x="72834.6" y="4586.61"
textLength="546.494" font-size="682.415" lengthAdjust="spacingAndGlyphs"
text-anchor="start" opacity="0">4</text>
<path d="M73205 4221
L73205 4562
" />
<path d="M73083 4026
L72961 4391
L73278 4391
" />
</g>
<g style="fill:#000000; fill-opacity:0.0; 
stroke:#000000; stroke-width:39.3701; stroke-opacity:1; 
stroke-linecap:round; stroke-linejoin:round;">
</g>
<g style="fill:#000000; fill-opacity:0.0; 
stroke:#000000; stroke-width:59.0551; stroke-opacity:1; 
stroke-linecap:round; stroke-linejoin:round;">
<text x="92519.7" y="4586.61"
textLength="546.494" font-size="682.415" lengthAdjust="spacingAndGlyphs"
text-anchor="start" opacity="0">5</text>
<path d="M92914 4050
L92671 4050
L92646 4294
L92671 4269
L92719 4245
L92841 4245
L92890 4269
L92914 4294
L92939 4342
L92939 4464
L92914 4513
L92890 4537
L92841 4562
L92719 4562
L92671 4537
L92646 4513
" />
</g>
<g style="fill:#000000; fill-opacity:0.0; 
stroke:#000000; stroke-width:39.3701; stroke-opacity:1; 
stroke-linecap:round; stroke-linejoin:round;">
</g>
<g style="fill:#000000; fill-opacity:0.0; 
stroke:#000000; stroke-width:59.0551; stroke-opacity:1; 
stroke-linecap:round; stroke-linejoin:round;">
<text x="112205" y="4586.61"
textLength="546.494" font-size="682.415" lengthAdjust="spacingAndGlyphs"
text-anchor="start" opacity="0">6</text>
<path d="M112575 4050
L112477 4050
L112429 4074
L112404 4099
L112356 4172
L112331 4269
L112331 4464
L112356 4513
L112380 4537
L112429 4562
L112526 4562
L112575 4537
L112599 4513
L112624 4464
L112624 4342
L112599 4294
L112575 4269
L112526 4245
L112429 4245
L112380 4269
L112356 4294
L112331 4342
" />
</g>
<g style="fill:#000000; fill-opacity:0.0; 
stroke:#000000; stroke-width:39.3701; stroke-opacity:1; 
stroke-linecap:round; stroke-linejoin:round;">
</g>
<g style="fill:#000000; fill-opacity:0.0; 
stroke:#000000; stroke-width:59.0551; stroke-opacity:1; 
stroke-linecap:round; stroke-linejoin:round;">
<path d="M23622 77955
L23622 78742
" />
</g>
<g style="fill:#000000; fill-opacity:0.0; 
stroke:#000000; stroke-width:39.3701; stroke-opacity:1; 
stroke-linecap:round; stroke-linejoin:round;">
</g>
<g style="fill:#000000; fill-opacity:0.0; 
stroke:#000000; stroke-width:59.0551; stroke-opacity:1; 
stroke-linecap:round; stroke-linejoin:round;">
<path d="M43307 77955
L43307 78742
" />
</g>
<g style="fill:#000000; fill-opacity:0.0; 
stroke:#000000; stroke-width:39.3701; stroke-opacity:1; 
stroke-linecap:round; stroke-linejoin:round;">
</g>
<g style="fill:#000000; fill-opacity:0.0; 
stroke:#000000; stroke-width:59.0551; stroke-opacity:1; 
stroke-linecap:round; stroke-linejoin:round;">
<path d="M62992 77955
L62992 78742
" />
</g>
<g style="fill:#000000; fill-opacity:0.0; 
stroke:#000000; stroke-width:39.3701; stroke-opacity:1; 
stroke-linecap:round; stroke-linejoin:round;">
</g>
<g style="fill:#000000; fill-opacity:0.0; 
stroke:#000000; stroke-width:59.0551; stroke-opacity:1; 
stroke-linecap:round; stroke-linejoin:round;">
<path d="M82677 77955
L82677 78742
" />
</g>
<g style="fill:#000000; fill-opacity:0.0; 
stroke:#000000; stroke-width:39.3701; stroke-opacity:1; 
stroke-linecap:round; stroke-linejoin:round;">
</g>
<g style="fill:#000000; fill-opacity:0.0; 
stroke:#000000; stroke-width:59.0551; stroke-opacity:1; 
stroke-linecap:round; stroke-linejoin:round;">
<path d="M102362 77955
L102362 78742
" />
</g>
<g style="fill:#000000; fill-opacity:0.0; 
stroke:#000000; stroke-width:39.3701; stroke-opacity:1; 
stroke-linecap:round; stroke-linejoin:round;">
</g>
<g style="fill:#000000; fill-opacity:0.0; 
stroke:#000000; stroke-width:59.0551; stroke-opacity:1; 
stroke-linecap:round; stroke-linejoin:round;">
<text x="13779.5" y="78605.2"
textLength="546.494" font-size="682.415" lengthAdjust="spacingAndGlyphs"
text-anchor="start" opacity="0">1</text>
<path d="M14199 78580
L13906 78580
" />
<path d="M14052 78580
L14052 78069
L14004 78142
L13955 78190
L13906 78215
" />
</g>
<g style="fill:#000000; fill-opacity:0.0; 
stroke:#000000; stroke-width:39.3701; stroke-opacity:1; 
stroke-linecap:round; stroke-linejoin:round;">
</g>
<g style="fill:#000000; fill-opacity:0.0; 
stroke:#000000; stroke-width:59.0551; stroke-opacity:1; 
stroke-linecap:round; stroke-linejoin:round;">
<text x="33464.6" y="78605.2"
textLength="546.494" font-size="682.415" lengthAdjust="spacingAndGlyphs"
text-anchor="start" opacity="0">2</text>
<path d="M33591 78117
L33615 78093
L33664 78069
L33786 78069
L33835 78093
L33859 78117
L33884 78166
L33884 78215
L33859 78288
L33567 78580
L33884 78580
" />
</g>
<g style="fill:#000000; fill-opacity:0.0; 
stroke:#000000; stroke-width:39.3701; stroke-opacity:1; 
stroke-linecap:round; stroke-linejoin:round;">
</g>
<g style="fill:#000000; fill-opacity:0.0; 
stroke:#000000; stroke-width:59.0551; stroke-opacity:1; 
stroke-linecap:round; stroke-linejoin:round;">
<text x="53149.6" y="78605.2"
textLength="546.494" font-size="682.415" lengthAdjust="spacingAndGlyphs"
text-anchor="start" opacity="0">3</text>
<path d="M53252 78069
L53569 78069
L53398 78263
L53471 78263
L53520 78288
L53544 78312
L53569 78361
L53569 78483
L53544 78532
L53520 78556
L53471 78580
L53325 78580
L53276 78556
L53252 78532
" />
</g>
<g style="fill:#000000; fill-opacity:0.0; 
stroke:#000000; stroke-width:39.3701; stroke-opacity:1; 
stroke-linecap:round; stroke-linejoin:round;">
</g>
<g style="fill:#000000; fill-opacity:0.0; 
stroke:#000000; stroke-width:59.0551; stroke-opacity:1; 
stroke-linecap:round; stroke-linejoin:round;">
<text x="72834.6" y="78605.2"
textLength="546.494" font-size="682.415" lengthAdjust="spacingAndGlyphs"
text-anchor="start" opacity="0">4</text>
<path d="M73205 78239
L73205 78580
" />
<path d="M73083 78044
L72961 78410
L73278 78410
" />
</g>
<g style="fill:#000000; fill-opacity:0.0; 
stroke:#000000; stroke-width:39.3701; stroke-opacity:1; 
stroke-linecap:round; stroke-linejoin:round;">
</g>
<g style="fill:#000000; fill-opacity:0.0; 
stroke:#000000; stroke-width:59.0551; stroke-opacity:1; 
stroke-linecap:round; stroke-linejoin:round;">
<text x="92519.7" y="78605.2"
textLength="546.494" font-size="682.415" lengthAdjust="spacingAndGlyphs"
text-anchor="start" opacity="0">5</text>
<path d="M92914 78069
L92671 78069
L92646 78312
L92671 78288
L92719 78263
L92841 78263
L92890 78288
L92914 78312
L92939 78361
L92939 78483
L92914 78532
L92890 78556
L92841 78580
L92719 78580
L92671 78556
L92646 78532
" />
</g>
<g style="fill:#000000; fill-opacity:0.0; 
stroke:#000000; stroke-width:39.3701; stroke-opacity:1; 
stroke-linecap:round; stroke-linejoin:round;">
</g>
<g style="fill:#000000; fill-opacity:0.0; 
stroke:#000000; stroke-width:59.0551; stroke-opacity:1; 
stroke-linecap:round; stroke-linejoin:round;">
<text x="112205" y="78605.2"
textLength="546.494" font-size="682.415" lengthAdjust="spacingAndGlyphs"
text-anchor="start" opacity="0">6</text>
<path d="M112575 78069
L112477 78069
L112429 78093
L112404 78117
L112356 78190
L112331 78288
L112331 78483
L112356 78532
L112380 78556
L112429 78580
L112526 78580
L112575 78556
L112599 78532
L112624 78483
L112624 78361
L112599 78312
L112575 78288
L112526 78263
L112429 78263
L112380 78288
L112356 78312
L112331 78361
" />
</g>
<g style="fill:#000000; fill-opacity:0.0; 
stroke:#000000; stroke-width:39.3701; stroke-opacity:1; 
stroke-linecap:round; stroke-linejoin:round;">
</g>
<g style="fill:#000000; fill-opacity:0.0; 
stroke:#000000; stroke-width:59.0551; stroke-opacity:1; 
stroke-linecap:round; stroke-linejoin:round;">
<path d="M3937 23622
L4724 23622
" />
</g>
<g style="fill:#000000; fill-opacity:0.0; 
stroke:#000000; stroke-width:39.3701; stroke-opacity:1; 
stroke-linecap:round; stroke-linejoin:round;">
</g>
<g style="fill:#000000; fill-opacity:0.0; 
stroke:#000000; stroke-width:59.0551; stroke-opacity:1; 
stroke-linecap:round; stroke-linejoin:round;">
<path d="M3937 43307
L4724 43307
" />
</g>
<g style="fill:#000000; fill-opacity:0.0; 
stroke:#000000; stroke-width:39.3701; stroke-opacity:1; 
stroke-linecap:round; stroke-linejoin:round;">
</g>
<g style="fill:#000000; fill-opacity:0.0; 
stroke:#000000; stroke-width:59.0551; stroke-opacity:1; 
stroke-linecap:round; stroke-linejoin:round;">
<path d="M3937 62992
L4724 62992
" />
</g>
<g style="fill:#000000; fill-opacity:0.0; 
stroke:#000000; stroke-width:39.3701; stroke-opacity:1; 
stroke-linecap:round; stroke-linejoin:round;">
</g>
<g style="fill:#000000; fill-opacity:0.0; 
stroke:#000000; stroke-width:59.0551; stroke-opacity:1; 
stroke-linecap:round; stroke-linejoin:round;">
<text x="4330.71" y="14035.4"
textLength="497.75" font-size="682.415" lengthAdjust="spacingAndGlyphs"
text-anchor="middle" opacity="0">A</text>
<path d="M4208 13864
L4452 13864
" />
<path d="M4160 14011
L4330 13499
L4501 14011
" />
</g>
<g style="fill:#000000; fill-opacity:0.0; 
stroke:#000000; stroke-width:39.3701; stroke-opacity:1; 
stroke-linecap:round; stroke-linejoin:round;">
</g>
<g style="fill:#000000; fill-opacity:0.0; 
stroke:#000000; stroke-width:59.0551; stroke-opacity:1; 
stroke-linecap:round; stroke-linejoin:round;">
<text x="4330.71" y="33720.5"
textLength="570.866" font-size="682.415" lengthAdjust="spacingAndGlyphs"
text-anchor="middle" opacity="0">B</text>
<path d="M4367 33428
L4440 33452
L4464 33476
L4489 33525
L4489 33598
L4464 33647
L4440 33671
L4391 33696
L4196 33696
L4196 33184
L4367 33184
L4416 33208
L4440 33233
L4464 33281
L4464 33330
L4440 33379
L4416 33403
L4367 33428
L4196 33428
" />
</g>
<g style="fill:#000000; fill-opacity:0.0; 
stroke:#000000; stroke-width:39.3701; stroke-opacity:1; 
stroke-linecap:round; stroke-linejoin:round;">
</g>
<g style="fill:#000000; fill-opacity:0.0; 
stroke:#000000; stroke-width:59.0551; stroke-opacity:1; 
stroke-linecap:round; stroke-linejoin:round;">
<text x="4330.71" y="53405.5"
textLength="570.866" font-size="682.415" lengthAdjust="spacingAndGlyphs"
text-anchor="middle" opacity="0">C</text>
<path d="M4489 53332
L4464 53356
L4391 53381
L4342 53381
L4269 53356
L4221 53308
L4196 53259
L4172 53161
L4172 53088
L4196 52991
L4221 52942
L4269 52893
L4342 52869
L4391 52869
L4464 52893
L4489 52918
" />
</g>
<g style="fill:#000000; fill-opacity:0.0; 
stroke:#000000; stroke-width:39.3701; stroke-opacity:1; 
stroke-linecap:round; stroke-linejoin:round;">
</g>
<g style="fill:#000000; fill-opacity:0.0; 
stroke:#000000; stroke-width:59.0551; stroke-opacity:1; 
stroke-linecap:round; stroke-linejoin:round;">
<text x="4330.71" y="73090.6"
textLength="570.866" font-size="682.415" lengthAdjust="spacingAndGlyphs"
text-anchor="middle" opacity="0">D</text>
<path d="M4196 73066
L4196 72554
L4318 72554
L4391 72578
L4440 72627
L4464 72676
L4489 72773
L4489 72846
L4464 72944
L4440 72993
L4391 73041
L4318 73066
L4196 73066
" />
</g>
<g style="fill:#000000; fill-opacity:0.0; 
stroke:#000000; stroke-width:39.3701; stroke-opacity:1; 
stroke-linecap:round; stroke-linejoin:round;">
</g>
<g style="fill:#000000; fill-opacity:0.0; 
stroke:#000000; stroke-width:59.0551; stroke-opacity:1; 
stroke-linecap:round; stroke-linejoin:round;">
<path d="M112992 23622
L112205 23622
" />
</g>
<g style="fill:#000000; fill-opacity:0.0; 
stroke:#000000; stroke-width:39.3701; stroke-opacity:1; 
stroke-linecap:round; stroke-linejoin:round;">
</g>
<g style="fill:#000000; fill-opacity:0.0; 
stroke:#000000; stroke-width:59.0551; stroke-opacity:1; 
stroke-linecap:round; stroke-linejoin:round;">
<path d="M112992 43307
L112205 43307
" />
</g>
<g style="fill:#000000; fill-opacity:0.0; 
stroke:#000000; stroke-width:39.3701; stroke-opacity:1; 
stroke-linecap:round; stroke-linejoin:round;">
</g>
<g style="fill:#000000; fill-opacity:0.0; 
stroke:#000000; stroke-width:59.0551; stroke-opacity:1; 
stroke-linecap:round; stroke-linejoin:round;">
<path d="M112992 62992
L112205 62992
" />
</g>
<g style="fill:#000000; fill-opacity:0.0; 
stroke:#000000; stroke-width:39.3701; stroke-opacity:1; 
stroke-linecap:round; stroke-linejoin:round;">
</g>
<g style="fill:#000000; fill-opacity:0.0; 
stroke:#000000; stroke-width:59.0551; stroke-opacity:1; 
stroke-linecap:round; stroke-linejoin:round;">
<text x="112599" y="14035.4"
textLength="497.75" font-size="682.415" lengthAdjust="spacingAndGlyphs"
text-anchor="middle" opacity="0">A</text>
<path d="M112477 13864
L112721 13864
" />
<path d="M112428 14011
L112599 13499
L112769 14011
" />
</g>
<g style="fill:#000000; fill-opacity:0.0; 
stroke:#000000; stroke-width:39.3701; stroke-opacity:1; 
stroke-linecap:round; stroke-linejoin:round;">
</g>
<g style="fill:#000000; fill-opacity:0.0; 
stroke:#000000; stroke-width:59.0551; stroke-opacity:1; 
stroke-linecap:round; stroke-linejoin:round;">
<text x="112599" y="33720.5"
textLength="570.866" font-size="682.415" lengthAdjust="spacingAndGlyphs"
text-anchor="middle" opacity="0">B</text>
<path d="M112635 33428
L112708 33452
L112733 33476
L112757 33525
L112757 33598
L112733 33647
L112708 33671
L112660 33696
L112465 33696
L112465 33184
L112635 33184
L112684 33208
L112708 33233
L112733 33281
L112733 33330
L112708 33379
L112684 33403
L112635 33428
L112465 33428
" />
</g>
<g style="fill:#000000; fill-opacity:0.0; 
stroke:#000000; stroke-width:39.3701; stroke-opacity:1; 
stroke-linecap:round; stroke-linejoin:round;">
</g>
<g style="fill:#000000; fill-opacity:0.0; 
stroke:#000000; stroke-width:59.0551; stroke-opacity:1; 
stroke-linecap:round; stroke-linejoin:round;">
<text x="112599" y="53405.5"
textLength="570.866" font-size="682.415" lengthAdjust="spacingAndGlyphs"
text-anchor="middle" opacity="0">C</text>
<path d="M112757 53332
L112733 53356
L112660 53381
L112611 53381
L112538 53356
L112489 53308
L112465 53259
L112440 53161
L112440 53088
L112465 52991
L112489 52942
L112538 52893
L112611 52869
L112660 52869
L112733 52893
L112757 52918
" />
</g>
<g style="fill:#000000; fill-opacity:0.0; 
stroke:#000000; stroke-width:39.3701; stroke-opacity:1; 
stroke-linecap:round; stroke-linejoin:round;">
</g>
<g style="fill:#000000; fill-opacity:0.0; 
stroke:#000000; stroke-width:59.0551; stroke-opacity:1; 
stroke-linecap:round; stroke-linejoin:round;">
<text x="112599" y="73090.6"
textLength="570.866" font-size="682.415" lengthAdjust="spacingAndGlyphs"
text-anchor="middle" opacity="0">D</text>
<path d="M112465 73066
L112465 72554
L112587 72554
L112660 72578
L112708 72627
L112733 72676
L112757 72773
L112757 72846
L112733 72944
L112708 72993
L112660 73041
L112587 73066
L112465 73066
" />
</g>
<g style="fill:#000000; fill-opacity:0.0; 
stroke:#000000; stroke-width:39.3701; stroke-opacity:1; 
stroke-linecap:round; stroke-linejoin:round;">
</g>
<g style="fill:#000000; fill-opacity:0.0; 
stroke:#000000; stroke-width:59.0551; stroke-opacity:1; 
stroke-linecap:round; stroke-linejoin:round;">
<text x="78741" y="76321.7"
textLength="2758.72" font-size="787.402" lengthAdjust="spacingAndGlyphs"
text-anchor="start" opacity="0">Date: </text>
<path d="M78911 76293
L78911 75703
L79051 75703
L79136 75731
L79192 75787
L79220 75843
L79248 75956
L79248 76040
L79220 76153
L79192 76209
L79136 76265
L79051 76293
L78911 76293
" />
<path d="M79754 76293
L79754 75984
L79726 75928
L79670 75899
L79557 75899
L79501 75928
" />
<path d="M79754 76265
L79698 76293
L79557 76293
L79501 76265
L79473 76209
L79473 76153
L79501 76096
L79557 76068
L79698 76068
L79754 76040
" />
<path d="M79951 75899
L80176 75899
" />
<path d="M80036 75703
L80036 76209
L80064 76265
L80120 76293
L80176 76293
" />
<path d="M80598 76265
L80542 76293
L80429 76293
L80373 76265
L80345 76209
L80345 75984
L80373 75928
L80429 75899
L80542 75899
L80598 75928
L80626 75984
L80626 76040
L80345 76096
" />
<path d="M80879 76237
L80907 76265
L80879 76293
L80851 76265
L80879 76237
L80879 76293
" />
<path d="M80879 75928
L80907 75956
L80879 75984
L80851 75956
L80879 75928
L80879 75984
" />
</g>
<g style="fill:#000000; fill-opacity:0.0; 
stroke:#000000; stroke-width:39.3701; stroke-opacity:1; 
stroke-linecap:round; stroke-linejoin:round;">
</g>
<g style="fill:#000000; fill-opacity:0.0; 
stroke:#000000; stroke-width:59.0551; stroke-opacity:1; 
stroke-linecap:round; stroke-linejoin:round;">
<path d="M69685 76577
L112205 76577
" />
</g>
<g style="fill:#000000; fill-opacity:0.0; 
stroke:#000000; stroke-width:39.3701; stroke-opacity:1; 
stroke-linecap:round; stroke-linejoin:round;">
</g>
<g style="fill:#000000; fill-opacity:0.0; 
stroke:#000000; stroke-width:59.0551; stroke-opacity:1; 
stroke-linecap:round; stroke-linejoin:round;">
<text x="70079.6" y="77424.1"
textLength="17522.5" font-size="787.402" lengthAdjust="spacingAndGlyphs"
text-anchor="start" opacity="0">KiCad E.D.A.  kicad (5.1.10-1-10_14)</text>
<path d="M70249 77395
L70249 76805
" />
<path d="M70587 77395
L70334 77058
" />
<path d="M70587 76805
L70249 77142
" />
<path d="M70840 77395
L70840 77002
" />
<path d="M70840 76805
L70812 76833
L70840 76861
L70868 76833
L70840 76805
L70840 76861
" />
<path d="M71458 77339
L71430 77367
L71346 77395
L71290 77395
L71205 77367
L71149 77311
L71121 77255
L71093 77142
L71093 77058
L71121 76946
L71149 76889
L71205 76833
L71290 76805
L71346 76805
L71430 76833
L71458 76861
" />
<path d="M71965 77395
L71965 77086
L71937 77030
L71880 77002
L71768 77002
L71712 77030
" />
<path d="M71965 77367
L71908 77395
L71768 77395
L71712 77367
L71683 77311
L71683 77255
L71712 77199
L71768 77171
L71908 77171
L71965 77142
" />
<path d="M72499 77395
L72499 76805
" />
<path d="M72499 77367
L72443 77395
L72330 77395
L72274 77367
L72246 77339
L72218 77283
L72218 77114
L72246 77058
L72274 77030
L72330 77002
L72443 77002
L72499 77030
" />
<path d="M73230 77086
L73427 77086
" />
<path d="M73511 77395
L73230 77395
L73230 76805
L73511 76805
" />
<path d="M73764 77339
L73793 77367
L73764 77395
L73736 77367
L73764 77339
L73764 77395
" />
<path d="M74046 77395
L74046 76805
L74186 76805
L74271 76833
L74327 76889
L74355 76946
L74383 77058
L74383 77142
L74355 77255
L74327 77311
L74271 77367
L74186 77395
L74046 77395
" />
<path d="M74636 77339
L74664 77367
L74636 77395
L74608 77367
L74636 77339
L74636 77395
" />
<path d="M74889 77227
L75171 77227
" />
<path d="M74833 77395
L75030 76805
L75227 77395
" />
<path d="M75424 77339
L75452 77367
L75424 77395
L75395 77367
L75424 77339
L75424 77395
" />
<path d="M76605 77395
L76605 76805
" />
<path d="M76661 77171
L76830 77395
" />
<path d="M76830 77002
L76605 77227
" />
<path d="M77083 77395
L77083 77002
" />
<path d="M77083 76805
L77055 76833
L77083 76861
L77111 76833
L77083 76805
L77083 76861
" />
<path d="M77617 77367
L77561 77395
L77448 77395
L77392 77367
L77364 77339
L77336 77283
L77336 77114
L77364 77058
L77392 77030
L77448 77002
L77561 77002
L77617 77030
" />
<path d="M78123 77395
L78123 77086
L78095 77030
L78039 77002
L77926 77002
L77870 77030
" />
<path d="M78123 77367
L78067 77395
L77926 77395
L77870 77367
L77842 77311
L77842 77255
L77870 77199
L77926 77171
L78067 77171
L78123 77142
" />
<path d="M78658 77395
L78658 76805
" />
<path d="M78658 77367
L78601 77395
L78489 77395
L78433 77367
L78404 77339
L78376 77283
L78376 77114
L78404 77058
L78433 77030
L78489 77002
L78601 77002
L78658 77030
" />
<path d="M79557 77620
L79529 77592
L79473 77508
L79445 77452
L79417 77367
L79389 77227
L79389 77114
L79417 76974
L79445 76889
L79473 76833
L79529 76749
L79557 76721
" />
<path d="M80064 76805
L79782 76805
L79754 77086
L79782 77058
L79839 77030
L79979 77030
L80036 77058
L80064 77086
L80092 77142
L80092 77283
L80064 77339
L80036 77367
L79979 77395
L79839 77395
L79782 77367
L79754 77339
" />
<path d="M80345 77339
L80373 77367
L80345 77395
L80317 77367
L80345 77339
L80345 77395
" />
<path d="M80935 77395
L80598 77395
" />
<path d="M80767 77395
L80767 76805
L80710 76889
L80654 76946
L80598 76974
" />
<path d="M81188 77339
L81217 77367
L81188 77395
L81160 77367
L81188 77339
L81188 77395
" />
<path d="M81779 77395
L81442 77395
" />
<path d="M81610 77395
L81610 76805
L81554 76889
L81498 76946
L81442 76974
" />
<path d="M82145 76805
L82201 76805
L82257 76833
L82285 76861
L82313 76917
L82341 77030
L82341 77171
L82313 77283
L82285 77339
L82257 77367
L82201 77395
L82145 77395
L82088 77367
L82060 77339
L82032 77283
L82004 77171
L82004 77030
L82032 76917
L82060 76861
L82088 76833
L82145 76805
" />
<path d="M82595 77171
L83045 77171
" />
<path d="M83635 77395
L83298 77395
" />
<path d="M83466 77395
L83466 76805
L83410 76889
L83354 76946
L83298 76974
" />
<path d="M83888 77171
L84338 77171
" />
<path d="M84929 77395
L84591 77395
" />
<path d="M84760 77395
L84760 76805
L84704 76889
L84647 76946
L84591 76974
" />
<path d="M85294 76805
L85350 76805
L85407 76833
L85435 76861
L85463 76917
L85491 77030
L85491 77171
L85463 77283
L85435 77339
L85407 77367
L85350 77395
L85294 77395
L85238 77367
L85210 77339
L85182 77283
L85154 77171
L85154 77030
L85182 76917
L85210 76861
L85238 76833
L85294 76805
" />
<path d="M85604 77452
L86054 77452
" />
<path d="M86503 77395
L86166 77395
" />
<path d="M86335 77395
L86335 76805
L86278 76889
L86222 76946
L86166 76974
" />
<path d="M87010 77002
L87010 77395
" />
<path d="M86869 76777
L86728 77199
L87094 77199
" />
<path d="M87263 77620
L87291 77592
L87347 77508
L87375 77452
L87403 77367
L87431 77227
L87431 77114
L87403 76974
L87375 76889
L87347 76833
L87291 76749
L87263 76721
" />
</g>
<g style="fill:#000000; fill-opacity:0.0; 
stroke:#000000; stroke-width:39.3701; stroke-opacity:1; 
stroke-linecap:round; stroke-linejoin:round;">
</g>
<g style="fill:#000000; fill-opacity:0.0; 
stroke:#000000; stroke-width:59.0551; stroke-opacity:1; 
stroke-linecap:round; stroke-linejoin:round;">
<path d="M69685 75396
L112205 75396
" />
</g>
<g style="fill:#000000; fill-opacity:0.0; 
stroke:#000000; stroke-width:39.3701; stroke-opacity:1; 
stroke-linecap:round; stroke-linejoin:round;">
</g>
<g style="fill:#000000; fill-opacity:0.0; 
stroke:#000000; stroke-width:118.11; stroke-opacity:1; 
stroke-linecap:round; stroke-linejoin:round;">
<text x="103544" y="76321.7"
textLength="2336.9" font-size="787.402" lengthAdjust="spacingAndGlyphs"
text-anchor="start" opacity="0">Rev: </text>
<path d="M104099 76293
L103902 76012
" />
<path d="M103761 76293
L103761 75703
L103986 75703
L104042 75731
L104070 75759
L104099 75815
L104099 75899
L104070 75956
L104042 75984
L103986 76012
L103761 76012
" />
<path d="M104577 76265
L104520 76293
L104408 76293
L104352 76265
L104323 76209
L104323 75984
L104352 75928
L104408 75899
L104520 75899
L104577 75928
L104605 75984
L104605 76040
L104323 76096
" />
<path d="M104802 75899
L104942 76293
L105083 75899
" />
<path d="M105308 76237
L105336 76265
L105308 76293
L105280 76265
L105308 76237
L105308 76293
" />
<path d="M105308 75928
L105336 75956
L105308 75984
L105280 75956
L105308 75928
L105308 75984
" />
</g>
<g style="fill:#000000; fill-opacity:0.0; 
stroke:#000000; stroke-width:39.3701; stroke-opacity:1; 
stroke-linecap:round; stroke-linejoin:round;">
</g>
<g style="fill:#000000; fill-opacity:0.0; 
stroke:#000000; stroke-width:59.0551; stroke-opacity:1; 
stroke-linecap:round; stroke-linejoin:round;">
<text x="70079.6" y="76321.7"
textLength="3781.21" font-size="787.402" lengthAdjust="spacingAndGlyphs"
text-anchor="start" opacity="0">Size: A4</text>
<path d="M70221 76265
L70305 76293
L70446 76293
L70502 76265
L70530 76237
L70559 76181
L70559 76124
L70530 76068
L70502 76040
L70446 76012
L70334 75984
L70277 75956
L70249 75928
L70221 75871
L70221 75815
L70249 75759
L70277 75731
L70334 75703
L70474 75703
L70559 75731
" />
<path d="M70812 76293
L70812 75899
" />
<path d="M70812 75703
L70784 75731
L70812 75759
L70840 75731
L70812 75703
L70812 75759
" />
<path d="M71037 75899
L71346 75899
L71037 76293
L71346 76293
" />
<path d="M71796 76265
L71740 76293
L71627 76293
L71571 76265
L71543 76209
L71543 75984
L71571 75928
L71627 75899
L71740 75899
L71796 75928
L71824 75984
L71824 76040
L71543 76096
" />
<path d="M72077 76237
L72105 76265
L72077 76293
L72049 76265
L72077 76237
L72077 76293
" />
<path d="M72077 75928
L72105 75956
L72077 75984
L72049 75956
L72077 75928
L72077 75984
" />
<path d="M72780 76124
L73061 76124
" />
<path d="M72724 76293
L72921 75703
L73118 76293
" />
<path d="M73568 75899
L73568 76293
" />
<path d="M73427 75674
L73286 76096
L73652 76096
" />
</g>
<g style="fill:#000000; fill-opacity:0.0; 
stroke:#000000; stroke-width:39.3701; stroke-opacity:1; 
stroke-linecap:round; stroke-linejoin:round;">
</g>
<g style="fill:#000000; fill-opacity:0.0; 
stroke:#000000; stroke-width:59.0551; stroke-opacity:1; 
stroke-linecap:round; stroke-linejoin:round;">
<text x="103544" y="77424.1"
textLength="3349.27" font-size="787.402" lengthAdjust="spacingAndGlyphs"
text-anchor="start" opacity="0">Id: 1/1</text>
<path d="M103714 77395
L103714 76805
" />
<path d="M104248 77395
L104248 76805
" />
<path d="M104248 77367
L104192 77395
L104079 77395
L104023 77367
L103995 77339
L103967 77283
L103967 77114
L103995 77058
L104023 77030
L104079 77002
L104192 77002
L104248 77030
" />
<path d="M104529 77339
L104557 77367
L104529 77395
L104501 77367
L104529 77339
L104529 77395
" />
<path d="M104529 77030
L104557 77058
L104529 77086
L104501 77058
L104529 77030
L104529 77086
" />
<path d="M105570 77395
L105232 77395
" />
<path d="M105401 77395
L105401 76805
L105345 76889
L105289 76946
L105232 76974
" />
<path d="M106245 76777
L105739 77536
" />
<path d="M106751 77395
L106413 77395
" />
<path d="M106582 77395
L106582 76805
L106526 76889
L106470 76946
L106413 76974
" />
</g>
<g style="fill:#000000; fill-opacity:0.0; 
stroke:#000000; stroke-width:39.3701; stroke-opacity:1; 
stroke-linecap:round; stroke-linejoin:round;">
</g>
<g style="fill:#000000; fill-opacity:0.0; 
stroke:#000000; stroke-width:59.0551; stroke-opacity:1; 
stroke-linecap:round; stroke-linejoin:round;">
<path d="M69685 73821
L112205 73821
" />
</g>
<g style="fill:#000000; fill-opacity:0.0; 
stroke:#000000; stroke-width:39.3701; stroke-opacity:1; 
stroke-linecap:round; stroke-linejoin:round;">
</g>
<g style="fill:#000000; fill-opacity:0.0; 
stroke:#000000; stroke-width:157.48; stroke-opacity:1; 
stroke-linecap:round; stroke-linejoin:round;">
<text x="70079.6" y="74924.1"
textLength="3701.14" font-size="1049.87" lengthAdjust="spacingAndGlyphs"
text-anchor="start" opacity="0">Title: </text>
<path d="M70360 74099
L70810 74099
" />
<path d="M70486 74886
L70585 74099
" />
<path d="M70974 74886
L71039 74361
" />
<path d="M71072 74099
L71030 74136
L71063 74174
L71105 74136
L71072 74099
L71063 74174
" />
<path d="M71302 74361
L71602 74361
" />
<path d="M71447 74099
L71363 74774
L71391 74849
L71461 74886
L71536 74886
" />
<path d="M71911 74886
L71841 74849
L71813 74774
L71897 74099
" />
<path d="M72516 74849
L72436 74886
L72286 74886
L72216 74849
L72187 74774
L72225 74474
L72272 74399
L72352 74361
L72501 74361
L72572 74399
L72600 74474
L72591 74549
L72206 74624
" />
<path d="M72895 74811
L72928 74849
L72886 74886
L72853 74849
L72895 74811
L72886 74886
" />
<path d="M72947 74399
L72980 74436
L72937 74474
L72905 74436
L72947 74399
L72937 74474
" />
</g>
<g style="fill:#000000; fill-opacity:0.0; 
stroke:#000000; stroke-width:39.3701; stroke-opacity:1; 
stroke-linecap:round; stroke-linejoin:round;">
</g>
<g style="fill:#000000; fill-opacity:0.0; 
stroke:#000000; stroke-width:59.0551; stroke-opacity:1; 
stroke-linecap:round; stroke-linejoin:round;">
<text x="70079.6" y="73408.3"
textLength="16149.6" font-size="787.402" lengthAdjust="spacingAndGlyphs"
text-anchor="start" opacity="0">File: sesame-fonctionnel.kicad_pcb</text>
<path d="M70446 73070
L70249 73070
" />
<path d="M70249 73380
L70249 72789
L70530 72789
" />
<path d="M70755 73380
L70755 72986
" />
<path d="M70755 72789
L70727 72817
L70755 72845
L70784 72817
L70755 72789
L70755 72845
" />
<path d="M71121 73380
L71065 73352
L71037 73295
L71037 72789
" />
<path d="M71571 73352
L71515 73380
L71402 73380
L71346 73352
L71318 73295
L71318 73070
L71346 73014
L71402 72986
L71515 72986
L71571 73014
L71599 73070
L71599 73127
L71318 73183
" />
<path d="M71852 73323
L71880 73352
L71852 73380
L71824 73352
L71852 73323
L71852 73380
" />
<path d="M71852 73014
L71880 73042
L71852 73070
L71824 73042
L71852 73014
L71852 73070
" />
<path d="M72555 73352
L72611 73380
L72724 73380
L72780 73352
L72808 73295
L72808 73267
L72780 73211
L72724 73183
L72640 73183
L72583 73155
L72555 73099
L72555 73070
L72583 73014
L72640 72986
L72724 72986
L72780 73014
" />
<path d="M73286 73352
L73230 73380
L73118 73380
L73061 73352
L73033 73295
L73033 73070
L73061 73014
L73118 72986
L73230 72986
L73286 73014
L73314 73070
L73314 73127
L73033 73183
" />
<path d="M73539 73352
L73596 73380
L73708 73380
L73764 73352
L73793 73295
L73793 73267
L73764 73211
L73708 73183
L73624 73183
L73568 73155
L73539 73099
L73539 73070
L73568 73014
L73624 72986
L73708 72986
L73764 73014
" />
<path d="M74299 73380
L74299 73070
L74271 73014
L74214 72986
L74102 72986
L74046 73014
" />
<path d="M74299 73352
L74242 73380
L74102 73380
L74046 73352
L74018 73295
L74018 73239
L74046 73183
L74102 73155
L74242 73155
L74299 73127
" />
<path d="M74580 73380
L74580 72986
" />
<path d="M74580 73042
L74608 73014
L74664 72986
L74749 72986
L74805 73014
L74833 73070
L74833 73380
" />
<path d="M74833 73070
L74861 73014
L74917 72986
L75002 72986
L75058 73014
L75086 73070
L75086 73380
" />
<path d="M75592 73352
L75536 73380
L75424 73380
L75367 73352
L75339 73295
L75339 73070
L75367 73014
L75424 72986
L75536 72986
L75592 73014
L75620 73070
L75620 73127
L75339 73183
" />
<path d="M75874 73155
L76323 73155
" />
<path d="M76520 72986
L76745 72986
" />
<path d="M76605 73380
L76605 72874
L76633 72817
L76689 72789
L76745 72789
" />
<path d="M77027 73380
L76970 73352
L76942 73323
L76914 73267
L76914 73099
L76942 73042
L76970 73014
L77027 72986
L77111 72986
L77167 73014
L77195 73042
L77223 73099
L77223 73267
L77195 73323
L77167 73352
L77111 73380
L77027 73380
" />
<path d="M77476 72986
L77476 73380
" />
<path d="M77476 73042
L77505 73014
L77561 72986
L77645 72986
L77701 73014
L77730 73070
L77730 73380
" />
<path d="M78264 73352
L78208 73380
L78095 73380
L78039 73352
L78011 73323
L77983 73267
L77983 73099
L78011 73042
L78039 73014
L78095 72986
L78208 72986
L78264 73014
" />
<path d="M78433 72986
L78658 72986
" />
<path d="M78517 72789
L78517 73295
L78545 73352
L78601 73380
L78658 73380
" />
<path d="M78854 73380
L78854 72986
" />
<path d="M78854 72789
L78826 72817
L78854 72845
L78883 72817
L78854 72789
L78854 72845
" />
<path d="M79220 73380
L79164 73352
L79136 73323
L79108 73267
L79108 73099
L79136 73042
L79164 73014
L79220 72986
L79304 72986
L79361 73014
L79389 73042
L79417 73099
L79417 73267
L79389 73323
L79361 73352
L79304 73380
L79220 73380
" />
<path d="M79670 72986
L79670 73380
" />
<path d="M79670 73042
L79698 73014
L79754 72986
L79839 72986
L79895 73014
L79923 73070
L79923 73380
" />
<path d="M80204 72986
L80204 73380
" />
<path d="M80204 73042
L80232 73014
L80289 72986
L80373 72986
L80429 73014
L80457 73070
L80457 73380
" />
<path d="M80964 73352
L80907 73380
L80795 73380
L80739 73352
L80710 73295
L80710 73070
L80739 73014
L80795 72986
L80907 72986
L80964 73014
L80992 73070
L80992 73127
L80710 73183
" />
<path d="M81329 73380
L81273 73352
L81245 73295
L81245 72789
" />
<path d="M81554 73323
L81582 73352
L81554 73380
L81526 73352
L81554 73323
L81554 73380
" />
<path d="M81835 73380
L81835 72789
" />
<path d="M81892 73155
L82060 73380
" />
<path d="M82060 72986
L81835 73211
" />
<path d="M82313 73380
L82313 72986
" />
<path d="M82313 72789
L82285 72817
L82313 72845
L82341 72817
L82313 72789
L82313 72845
" />
<path d="M82848 73352
L82791 73380
L82679 73380
L82623 73352
L82595 73323
L82566 73267
L82566 73099
L82595 73042
L82623 73014
L82679 72986
L82791 72986
L82848 73014
" />
<path d="M83354 73380
L83354 73070
L83326 73014
L83269 72986
L83157 72986
L83101 73014
" />
<path d="M83354 73352
L83298 73380
L83157 73380
L83101 73352
L83073 73295
L83073 73239
L83101 73183
L83157 73155
L83298 73155
L83354 73127
" />
<path d="M83888 73380
L83888 72789
" />
<path d="M83888 73352
L83832 73380
L83719 73380
L83663 73352
L83635 73323
L83607 73267
L83607 73099
L83635 73042
L83663 73014
L83719 72986
L83832 72986
L83888 73014
" />
<path d="M84029 73436
L84479 73436
" />
<path d="M84619 72986
L84619 73577
" />
<path d="M84619 73014
L84676 72986
L84788 72986
L84844 73014
L84872 73042
L84901 73099
L84901 73267
L84872 73323
L84844 73352
L84788 73380
L84676 73380
L84619 73352
" />
<path d="M85407 73352
L85350 73380
L85238 73380
L85182 73352
L85154 73323
L85126 73267
L85126 73099
L85154 73042
L85182 73014
L85238 72986
L85350 72986
L85407 73014
" />
<path d="M85660 73380
L85660 72789
" />
<path d="M85660 73014
L85716 72986
L85829 72986
L85885 73014
L85913 73042
L85941 73099
L85941 73267
L85913 73323
L85885 73352
L85829 73380
L85716 73380
L85660 73352
" />
</g>
<g style="fill:#000000; fill-opacity:0.0; 
stroke:#000000; stroke-width:39.3701; stroke-opacity:1; 
stroke-linecap:round; stroke-linejoin:round;">
</g>
<g style="fill:#000000; fill-opacity:0.0; 
stroke:#000000; stroke-width:59.0551; stroke-opacity:1; 
stroke-linecap:round; stroke-linejoin:round;">
<path d="M69685 71459
L112205 71459
" />
</g>
<g style="fill:#000000; fill-opacity:0.0; 
stroke:#000000; stroke-width:39.3701; stroke-opacity:1; 
stroke-linecap:round; stroke-linejoin:round;">
</g>
<g style="fill:#000000; fill-opacity:0.0; 
stroke:#000000; stroke-width:59.0551; stroke-opacity:1; 
stroke-linecap:round; stroke-linejoin:round;">
<text x="70079.6" y="72345.4"
textLength="3236.78" font-size="787.402" lengthAdjust="spacingAndGlyphs"
text-anchor="start" opacity="0">Sheet: </text>
<path d="M70221 72289
L70305 72317
L70446 72317
L70502 72289
L70530 72260
L70559 72204
L70559 72148
L70530 72092
L70502 72064
L70446 72036
L70334 72007
L70277 71979
L70249 71951
L70221 71895
L70221 71839
L70249 71782
L70277 71754
L70334 71726
L70474 71726
L70559 71754
" />
<path d="M70812 72317
L70812 71726
" />
<path d="M71065 72317
L71065 72007
L71037 71951
L70980 71923
L70896 71923
L70840 71951
L70812 71979
" />
<path d="M71571 72289
L71515 72317
L71402 72317
L71346 72289
L71318 72232
L71318 72007
L71346 71951
L71402 71923
L71515 71923
L71571 71951
L71599 72007
L71599 72064
L71318 72120
" />
<path d="M72077 72289
L72021 72317
L71908 72317
L71852 72289
L71824 72232
L71824 72007
L71852 71951
L71908 71923
L72021 71923
L72077 71951
L72105 72007
L72105 72064
L71824 72120
" />
<path d="M72274 71923
L72499 71923
" />
<path d="M72358 71726
L72358 72232
L72386 72289
L72443 72317
L72499 72317
" />
<path d="M72696 72260
L72724 72289
L72696 72317
L72668 72289
L72696 72260
L72696 72317
" />
<path d="M72696 71951
L72724 71979
L72696 72007
L72668 71979
L72696 71951
L72696 72007
" />
</g>
<g style="fill:#000000; fill-opacity:0.0; 
stroke:#000000; stroke-width:39.3701; stroke-opacity:1; 
stroke-linecap:round; stroke-linejoin:round;">
</g>
<g style="fill:#000000; fill-opacity:0.0; 
stroke:#000000; stroke-width:59.0551; stroke-opacity:1; 
stroke-linecap:round; stroke-linejoin:round;">
<path d="M77559 75396
L77559 76577
" />
</g>
<g style="fill:#000000; fill-opacity:0.0; 
stroke:#000000; stroke-width:39.3701; stroke-opacity:1; 
stroke-linecap:round; stroke-linejoin:round;">
</g>
<g style="fill:#000000; fill-opacity:0.0; 
stroke:#000000; stroke-width:59.0551; stroke-opacity:1; 
stroke-linecap:round; stroke-linejoin:round;">
<path d="M102756 75396
L102756 77955
" />
<g transform="rotate(-90 103268 43307.1)">
<text x="103268" y="43503.9"
textLength="3846.08" font-size="524.934" lengthAdjust="spacingAndGlyphs"
text-anchor="middle" opacity="0">100.000 mm</text>
</g>
<path d="M103445 44900
L103445 45125
" />
<path d="M103445 45013
L103052 45013
L103108 45050
L103145 45088
L103164 45125
" />
<path d="M103052 44656
L103052 44619
L103070 44581
L103089 44563
L103127 44544
L103202 44525
L103295 44525
L103370 44544
L103408 44563
L103427 44581
L103445 44619
L103445 44656
L103427 44694
L103408 44713
L103370 44731
L103295 44750
L103202 44750
L103127 44731
L103089 44713
L103070 44694
L103052 44656
" />
<path d="M103052 44281
L103052 44244
L103070 44206
L103089 44188
L103127 44169
L103202 44150
L103295 44150
L103370 44169
L103408 44188
L103427 44206
L103445 44244
L103445 44281
L103427 44319
L103408 44338
L103370 44356
L103295 44375
L103202 44375
L103127 44356
L103089 44338
L103070 44319
L103052 44281
" />
<path d="M103408 43982
L103427 43963
L103445 43982
L103427 44000
L103408 43982
L103445 43982
" />
<path d="M103052 43719
L103052 43682
L103070 43644
L103089 43625
L103127 43607
L103202 43588
L103295 43588
L103370 43607
L103408 43625
L103427 43644
L103445 43682
L103445 43719
L103427 43757
L103408 43775
L103370 43794
L103295 43813
L103202 43813
L103127 43794
L103089 43775
L103070 43757
L103052 43719
" />
<path d="M103052 43344
L103052 43307
L103070 43269
L103089 43250
L103127 43232
L103202 43213
L103295 43213
L103370 43232
L103408 43250
L103427 43269
L103445 43307
L103445 43344
L103427 43382
L103408 43400
L103370 43419
L103295 43438
L103202 43438
L103127 43419
L103089 43400
L103070 43382
L103052 43344
" />
<path d="M103052 42969
L103052 42932
L103070 42894
L103089 42875
L103127 42857
L103202 42838
L103295 42838
L103370 42857
L103408 42875
L103427 42894
L103445 42932
L103445 42969
L103427 43007
L103408 43025
L103370 43044
L103295 43063
L103202 43063
L103127 43044
L103089 43025
L103070 43007
L103052 42969
" />
<path d="M103445 42369
L103183 42369
" />
<path d="M103220 42369
L103202 42350
L103183 42313
L103183 42257
L103202 42219
L103239 42200
L103445 42200
" />
<path d="M103239 42200
L103202 42182
L103183 42144
L103183 42088
L103202 42050
L103239 42032
L103445 42032
" />
<path d="M103445 41844
L103183 41844
" />
<path d="M103220 41844
L103202 41826
L103183 41788
L103183 41732
L103202 41694
L103239 41676
L103445 41676
" />
<path d="M103239 41676
L103202 41657
L103183 41619
L103183 41563
L103202 41526
L103239 41507
L103445 41507
" />
<path d="M102755 62992
L102755 23622
" />
<path d="M94488 62992
L102986 62992
" />
<path d="M94488 23622
L102986 23622
" />
<path d="M102755 23622
L102986 24065
" />
<path d="M102755 23622
L102525 24065
" />
<path d="M102755 62992
L102986 62548
" />
<path d="M102755 62992
L102525 62548
" />
<text x="93503.9" y="21732.3"
textLength="3113.89" font-size="524.934" lengthAdjust="spacingAndGlyphs"
text-anchor="middle" opacity="0">5.000 mm</text>
<path d="M92266 21319
L92079 21319
L92060 21507
L92079 21488
L92116 21469
L92210 21469
L92247 21488
L92266 21507
L92285 21544
L92285 21638
L92266 21676
L92247 21694
L92210 21713
L92116 21713
L92079 21694
L92060 21676
" />
<path d="M92454 21676
L92472 21694
L92454 21713
L92435 21694
L92454 21676
L92454 21713
" />
<path d="M92716 21319
L92754 21319
L92791 21338
L92810 21357
L92829 21394
L92847 21469
L92847 21563
L92829 21638
L92810 21676
L92791 21694
L92754 21713
L92716 21713
L92679 21694
L92660 21676
L92641 21638
L92622 21563
L92622 21469
L92641 21394
L92660 21357
L92679 21338
L92716 21319
" />
<path d="M93091 21319
L93128 21319
L93166 21338
L93185 21357
L93203 21394
L93222 21469
L93222 21563
L93203 21638
L93185 21676
L93166 21694
L93128 21713
L93091 21713
L93053 21694
L93035 21676
L93016 21638
L92997 21563
L92997 21469
L93016 21394
L93035 21357
L93053 21338
L93091 21319
" />
<path d="M93466 21319
L93503 21319
L93541 21338
L93560 21357
L93578 21394
L93597 21469
L93597 21563
L93578 21638
L93560 21676
L93541 21694
L93503 21713
L93466 21713
L93428 21694
L93410 21676
L93391 21638
L93372 21563
L93372 21469
L93391 21394
L93410 21357
L93428 21338
L93466 21319
" />
<path d="M94066 21713
L94066 21451
" />
<path d="M94066 21488
L94085 21469
L94122 21451
L94178 21451
L94216 21469
L94235 21507
L94235 21713
" />
<path d="M94235 21507
L94253 21469
L94291 21451
L94347 21451
L94385 21469
L94403 21507
L94403 21713
" />
<path d="M94591 21713
L94591 21451
" />
<path d="M94591 21488
L94610 21469
L94647 21451
L94703 21451
L94741 21469
L94760 21507
L94760 21713
" />
<path d="M94760 21507
L94778 21469
L94816 21451
L94872 21451
L94910 21469
L94928 21507
L94928 21713
" />
<path d="M92519 22047
L94488 22047
" />
<path d="M92519 62992
L92519 21816
" />
<path d="M94488 62992
L94488 21816
" />
<path d="M94488 22047
L94044 22278
" />
<path d="M94488 22047
L94044 21816
" />
<path d="M92519 22047
L92963 22278
" />
<path d="M92519 22047
L92963 21816
" />
<text x="62992.1" y="19763.8"
textLength="3863.8" font-size="524.934" lengthAdjust="spacingAndGlyphs"
text-anchor="middle" opacity="0">160.000 mm</text>
<path d="M61398 19745
L61173 19745
" />
<path d="M61286 19745
L61286 19351
L61248 19407
L61211 19445
L61173 19463
" />
<path d="M61736 19351
L61661 19351
L61623 19370
L61604 19388
L61567 19445
L61548 19520
L61548 19670
L61567 19707
L61586 19726
L61623 19745
L61698 19745
L61736 19726
L61754 19707
L61773 19670
L61773 19576
L61754 19538
L61736 19520
L61698 19501
L61623 19501
L61586 19520
L61567 19538
L61548 19576
" />
<path d="M62017 19351
L62054 19351
L62092 19370
L62110 19388
L62129 19426
L62148 19501
L62148 19595
L62129 19670
L62110 19707
L62092 19726
L62054 19745
L62017 19745
L61979 19726
L61961 19707
L61942 19670
L61923 19595
L61923 19501
L61942 19426
L61961 19388
L61979 19370
L62017 19351
" />
<path d="M62317 19707
L62335 19726
L62317 19745
L62298 19726
L62317 19707
L62317 19745
" />
<path d="M62579 19351
L62617 19351
L62654 19370
L62673 19388
L62692 19426
L62710 19501
L62710 19595
L62692 19670
L62673 19707
L62654 19726
L62617 19745
L62579 19745
L62542 19726
L62523 19707
L62504 19670
L62485 19595
L62485 19501
L62504 19426
L62523 19388
L62542 19370
L62579 19351
" />
<path d="M62954 19351
L62992 19351
L63029 19370
L63048 19388
L63067 19426
L63085 19501
L63085 19595
L63067 19670
L63048 19707
L63029 19726
L62992 19745
L62954 19745
L62917 19726
L62898 19707
L62879 19670
L62860 19595
L62860 19501
L62879 19426
L62898 19388
L62917 19370
L62954 19351
" />
<path d="M63329 19351
L63367 19351
L63404 19370
L63423 19388
L63442 19426
L63460 19501
L63460 19595
L63442 19670
L63423 19707
L63404 19726
L63367 19745
L63329 19745
L63292 19726
L63273 19707
L63254 19670
L63235 19595
L63235 19501
L63254 19426
L63273 19388
L63292 19370
L63329 19351
" />
<path d="M63929 19745
L63929 19482
" />
<path d="M63929 19520
L63948 19501
L63985 19482
L64041 19482
L64079 19501
L64098 19538
L64098 19745
" />
<path d="M64098 19538
L64116 19501
L64154 19482
L64210 19482
L64248 19501
L64266 19538
L64266 19745
" />
<path d="M64454 19745
L64454 19482
" />
<path d="M64454 19520
L64473 19501
L64510 19482
L64566 19482
L64604 19501
L64623 19538
L64623 19745
" />
<path d="M64623 19538
L64641 19501
L64679 19482
L64735 19482
L64773 19501
L64791 19538
L64791 19745
" />
<path d="M94488 20078
L31496 20078
" />
<path d="M94488 62992
L94488 19847
" />
<path d="M31496 62992
L31496 19847
" />
<path d="M31496 20078
L31939 19847
" />
<path d="M31496 20078
L31939 20309
" />
<path d="M94488 20078
L94044 19847
" />
<path d="M94488 20078
L94044 20309
" />
<path d="M55588 55857
L55488 55857
" />
<path d="M94488 43307
L31488 43307
" />
<g transform="rotate(-270 100906 34448.8)">
<text x="100906" y="34645.7"
textLength="3488.85" font-size="524.934" lengthAdjust="spacingAndGlyphs"
text-anchor="middle" opacity="0">45.000 mm</text>
</g>
<path d="M100989 33005
L100727 33005
" />
<path d="M101139 32911
L100858 32817
L100858 33061
" />
<path d="M101121 33398
L101121 33211
L100933 33192
L100952 33211
L100971 33248
L100971 33342
L100952 33380
L100933 33398
L100896 33417
L100802 33417
L100764 33398
L100746 33380
L100727 33342
L100727 33248
L100746 33211
L100764 33192
" />
<path d="M100764 33586
L100746 33605
L100727 33586
L100746 33567
L100764 33586
L100727 33586
" />
<path d="M101121 33848
L101121 33886
L101102 33923
L101083 33942
L101046 33961
L100971 33980
L100877 33980
L100802 33961
L100764 33942
L100746 33923
L100727 33886
L100727 33848
L100746 33811
L100764 33792
L100802 33773
L100877 33755
L100971 33755
L101046 33773
L101083 33792
L101102 33811
L101121 33848
" />
<path d="M101121 34223
L101121 34261
L101102 34298
L101083 34317
L101046 34336
L100971 34355
L100877 34355
L100802 34336
L100764 34317
L100746 34298
L100727 34261
L100727 34223
L100746 34186
L100764 34167
L100802 34148
L100877 34130
L100971 34130
L101046 34148
L101083 34167
L101102 34186
L101121 34223
" />
<path d="M101121 34598
L101121 34636
L101102 34673
L101083 34692
L101046 34711
L100971 34730
L100877 34730
L100802 34711
L100764 34692
L100746 34673
L100727 34636
L100727 34598
L100746 34561
L100764 34542
L100802 34523
L100877 34505
L100971 34505
L101046 34523
L101083 34542
L101102 34561
L101121 34598
" />
<path d="M100727 35198
L100989 35198
" />
<path d="M100952 35198
L100971 35217
L100989 35254
L100989 35311
L100971 35348
L100933 35367
L100727 35367
" />
<path d="M100933 35367
L100971 35386
L100989 35423
L100989 35479
L100971 35517
L100933 35536
L100727 35536
" />
<path d="M100727 35723
L100989 35723
" />
<path d="M100952 35723
L100971 35742
L100989 35779
L100989 35836
L100971 35873
L100933 35892
L100727 35892
" />
<path d="M100933 35892
L100971 35911
L100989 35948
L100989 36004
L100971 36042
L100933 36061
L100727 36061
" />
<path d="M100393 25590
L100393 43307
" />
<path d="M92519 25590
L100624 25590
" />
<path d="M92519 43307
L100624 43307
" />
<path d="M100393 43307
L100162 42863
" />
<path d="M100393 43307
L100624 42863
" />
<path d="M100393 25590
L100162 26034
" />
<path d="M100393 25590
L100624 26034
" />
<g transform="rotate(-270 102087 43307.1)">
<text x="102087" y="43503.9"
textLength="3488.85" font-size="524.934" lengthAdjust="spacingAndGlyphs"
text-anchor="middle" opacity="0">90.000 mm</text>
</g>
<path d="M101908 41713
L101908 41788
L101927 41826
L101946 41844
L102002 41882
L102077 41901
L102227 41901
L102264 41882
L102283 41863
L102302 41826
L102302 41751
L102283 41713
L102264 41694
L102227 41676
L102133 41676
L102095 41694
L102077 41713
L102058 41751
L102058 41826
L102077 41863
L102095 41882
L102133 41901
" />
<path d="M102302 42144
L102302 42182
L102283 42219
L102264 42238
L102227 42257
L102152 42275
L102058 42275
L101983 42257
L101946 42238
L101927 42219
L101908 42182
L101908 42144
L101927 42107
L101946 42088
L101983 42069
L102058 42050
L102152 42050
L102227 42069
L102264 42088
L102283 42107
L102302 42144
" />
<path d="M101946 42444
L101927 42463
L101908 42444
L101927 42425
L101946 42444
L101908 42444
" />
<path d="M102302 42707
L102302 42744
L102283 42782
L102264 42800
L102227 42819
L102152 42838
L102058 42838
L101983 42819
L101946 42800
L101927 42782
L101908 42744
L101908 42707
L101927 42669
L101946 42650
L101983 42632
L102058 42613
L102152 42613
L102227 42632
L102264 42650
L102283 42669
L102302 42707
" />
<path d="M102302 43082
L102302 43119
L102283 43157
L102264 43175
L102227 43194
L102152 43213
L102058 43213
L101983 43194
L101946 43175
L101927 43157
L101908 43119
L101908 43082
L101927 43044
L101946 43025
L101983 43007
L102058 42988
L102152 42988
L102227 43007
L102264 43025
L102283 43044
L102302 43082
" />
<path d="M102302 43457
L102302 43494
L102283 43532
L102264 43550
L102227 43569
L102152 43588
L102058 43588
L101983 43569
L101946 43550
L101927 43532
L101908 43494
L101908 43457
L101927 43419
L101946 43400
L101983 43382
L102058 43363
L102152 43363
L102227 43382
L102264 43400
L102283 43419
L102302 43457
" />
<path d="M101908 44056
L102170 44056
" />
<path d="M102133 44056
L102152 44075
L102170 44113
L102170 44169
L102152 44206
L102114 44225
L101908 44225
" />
<path d="M102114 44225
L102152 44244
L102170 44281
L102170 44338
L102152 44375
L102114 44394
L101908 44394
" />
<path d="M101908 44581
L102170 44581
" />
<path d="M102133 44581
L102152 44600
L102170 44638
L102170 44694
L102152 44731
L102114 44750
L101908 44750
" />
<path d="M102114 44750
L102152 44769
L102170 44806
L102170 44863
L102152 44900
L102114 44919
L101908 44919
" />
<path d="M101574 25590
L101574 61023
" />
<path d="M92519 25590
L101805 25590
" />
<path d="M92519 61023
L101805 61023
" />
<path d="M101574 61023
L101343 60580
" />
<path d="M101574 61023
L101805 60580
" />
<path d="M101574 25590
L101343 26034
" />
<path d="M101574 25590
L101805 26034
" />
<path d="M54000 98500
L53750 98500
" />
<g transform="rotate(-270 29015.7 24606.3)">
<text x="29015.7" y="24803.1"
textLength="3113.89" font-size="524.934" lengthAdjust="spacingAndGlyphs"
text-anchor="middle" opacity="0">5.000 mm</text>
</g>
<path d="M29231 23368
L29231 23181
L29043 23162
L29062 23181
L29081 23218
L29081 23312
L29062 23350
L29043 23368
L29006 23387
L28912 23387
L28875 23368
L28856 23350
L28837 23312
L28837 23218
L28856 23181
L28875 23162
" />
<path d="M28875 23556
L28856 23575
L28837 23556
L28856 23537
L28875 23556
L28837 23556
" />
<path d="M29231 23818
L29231 23856
L29212 23893
L29193 23912
L29156 23931
L29081 23950
L28987 23950
L28912 23931
L28875 23912
L28856 23893
L28837 23856
L28837 23818
L28856 23781
L28875 23762
L28912 23743
L28987 23725
L29081 23725
L29156 23743
L29193 23762
L29212 23781
L29231 23818
" />
<path d="M29231 24193
L29231 24231
L29212 24268
L29193 24287
L29156 24306
L29081 24325
L28987 24325
L28912 24306
L28875 24287
L28856 24268
L28837 24231
L28837 24193
L28856 24156
L28875 24137
L28912 24118
L28987 24100
L29081 24100
L29156 24118
L29193 24137
L29212 24156
L29231 24193
" />
<path d="M29231 24568
L29231 24606
L29212 24643
L29193 24662
L29156 24681
L29081 24700
L28987 24700
L28912 24681
L28875 24662
L28856 24643
L28837 24606
L28837 24568
L28856 24531
L28875 24512
L28912 24493
L28987 24475
L29081 24475
L29156 24493
L29193 24512
L29212 24531
L29231 24568
" />
<path d="M28837 25168
L29100 25168
" />
<path d="M29062 25168
L29081 25187
L29100 25224
L29100 25281
L29081 25318
L29043 25337
L28837 25337
" />
<path d="M29043 25337
L29081 25356
L29100 25393
L29100 25449
L29081 25487
L29043 25506
L28837 25506
" />
<path d="M28837 25693
L29100 25693
" />
<path d="M29062 25693
L29081 25712
L29100 25749
L29100 25806
L29081 25843
L29043 25862
L28837 25862
" />
<path d="M29043 25862
L29081 25881
L29100 25918
L29100 25974
L29081 26012
L29043 26031
L28837 26031
" />
<path d="M29527 23622
L29527 25590
" />
<path d="M94488 23622
L29296 23622
" />
<path d="M94488 25590
L29296 25590
" />
<path d="M29527 25590
L29296 25147
" />
<path d="M29527 25590
L29758 25147
" />
<path d="M29527 23622
L29296 24065
" />
<path d="M29527 23622
L29758 24065
" />
<g transform="rotate(-90 29409.4 62007.9)">
<text x="29409.4" y="62204.7"
textLength="3113.89" font-size="524.934" lengthAdjust="spacingAndGlyphs"
text-anchor="middle" opacity="0">5.000 mm</text>
</g>
<path d="M29193 63245
L29193 63432
L29381 63451
L29362 63432
L29343 63395
L29343 63301
L29362 63263
L29381 63245
L29418 63226
L29512 63226
L29550 63245
L29568 63263
L29587 63301
L29587 63395
L29568 63432
L29550 63451
" />
<path d="M29550 63057
L29568 63038
L29587 63057
L29568 63076
L29550 63057
L29587 63057
" />
<path d="M29193 62795
L29193 62757
L29212 62720
L29231 62701
L29268 62682
L29343 62664
L29437 62664
L29512 62682
L29550 62701
L29568 62720
L29587 62757
L29587 62795
L29568 62832
L29550 62851
L29512 62870
L29437 62889
L29343 62889
L29268 62870
L29231 62851
L29212 62832
L29193 62795
" />
<path d="M29193 62420
L29193 62382
L29212 62345
L29231 62326
L29268 62307
L29343 62289
L29437 62289
L29512 62307
L29550 62326
L29568 62345
L29587 62382
L29587 62420
L29568 62457
L29550 62476
L29512 62495
L29437 62514
L29343 62514
L29268 62495
L29231 62476
L29212 62457
L29193 62420
" />
<path d="M29193 62045
L29193 62007
L29212 61970
L29231 61951
L29268 61932
L29343 61914
L29437 61914
L29512 61932
L29550 61951
L29568 61970
L29587 62007
L29587 62045
L29568 62082
L29550 62101
L29512 62120
L29437 62139
L29343 62139
L29268 62120
L29231 62101
L29212 62082
L29193 62045
" />
<path d="M29587 61445
L29325 61445
" />
<path d="M29362 61445
L29343 61426
L29325 61389
L29325 61332
L29343 61295
L29381 61276
L29587 61276
" />
<path d="M29381 61276
L29343 61257
L29325 61220
L29325 61164
L29343 61126
L29381 61107
L29587 61107
" />
<path d="M29587 60920
L29325 60920
" />
<path d="M29362 60920
L29343 60901
L29325 60864
L29325 60808
L29343 60770
L29381 60751
L29587 60751
" />
<path d="M29381 60751
L29343 60733
L29325 60695
L29325 60639
L29343 60601
L29381 60583
L29587 60583
" />
<path d="M29921 62992
L29921 61023
" />
<path d="M94488 62992
L29690 62992
" />
<path d="M94488 61023
L29690 61023
" />
<path d="M29921 61023
L30152 61467
" />
<path d="M29921 61023
L29690 61467
" />
<path d="M29921 62992
L30152 62548
" />
<path d="M29921 62992
L29690 62548
" />
<text x="32480.3" y="21338.6"
textLength="3113.89" font-size="524.934" lengthAdjust="spacingAndGlyphs"
text-anchor="middle" opacity="0">5.000 mm</text>
<path d="M31242 20926
L31055 20926
L31036 21113
L31055 21094
L31092 21076
L31186 21076
L31224 21094
L31242 21113
L31261 21151
L31261 21244
L31242 21282
L31224 21301
L31186 21319
L31092 21319
L31055 21301
L31036 21282
" />
<path d="M31430 21282
L31449 21301
L31430 21319
L31411 21301
L31430 21282
L31430 21319
" />
<path d="M31692 20926
L31730 20926
L31767 20944
L31786 20963
L31805 21001
L31824 21076
L31824 21169
L31805 21244
L31786 21282
L31767 21301
L31730 21319
L31692 21319
L31655 21301
L31636 21282
L31617 21244
L31599 21169
L31599 21076
L31617 21001
L31636 20963
L31655 20944
L31692 20926
" />
<path d="M32067 20926
L32105 20926
L32142 20944
L32161 20963
L32180 21001
L32199 21076
L32199 21169
L32180 21244
L32161 21282
L32142 21301
L32105 21319
L32067 21319
L32030 21301
L32011 21282
L31992 21244
L31974 21169
L31974 21076
L31992 21001
L32011 20963
L32030 20944
L32067 20926
" />
<path d="M32442 20926
L32480 20926
L32517 20944
L32536 20963
L32555 21001
L32574 21076
L32574 21169
L32555 21244
L32536 21282
L32517 21301
L32480 21319
L32442 21319
L32405 21301
L32386 21282
L32367 21244
L32349 21169
L32349 21076
L32367 21001
L32386 20963
L32405 20944
L32442 20926
" />
<path d="M33042 21319
L33042 21057
" />
<path d="M33042 21094
L33061 21076
L33098 21057
L33155 21057
L33192 21076
L33211 21113
L33211 21319
" />
<path d="M33211 21113
L33230 21076
L33267 21057
L33323 21057
L33361 21076
L33380 21113
L33380 21319
" />
<path d="M33567 21319
L33567 21057
" />
<path d="M33567 21094
L33586 21076
L33623 21057
L33680 21057
L33717 21076
L33736 21113
L33736 21319
" />
<path d="M33736 21113
L33755 21076
L33792 21057
L33848 21057
L33886 21076
L33905 21113
L33905 21319
" />
<path d="M31496 21653
L33464 21653
" />
<path d="M31496 62992
L31496 21422
" />
<path d="M33464 62992
L33464 21422
" />
<path d="M33464 21653
L33021 21884
" />
<path d="M33464 21653
L33021 21422
" />
<path d="M31496 21653
L31939 21884
" />
<path d="M31496 21653
L31939 21422
" />
</g>
<g style="fill:#000000; fill-opacity:0.0; 
stroke:#000000; stroke-width:47.2441; stroke-opacity:1; 
stroke-linecap:round; stroke-linejoin:round;">
<path d="M86653 57618
L94212 57618
" />
<path d="M86653 57618
L86653 52618
" />
<path d="M86653 52618
L94212 52618
" />
<path d="M94212 57618
L94212 52618
" />
<path d="M85866 58405
L85866 51830
" />
<path d="M85866 58405
L94212 58405
" />
<path d="M85866 51830
L94212 51830
" />
<path d="M94212 58405
L94212 51830
" />
<path d="M86653 34000
L94212 34000
" />
<path d="M86653 34000
L86653 29000
" />
<path d="M86653 29000
L94212 29000
" />
<path d="M94212 34000
L94212 29000
" />
<path d="M85866 34787
L85866 28212
" />
<path d="M85866 34787
L94212 34787
" />
<path d="M85866 28212
L94212 28212
" />
<path d="M94212 34787
L94212 28212
" />
<path d="M86653 49744
L94212 49744
" />
<path d="M86653 49744
L86653 44744
" />
<path d="M86653 44744
L94212 44744
" />
<path d="M94212 49744
L94212 44744
" />
<path d="M85866 50531
L85866 43956
" />
<path d="M85866 50531
L94212 50531
" />
<path d="M85866 43956
L94212 43956
" />
<path d="M94212 50531
L94212 43956
" />
<path d="M86653 41870
L94212 41870
" />
<path d="M86653 41870
L86653 36870
" />
<path d="M86653 36870
L94212 36870
" />
<path d="M94212 41870
L94212 36870
" />
<path d="M85866 42657
L85866 36082
" />
<path d="M85866 42657
L94212 42657
" />
<path d="M85866 36082
L94212 36082
" />
<path d="M94212 42657
L94212 36082
" />
<g >
</g>
<g >
</g>
<g >
</g>
<g >
</g>
<g >
</g>
<g >
</g>
<g >
</g>
<g >
</g>
<g >
</g>
<g >
</g>
<g >
</g>
<g >
</g>
<g >
</g>
<g >
</g>
<g >
</g>
<g >
</g>
<g >
</g>
<g >
</g>
<g >
</g>
<g >
</g>
<g >
</g>
<g >
</g>
<g >
</g>
<g >
</g>
<g >
</g>
<g >
</g>
<g >
</g>
<g >
</g>
<g >
</g>
<g >
</g>
<g >
</g>
<g >
</g>
<g >
</g>
<g >
</g>
<g >
</g>
<g >
</g>
<g >
</g>
<g >
</g>
<g >
</g>
<g >
</g>
<g >
</g>
<g >
</g>
<g >
</g>
<g >
</g>
<g >
</g>
<g >
</g>
<g >
</g>
<g >
</g>
<g >
</g>
<g >
</g>
<g >
</g>
<g >
</g>
<g >
</g>
<g >
</g>
<g >
</g>
<g >
</g>
<g >
</g>
<g >
</g>
<g >
</g>
<g >
</g>
<g >
</g>
<g >
</g>
<g >
</g>
<g >
</g>
<g >
</g>
<g >
</g>
<g >
</g>
<g >
</g>
<g >
</g>
<g >
</g>
<g >
</g>
<g >
</g>
<g >
</g>
<g >
</g>
<g >
</g>
<g >
</g>
<g >
</g>
<g >
</g>
<g >
</g>
<g >
</g>
<g >
</g>
<g >
</g>
<g >
</g>
<g >
</g>
<g >
</g>
<g >
</g>
<g >
</g>
<g >
</g>
<g >
</g>
<g >
</g>
<g >
</g>
<g >
</g>
<g >
</g>
<g >
</g>
<g >
</g>
<g >
</g>
<g >
</g>
<g >
</g>
<g >
</g>
<g >
</g>
<g >
</g>
<g >
</g>
<g >
</g>
<g >
</g>
<g >
</g>
<g >
</g>
<g >
</g>
<g >
</g>
<g >
</g>
<g >
</g>
<g >
</g>
<g >
</g>
<g >
</g>
<g >
</g>
<g >
</g>
<g >
</g>
<g >
</g>
<g >
</g>
<g >
</g>
<g >
</g>
<g >
</g>
<g >
</g>
<g >
</g>
<g >
</g>
<g >
</g>
<g >
</g>
<g >
</g>
<g >
</g>
<g >
</g>
<g >
</g>
<g >
</g>
<g >
</g>
<g >
</g>
<g >
</g>
<g >
</g>
<g >
</g>
<g >
</g>
<g >
</g>
<g >
</g>
<g >
</g>
<g >
</g>
<g >
</g>
<g >
</g>
<g >
</g>
<g >
</g>
<g >
</g>
<g >
</g>
<g >
</g>
<g >
</g>
<g >
</g>
<g >
</g>
<g >
</g>
<g >
</g>
<g >
</g>
<g >
</g>
<g >
</g>
<g >
</g>
<g >
</g>
<g >
</g>
<g >
</g>
<g >
</g>
<g >
</g>
<g >
</g>
<g >
</g>
<g >
</g>
<g >
</g>
<g >
</g>
<g >
</g>
<g >
</g>
<g >
</g>
<g >
</g>
<g >
</g>
<g >
</g>
<g >
</g>
<g >
</g>
<g >
</g>
<g >
</g>
<g >
</g>
<g >
</g>
<g >
</g>
<g >
</g>
<g >
</g>
<g >
</g>
<g >
</g>
<g >
</g>
<g >
</g>
<g >
</g>
<g >
</g>
<g >
</g>
<g >
</g>
<g >
</g>
<g >
</g>
<g >
</g>
<g >
</g>
<g >
</g>
<g >
</g>
<g >
</g>
<g >
</g>
<g >
</g>
<g >
</g>
<g >
</g>
<g >
</g>
<g >
</g>
<g >
</g>
<g >
</g>
<g >
</g>
<g >
</g>
<g >
</g>
<g >
</g>
<g >
</g>
<g >
</g>
<g >
</g>
<g >
</g>
<g >
</g>
<g >
</g>
<g >
</g>
<g >
</g>
<g >
</g>
<g >
</g>
<g >
</g>
<g >
</g>
<g >
</g>
<g >
</g>
<g >
</g>
<g >
</g>
<g >
</g>
<g >
</g>
<g >
</g>
<g >
</g>
<g >
</g>
<g >
</g>
<g >
</g>
<g >
</g>
<g >
</g>
<g >
</g>
<g >
</g>
<g >
</g>
<g >
</g>
<g >
</g>
<g >
</g>
<g >
</g>
<g >
</g>
<g >
</g>
<g >
</g>
<g >
</g>
<g >
</g>
<g >
</g>
<g >
</g>
<g >
</g>
<g >
</g>
<g >
</g>
<g >
</g>
<g >
</g>
<g >
</g>
<g >
</g>
<g >
</g>
<g >
</g>
<g >
</g>
<g >
</g>
<g >
</g>
<g >
</g>
<g >
</g>
<g >
</g>
<g >
</g>
<g >
</g>
<g >
</g>
<g >
</g>
<g >
</g>
<g >
</g>
<g >
</g>
<g >
</g>
<g >
</g>
<g >
</g>
<g >
</g>
<g >
</g>
<g >
</g>
<g >
</g>
<g >
</g>
<g >
</g>
<g >
</g>
<g >
</g>
<g >
</g>
<g >
</g>
<g >
</g>
<g >
</g>
<g >
</g>
<g >
</g>
<g >
</g>
<g >
</g>
<g >
</g>
<g >
</g>
<g >
</g>
<g >
</g>
<g >
</g>
<g >
</g>
<g >
</g>
<g >
</g>
<g >
</g>
</g> 
</svg>
