<?xml version="1.0" standalone="no"?>
 <!DOCTYPE svg PUBLIC "-//W3C//DTD SVG 1.1//EN" 
 "http://www.w3.org/Graphics/SVG/1.1/DTD/svg11.dtd"> 
<svg
  xmlns:svg="http://www.w3.org/2000/svg"
  xmlns="http://www.w3.org/2000/svg"
  xmlns:xlink="http://www.w3.org/1999/xlink"
  version="1.1"
  width="29.700220cm" height="21.000720cm" viewBox="0 0 116930 82680">
<title>SVG Picture created as sesame-fonctionnel-NPTH-drl_map.svg date 2021/10/01 12:51:56 </title>
  <desc>Picture generated by PCBNEW </desc>
<g style="fill:#000000; fill-opacity:1;stroke:#000000; stroke-opacity:1;
stroke-linecap:round; stroke-linejoin:round;"
 transform="translate(0 0) scale(1 1)">
</g>
<g style="fill:#000000; fill-opacity:0.0; 
stroke:#000000; stroke-width:-0.000393701; stroke-opacity:1; 
stroke-linecap:round; stroke-linejoin:round;">
</g>
<g style="fill:#000000; fill-opacity:0.0; 
stroke:#000000; stroke-width:19.685; stroke-opacity:1; 
stroke-linecap:round; stroke-linejoin:round;">
<path d="M92519 23622
L33464 23622
" />
<path d="M94488 61023
L94488 25590
" />
<path d="M33464 62992
L92519 62992
" />
<path d="M31496 25590
L31496 61023
" />
<path d="M92519.7 62992.1 A1968.5 1968.5 0.0 0 0 94488.2 61023.6" />
<path d="M94488.2 25590.6 A1968.5 1968.5 0.0 0 0 92519.7 23622" />
<path d="M33464.6 23622 A1968.5 1968.5 0.0 0 0 31496.1 25590.6" />
<path d="M31496.1 61023.6 A1968.5 1968.5 0.0 0 0 33464.6 62992.1" />
</g>
<g style="fill:#000000; fill-opacity:0.0; 
stroke:#000000; stroke-width:78.7402; stroke-opacity:1; 
stroke-linecap:round; stroke-linejoin:round;">
<path d="M32834 24960
L34094 26220
" />
<path d="M34094 24960
L32834 26220
" />
<path d="M32834 60393
L34094 61653
" />
<path d="M34094 60393
L32834 61653
" />
<path d="M91889 24960
L93149 26220
" />
<path d="M93149 24960
L91889 26220
" />
<path d="M91889 60393
L93149 61653
" />
<path d="M93149 60393
L91889 61653
" />
</g>
<g style="fill:#000000; fill-opacity:0.0; 
stroke:#000000; stroke-width:118.11; stroke-opacity:1; 
stroke-linecap:round; stroke-linejoin:round;">
<text x="787.402" y="1889.76"
textLength="8779.53" font-size="1574.8" lengthAdjust="spacingAndGlyphs"
text-anchor="start" opacity="0">Drill Map:</text>
<path d="M1127 1833
L1127 652
L1408 652
L1577 708
L1690 821
L1746 933
L1802 1158
L1802 1327
L1746 1552
L1690 1664
L1577 1777
L1408 1833
L1127 1833
" />
<path d="M2308 1833
L2308 1046
" />
<path d="M2308 1271
L2365 1158
L2421 1102
L2533 1046
L2646 1046
" />
<path d="M3039 1833
L3039 1046
" />
<path d="M3039 652
L2983 708
L3039 764
L3096 708
L3039 652
L3039 764
" />
<path d="M3771 1833
L3658 1777
L3602 1664
L3602 652
" />
<path d="M4389 1833
L4277 1777
L4221 1664
L4221 652
" />
<path d="M5739 1833
L5739 652
L6133 1496
L6526 652
L6526 1833
" />
<path d="M7595 1833
L7595 1214
L7539 1102
L7426 1046
L7201 1046
L7089 1102
" />
<path d="M7595 1777
L7483 1833
L7201 1833
L7089 1777
L7033 1664
L7033 1552
L7089 1439
L7201 1383
L7483 1383
L7595 1327
" />
<path d="M8158 1046
L8158 2227
" />
<path d="M8158 1102
L8270 1046
L8495 1046
L8607 1102
L8664 1158
L8720 1271
L8720 1608
L8664 1721
L8607 1777
L8495 1833
L8270 1833
L8158 1777
" />
<path d="M9226 1721
L9282 1777
L9226 1833
L9170 1777
L9226 1721
L9226 1833
" />
<path d="M9226 1102
L9282 1158
L9226 1214
L9170 1158
L9226 1102
L9226 1214
" />
<path d="M-1259 3149
L0 4409
" />
<path d="M0 3149
L-1259 4409
" />
<text x="787.402" y="4370.08"
textLength="39375.7" font-size="1574.8" lengthAdjust="spacingAndGlyphs"
text-anchor="start" opacity="0">3.200mm / 0.1260" (4 holes) (not plated)</text>
<path d="M1015 3132
L1746 3132
L1352 3582
L1521 3582
L1633 3638
L1690 3695
L1746 3807
L1746 4088
L1690 4201
L1633 4257
L1521 4313
L1183 4313
L1071 4257
L1015 4201
" />
<path d="M2252 4201
L2308 4257
L2252 4313
L2196 4257
L2252 4201
L2252 4313
" />
<path d="M2758 3245
L2814 3188
L2927 3132
L3208 3132
L3321 3188
L3377 3245
L3433 3357
L3433 3470
L3377 3638
L2702 4313
L3433 4313
" />
<path d="M4164 3132
L4277 3132
L4389 3188
L4446 3245
L4502 3357
L4558 3582
L4558 3863
L4502 4088
L4446 4201
L4389 4257
L4277 4313
L4164 4313
L4052 4257
L3996 4201
L3939 4088
L3883 3863
L3883 3582
L3939 3357
L3996 3245
L4052 3188
L4164 3132
" />
<path d="M5289 3132
L5402 3132
L5514 3188
L5570 3245
L5627 3357
L5683 3582
L5683 3863
L5627 4088
L5570 4201
L5514 4257
L5402 4313
L5289 4313
L5177 4257
L5120 4201
L5064 4088
L5008 3863
L5008 3582
L5064 3357
L5120 3245
L5177 3188
L5289 3132
" />
<path d="M6189 4313
L6189 3526
" />
<path d="M6189 3638
L6245 3582
L6358 3526
L6526 3526
L6639 3582
L6695 3695
L6695 4313
" />
<path d="M6695 3695
L6751 3582
L6864 3526
L7033 3526
L7145 3582
L7201 3695
L7201 4313
" />
<path d="M7764 4313
L7764 3526
" />
<path d="M7764 3638
L7820 3582
L7933 3526
L8101 3526
L8214 3582
L8270 3695
L8270 4313
" />
<path d="M8270 3695
L8326 3582
L8439 3526
L8607 3526
L8720 3582
L8776 3695
L8776 4313
" />
<path d="M11082 3076
L10070 4595
" />
<path d="M12601 3132
L12713 3132
L12826 3188
L12882 3245
L12938 3357
L12994 3582
L12994 3863
L12938 4088
L12882 4201
L12826 4257
L12713 4313
L12601 4313
L12488 4257
L12432 4201
L12376 4088
L12320 3863
L12320 3582
L12376 3357
L12432 3245
L12488 3188
L12601 3132
" />
<path d="M13501 4201
L13557 4257
L13501 4313
L13444 4257
L13501 4201
L13501 4313
" />
<path d="M14682 4313
L14007 4313
" />
<path d="M14344 4313
L14344 3132
L14232 3301
L14119 3413
L14007 3470
" />
<path d="M15132 3245
L15188 3188
L15300 3132
L15582 3132
L15694 3188
L15750 3245
L15807 3357
L15807 3470
L15750 3638
L15075 4313
L15807 4313
" />
<path d="M16819 3132
L16594 3132
L16482 3188
L16425 3245
L16313 3413
L16257 3638
L16257 4088
L16313 4201
L16369 4257
L16482 4313
L16706 4313
L16819 4257
L16875 4201
L16931 4088
L16931 3807
L16875 3695
L16819 3638
L16706 3582
L16482 3582
L16369 3638
L16313 3695
L16257 3807
" />
<path d="M17663 3132
L17775 3132
L17888 3188
L17944 3245
L18000 3357
L18056 3582
L18056 3863
L18000 4088
L17944 4201
L17888 4257
L17775 4313
L17663 4313
L17550 4257
L17494 4201
L17438 4088
L17381 3863
L17381 3582
L17438 3357
L17494 3245
L17550 3188
L17663 3132
" />
<path d="M18506 3132
L18506 3357
" />
<path d="M18956 3132
L18956 3357
" />
<path d="M20700 4763
L20643 4707
L20531 4538
L20475 4426
L20419 4257
L20362 3976
L20362 3751
L20419 3470
L20475 3301
L20531 3188
L20643 3020
L20700 2964
" />
<path d="M21656 3526
L21656 4313
" />
<path d="M21375 3076
L21093 3920
L21825 3920
" />
<path d="M23174 4313
L23174 3132
" />
<path d="M23681 4313
L23681 3695
L23624 3582
L23512 3526
L23343 3526
L23231 3582
L23174 3638
" />
<path d="M24412 4313
L24299 4257
L24243 4201
L24187 4088
L24187 3751
L24243 3638
L24299 3582
L24412 3526
L24580 3526
L24693 3582
L24749 3638
L24805 3751
L24805 4088
L24749 4201
L24693 4257
L24580 4313
L24412 4313
" />
<path d="M25480 4313
L25368 4257
L25312 4145
L25312 3132
" />
<path d="M26380 4257
L26268 4313
L26043 4313
L25930 4257
L25874 4145
L25874 3695
L25930 3582
L26043 3526
L26268 3526
L26380 3582
L26437 3695
L26437 3807
L25874 3920
" />
<path d="M26886 4257
L26999 4313
L27224 4313
L27336 4257
L27393 4145
L27393 4088
L27336 3976
L27224 3920
L27055 3920
L26943 3863
L26886 3751
L26886 3695
L26943 3582
L27055 3526
L27224 3526
L27336 3582
" />
<path d="M27786 4763
L27843 4707
L27955 4538
L28011 4426
L28068 4257
L28124 3976
L28124 3751
L28068 3470
L28011 3301
L27955 3188
L27843 3020
L27786 2964
" />
<path d="M29924 4763
L29867 4707
L29755 4538
L29699 4426
L29642 4257
L29586 3976
L29586 3751
L29642 3470
L29699 3301
L29755 3188
L29867 3020
L29924 2964
" />
<path d="M30374 3526
L30374 4313
" />
<path d="M30374 3638
L30430 3582
L30542 3526
L30711 3526
L30823 3582
L30880 3695
L30880 4313
" />
<path d="M31611 4313
L31498 4257
L31442 4201
L31386 4088
L31386 3751
L31442 3638
L31498 3582
L31611 3526
L31780 3526
L31892 3582
L31948 3638
L32005 3751
L32005 4088
L31948 4201
L31892 4257
L31780 4313
L31611 4313
" />
<path d="M32342 3526
L32792 3526
" />
<path d="M32511 3132
L32511 4145
L32567 4257
L32679 4313
L32792 4313
" />
<path d="M34086 3526
L34086 4707
" />
<path d="M34086 3582
L34198 3526
L34423 3526
L34535 3582
L34592 3638
L34648 3751
L34648 4088
L34592 4201
L34535 4257
L34423 4313
L34198 4313
L34086 4257
" />
<path d="M35323 4313
L35210 4257
L35154 4145
L35154 3132
" />
<path d="M36279 4313
L36279 3695
L36223 3582
L36110 3526
L35885 3526
L35773 3582
" />
<path d="M36279 4257
L36167 4313
L35885 4313
L35773 4257
L35717 4145
L35717 4032
L35773 3920
L35885 3863
L36167 3863
L36279 3807
" />
<path d="M36673 3526
L37123 3526
" />
<path d="M36841 3132
L36841 4145
L36898 4257
L37010 4313
L37123 4313
" />
<path d="M37966 4257
L37854 4313
L37629 4313
L37516 4257
L37460 4145
L37460 3695
L37516 3582
L37629 3526
L37854 3526
L37966 3582
L38023 3695
L38023 3807
L37460 3920
" />
<path d="M39035 4313
L39035 3132
" />
<path d="M39035 4257
L38922 4313
L38697 4313
L38585 4257
L38529 4201
L38473 4088
L38473 3751
L38529 3638
L38585 3582
L38697 3526
L38922 3526
L39035 3582
" />
<path d="M39485 4763
L39541 4707
L39654 4538
L39710 4426
L39766 4257
L39822 3976
L39822 3751
L39766 3470
L39710 3301
L39654 3188
L39541 3020
L39485 2964
" />
</g> 
</svg>
