<?xml version="1.0" standalone="no"?>
 <!DOCTYPE svg PUBLIC "-//W3C//DTD SVG 1.1//EN" 
 "http://www.w3.org/Graphics/SVG/1.1/DTD/svg11.dtd"> 
<svg
  xmlns:svg="http://www.w3.org/2000/svg"
  xmlns="http://www.w3.org/2000/svg"
  xmlns:xlink="http://www.w3.org/1999/xlink"
  version="1.1"
  width="29.700220cm" height="21.000720cm" viewBox="0 0 116930 82680">
<title>SVG Picture created as sesame-fonctionnel-PTH-drl_map.svg date 2021/10/01 12:51:56 </title>
  <desc>Picture generated by PCBNEW </desc>
<g style="fill:#000000; fill-opacity:1;stroke:#000000; stroke-opacity:1;
stroke-linecap:round; stroke-linejoin:round;"
 transform="translate(0 0) scale(1 1)">
</g>
<g style="fill:#000000; fill-opacity:0.0; 
stroke:#000000; stroke-width:-0.000393701; stroke-opacity:1; 
stroke-linecap:round; stroke-linejoin:round;">
</g>
<g style="fill:#000000; fill-opacity:0.0; 
stroke:#000000; stroke-width:19.685; stroke-opacity:1; 
stroke-linecap:round; stroke-linejoin:round;">
<path d="M92519 23622
L33464 23622
" />
<path d="M94488 61023
L94488 25590
" />
<path d="M33464 62992
L92519 62992
" />
<path d="M31496 25590
L31496 61023
" />
<path d="M92519.7 62992.1 A1968.5 1968.5 0.0 0 0 94488.2 61023.6" />
<path d="M94488.2 25590.6 A1968.5 1968.5 0.0 0 0 92519.7 23622" />
<path d="M33464.6 23622 A1968.5 1968.5 0.0 0 0 31496.1 25590.6" />
<path d="M31496.1 61023.6 A1968.5 1968.5 0.0 0 0 33464.6 62992.1" />
</g>
<g style="fill:#000000; fill-opacity:0.0; 
stroke:#000000; stroke-width:78.7402; stroke-opacity:1; 
stroke-linecap:round; stroke-linejoin:round;">
<path d="M39505 31570
L39583 31649
" />
<path d="M39583 31570
L39505 31649
" />
<path d="M39505 31964
L39583 32043
" />
<path d="M39583 31964
L39505 32043
" />
<path d="M39898 31570
L39977 31649
" />
<path d="M39977 31570
L39898 31649
" />
<path d="M39898 31964
L39977 32043
" />
<path d="M39977 31964
L39898 32043
" />
<path d="M40292 31570
L40371 31649
" />
<path d="M40371 31570
L40292 31649
" />
<path d="M40292 31964
L40371 32043
" />
<path d="M40371 31964
L40292 32043
" />
<circle cx="32594.5" cy="36913.4" r="78.7402" /> 
<circle cx="33088.2" cy="54307.1" r="78.7402" /> 
<circle cx="33488.2" cy="33307.1" r="78.7402" /> 
<circle cx="33488.2" cy="33807.1" r="78.7402" /> 
<circle cx="33488.2" cy="34307.1" r="78.7402" /> 
<circle cx="33938.2" cy="39707.1" r="78.7402" /> 
<circle cx="33988.2" cy="33307.1" r="78.7402" /> 
<circle cx="33988.2" cy="33807.1" r="78.7402" /> 
<circle cx="33988.2" cy="34307.1" r="78.7402" /> 
<circle cx="34988.2" cy="36307.1" r="78.7402" /> 
<circle cx="35238.2" cy="47557.1" r="78.7402" /> 
<circle cx="35238.2" cy="48807.1" r="78.7402" /> 
<circle cx="35238.2" cy="57057.1" r="78.7402" /> 
<circle cx="35588.2" cy="37807.1" r="78.7402" /> 
<circle cx="35988.2" cy="56057.1" r="78.7402" /> 
<circle cx="36563.2" cy="35532.1" r="78.7402" /> 
<circle cx="36738.2" cy="41307.1" r="78.7402" /> 
<circle cx="36738.2" cy="57057.1" r="78.7402" /> 
<circle cx="36881.9" cy="50100.8" r="78.7402" /> 
<circle cx="36988.2" cy="33307.1" r="78.7402" /> 
<circle cx="36988.2" cy="33807.1" r="78.7402" /> 
<circle cx="36988.2" cy="34307.1" r="78.7402" /> 
<circle cx="37488.2" cy="33307.1" r="78.7402" /> 
<circle cx="37488.2" cy="33807.1" r="78.7402" /> 
<circle cx="37488.2" cy="34307.1" r="78.7402" /> 
<circle cx="37488.2" cy="45307.1" r="78.7402" /> 
<circle cx="37488.2" cy="49057.1" r="78.7402" /> 
<circle cx="37738.2" cy="53057.1" r="78.7402" /> 
<circle cx="37738.2" cy="53557.1" r="78.7402" /> 
<circle cx="37738.2" cy="54557.1" r="78.7402" /> 
<circle cx="37738.2" cy="55057.1" r="78.7402" /> 
<circle cx="37738.2" cy="55513.8" r="78.7402" /> 
<circle cx="37988.2" cy="43807.1" r="78.7402" /> 
<circle cx="38238.2" cy="57057.1" r="78.7402" /> 
<circle cx="38656.7" cy="48130.7" r="78.7402" /> 
<circle cx="39238.2" cy="48307.1" r="78.7402" /> 
<circle cx="39488.2" cy="55057.1" r="78.7402" /> 
<circle cx="39688.2" cy="38107.1" r="78.7402" /> 
<circle cx="39738.2" cy="33657.1" r="78.7402" /> 
<circle cx="39738.2" cy="53557.1" r="78.7402" /> 
<circle cx="39738.2" cy="55557.1" r="78.7402" /> 
<circle cx="40488.2" cy="28307.1" r="78.7402" /> 
<circle cx="40488.2" cy="47807.1" r="78.7402" /> 
<circle cx="40738.2" cy="50557.1" r="78.7402" /> 
<circle cx="40988.2" cy="53557.1" r="78.7402" /> 
<circle cx="40988.2" cy="56057.1" r="78.7402" /> 
<circle cx="41488.2" cy="55557.1" r="78.7402" /> 
<circle cx="41488.2" cy="56307.1" r="78.7402" /> 
<circle cx="41988.2" cy="26307.1" r="78.7402" /> 
<circle cx="41988.2" cy="28307.1" r="78.7402" /> 
<circle cx="41988.2" cy="32557.1" r="78.7402" /> 
<circle cx="41988.2" cy="33307.1" r="78.7402" /> 
<circle cx="41988.2" cy="56557.1" r="78.7402" /> 
<circle cx="42388.2" cy="49307.1" r="78.7402" /> 
<circle cx="42488.2" cy="51557.1" r="78.7402" /> 
<circle cx="42488.2" cy="55307.1" r="78.7402" /> 
<circle cx="42988.2" cy="53596.5" r="78.7402" /> 
<circle cx="43238.2" cy="41807.1" r="78.7402" /> 
<circle cx="43488.2" cy="30407.1" r="78.7402" /> 
<circle cx="43488.2" cy="32807.1" r="78.7402" /> 
<circle cx="43488.2" cy="49557.1" r="78.7402" /> 
<circle cx="44188.2" cy="24807.1" r="78.7402" /> 
<circle cx="44238.2" cy="38307.1" r="78.7402" /> 
<circle cx="44288.2" cy="47307.1" r="78.7402" /> 
<circle cx="44829.7" cy="59915.6" r="78.7402" /> 
<circle cx="44838.2" cy="57407.1" r="78.7402" /> 
<circle cx="45238.2" cy="53307.1" r="78.7402" /> 
<circle cx="45646.7" cy="25398.6" r="78.7402" /> 
<circle cx="45646.7" cy="57398.6" r="78.7402" /> 
<circle cx="45738.2" cy="53557.1" r="78.7402" /> 
<circle cx="45988.2" cy="51807.1" r="78.7402" /> 
<circle cx="46213.2" cy="46832.1" r="78.7402" /> 
<circle cx="46238.2" cy="33307.1" r="78.7402" /> 
<circle cx="46338.2" cy="60057.1" r="78.7402" /> 
<circle cx="46413.2" cy="36682.1" r="78.7402" /> 
<circle cx="47253.9" cy="28750" r="78.7402" /> 
<circle cx="47253.9" cy="60590.5" r="78.7402" /> 
<circle cx="48238.2" cy="31557.1" r="78.7402" /> 
<circle cx="48988.2" cy="40257.1" r="78.7402" /> 
<circle cx="49222.4" cy="25791.3" r="78.7402" /> 
<circle cx="49238.2" cy="48707.1" r="78.7402" /> 
<circle cx="49238.2" cy="54807.1" r="78.7402" /> 
<circle cx="49288.2" cy="47307.1" r="78.7402" /> 
<circle cx="49738.2" cy="57807.1" r="78.7402" /> 
<circle cx="49948.8" cy="59557.1" r="78.7402" /> 
<circle cx="49988.2" cy="28057.1" r="78.7402" /> 
<circle cx="50230" cy="27565.3" r="78.7402" /> 
<circle cx="50238.2" cy="60057.1" r="78.7402" /> 
<circle cx="50738.2" cy="37807.1" r="78.7402" /> 
<circle cx="50738.2" cy="39057.1" r="78.7402" /> 
<circle cx="50738.2" cy="40057.1" r="78.7402" /> 
<circle cx="50738.2" cy="41807.1" r="78.7402" /> 
<circle cx="50863.2" cy="53682.1" r="78.7402" /> 
<circle cx="51213.2" cy="46832.1" r="78.7402" /> 
<circle cx="52238.2" cy="40507.1" r="78.7402" /> 
<circle cx="52829.7" cy="36165.6" r="78.7402" /> 
<circle cx="53338.2" cy="39257.1" r="78.7402" /> 
<circle cx="54088.2" cy="36057.1" r="78.7402" /> 
<circle cx="54188.2" cy="48857.1" r="78.7402" /> 
<circle cx="54238.2" cy="28557.1" r="78.7402" /> 
<circle cx="54288.2" cy="47307.1" r="78.7402" /> 
<circle cx="54488.2" cy="25057.1" r="78.7402" /> 
<circle cx="54488.2" cy="27307.1" r="78.7402" /> 
<circle cx="54488.2" cy="57057.1" r="78.7402" /> 
<circle cx="54488.2" cy="60057.1" r="78.7402" /> 
<circle cx="54738.2" cy="35907.1" r="78.7402" /> 
<circle cx="54988.2" cy="29807.1" r="78.7402" /> 
<circle cx="55888.2" cy="30007.1" r="78.7402" /> 
<circle cx="55888.4" cy="28557.1" r="78.7402" /> 
<circle cx="56238.2" cy="57657.1" r="78.7402" /> 
<circle cx="57988.2" cy="58557.1" r="78.7402" /> 
<circle cx="58488.2" cy="30057.1" r="78.7402" /> 
<circle cx="58488.2" cy="56557.1" r="78.7402" /> 
<circle cx="59881.9" cy="60950.8" r="78.7402" /> 
<circle cx="59988.2" cy="38807.1" r="78.7402" /> 
<circle cx="59988.2" cy="40807.1" r="78.7402" /> 
<circle cx="59988.2" cy="45807.1" r="78.7402" /> 
<circle cx="59988.2" cy="47807.1" r="78.7402" /> 
<circle cx="60438.2" cy="59557.1" r="78.7402" /> 
<circle cx="60488.2" cy="27057.1" r="78.7402" /> 
<circle cx="60738.2" cy="38807.1" r="78.7402" /> 
<circle cx="60738.2" cy="40807.1" r="78.7402" /> 
<circle cx="60738.2" cy="45807.1" r="78.7402" /> 
<circle cx="60738.2" cy="47807.1" r="78.7402" /> 
<circle cx="60988.2" cy="24807.1" r="78.7402" /> 
<circle cx="60988.2" cy="61807.1" r="78.7402" /> 
<circle cx="61488.2" cy="33057.1" r="78.7402" /> 
<circle cx="61488.2" cy="33807.1" r="78.7402" /> 
<circle cx="61488.2" cy="34557.1" r="78.7402" /> 
<circle cx="61488.2" cy="35307.1" r="78.7402" /> 
<circle cx="61488.2" cy="36057.1" r="78.7402" /> 
<circle cx="61488.2" cy="36807.1" r="78.7402" /> 
<circle cx="61488.2" cy="38807.1" r="78.7402" /> 
<circle cx="61488.2" cy="40807.1" r="78.7402" /> 
<circle cx="61488.2" cy="45807.1" r="78.7402" /> 
<circle cx="61488.2" cy="47807.1" r="78.7402" /> 
<circle cx="61488.2" cy="49807.1" r="78.7402" /> 
<circle cx="61488.2" cy="50557.1" r="78.7402" /> 
<circle cx="61488.2" cy="51307.1" r="78.7402" /> 
<circle cx="61488.2" cy="52057.1" r="78.7402" /> 
<circle cx="61488.2" cy="52807.1" r="78.7402" /> 
<circle cx="61488.2" cy="53557.1" r="78.7402" /> 
<circle cx="61988.2" cy="26007.1" r="78.7402" /> 
<circle cx="61988.2" cy="61057.1" r="78.7402" /> 
<circle cx="62238.2" cy="27657.1" r="78.7402" /> 
<circle cx="62238.2" cy="36807.1" r="78.7402" /> 
<circle cx="62238.2" cy="38807.1" r="78.7402" /> 
<circle cx="62238.2" cy="40807.1" r="78.7402" /> 
<circle cx="62238.2" cy="45807.1" r="78.7402" /> 
<circle cx="62238.2" cy="47807.1" r="78.7402" /> 
<circle cx="62238.2" cy="49807.1" r="78.7402" /> 
<circle cx="62238.2" cy="59307.1" r="78.7402" /> 
<circle cx="62988.2" cy="36807.1" r="78.7402" /> 
<circle cx="62988.2" cy="38807.1" r="78.7402" /> 
<circle cx="62988.2" cy="40807.1" r="78.7402" /> 
<circle cx="62988.2" cy="45807.1" r="78.7402" /> 
<circle cx="62988.2" cy="47807.1" r="78.7402" /> 
<circle cx="62988.2" cy="49807.1" r="78.7402" /> 
<circle cx="63238.2" cy="24807.1" r="78.7402" /> 
<circle cx="63238.2" cy="61807.1" r="78.7402" /> 
<circle cx="63738.2" cy="36807.1" r="78.7402" /> 
<circle cx="63738.2" cy="49807.1" r="78.7402" /> 
<circle cx="63738.2" cy="59557.1" r="78.7402" /> 
<circle cx="64488.2" cy="29557.1" r="78.7402" /> 
<circle cx="64488.2" cy="30307.1" r="78.7402" /> 
<circle cx="64488.2" cy="36807.1" r="78.7402" /> 
<circle cx="64488.2" cy="49807.1" r="78.7402" /> 
<circle cx="64488.2" cy="56307.1" r="78.7402" /> 
<circle cx="64488.2" cy="57057.1" r="78.7402" /> 
<circle cx="65238.2" cy="29557.1" r="78.7402" /> 
<circle cx="65238.2" cy="30307.1" r="78.7402" /> 
<circle cx="65238.2" cy="36807.1" r="78.7402" /> 
<circle cx="65238.2" cy="49807.1" r="78.7402" /> 
<circle cx="65238.2" cy="56307.1" r="78.7402" /> 
<circle cx="65238.2" cy="57057.1" r="78.7402" /> 
<circle cx="65738.2" cy="41057.1" r="78.7402" /> 
<circle cx="65738.2" cy="41807.1" r="78.7402" /> 
<circle cx="65738.2" cy="42557.1" r="78.7402" /> 
<circle cx="65738.2" cy="43307.1" r="78.7402" /> 
<circle cx="65738.2" cy="44057.1" r="78.7402" /> 
<circle cx="65738.2" cy="44807.1" r="78.7402" /> 
<circle cx="65738.2" cy="45557.1" r="78.7402" /> 
<circle cx="65988.2" cy="24807.1" r="78.7402" /> 
<circle cx="65988.2" cy="61807.1" r="78.7402" /> 
<circle cx="67238.2" cy="32057.1" r="78.7402" /> 
<circle cx="67238.2" cy="33557.1" r="78.7402" /> 
<circle cx="67238.2" cy="51057.1" r="78.7402" /> 
<circle cx="67238.2" cy="52557.1" r="78.7402" /> 
<circle cx="67988.2" cy="32057.1" r="78.7402" /> 
<circle cx="67988.2" cy="33557.1" r="78.7402" /> 
<circle cx="68238.2" cy="51057.1" r="78.7402" /> 
<circle cx="68238.2" cy="52557.1" r="78.7402" /> 
<circle cx="68738.2" cy="32057.1" r="78.7402" /> 
<circle cx="68738.2" cy="33557.1" r="78.7402" /> 
<circle cx="69488.2" cy="27307.1" r="78.7402" /> 
<circle cx="69488.2" cy="28057.1" r="78.7402" /> 
<circle cx="69488.2" cy="28807.1" r="78.7402" /> 
<circle cx="69488.2" cy="29557.1" r="78.7402" /> 
<circle cx="69488.2" cy="30307.1" r="78.7402" /> 
<circle cx="69488.2" cy="56557.1" r="78.7402" /> 
<circle cx="69488.2" cy="57307.1" r="78.7402" /> 
<circle cx="69488.2" cy="58057.1" r="78.7402" /> 
<circle cx="69488.2" cy="58807.1" r="78.7402" /> 
<circle cx="69738.2" cy="38307.1" r="78.7402" /> 
<circle cx="69738.2" cy="39057.1" r="78.7402" /> 
<circle cx="69738.2" cy="39807.1" r="78.7402" /> 
<circle cx="69738.2" cy="40557.1" r="78.7402" /> 
<circle cx="69738.2" cy="41307.1" r="78.7402" /> 
<circle cx="69738.2" cy="42057.1" r="78.7402" /> 
<circle cx="69738.2" cy="42807.1" r="78.7402" /> 
<circle cx="69738.2" cy="43557.1" r="78.7402" /> 
<circle cx="69738.2" cy="44307.1" r="78.7402" /> 
<circle cx="69738.2" cy="45807.1" r="78.7402" /> 
<circle cx="69738.2" cy="46557.1" r="78.7402" /> 
<circle cx="69738.2" cy="47307.1" r="78.7402" /> 
<circle cx="69738.2" cy="48057.1" r="78.7402" /> 
<circle cx="70488.2" cy="44307.1" r="78.7402" /> 
<circle cx="70488.2" cy="45807.1" r="78.7402" /> 
<circle cx="71238.2" cy="44307.1" r="78.7402" /> 
<circle cx="71238.2" cy="45807.1" r="78.7402" /> 
<circle cx="71988.2" cy="25057.1" r="78.7402" /> 
<circle cx="71988.2" cy="44307.1" r="78.7402" /> 
<circle cx="71988.2" cy="45807.1" r="78.7402" /> 
<circle cx="71988.2" cy="61557.1" r="78.7402" /> 
<circle cx="72253.9" cy="33291.3" r="78.7402" /> 
<circle cx="72253.9" cy="53072.8" r="78.7402" /> 
<circle cx="72738.2" cy="44307.1" r="78.7402" /> 
<circle cx="72738.2" cy="45807.1" r="78.7402" /> 
<circle cx="73488.2" cy="44307.1" r="78.7402" /> 
<circle cx="73488.2" cy="45807.1" r="78.7402" /> 
<circle cx="73988.2" cy="25057.1" r="78.7402" /> 
<circle cx="75488.2" cy="44307.1" r="78.7402" /> 
<circle cx="75488.2" cy="45807.1" r="78.7402" /> 
<circle cx="76238.2" cy="44307.1" r="78.7402" /> 
<circle cx="76238.2" cy="45807.1" r="78.7402" /> 
<circle cx="76488.2" cy="32307.1" r="78.7402" /> 
<circle cx="76488.2" cy="33057.1" r="78.7402" /> 
<circle cx="76488.2" cy="33807.1" r="78.7402" /> 
<circle cx="76488.2" cy="34557.1" r="78.7402" /> 
<circle cx="76488.2" cy="35307.1" r="78.7402" /> 
<circle cx="76488.2" cy="36057.1" r="78.7402" /> 
<circle cx="76488.2" cy="36807.1" r="78.7402" /> 
<circle cx="76488.2" cy="50057.1" r="78.7402" /> 
<circle cx="76488.2" cy="50807.1" r="78.7402" /> 
<circle cx="76488.2" cy="51557.1" r="78.7402" /> 
<circle cx="76488.2" cy="52307.1" r="78.7402" /> 
<circle cx="76488.2" cy="53057.1" r="78.7402" /> 
<circle cx="76488.2" cy="53807.1" r="78.7402" /> 
<circle cx="76488.2" cy="54557.1" r="78.7402" /> 
<circle cx="76738.2" cy="28057.1" r="78.7402" /> 
<circle cx="76738.2" cy="58057.1" r="78.7402" /> 
<circle cx="76988.2" cy="44307.1" r="78.7402" /> 
<circle cx="76988.2" cy="45807.1" r="78.7402" /> 
<circle cx="77238.2" cy="27557.1" r="78.7402" /> 
<circle cx="77238.2" cy="28557.1" r="78.7402" /> 
<circle cx="77238.2" cy="36807.1" r="78.7402" /> 
<circle cx="77238.2" cy="50057.1" r="78.7402" /> 
<circle cx="77238.2" cy="57557.1" r="78.7402" /> 
<circle cx="77238.2" cy="58557.1" r="78.7402" /> 
<circle cx="77488.2" cy="30307.1" r="78.7402" /> 
<circle cx="77488.2" cy="56557.1" r="78.7402" /> 
<circle cx="77738.2" cy="28057.1" r="78.7402" /> 
<circle cx="77738.2" cy="29057.1" r="78.7402" /> 
<circle cx="77738.2" cy="44307.1" r="78.7402" /> 
<circle cx="77738.2" cy="45807.1" r="78.7402" /> 
<circle cx="77738.2" cy="58057.1" r="78.7402" /> 
<circle cx="77738.2" cy="59057.1" r="78.7402" /> 
<circle cx="77988.2" cy="36807.1" r="78.7402" /> 
<circle cx="77988.2" cy="50057.1" r="78.7402" /> 
<circle cx="78238.2" cy="28557.1" r="78.7402" /> 
<circle cx="78238.2" cy="58557.1" r="78.7402" /> 
<circle cx="78488.2" cy="44307.1" r="78.7402" /> 
<circle cx="78488.2" cy="45807.1" r="78.7402" /> 
<circle cx="79238.2" cy="38307.1" r="78.7402" /> 
<circle cx="79238.2" cy="39057.1" r="78.7402" /> 
<circle cx="79238.2" cy="39807.1" r="78.7402" /> 
<circle cx="79238.2" cy="40557.1" r="78.7402" /> 
<circle cx="79238.2" cy="41307.1" r="78.7402" /> 
<circle cx="79238.2" cy="42057.1" r="78.7402" /> 
<circle cx="79238.2" cy="42807.1" r="78.7402" /> 
<circle cx="79238.2" cy="43557.1" r="78.7402" /> 
<circle cx="79238.2" cy="44307.1" r="78.7402" /> 
<circle cx="79238.2" cy="45807.1" r="78.7402" /> 
<circle cx="79238.2" cy="46557.1" r="78.7402" /> 
<circle cx="79238.2" cy="47307.1" r="78.7402" /> 
<circle cx="79238.2" cy="48057.1" r="78.7402" /> 
<circle cx="80738.2" cy="38807.1" r="78.7402" /> 
<circle cx="80738.2" cy="39557.1" r="78.7402" /> 
<circle cx="80738.2" cy="40307.1" r="78.7402" /> 
<circle cx="80738.2" cy="41057.1" r="78.7402" /> 
<circle cx="80738.2" cy="41807.1" r="78.7402" /> 
<circle cx="80738.2" cy="42557.1" r="78.7402" /> 
<circle cx="80738.2" cy="43307.1" r="78.7402" /> 
<circle cx="80738.2" cy="44057.1" r="78.7402" /> 
<circle cx="80738.2" cy="44807.1" r="78.7402" /> 
<circle cx="80738.2" cy="45557.1" r="78.7402" /> 
<circle cx="80738.2" cy="46307.1" r="78.7402" /> 
<circle cx="80738.2" cy="47057.1" r="78.7402" /> 
<circle cx="80738.2" cy="47807.1" r="78.7402" /> 
<circle cx="80988.2" cy="31057.1" r="78.7402" /> 
<circle cx="80988.2" cy="55557.1" r="78.7402" /> 
<circle cx="81088.2" cy="61557.1" r="78.7402" /> 
<circle cx="81738.2" cy="31057.1" r="78.7402" /> 
<circle cx="81738.2" cy="55557.1" r="78.7402" /> 
<circle cx="82238.2" cy="32057.1" r="78.7402" /> 
<circle cx="82238.2" cy="33557.1" r="78.7402" /> 
<circle cx="82238.2" cy="51057.1" r="78.7402" /> 
<circle cx="82238.2" cy="52557.1" r="78.7402" /> 
<circle cx="82488.2" cy="31057.1" r="78.7402" /> 
<circle cx="82488.2" cy="55557.1" r="78.7402" /> 
<circle cx="82988.2" cy="32057.1" r="78.7402" /> 
<circle cx="82988.2" cy="33557.1" r="78.7402" /> 
<circle cx="82988.2" cy="51057.1" r="78.7402" /> 
<circle cx="82988.2" cy="52557.1" r="78.7402" /> 
<circle cx="83238.2" cy="31057.1" r="78.7402" /> 
<circle cx="83238.2" cy="55557.1" r="78.7402" /> 
<circle cx="83488.2" cy="25057.1" r="78.7402" /> 
<circle cx="83488.2" cy="36557.1" r="78.7402" /> 
<circle cx="83488.2" cy="37307.1" r="78.7402" /> 
<circle cx="83488.2" cy="61557.1" r="78.7402" /> 
<circle cx="83738.2" cy="32057.1" r="78.7402" /> 
<circle cx="83738.2" cy="33557.1" r="78.7402" /> 
<circle cx="83738.2" cy="51057.1" r="78.7402" /> 
<circle cx="83738.2" cy="52557.1" r="78.7402" /> 
<circle cx="83988.2" cy="31057.1" r="78.7402" /> 
<circle cx="83988.2" cy="55557.1" r="78.7402" /> 
<circle cx="84238.2" cy="32557.1" r="78.7402" /> 
<circle cx="84238.2" cy="36557.1" r="78.7402" /> 
<circle cx="84238.2" cy="37307.1" r="78.7402" /> 
<circle cx="84738.2" cy="31057.1" r="78.7402" /> 
<circle cx="84738.2" cy="55557.1" r="78.7402" /> 
<circle cx="84988.2" cy="32557.1" r="78.7402" /> 
<circle cx="84988.2" cy="36557.1" r="78.7402" /> 
<circle cx="84988.2" cy="37307.1" r="78.7402" /> 
<circle cx="85488.2" cy="26557.1" r="78.7402" /> 
<circle cx="85488.2" cy="60057.1" r="78.7402" /> 
<circle cx="86238.2" cy="26557.1" r="78.7402" /> 
<circle cx="86238.2" cy="60057.1" r="78.7402" /> 
<circle cx="86988.2" cy="26557.1" r="78.7402" /> 
<circle cx="86988.2" cy="60057.1" r="78.7402" /> 
<circle cx="87738.2" cy="26557.1" r="78.7402" /> 
<circle cx="87738.2" cy="60057.1" r="78.7402" /> 
<circle cx="88488.2" cy="26557.1" r="78.7402" /> 
<circle cx="88488.2" cy="60057.1" r="78.7402" /> 
<path d="M33088 43110
L33088 43503
" />
<path d="M32891 43307
L33285 43307
" />
<path d="M33088 44110
L33088 44503
" />
<path d="M32891 44307
L33285 44307
" />
<path d="M33088 45110
L33088 45503
" />
<path d="M32891 45307
L33285 45307
" />
<path d="M33088 46110
L33088 46503
" />
<path d="M32891 46307
L33285 46307
" />
<path d="M33088 47110
L33088 47503
" />
<path d="M32891 47307
L33285 47307
" />
<path d="M33088 48110
L33088 48503
" />
<path d="M32891 48307
L33285 48307
" />
<path d="M33088 49110
L33088 49503
" />
<path d="M32891 49307
L33285 49307
" />
<path d="M33088 50110
L33088 50503
" />
<path d="M32891 50307
L33285 50307
" />
<path d="M33088 51110
L33088 51503
" />
<path d="M32891 51307
L33285 51307
" />
<path d="M33088 52110
L33088 52503
" />
<path d="M32891 52307
L33285 52307
" />
<path d="M33088 53110
L33088 53503
" />
<path d="M32891 53307
L33285 53307
" />
<path d="M33088 54110
L33088 54503
" />
<path d="M32891 54307
L33285 54307
" />
<path d="M33088 55110
L33088 55503
" />
<path d="M32891 55307
L33285 55307
" />
<path d="M33088 56110
L33088 56503
" />
<path d="M32891 56307
L33285 56307
" />
<path d="M33088 57110
L33088 57503
" />
<path d="M32891 57307
L33285 57307
" />
<path d="M33088 58110
L33088 58503
" />
<path d="M32891 58307
L33285 58307
" />
<path d="M33488 27860
L33488 28253
" />
<path d="M33291 28057
L33685 28057
" />
<path d="M33488 35360
L33488 35753
" />
<path d="M33291 35557
L33685 35557
" />
<path d="M34088 43110
L34088 43503
" />
<path d="M33891 43307
L34285 43307
" />
<path d="M34088 44110
L34088 44503
" />
<path d="M33891 44307
L34285 44307
" />
<path d="M34088 45110
L34088 45503
" />
<path d="M33891 45307
L34285 45307
" />
<path d="M34088 46110
L34088 46503
" />
<path d="M33891 46307
L34285 46307
" />
<path d="M34088 47110
L34088 47503
" />
<path d="M33891 47307
L34285 47307
" />
<path d="M34088 48110
L34088 48503
" />
<path d="M33891 48307
L34285 48307
" />
<path d="M34088 49110
L34088 49503
" />
<path d="M33891 49307
L34285 49307
" />
<path d="M34088 50110
L34088 50503
" />
<path d="M33891 50307
L34285 50307
" />
<path d="M34088 51110
L34088 51503
" />
<path d="M33891 51307
L34285 51307
" />
<path d="M34088 52110
L34088 52503
" />
<path d="M33891 52307
L34285 52307
" />
<path d="M34088 53110
L34088 53503
" />
<path d="M33891 53307
L34285 53307
" />
<path d="M34088 54110
L34088 54503
" />
<path d="M33891 54307
L34285 54307
" />
<path d="M34088 55110
L34088 55503
" />
<path d="M33891 55307
L34285 55307
" />
<path d="M34088 56110
L34088 56503
" />
<path d="M33891 56307
L34285 56307
" />
<path d="M34088 57110
L34088 57503
" />
<path d="M33891 57307
L34285 57307
" />
<path d="M34088 58110
L34088 58503
" />
<path d="M33891 58307
L34285 58307
" />
<path d="M34488 41110
L34488 41503
" />
<path d="M34291 41307
L34685 41307
" />
<path d="M35988 59110
L35988 59503
" />
<path d="M35791 59307
L36185 59307
" />
<path d="M35988 60110
L35988 60503
" />
<path d="M35791 60307
L36185 60307
" />
<path d="M35988 61110
L35988 61503
" />
<path d="M35791 61307
L36185 61307
" />
<path d="M36488 47110
L36488 47503
" />
<path d="M36291 47307
L36685 47307
" />
<path d="M37488 27860
L37488 28253
" />
<path d="M37291 28057
L37685 28057
" />
<path d="M37488 59110
L37488 59503
" />
<path d="M37291 59307
L37685 59307
" />
<path d="M37488 60110
L37488 60503
" />
<path d="M37291 60307
L37685 60307
" />
<path d="M37488 61110
L37488 61503
" />
<path d="M37291 61307
L37685 61307
" />
<path d="M37888 35910
L37888 36303
" />
<path d="M37691 36107
L38085 36107
" />
<path d="M37988 47110
L37988 47503
" />
<path d="M37791 47307
L38185 47307
" />
<path d="M38988 59110
L38988 59503
" />
<path d="M38791 59307
L39185 59307
" />
<path d="M38988 60110
L38988 60503
" />
<path d="M38791 60307
L39185 60307
" />
<path d="M38988 61110
L38988 61503
" />
<path d="M38791 61307
L39185 61307
" />
<path d="M39488 47110
L39488 47503
" />
<path d="M39291 47307
L39685 47307
" />
<path d="M39988 25360
L39988 25753
" />
<path d="M39791 25557
L40185 25557
" />
<path d="M41488 49860
L41488 50253
" />
<path d="M41291 50057
L41685 50057
" />
<path d="M41988 43110
L41988 43503
" />
<path d="M41791 43307
L42185 43307
" />
<path d="M41988 44110
L41988 44503
" />
<path d="M41791 44307
L42185 44307
" />
<path d="M42988 57110
L42988 57503
" />
<path d="M42791 57307
L43185 57307
" />
<path d="M43488 35610
L43488 36003
" />
<path d="M43291 35807
L43685 35807
" />
<path d="M43488 43110
L43488 43503
" />
<path d="M43291 43307
L43685 43307
" />
<path d="M43488 44110
L43488 44503
" />
<path d="M43291 44307
L43685 44307
" />
<path d="M44238 55610
L44238 56003
" />
<path d="M44041 55807
L44435 55807
" />
<path d="M44988 43110
L44988 43503
" />
<path d="M44791 43307
L45185 43307
" />
<path d="M44988 44110
L44988 44503
" />
<path d="M44791 44307
L45185 44307
" />
<path d="M45238 31110
L45238 31503
" />
<path d="M45041 31307
L45435 31307
" />
<path d="M45738 55610
L45738 56003
" />
<path d="M45541 55807
L45935 55807
" />
<path d="M46738 50610
L46738 51003
" />
<path d="M46541 50807
L46935 50807
" />
<path d="M46988 37360
L46988 37753
" />
<path d="M46791 37557
L47185 37557
" />
<path d="M46988 43110
L46988 43503
" />
<path d="M46791 43307
L47185 43307
" />
<path d="M46988 44110
L46988 44503
" />
<path d="M46791 44307
L47185 44307
" />
<path d="M47238 35360
L47238 35753
" />
<path d="M47041 35557
L47435 35557
" />
<path d="M48488 43110
L48488 43503
" />
<path d="M48291 43307
L48685 43307
" />
<path d="M48488 44110
L48488 44503
" />
<path d="M48291 44307
L48685 44307
" />
<path d="M48488 50610
L48488 51003
" />
<path d="M48291 50807
L48685 50807
" />
<path d="M49238 35360
L49238 35753
" />
<path d="M49041 35557
L49435 35557
" />
<path d="M49988 43110
L49988 43503
" />
<path d="M49791 43307
L50185 43307
" />
<path d="M49988 44110
L49988 44503
" />
<path d="M49791 44307
L50185 44307
" />
<path d="M50238 50610
L50238 51003
" />
<path d="M50041 50807
L50435 50807
" />
<path d="M51238 31110
L51238 31503
" />
<path d="M51041 31307
L51435 31307
" />
<path d="M51488 36610
L51488 37003
" />
<path d="M51291 36807
L51685 36807
" />
<path d="M51738 41110
L51738 41503
" />
<path d="M51541 41307
L51935 41307
" />
<path d="M51988 43110
L51988 43503
" />
<path d="M51791 43307
L52185 43307
" />
<path d="M51988 44110
L51988 44503
" />
<path d="M51791 44307
L52185 44307
" />
<path d="M51988 50610
L51988 51003
" />
<path d="M51791 50807
L52185 50807
" />
<path d="M53238 32860
L53238 33253
" />
<path d="M53041 33057
L53435 33057
" />
<path d="M53238 33860
L53238 34253
" />
<path d="M53041 34057
L53435 34057
" />
<path d="M53238 34860
L53238 35253
" />
<path d="M53041 35057
L53435 35057
" />
<path d="M53238 41110
L53238 41503
" />
<path d="M53041 41307
L53435 41307
" />
<path d="M53488 43110
L53488 43503
" />
<path d="M53291 43307
L53685 43307
" />
<path d="M53488 44110
L53488 44503
" />
<path d="M53291 44307
L53685 44307
" />
<path d="M53738 50610
L53738 51003
" />
<path d="M53541 50807
L53935 50807
" />
<path d="M54738 32860
L54738 33253
" />
<path d="M54541 33057
L54935 33057
" />
<path d="M54738 33860
L54738 34253
" />
<path d="M54541 34057
L54935 34057
" />
<path d="M54738 34860
L54738 35253
" />
<path d="M54541 35057
L54935 35057
" />
<path d="M54738 41110
L54738 41503
" />
<path d="M54541 41307
L54935 41307
" />
<path d="M54845 36610
L54845 37003
" />
<path d="M54648 36807
L55042 36807
" />
<path d="M54988 43110
L54988 43503
" />
<path d="M54791 43307
L55185 43307
" />
<path d="M54988 44110
L54988 44503
" />
<path d="M54791 44307
L55185 44307
" />
<path d="M55238 51360
L55238 51753
" />
<path d="M55041 51557
L55435 51557
" />
<path d="M55488 25110
L55488 25503
" />
<path d="M55291 25307
L55685 25307
" />
<path d="M55488 31110
L55488 31503
" />
<path d="M55291 31307
L55685 31307
" />
<path d="M55488 54860
L55488 55253
" />
<path d="M55291 55057
L55685 55057
" />
<path d="M55488 61110
L55488 61503
" />
<path d="M55291 61307
L55685 61307
" />
<path d="M57988 25110
L57988 25503
" />
<path d="M57791 25307
L58185 25307
" />
<path d="M57988 61110
L57988 61503
" />
<path d="M57791 61307
L58185 61307
" />
<path d="M68238 29360
L68238 29753
" />
<path d="M68041 29557
L68435 29557
" />
<path d="M68238 56860
L68238 57253
" />
<path d="M68041 57057
L68435 57057
" />
<path d="M69988 31860
L69988 32253
" />
<path d="M69791 32057
L70185 32057
" />
<path d="M69988 35360
L69988 35753
" />
<path d="M69791 35557
L70185 35557
" />
<path d="M69988 50860
L69988 51253
" />
<path d="M69791 51057
L70185 51057
" />
<path d="M69988 54360
L69988 54753
" />
<path d="M69791 54557
L70185 54557
" />
<path d="M77488 25110
L77488 25503
" />
<path d="M77291 25307
L77685 25307
" />
<path d="M77488 61110
L77488 61503
" />
<path d="M77291 61307
L77685 61307
" />
<path d="M83738 43110
L83738 43503
" />
<path d="M83541 43307
L83935 43307
" />
<path d="M84738 35360
L84738 35753
" />
<path d="M84541 35557
L84935 35557
" />
<path d="M84738 54360
L84738 54753
" />
<path d="M84541 54557
L84935 54557
" />
<path d="M86614 28940
L86614 29334
" />
<path d="M86417 29137
L86811 29137
" />
<path d="M86614 30122
L86614 30515
" />
<path d="M86417 30318
L86811 30318
" />
<path d="M86614 31303
L86614 31696
" />
<path d="M86417 31500
L86811 31500
" />
<path d="M86614 32484
L86614 32877
" />
<path d="M86417 32681
L86811 32681
" />
<path d="M86614 33665
L86614 34059
" />
<path d="M86417 33862
L86811 33862
" />
<path d="M86614 36811
L86614 37204
" />
<path d="M86417 37007
L86811 37007
" />
<path d="M86614 37992
L86614 38385
" />
<path d="M86417 38188
L86811 38188
" />
<path d="M86614 39173
L86614 39566
" />
<path d="M86417 39370
L86811 39370
" />
<path d="M86614 40354
L86614 40748
" />
<path d="M86417 40551
L86811 40551
" />
<path d="M86614 41535
L86614 41929
" />
<path d="M86417 41732
L86811 41732
" />
<path d="M86614 44685
L86614 45078
" />
<path d="M86417 44881
L86811 44881
" />
<path d="M86614 45866
L86614 46259
" />
<path d="M86417 46062
L86811 46062
" />
<path d="M86614 47047
L86614 47440
" />
<path d="M86417 47244
L86811 47244
" />
<path d="M86614 48228
L86614 48622
" />
<path d="M86417 48425
L86811 48425
" />
<path d="M86614 49409
L86614 49803
" />
<path d="M86417 49606
L86811 49606
" />
<path d="M86614 52559
L86614 52952
" />
<path d="M86417 52755
L86811 52755
" />
<path d="M86614 53740
L86614 54133
" />
<path d="M86417 53937
L86811 53937
" />
<path d="M86614 54921
L86614 55314
" />
<path d="M86417 55118
L86811 55118
" />
<path d="M86614 56102
L86614 56496
" />
<path d="M86417 56299
L86811 56299
" />
<path d="M86614 57283
L86614 57677
" />
<path d="M86417 57480
L86811 57480
" />
<path d="M87795 28940
L87795 29334
" />
<path d="M87598 29137
L87992 29137
" />
<path d="M87795 30122
L87795 30515
" />
<path d="M87598 30318
L87992 30318
" />
<path d="M87795 32484
L87795 32877
" />
<path d="M87598 32681
L87992 32681
" />
<path d="M87795 33665
L87795 34059
" />
<path d="M87598 33862
L87992 33862
" />
<path d="M87795 36811
L87795 37204
" />
<path d="M87598 37007
L87992 37007
" />
<path d="M87795 37992
L87795 38385
" />
<path d="M87598 38188
L87992 38188
" />
<path d="M87795 40354
L87795 40748
" />
<path d="M87598 40551
L87992 40551
" />
<path d="M87795 41535
L87795 41929
" />
<path d="M87598 41732
L87992 41732
" />
<path d="M87795 44685
L87795 45078
" />
<path d="M87598 44881
L87992 44881
" />
<path d="M87795 45866
L87795 46259
" />
<path d="M87598 46062
L87992 46062
" />
<path d="M87795 48228
L87795 48622
" />
<path d="M87598 48425
L87992 48425
" />
<path d="M87795 49409
L87795 49803
" />
<path d="M87598 49606
L87992 49606
" />
<path d="M87795 52559
L87795 52952
" />
<path d="M87598 52755
L87992 52755
" />
<path d="M87795 53740
L87795 54133
" />
<path d="M87598 53937
L87992 53937
" />
<path d="M87795 56102
L87795 56496
" />
<path d="M87598 56299
L87992 56299
" />
<path d="M87795 57283
L87795 57677
" />
<path d="M87598 57480
L87992 57480
" />
<path d="M88976 28940
L88976 29334
" />
<path d="M88779 29137
L89173 29137
" />
<path d="M88976 33665
L88976 34059
" />
<path d="M88779 33862
L89173 33862
" />
<path d="M88976 36811
L88976 37204
" />
<path d="M88779 37007
L89173 37007
" />
<path d="M88976 41535
L88976 41929
" />
<path d="M88779 41732
L89173 41732
" />
<path d="M88976 44685
L88976 45078
" />
<path d="M88779 44881
L89173 44881
" />
<path d="M88976 49409
L88976 49803
" />
<path d="M88779 49606
L89173 49606
" />
<path d="M88976 52559
L88976 52952
" />
<path d="M88779 52755
L89173 52755
" />
<path d="M88976 57283
L88976 57677
" />
<path d="M88779 57480
L89173 57480
" />
<path d="M89738 26610
L89738 27003
" />
<path d="M89541 26807
L89935 26807
" />
<path d="M89738 59610
L89738 60003
" />
<path d="M89541 59807
L89935 59807
" />
<path d="M90551 28940
L90551 29334
" />
<path d="M90354 29137
L90748 29137
" />
<path d="M90551 33665
L90551 34059
" />
<path d="M90354 33862
L90748 33862
" />
<path d="M90551 36811
L90551 37204
" />
<path d="M90354 37007
L90748 37007
" />
<path d="M90551 41535
L90551 41929
" />
<path d="M90354 41732
L90748 41732
" />
<path d="M90551 44685
L90551 45078
" />
<path d="M90354 44881
L90748 44881
" />
<path d="M90551 49409
L90551 49803
" />
<path d="M90354 49606
L90748 49606
" />
<path d="M90551 52559
L90551 52952
" />
<path d="M90354 52755
L90748 52755
" />
<path d="M90551 57283
L90551 57677
" />
<path d="M90354 57480
L90748 57480
" />
<path d="M91732 28940
L91732 29334
" />
<path d="M91535 29137
L91929 29137
" />
<path d="M91732 30122
L91732 30515
" />
<path d="M91535 30318
L91929 30318
" />
<path d="M91732 32484
L91732 32877
" />
<path d="M91535 32681
L91929 32681
" />
<path d="M91732 33665
L91732 34059
" />
<path d="M91535 33862
L91929 33862
" />
<path d="M91732 36811
L91732 37204
" />
<path d="M91535 37007
L91929 37007
" />
<path d="M91732 37992
L91732 38385
" />
<path d="M91535 38188
L91929 38188
" />
<path d="M91732 40354
L91732 40748
" />
<path d="M91535 40551
L91929 40551
" />
<path d="M91732 41535
L91732 41929
" />
<path d="M91535 41732
L91929 41732
" />
<path d="M91732 44685
L91732 45078
" />
<path d="M91535 44881
L91929 44881
" />
<path d="M91732 45866
L91732 46259
" />
<path d="M91535 46062
L91929 46062
" />
<path d="M91732 48228
L91732 48622
" />
<path d="M91535 48425
L91929 48425
" />
<path d="M91732 49409
L91732 49803
" />
<path d="M91535 49606
L91929 49606
" />
<path d="M91732 52559
L91732 52952
" />
<path d="M91535 52755
L91929 52755
" />
<path d="M91732 53740
L91732 54133
" />
<path d="M91535 53937
L91929 53937
" />
<path d="M91732 56102
L91732 56496
" />
<path d="M91535 56299
L91929 56299
" />
<path d="M91732 57283
L91732 57677
" />
<path d="M91535 57480
L91929 57480
" />
<path d="M92913 28940
L92913 29334
" />
<path d="M92716 29137
L93110 29137
" />
<path d="M92913 30122
L92913 30515
" />
<path d="M92716 30318
L93110 30318
" />
<path d="M92913 31303
L92913 31696
" />
<path d="M92716 31500
L93110 31500
" />
<path d="M92913 32484
L92913 32877
" />
<path d="M92716 32681
L93110 32681
" />
<path d="M92913 33665
L92913 34059
" />
<path d="M92716 33862
L93110 33862
" />
<path d="M92913 36811
L92913 37204
" />
<path d="M92716 37007
L93110 37007
" />
<path d="M92913 37992
L92913 38385
" />
<path d="M92716 38188
L93110 38188
" />
<path d="M92913 39173
L92913 39566
" />
<path d="M92716 39370
L93110 39370
" />
<path d="M92913 40354
L92913 40748
" />
<path d="M92716 40551
L93110 40551
" />
<path d="M92913 41535
L92913 41929
" />
<path d="M92716 41732
L93110 41732
" />
<path d="M92913 44685
L92913 45078
" />
<path d="M92716 44881
L93110 44881
" />
<path d="M92913 45866
L92913 46259
" />
<path d="M92716 46062
L93110 46062
" />
<path d="M92913 47047
L92913 47440
" />
<path d="M92716 47244
L93110 47244
" />
<path d="M92913 48228
L92913 48622
" />
<path d="M92716 48425
L93110 48425
" />
<path d="M92913 49409
L92913 49803
" />
<path d="M92716 49606
L93110 49606
" />
<path d="M92913 52559
L92913 52952
" />
<path d="M92716 52755
L93110 52755
" />
<path d="M92913 53740
L92913 54133
" />
<path d="M92716 53937
L93110 53937
" />
<path d="M92913 54921
L92913 55314
" />
<path d="M92716 55118
L93110 55118
" />
<path d="M92913 56102
L92913 56496
" />
<path d="M92716 56299
L93110 56299
" />
<path d="M92913 57283
L92913 57677
" />
<path d="M92716 57480
L93110 57480
" />
<path style="fill:#000000; fill-opacity:0.0; 
stroke:#000000; stroke-width:78.7402; stroke-opacity:1; 
stroke-linecap:round; stroke-linejoin:round;fill:none"
d="M 57686.7,33974.1
57686.7,33640.1
57352.7,33640.1
57352.7,33974.1
Z" /> 
<path style="fill:#000000; fill-opacity:0.0; 
stroke:#000000; stroke-width:78.7402; stroke-opacity:1; 
stroke-linecap:round; stroke-linejoin:round;fill:none"
d="M 57686.7,52974.1
57686.7,52640.1
57352.7,52640.1
57352.7,52974.1
Z" /> 
<path style="fill:#000000; fill-opacity:0.0; 
stroke:#000000; stroke-width:78.7402; stroke-opacity:1; 
stroke-linecap:round; stroke-linejoin:round;fill:none"
d="M 58655.2,39005.6
58655.2,38671.5
58321.2,38671.5
58321.2,39005.6
Z" /> 
<path style="fill:#000000; fill-opacity:0.0; 
stroke:#000000; stroke-width:78.7402; stroke-opacity:1; 
stroke-linecap:round; stroke-linejoin:round;fill:none"
d="M 58655.2,40974.1
58655.2,40640.1
58321.2,40640.1
58321.2,40974.1
Z" /> 
<path style="fill:#000000; fill-opacity:0.0; 
stroke:#000000; stroke-width:78.7402; stroke-opacity:1; 
stroke-linecap:round; stroke-linejoin:round;fill:none"
d="M 58655.2,45974.1
58655.2,45640.1
58321.2,45640.1
58321.2,45974.1
Z" /> 
<path style="fill:#000000; fill-opacity:0.0; 
stroke:#000000; stroke-width:78.7402; stroke-opacity:1; 
stroke-linecap:round; stroke-linejoin:round;fill:none"
d="M 58655.2,47942.6
58655.2,47608.6
58321.2,47608.6
58321.2,47942.6
Z" /> 
<path style="fill:#000000; fill-opacity:0.0; 
stroke:#000000; stroke-width:78.7402; stroke-opacity:1; 
stroke-linecap:round; stroke-linejoin:round;fill:none"
d="M 59655.2,33974.1
59655.2,33640.1
59321.2,33640.1
59321.2,33974.1
Z" /> 
<path style="fill:#000000; fill-opacity:0.0; 
stroke:#000000; stroke-width:78.7402; stroke-opacity:1; 
stroke-linecap:round; stroke-linejoin:round;fill:none"
d="M 59655.2,52974.1
59655.2,52640.1
59321.2,52640.1
59321.2,52974.1
Z" /> 
<path style="fill:#000000; fill-opacity:0.0; 
stroke:#000000; stroke-width:78.7402; stroke-opacity:1; 
stroke-linecap:round; stroke-linejoin:round;fill:none"
d="M 64655.2,38974.1
64655.2,38640.1
64321.2,38640.1
64321.2,38974.1
Z" /> 
<path style="fill:#000000; fill-opacity:0.0; 
stroke:#000000; stroke-width:78.7402; stroke-opacity:1; 
stroke-linecap:round; stroke-linejoin:round;fill:none"
d="M 64655.2,40942.6
64655.2,40608.6
64321.2,40608.6
64321.2,40942.6
Z" /> 
<path style="fill:#000000; fill-opacity:0.0; 
stroke:#000000; stroke-width:78.7402; stroke-opacity:1; 
stroke-linecap:round; stroke-linejoin:round;fill:none"
d="M 64655.2,45974.1
64655.2,45640.1
64321.2,45640.1
64321.2,45974.1
Z" /> 
<path style="fill:#000000; fill-opacity:0.0; 
stroke:#000000; stroke-width:78.7402; stroke-opacity:1; 
stroke-linecap:round; stroke-linejoin:round;fill:none"
d="M 64655.2,47942.6
64655.2,47608.6
64321.2,47608.6
64321.2,47942.6
Z" /> 
<path style="fill:#000000; fill-opacity:0.0; 
stroke:#000000; stroke-width:78.7402; stroke-opacity:1; 
stroke-linecap:round; stroke-linejoin:round;fill:none"
d="M 74488.2,43563
74744.1,43307.1
74488.2,43051.2
74232.3,43307.1
Z" /> 
<path d="M74271 43110
L74271 43503
" />
<path d="M74704 43110
L74704 43503
" />
<path d="M74271.7 43503.9 A216.535 216.535 0.0 0 0 74704.7 43503.9" />
<path d="M74704.7 43110.2 A216.535 216.535 0.0 0 0 74271.7 43110.2" />
<path style="fill:#000000; fill-opacity:0.0; 
stroke:#000000; stroke-width:78.7402; stroke-opacity:1; 
stroke-linecap:round; stroke-linejoin:round;fill:none"
d="M 74488.2,50255.9
74744.1,50000
74488.2,49744.1
74232.3,50000
Z" /> 
<path d="M74271 49803
L74271 50196
" />
<path d="M74704 49803
L74704 50196
" />
<path d="M74271.7 50196.9 A216.535 216.535 0.0 0 0 74704.7 50196.9" />
<path d="M74704.7 49803.1 A216.535 216.535 0.0 0 0 74271.7 49803.1" />
<path d="M74153 37222
L74822 37891
" />
<path d="M74822 37222
L74153 37891
" />
<circle cx="74488.2" cy="37557.1" r="334.646" /> 
<path d="M74153 48722
L74822 49391
" />
<path d="M74822 48722
L74153 49391
" />
<circle cx="74488.2" cy="49057.1" r="334.646" /> 
<path d="M74094 38976
L74881 39763
" />
<path d="M74881 38976
L74094 39763
" />
<path d="M74488 38976
L74488 39763
" />
<path d="M74094 39370
L74881 39370
" />
<path d="M74094 46850
L74881 47637
" />
<path d="M74881 46850
L74094 47637
" />
<path d="M74488 46850
L74488 47637
" />
<path d="M74094 47244
L74881 47244
" />
<path d="M88425 30161
L91102 32838
" />
<path d="M91102 30161
L88425 32838
" />
<path style="fill:#000000; fill-opacity:0.0; 
stroke:#000000; stroke-width:78.7402; stroke-opacity:1; 
stroke-linecap:round; stroke-linejoin:round;fill:none"
d="M 90710.3,32446.5
90710.3,30553.5
88817.2,30553.5
88817.2,32446.5
Z" /> 
<path d="M88425 38031
L91102 40708
" />
<path d="M91102 38031
L88425 40708
" />
<path style="fill:#000000; fill-opacity:0.0; 
stroke:#000000; stroke-width:78.7402; stroke-opacity:1; 
stroke-linecap:round; stroke-linejoin:round;fill:none"
d="M 90710.3,40316.6
90710.3,38423.5
88817.2,38423.5
88817.2,40316.6
Z" /> 
<path d="M88425 45905
L91102 48582
" />
<path d="M91102 45905
L88425 48582
" />
<path style="fill:#000000; fill-opacity:0.0; 
stroke:#000000; stroke-width:78.7402; stroke-opacity:1; 
stroke-linecap:round; stroke-linejoin:round;fill:none"
d="M 90710.3,48190.6
90710.3,46297.6
88817.2,46297.6
88817.2,48190.6
Z" /> 
<path d="M88425 53779
L91102 56456
" />
<path d="M91102 53779
L88425 56456
" />
<path style="fill:#000000; fill-opacity:0.0; 
stroke:#000000; stroke-width:78.7402; stroke-opacity:1; 
stroke-linecap:round; stroke-linejoin:round;fill:none"
d="M 90710.3,56064.6
90710.3,54171.6
88817.2,54171.6
88817.2,56064.6
Z" /> 
</g>
<g style="fill:#000000; fill-opacity:0.0; 
stroke:#000000; stroke-width:118.11; stroke-opacity:1; 
stroke-linecap:round; stroke-linejoin:round;">
<text x="787.402" y="1889.76"
textLength="8779.53" font-size="1574.8" lengthAdjust="spacingAndGlyphs"
text-anchor="start" opacity="0">Drill Map:</text>
<path d="M1127 1833
L1127 652
L1408 652
L1577 708
L1690 821
L1746 933
L1802 1158
L1802 1327
L1746 1552
L1690 1664
L1577 1777
L1408 1833
L1127 1833
" />
<path d="M2308 1833
L2308 1046
" />
<path d="M2308 1271
L2365 1158
L2421 1102
L2533 1046
L2646 1046
" />
<path d="M3039 1833
L3039 1046
" />
<path d="M3039 652
L2983 708
L3039 764
L3096 708
L3039 652
L3039 764
" />
<path d="M3771 1833
L3658 1777
L3602 1664
L3602 652
" />
<path d="M4389 1833
L4277 1777
L4221 1664
L4221 652
" />
<path d="M5739 1833
L5739 652
L6133 1496
L6526 652
L6526 1833
" />
<path d="M7595 1833
L7595 1214
L7539 1102
L7426 1046
L7201 1046
L7089 1102
" />
<path d="M7595 1777
L7483 1833
L7201 1833
L7089 1777
L7033 1664
L7033 1552
L7089 1439
L7201 1383
L7483 1383
L7595 1327
" />
<path d="M8158 1046
L8158 2227
" />
<path d="M8158 1102
L8270 1046
L8495 1046
L8607 1102
L8664 1158
L8720 1271
L8720 1608
L8664 1721
L8607 1777
L8495 1833
L8270 1833
L8158 1777
" />
<path d="M9226 1721
L9282 1777
L9226 1833
L9170 1777
L9226 1721
L9226 1833
" />
<path d="M9226 1102
L9282 1158
L9226 1214
L9170 1158
L9226 1102
L9226 1214
" />
<path d="M-78 3740
L0 3818
" />
<path d="M0 3740
L-78 3818
" />
<text x="787.402" y="4370.08"
textLength="27677.2" font-size="1574.8" lengthAdjust="spacingAndGlyphs"
text-anchor="start" opacity="0">0.200mm / 0.0079" (6 holes)</text>
<path d="M1352 3132
L1465 3132
L1577 3188
L1633 3245
L1690 3357
L1746 3582
L1746 3863
L1690 4088
L1633 4201
L1577 4257
L1465 4313
L1352 4313
L1240 4257
L1183 4201
L1127 4088
L1071 3863
L1071 3582
L1127 3357
L1183 3245
L1240 3188
L1352 3132
" />
<path d="M2252 4201
L2308 4257
L2252 4313
L2196 4257
L2252 4201
L2252 4313
" />
<path d="M2758 3245
L2814 3188
L2927 3132
L3208 3132
L3321 3188
L3377 3245
L3433 3357
L3433 3470
L3377 3638
L2702 4313
L3433 4313
" />
<path d="M4164 3132
L4277 3132
L4389 3188
L4446 3245
L4502 3357
L4558 3582
L4558 3863
L4502 4088
L4446 4201
L4389 4257
L4277 4313
L4164 4313
L4052 4257
L3996 4201
L3939 4088
L3883 3863
L3883 3582
L3939 3357
L3996 3245
L4052 3188
L4164 3132
" />
<path d="M5289 3132
L5402 3132
L5514 3188
L5570 3245
L5627 3357
L5683 3582
L5683 3863
L5627 4088
L5570 4201
L5514 4257
L5402 4313
L5289 4313
L5177 4257
L5120 4201
L5064 4088
L5008 3863
L5008 3582
L5064 3357
L5120 3245
L5177 3188
L5289 3132
" />
<path d="M6189 4313
L6189 3526
" />
<path d="M6189 3638
L6245 3582
L6358 3526
L6526 3526
L6639 3582
L6695 3695
L6695 4313
" />
<path d="M6695 3695
L6751 3582
L6864 3526
L7033 3526
L7145 3582
L7201 3695
L7201 4313
" />
<path d="M7764 4313
L7764 3526
" />
<path d="M7764 3638
L7820 3582
L7933 3526
L8101 3526
L8214 3582
L8270 3695
L8270 4313
" />
<path d="M8270 3695
L8326 3582
L8439 3526
L8607 3526
L8720 3582
L8776 3695
L8776 4313
" />
<path d="M11082 3076
L10070 4595
" />
<path d="M12601 3132
L12713 3132
L12826 3188
L12882 3245
L12938 3357
L12994 3582
L12994 3863
L12938 4088
L12882 4201
L12826 4257
L12713 4313
L12601 4313
L12488 4257
L12432 4201
L12376 4088
L12320 3863
L12320 3582
L12376 3357
L12432 3245
L12488 3188
L12601 3132
" />
<path d="M13501 4201
L13557 4257
L13501 4313
L13444 4257
L13501 4201
L13501 4313
" />
<path d="M14288 3132
L14401 3132
L14513 3188
L14569 3245
L14625 3357
L14682 3582
L14682 3863
L14625 4088
L14569 4201
L14513 4257
L14401 4313
L14288 4313
L14176 4257
L14119 4201
L14063 4088
L14007 3863
L14007 3582
L14063 3357
L14119 3245
L14176 3188
L14288 3132
" />
<path d="M15413 3132
L15525 3132
L15638 3188
L15694 3245
L15750 3357
L15807 3582
L15807 3863
L15750 4088
L15694 4201
L15638 4257
L15525 4313
L15413 4313
L15300 4257
L15244 4201
L15188 4088
L15132 3863
L15132 3582
L15188 3357
L15244 3245
L15300 3188
L15413 3132
" />
<path d="M16200 3132
L16988 3132
L16482 4313
" />
<path d="M17494 4313
L17719 4313
L17831 4257
L17888 4201
L18000 4032
L18056 3807
L18056 3357
L18000 3245
L17944 3188
L17831 3132
L17606 3132
L17494 3188
L17438 3245
L17381 3357
L17381 3638
L17438 3751
L17494 3807
L17606 3863
L17831 3863
L17944 3807
L18000 3751
L18056 3638
" />
<path d="M18506 3132
L18506 3357
" />
<path d="M18956 3132
L18956 3357
" />
<path d="M20700 4763
L20643 4707
L20531 4538
L20475 4426
L20419 4257
L20362 3976
L20362 3751
L20419 3470
L20475 3301
L20531 3188
L20643 3020
L20700 2964
" />
<path d="M21656 3132
L21431 3132
L21318 3188
L21262 3245
L21150 3413
L21093 3638
L21093 4088
L21150 4201
L21206 4257
L21318 4313
L21543 4313
L21656 4257
L21712 4201
L21768 4088
L21768 3807
L21712 3695
L21656 3638
L21543 3582
L21318 3582
L21206 3638
L21150 3695
L21093 3807
" />
<path d="M23174 4313
L23174 3132
" />
<path d="M23681 4313
L23681 3695
L23624 3582
L23512 3526
L23343 3526
L23231 3582
L23174 3638
" />
<path d="M24412 4313
L24299 4257
L24243 4201
L24187 4088
L24187 3751
L24243 3638
L24299 3582
L24412 3526
L24580 3526
L24693 3582
L24749 3638
L24805 3751
L24805 4088
L24749 4201
L24693 4257
L24580 4313
L24412 4313
" />
<path d="M25480 4313
L25368 4257
L25312 4145
L25312 3132
" />
<path d="M26380 4257
L26268 4313
L26043 4313
L25930 4257
L25874 4145
L25874 3695
L25930 3582
L26043 3526
L26268 3526
L26380 3582
L26437 3695
L26437 3807
L25874 3920
" />
<path d="M26886 4257
L26999 4313
L27224 4313
L27336 4257
L27393 4145
L27393 4088
L27336 3976
L27224 3920
L27055 3920
L26943 3863
L26886 3751
L26886 3695
L26943 3582
L27055 3526
L27224 3526
L27336 3582
" />
<path d="M27786 4763
L27843 4707
L27955 4538
L28011 4426
L28068 4257
L28124 3976
L28124 3751
L28068 3470
L28011 3301
L27955 3188
L27843 3020
L27786 2964
" />
<circle cx="-78.7402" cy="5338.58" r="78.7402" /> 
<text x="787.402" y="5929.13"
textLength="29926.9" font-size="1574.8" lengthAdjust="spacingAndGlyphs"
text-anchor="start" opacity="0">0.400mm / 0.0157" (344 holes)</text>
<path d="M1352 4691
L1465 4691
L1577 4748
L1633 4804
L1690 4916
L1746 5141
L1746 5422
L1690 5647
L1633 5760
L1577 5816
L1465 5872
L1352 5872
L1240 5816
L1183 5760
L1127 5647
L1071 5422
L1071 5141
L1127 4916
L1183 4804
L1240 4748
L1352 4691
" />
<path d="M2252 5760
L2308 5816
L2252 5872
L2196 5816
L2252 5760
L2252 5872
" />
<path d="M3321 5085
L3321 5872
" />
<path d="M3039 4635
L2758 5479
L3489 5479
" />
<path d="M4164 4691
L4277 4691
L4389 4748
L4446 4804
L4502 4916
L4558 5141
L4558 5422
L4502 5647
L4446 5760
L4389 5816
L4277 5872
L4164 5872
L4052 5816
L3996 5760
L3939 5647
L3883 5422
L3883 5141
L3939 4916
L3996 4804
L4052 4748
L4164 4691
" />
<path d="M5289 4691
L5402 4691
L5514 4748
L5570 4804
L5627 4916
L5683 5141
L5683 5422
L5627 5647
L5570 5760
L5514 5816
L5402 5872
L5289 5872
L5177 5816
L5120 5760
L5064 5647
L5008 5422
L5008 5141
L5064 4916
L5120 4804
L5177 4748
L5289 4691
" />
<path d="M6189 5872
L6189 5085
" />
<path d="M6189 5197
L6245 5141
L6358 5085
L6526 5085
L6639 5141
L6695 5254
L6695 5872
" />
<path d="M6695 5254
L6751 5141
L6864 5085
L7033 5085
L7145 5141
L7201 5254
L7201 5872
" />
<path d="M7764 5872
L7764 5085
" />
<path d="M7764 5197
L7820 5141
L7933 5085
L8101 5085
L8214 5141
L8270 5254
L8270 5872
" />
<path d="M8270 5254
L8326 5141
L8439 5085
L8607 5085
L8720 5141
L8776 5254
L8776 5872
" />
<path d="M11082 4635
L10070 6154
" />
<path d="M12601 4691
L12713 4691
L12826 4748
L12882 4804
L12938 4916
L12994 5141
L12994 5422
L12938 5647
L12882 5760
L12826 5816
L12713 5872
L12601 5872
L12488 5816
L12432 5760
L12376 5647
L12320 5422
L12320 5141
L12376 4916
L12432 4804
L12488 4748
L12601 4691
" />
<path d="M13501 5760
L13557 5816
L13501 5872
L13444 5816
L13501 5760
L13501 5872
" />
<path d="M14288 4691
L14401 4691
L14513 4748
L14569 4804
L14625 4916
L14682 5141
L14682 5422
L14625 5647
L14569 5760
L14513 5816
L14401 5872
L14288 5872
L14176 5816
L14119 5760
L14063 5647
L14007 5422
L14007 5141
L14063 4916
L14119 4804
L14176 4748
L14288 4691
" />
<path d="M15807 5872
L15132 5872
" />
<path d="M15469 5872
L15469 4691
L15357 4860
L15244 4973
L15132 5029
" />
<path d="M16875 4691
L16313 4691
L16257 5254
L16313 5197
L16425 5141
L16706 5141
L16819 5197
L16875 5254
L16931 5366
L16931 5647
L16875 5760
L16819 5816
L16706 5872
L16425 5872
L16313 5816
L16257 5760
" />
<path d="M17325 4691
L18113 4691
L17606 5872
" />
<path d="M18506 4691
L18506 4916
" />
<path d="M18956 4691
L18956 4916
" />
<path d="M20700 6322
L20643 6266
L20531 6097
L20475 5985
L20419 5816
L20362 5535
L20362 5310
L20419 5029
L20475 4860
L20531 4748
L20643 4579
L20700 4523
" />
<path d="M21037 4691
L21768 4691
L21375 5141
L21543 5141
L21656 5197
L21712 5254
L21768 5366
L21768 5647
L21712 5760
L21656 5816
L21543 5872
L21206 5872
L21093 5816
L21037 5760
" />
<path d="M22781 5085
L22781 5872
" />
<path d="M22499 4635
L22218 5479
L22949 5479
" />
<path d="M23906 5085
L23906 5872
" />
<path d="M23624 4635
L23343 5479
L24074 5479
" />
<path d="M25424 5872
L25424 4691
" />
<path d="M25930 5872
L25930 5254
L25874 5141
L25762 5085
L25593 5085
L25480 5141
L25424 5197
" />
<path d="M26661 5872
L26549 5816
L26493 5760
L26437 5647
L26437 5310
L26493 5197
L26549 5141
L26661 5085
L26830 5085
L26943 5141
L26999 5197
L27055 5310
L27055 5647
L26999 5760
L26943 5816
L26830 5872
L26661 5872
" />
<path d="M27730 5872
L27618 5816
L27561 5704
L27561 4691
" />
<path d="M28630 5816
L28517 5872
L28293 5872
L28180 5816
L28124 5704
L28124 5254
L28180 5141
L28293 5085
L28517 5085
L28630 5141
L28686 5254
L28686 5366
L28124 5479
" />
<path d="M29136 5816
L29249 5872
L29474 5872
L29586 5816
L29642 5704
L29642 5647
L29586 5535
L29474 5479
L29305 5479
L29192 5422
L29136 5310
L29136 5254
L29192 5141
L29305 5085
L29474 5085
L29586 5141
" />
<path d="M30036 6322
L30092 6266
L30205 6097
L30261 5985
L30317 5816
L30374 5535
L30374 5310
L30317 5029
L30261 4860
L30205 4748
L30092 4579
L30036 4523
" />
<path d="M-196 6700
L-196 7094
" />
<path d="M-393 6897
L0 6897
" />
<text x="787.402" y="7488.19"
textLength="29926.9" font-size="1574.8" lengthAdjust="spacingAndGlyphs"
text-anchor="start" opacity="0">1.000mm / 0.0394" (202 holes)</text>
<path d="M1746 7431
L1071 7431
" />
<path d="M1408 7431
L1408 6250
L1296 6419
L1183 6532
L1071 6588
" />
<path d="M2252 7319
L2308 7375
L2252 7431
L2196 7375
L2252 7319
L2252 7431
" />
<path d="M3039 6250
L3152 6250
L3264 6307
L3321 6363
L3377 6475
L3433 6700
L3433 6982
L3377 7206
L3321 7319
L3264 7375
L3152 7431
L3039 7431
L2927 7375
L2871 7319
L2814 7206
L2758 6982
L2758 6700
L2814 6475
L2871 6363
L2927 6307
L3039 6250
" />
<path d="M4164 6250
L4277 6250
L4389 6307
L4446 6363
L4502 6475
L4558 6700
L4558 6982
L4502 7206
L4446 7319
L4389 7375
L4277 7431
L4164 7431
L4052 7375
L3996 7319
L3939 7206
L3883 6982
L3883 6700
L3939 6475
L3996 6363
L4052 6307
L4164 6250
" />
<path d="M5289 6250
L5402 6250
L5514 6307
L5570 6363
L5627 6475
L5683 6700
L5683 6982
L5627 7206
L5570 7319
L5514 7375
L5402 7431
L5289 7431
L5177 7375
L5120 7319
L5064 7206
L5008 6982
L5008 6700
L5064 6475
L5120 6363
L5177 6307
L5289 6250
" />
<path d="M6189 7431
L6189 6644
" />
<path d="M6189 6757
L6245 6700
L6358 6644
L6526 6644
L6639 6700
L6695 6813
L6695 7431
" />
<path d="M6695 6813
L6751 6700
L6864 6644
L7033 6644
L7145 6700
L7201 6813
L7201 7431
" />
<path d="M7764 7431
L7764 6644
" />
<path d="M7764 6757
L7820 6700
L7933 6644
L8101 6644
L8214 6700
L8270 6813
L8270 7431
" />
<path d="M8270 6813
L8326 6700
L8439 6644
L8607 6644
L8720 6700
L8776 6813
L8776 7431
" />
<path d="M11082 6194
L10070 7713
" />
<path d="M12601 6250
L12713 6250
L12826 6307
L12882 6363
L12938 6475
L12994 6700
L12994 6982
L12938 7206
L12882 7319
L12826 7375
L12713 7431
L12601 7431
L12488 7375
L12432 7319
L12376 7206
L12320 6982
L12320 6700
L12376 6475
L12432 6363
L12488 6307
L12601 6250
" />
<path d="M13501 7319
L13557 7375
L13501 7431
L13444 7375
L13501 7319
L13501 7431
" />
<path d="M14288 6250
L14401 6250
L14513 6307
L14569 6363
L14625 6475
L14682 6700
L14682 6982
L14625 7206
L14569 7319
L14513 7375
L14401 7431
L14288 7431
L14176 7375
L14119 7319
L14063 7206
L14007 6982
L14007 6700
L14063 6475
L14119 6363
L14176 6307
L14288 6250
" />
<path d="M15075 6250
L15807 6250
L15413 6700
L15582 6700
L15694 6757
L15750 6813
L15807 6925
L15807 7206
L15750 7319
L15694 7375
L15582 7431
L15244 7431
L15132 7375
L15075 7319
" />
<path d="M16369 7431
L16594 7431
L16706 7375
L16763 7319
L16875 7150
L16931 6925
L16931 6475
L16875 6363
L16819 6307
L16706 6250
L16482 6250
L16369 6307
L16313 6363
L16257 6475
L16257 6757
L16313 6869
L16369 6925
L16482 6982
L16706 6982
L16819 6925
L16875 6869
L16931 6757
" />
<path d="M17944 6644
L17944 7431
" />
<path d="M17663 6194
L17381 7038
L18113 7038
" />
<path d="M18506 6250
L18506 6475
" />
<path d="M18956 6250
L18956 6475
" />
<path d="M20700 7881
L20643 7825
L20531 7656
L20475 7544
L20419 7375
L20362 7094
L20362 6869
L20419 6588
L20475 6419
L20531 6307
L20643 6138
L20700 6082
" />
<path d="M21093 6363
L21150 6307
L21262 6250
L21543 6250
L21656 6307
L21712 6363
L21768 6475
L21768 6588
L21712 6757
L21037 7431
L21768 7431
" />
<path d="M22499 6250
L22612 6250
L22724 6307
L22781 6363
L22837 6475
L22893 6700
L22893 6982
L22837 7206
L22781 7319
L22724 7375
L22612 7431
L22499 7431
L22387 7375
L22331 7319
L22275 7206
L22218 6982
L22218 6700
L22275 6475
L22331 6363
L22387 6307
L22499 6250
" />
<path d="M23343 6363
L23399 6307
L23512 6250
L23793 6250
L23906 6307
L23962 6363
L24018 6475
L24018 6588
L23962 6757
L23287 7431
L24018 7431
" />
<path d="M25424 7431
L25424 6250
" />
<path d="M25930 7431
L25930 6813
L25874 6700
L25762 6644
L25593 6644
L25480 6700
L25424 6757
" />
<path d="M26661 7431
L26549 7375
L26493 7319
L26437 7206
L26437 6869
L26493 6757
L26549 6700
L26661 6644
L26830 6644
L26943 6700
L26999 6757
L27055 6869
L27055 7206
L26999 7319
L26943 7375
L26830 7431
L26661 7431
" />
<path d="M27730 7431
L27618 7375
L27561 7263
L27561 6250
" />
<path d="M28630 7375
L28517 7431
L28293 7431
L28180 7375
L28124 7263
L28124 6813
L28180 6700
L28293 6644
L28517 6644
L28630 6700
L28686 6813
L28686 6925
L28124 7038
" />
<path d="M29136 7375
L29249 7431
L29474 7431
L29586 7375
L29642 7263
L29642 7206
L29586 7094
L29474 7038
L29305 7038
L29192 6982
L29136 6869
L29136 6813
L29192 6700
L29305 6644
L29474 6644
L29586 6700
" />
<path d="M30036 7881
L30092 7825
L30205 7656
L30261 7544
L30317 7375
L30374 7094
L30374 6869
L30317 6588
L30261 6419
L30205 6307
L30092 6138
L30036 6082
" />
<path style="fill:#000000; fill-opacity:0.0; 
stroke:#000000; stroke-width:118.11; stroke-opacity:1; 
stroke-linecap:round; stroke-linejoin:round;fill:none"
d="M -69.1858,8623.73
-69.1858,8289.66
-403.255,8289.66
-403.255,8623.73
Z" /> 
<text x="787.402" y="9047.24"
textLength="28802" font-size="1574.8" lengthAdjust="spacingAndGlyphs"
text-anchor="start" opacity="0">1.200mm / 0.0472" (12 holes)</text>
<path d="M1746 8991
L1071 8991
" />
<path d="M1408 8991
L1408 7809
L1296 7978
L1183 8091
L1071 8147
" />
<path d="M2252 8878
L2308 8934
L2252 8991
L2196 8934
L2252 8878
L2252 8991
" />
<path d="M2758 7922
L2814 7866
L2927 7809
L3208 7809
L3321 7866
L3377 7922
L3433 8034
L3433 8147
L3377 8316
L2702 8991
L3433 8991
" />
<path d="M4164 7809
L4277 7809
L4389 7866
L4446 7922
L4502 8034
L4558 8259
L4558 8541
L4502 8766
L4446 8878
L4389 8934
L4277 8991
L4164 8991
L4052 8934
L3996 8878
L3939 8766
L3883 8541
L3883 8259
L3939 8034
L3996 7922
L4052 7866
L4164 7809
" />
<path d="M5289 7809
L5402 7809
L5514 7866
L5570 7922
L5627 8034
L5683 8259
L5683 8541
L5627 8766
L5570 8878
L5514 8934
L5402 8991
L5289 8991
L5177 8934
L5120 8878
L5064 8766
L5008 8541
L5008 8259
L5064 8034
L5120 7922
L5177 7866
L5289 7809
" />
<path d="M6189 8991
L6189 8203
" />
<path d="M6189 8316
L6245 8259
L6358 8203
L6526 8203
L6639 8259
L6695 8372
L6695 8991
" />
<path d="M6695 8372
L6751 8259
L6864 8203
L7033 8203
L7145 8259
L7201 8372
L7201 8991
" />
<path d="M7764 8991
L7764 8203
" />
<path d="M7764 8316
L7820 8259
L7933 8203
L8101 8203
L8214 8259
L8270 8372
L8270 8991
" />
<path d="M8270 8372
L8326 8259
L8439 8203
L8607 8203
L8720 8259
L8776 8372
L8776 8991
" />
<path d="M11082 7753
L10070 9272
" />
<path d="M12601 7809
L12713 7809
L12826 7866
L12882 7922
L12938 8034
L12994 8259
L12994 8541
L12938 8766
L12882 8878
L12826 8934
L12713 8991
L12601 8991
L12488 8934
L12432 8878
L12376 8766
L12320 8541
L12320 8259
L12376 8034
L12432 7922
L12488 7866
L12601 7809
" />
<path d="M13501 8878
L13557 8934
L13501 8991
L13444 8934
L13501 8878
L13501 8991
" />
<path d="M14288 7809
L14401 7809
L14513 7866
L14569 7922
L14625 8034
L14682 8259
L14682 8541
L14625 8766
L14569 8878
L14513 8934
L14401 8991
L14288 8991
L14176 8934
L14119 8878
L14063 8766
L14007 8541
L14007 8259
L14063 8034
L14119 7922
L14176 7866
L14288 7809
" />
<path d="M15694 8203
L15694 8991
" />
<path d="M15413 7753
L15132 8597
L15863 8597
" />
<path d="M16200 7809
L16988 7809
L16482 8991
" />
<path d="M17381 7922
L17438 7866
L17550 7809
L17831 7809
L17944 7866
L18000 7922
L18056 8034
L18056 8147
L18000 8316
L17325 8991
L18056 8991
" />
<path d="M18506 7809
L18506 8034
" />
<path d="M18956 7809
L18956 8034
" />
<path d="M20700 9440
L20643 9384
L20531 9215
L20475 9103
L20419 8934
L20362 8653
L20362 8428
L20419 8147
L20475 7978
L20531 7866
L20643 7697
L20700 7641
" />
<path d="M21768 8991
L21093 8991
" />
<path d="M21431 8991
L21431 7809
L21318 7978
L21206 8091
L21093 8147
" />
<path d="M22218 7922
L22275 7866
L22387 7809
L22668 7809
L22781 7866
L22837 7922
L22893 8034
L22893 8147
L22837 8316
L22162 8991
L22893 8991
" />
<path d="M24299 8991
L24299 7809
" />
<path d="M24805 8991
L24805 8372
L24749 8259
L24637 8203
L24468 8203
L24356 8259
L24299 8316
" />
<path d="M25537 8991
L25424 8934
L25368 8878
L25312 8766
L25312 8428
L25368 8316
L25424 8259
L25537 8203
L25705 8203
L25818 8259
L25874 8316
L25930 8428
L25930 8766
L25874 8878
L25818 8934
L25705 8991
L25537 8991
" />
<path d="M26605 8991
L26493 8934
L26437 8822
L26437 7809
" />
<path d="M27505 8934
L27393 8991
L27168 8991
L27055 8934
L26999 8822
L26999 8372
L27055 8259
L27168 8203
L27393 8203
L27505 8259
L27561 8372
L27561 8484
L26999 8597
" />
<path d="M28011 8934
L28124 8991
L28349 8991
L28461 8934
L28517 8822
L28517 8766
L28461 8653
L28349 8597
L28180 8597
L28068 8541
L28011 8428
L28011 8372
L28068 8259
L28180 8203
L28349 8203
L28461 8259
" />
<path d="M28911 9440
L28967 9384
L29080 9215
L29136 9103
L29192 8934
L29249 8653
L29249 8428
L29192 8147
L29136 7978
L29080 7866
L28967 7697
L28911 7641
" />
<path style="fill:#000000; fill-opacity:0.0; 
stroke:#000000; stroke-width:118.11; stroke-opacity:1; 
stroke-linecap:round; stroke-linejoin:round;fill:none"
d="M -255.906,10271.7
0,10015.7
-255.906,9759.84
-511.811,10015.7
Z" /> 
<text x="787.402" y="10606.3"
textLength="37238.5" font-size="1574.8" lengthAdjust="spacingAndGlyphs"
text-anchor="start" opacity="0">1.300mm / 0.0512" (0 holes + 2 slots)</text>
<path d="M1746 10550
L1071 10550
" />
<path d="M1408 10550
L1408 9368
L1296 9537
L1183 9650
L1071 9706
" />
<path d="M2252 10437
L2308 10493
L2252 10550
L2196 10493
L2252 10437
L2252 10550
" />
<path d="M2702 9368
L3433 9368
L3039 9818
L3208 9818
L3321 9875
L3377 9931
L3433 10043
L3433 10325
L3377 10437
L3321 10493
L3208 10550
L2871 10550
L2758 10493
L2702 10437
" />
<path d="M4164 9368
L4277 9368
L4389 9425
L4446 9481
L4502 9593
L4558 9818
L4558 10100
L4502 10325
L4446 10437
L4389 10493
L4277 10550
L4164 10550
L4052 10493
L3996 10437
L3939 10325
L3883 10100
L3883 9818
L3939 9593
L3996 9481
L4052 9425
L4164 9368
" />
<path d="M5289 9368
L5402 9368
L5514 9425
L5570 9481
L5627 9593
L5683 9818
L5683 10100
L5627 10325
L5570 10437
L5514 10493
L5402 10550
L5289 10550
L5177 10493
L5120 10437
L5064 10325
L5008 10100
L5008 9818
L5064 9593
L5120 9481
L5177 9425
L5289 9368
" />
<path d="M6189 10550
L6189 9762
" />
<path d="M6189 9875
L6245 9818
L6358 9762
L6526 9762
L6639 9818
L6695 9931
L6695 10550
" />
<path d="M6695 9931
L6751 9818
L6864 9762
L7033 9762
L7145 9818
L7201 9931
L7201 10550
" />
<path d="M7764 10550
L7764 9762
" />
<path d="M7764 9875
L7820 9818
L7933 9762
L8101 9762
L8214 9818
L8270 9931
L8270 10550
" />
<path d="M8270 9931
L8326 9818
L8439 9762
L8607 9762
L8720 9818
L8776 9931
L8776 10550
" />
<path d="M11082 9312
L10070 10831
" />
<path d="M12601 9368
L12713 9368
L12826 9425
L12882 9481
L12938 9593
L12994 9818
L12994 10100
L12938 10325
L12882 10437
L12826 10493
L12713 10550
L12601 10550
L12488 10493
L12432 10437
L12376 10325
L12320 10100
L12320 9818
L12376 9593
L12432 9481
L12488 9425
L12601 9368
" />
<path d="M13501 10437
L13557 10493
L13501 10550
L13444 10493
L13501 10437
L13501 10550
" />
<path d="M14288 9368
L14401 9368
L14513 9425
L14569 9481
L14625 9593
L14682 9818
L14682 10100
L14625 10325
L14569 10437
L14513 10493
L14401 10550
L14288 10550
L14176 10493
L14119 10437
L14063 10325
L14007 10100
L14007 9818
L14063 9593
L14119 9481
L14176 9425
L14288 9368
" />
<path d="M15750 9368
L15188 9368
L15132 9931
L15188 9875
L15300 9818
L15582 9818
L15694 9875
L15750 9931
L15807 10043
L15807 10325
L15750 10437
L15694 10493
L15582 10550
L15300 10550
L15188 10493
L15132 10437
" />
<path d="M16931 10550
L16257 10550
" />
<path d="M16594 10550
L16594 9368
L16482 9537
L16369 9650
L16257 9706
" />
<path d="M17381 9481
L17438 9425
L17550 9368
L17831 9368
L17944 9425
L18000 9481
L18056 9593
L18056 9706
L18000 9875
L17325 10550
L18056 10550
" />
<path d="M18506 9368
L18506 9593
" />
<path d="M18956 9368
L18956 9593
" />
<path d="M20700 11000
L20643 10943
L20531 10775
L20475 10662
L20419 10493
L20362 10212
L20362 9987
L20419 9706
L20475 9537
L20531 9425
L20643 9256
L20700 9200
" />
<path d="M21375 9368
L21487 9368
L21600 9425
L21656 9481
L21712 9593
L21768 9818
L21768 10100
L21712 10325
L21656 10437
L21600 10493
L21487 10550
L21375 10550
L21262 10493
L21206 10437
L21150 10325
L21093 10100
L21093 9818
L21150 9593
L21206 9481
L21262 9425
L21375 9368
" />
<path d="M23174 10550
L23174 9368
" />
<path d="M23681 10550
L23681 9931
L23624 9818
L23512 9762
L23343 9762
L23231 9818
L23174 9875
" />
<path d="M24412 10550
L24299 10493
L24243 10437
L24187 10325
L24187 9987
L24243 9875
L24299 9818
L24412 9762
L24580 9762
L24693 9818
L24749 9875
L24805 9987
L24805 10325
L24749 10437
L24693 10493
L24580 10550
L24412 10550
" />
<path d="M25480 10550
L25368 10493
L25312 10381
L25312 9368
" />
<path d="M26380 10493
L26268 10550
L26043 10550
L25930 10493
L25874 10381
L25874 9931
L25930 9818
L26043 9762
L26268 9762
L26380 9818
L26437 9931
L26437 10043
L25874 10156
" />
<path d="M26886 10493
L26999 10550
L27224 10550
L27336 10493
L27393 10381
L27393 10325
L27336 10212
L27224 10156
L27055 10156
L26943 10100
L26886 9987
L26886 9931
L26943 9818
L27055 9762
L27224 9762
L27336 9818
" />
<path d="M28799 10100
L29699 10100
" />
<path d="M29249 10550
L29249 9650
" />
<path d="M31105 9481
L31161 9425
L31273 9368
L31555 9368
L31667 9425
L31723 9481
L31780 9593
L31780 9706
L31723 9875
L31048 10550
L31780 10550
" />
<path d="M33129 10493
L33242 10550
L33467 10550
L33579 10493
L33636 10381
L33636 10325
L33579 10212
L33467 10156
L33298 10156
L33186 10100
L33129 9987
L33129 9931
L33186 9818
L33298 9762
L33467 9762
L33579 9818
" />
<path d="M34311 10550
L34198 10493
L34142 10381
L34142 9368
" />
<path d="M34929 10550
L34817 10493
L34760 10437
L34704 10325
L34704 9987
L34760 9875
L34817 9818
L34929 9762
L35098 9762
L35210 9818
L35267 9875
L35323 9987
L35323 10325
L35267 10437
L35210 10493
L35098 10550
L34929 10550
" />
<path d="M35660 9762
L36110 9762
" />
<path d="M35829 9368
L35829 10381
L35885 10493
L35998 10550
L36110 10550
" />
<path d="M36448 10493
L36560 10550
L36785 10550
L36898 10493
L36954 10381
L36954 10325
L36898 10212
L36785 10156
L36616 10156
L36504 10100
L36448 9987
L36448 9931
L36504 9818
L36616 9762
L36785 9762
L36898 9818
" />
<path d="M37348 11000
L37404 10943
L37516 10775
L37573 10662
L37629 10493
L37685 10212
L37685 9987
L37629 9706
L37573 9537
L37516 9425
L37404 9256
L37348 9200
" />
<path d="M-669 11240
L0 11909
" />
<path d="M0 11240
L-669 11909
" />
<circle cx="-334.646" cy="11574.8" r="334.646" /> 
<text x="787.402" y="12165.4"
textLength="27677.2" font-size="1574.8" lengthAdjust="spacingAndGlyphs"
text-anchor="start" opacity="0">1.700mm / 0.0669" (2 holes)</text>
<path d="M1746 12109
L1071 12109
" />
<path d="M1408 12109
L1408 10928
L1296 11096
L1183 11209
L1071 11265
" />
<path d="M2252 11996
L2308 12052
L2252 12109
L2196 12052
L2252 11996
L2252 12109
" />
<path d="M2702 10928
L3489 10928
L2983 12109
" />
<path d="M4164 10928
L4277 10928
L4389 10984
L4446 11040
L4502 11152
L4558 11377
L4558 11659
L4502 11884
L4446 11996
L4389 12052
L4277 12109
L4164 12109
L4052 12052
L3996 11996
L3939 11884
L3883 11659
L3883 11377
L3939 11152
L3996 11040
L4052 10984
L4164 10928
" />
<path d="M5289 10928
L5402 10928
L5514 10984
L5570 11040
L5627 11152
L5683 11377
L5683 11659
L5627 11884
L5570 11996
L5514 12052
L5402 12109
L5289 12109
L5177 12052
L5120 11996
L5064 11884
L5008 11659
L5008 11377
L5064 11152
L5120 11040
L5177 10984
L5289 10928
" />
<path d="M6189 12109
L6189 11321
" />
<path d="M6189 11434
L6245 11377
L6358 11321
L6526 11321
L6639 11377
L6695 11490
L6695 12109
" />
<path d="M6695 11490
L6751 11377
L6864 11321
L7033 11321
L7145 11377
L7201 11490
L7201 12109
" />
<path d="M7764 12109
L7764 11321
" />
<path d="M7764 11434
L7820 11377
L7933 11321
L8101 11321
L8214 11377
L8270 11490
L8270 12109
" />
<path d="M8270 11490
L8326 11377
L8439 11321
L8607 11321
L8720 11377
L8776 11490
L8776 12109
" />
<path d="M11082 10871
L10070 12390
" />
<path d="M12601 10928
L12713 10928
L12826 10984
L12882 11040
L12938 11152
L12994 11377
L12994 11659
L12938 11884
L12882 11996
L12826 12052
L12713 12109
L12601 12109
L12488 12052
L12432 11996
L12376 11884
L12320 11659
L12320 11377
L12376 11152
L12432 11040
L12488 10984
L12601 10928
" />
<path d="M13501 11996
L13557 12052
L13501 12109
L13444 12052
L13501 11996
L13501 12109
" />
<path d="M14288 10928
L14401 10928
L14513 10984
L14569 11040
L14625 11152
L14682 11377
L14682 11659
L14625 11884
L14569 11996
L14513 12052
L14401 12109
L14288 12109
L14176 12052
L14119 11996
L14063 11884
L14007 11659
L14007 11377
L14063 11152
L14119 11040
L14176 10984
L14288 10928
" />
<path d="M15694 10928
L15469 10928
L15357 10984
L15300 11040
L15188 11209
L15132 11434
L15132 11884
L15188 11996
L15244 12052
L15357 12109
L15582 12109
L15694 12052
L15750 11996
L15807 11884
L15807 11602
L15750 11490
L15694 11434
L15582 11377
L15357 11377
L15244 11434
L15188 11490
L15132 11602
" />
<path d="M16819 10928
L16594 10928
L16482 10984
L16425 11040
L16313 11209
L16257 11434
L16257 11884
L16313 11996
L16369 12052
L16482 12109
L16706 12109
L16819 12052
L16875 11996
L16931 11884
L16931 11602
L16875 11490
L16819 11434
L16706 11377
L16482 11377
L16369 11434
L16313 11490
L16257 11602
" />
<path d="M17494 12109
L17719 12109
L17831 12052
L17888 11996
L18000 11827
L18056 11602
L18056 11152
L18000 11040
L17944 10984
L17831 10928
L17606 10928
L17494 10984
L17438 11040
L17381 11152
L17381 11434
L17438 11546
L17494 11602
L17606 11659
L17831 11659
L17944 11602
L18000 11546
L18056 11434
" />
<path d="M18506 10928
L18506 11152
" />
<path d="M18956 10928
L18956 11152
" />
<path d="M20700 12559
L20643 12502
L20531 12334
L20475 12221
L20419 12052
L20362 11771
L20362 11546
L20419 11265
L20475 11096
L20531 10984
L20643 10815
L20700 10759
" />
<path d="M21093 11040
L21150 10984
L21262 10928
L21543 10928
L21656 10984
L21712 11040
L21768 11152
L21768 11265
L21712 11434
L21037 12109
L21768 12109
" />
<path d="M23174 12109
L23174 10928
" />
<path d="M23681 12109
L23681 11490
L23624 11377
L23512 11321
L23343 11321
L23231 11377
L23174 11434
" />
<path d="M24412 12109
L24299 12052
L24243 11996
L24187 11884
L24187 11546
L24243 11434
L24299 11377
L24412 11321
L24580 11321
L24693 11377
L24749 11434
L24805 11546
L24805 11884
L24749 11996
L24693 12052
L24580 12109
L24412 12109
" />
<path d="M25480 12109
L25368 12052
L25312 11940
L25312 10928
" />
<path d="M26380 12052
L26268 12109
L26043 12109
L25930 12052
L25874 11940
L25874 11490
L25930 11377
L26043 11321
L26268 11321
L26380 11377
L26437 11490
L26437 11602
L25874 11715
" />
<path d="M26886 12052
L26999 12109
L27224 12109
L27336 12052
L27393 11940
L27393 11884
L27336 11771
L27224 11715
L27055 11715
L26943 11659
L26886 11546
L26886 11490
L26943 11377
L27055 11321
L27224 11321
L27336 11377
" />
<path d="M27786 12559
L27843 12502
L27955 12334
L28011 12221
L28068 12052
L28124 11771
L28124 11546
L28068 11265
L28011 11096
L27955 10984
L27843 10815
L27786 10759
" />
<path d="M-787 12740
L0 13527
" />
<path d="M0 12740
L-787 13527
" />
<path d="M-393 12740
L-393 13527
" />
<path d="M-787 13133
L0 13133
" />
<text x="787.402" y="13724.4"
textLength="27677.2" font-size="1574.8" lengthAdjust="spacingAndGlyphs"
text-anchor="start" opacity="0">2.000mm / 0.0787" (2 holes)</text>
<path d="M1071 12599
L1127 12543
L1240 12487
L1521 12487
L1633 12543
L1690 12599
L1746 12712
L1746 12824
L1690 12993
L1015 13668
L1746 13668
" />
<path d="M2252 13555
L2308 13611
L2252 13668
L2196 13611
L2252 13555
L2252 13668
" />
<path d="M3039 12487
L3152 12487
L3264 12543
L3321 12599
L3377 12712
L3433 12937
L3433 13218
L3377 13443
L3321 13555
L3264 13611
L3152 13668
L3039 13668
L2927 13611
L2871 13555
L2814 13443
L2758 13218
L2758 12937
L2814 12712
L2871 12599
L2927 12543
L3039 12487
" />
<path d="M4164 12487
L4277 12487
L4389 12543
L4446 12599
L4502 12712
L4558 12937
L4558 13218
L4502 13443
L4446 13555
L4389 13611
L4277 13668
L4164 13668
L4052 13611
L3996 13555
L3939 13443
L3883 13218
L3883 12937
L3939 12712
L3996 12599
L4052 12543
L4164 12487
" />
<path d="M5289 12487
L5402 12487
L5514 12543
L5570 12599
L5627 12712
L5683 12937
L5683 13218
L5627 13443
L5570 13555
L5514 13611
L5402 13668
L5289 13668
L5177 13611
L5120 13555
L5064 13443
L5008 13218
L5008 12937
L5064 12712
L5120 12599
L5177 12543
L5289 12487
" />
<path d="M6189 13668
L6189 12880
" />
<path d="M6189 12993
L6245 12937
L6358 12880
L6526 12880
L6639 12937
L6695 13049
L6695 13668
" />
<path d="M6695 13049
L6751 12937
L6864 12880
L7033 12880
L7145 12937
L7201 13049
L7201 13668
" />
<path d="M7764 13668
L7764 12880
" />
<path d="M7764 12993
L7820 12937
L7933 12880
L8101 12880
L8214 12937
L8270 13049
L8270 13668
" />
<path d="M8270 13049
L8326 12937
L8439 12880
L8607 12880
L8720 12937
L8776 13049
L8776 13668
" />
<path d="M11082 12430
L10070 13949
" />
<path d="M12601 12487
L12713 12487
L12826 12543
L12882 12599
L12938 12712
L12994 12937
L12994 13218
L12938 13443
L12882 13555
L12826 13611
L12713 13668
L12601 13668
L12488 13611
L12432 13555
L12376 13443
L12320 13218
L12320 12937
L12376 12712
L12432 12599
L12488 12543
L12601 12487
" />
<path d="M13501 13555
L13557 13611
L13501 13668
L13444 13611
L13501 13555
L13501 13668
" />
<path d="M14288 12487
L14401 12487
L14513 12543
L14569 12599
L14625 12712
L14682 12937
L14682 13218
L14625 13443
L14569 13555
L14513 13611
L14401 13668
L14288 13668
L14176 13611
L14119 13555
L14063 13443
L14007 13218
L14007 12937
L14063 12712
L14119 12599
L14176 12543
L14288 12487
" />
<path d="M15075 12487
L15863 12487
L15357 13668
" />
<path d="M16482 12993
L16369 12937
L16313 12880
L16257 12768
L16257 12712
L16313 12599
L16369 12543
L16482 12487
L16706 12487
L16819 12543
L16875 12599
L16931 12712
L16931 12768
L16875 12880
L16819 12937
L16706 12993
L16482 12993
L16369 13049
L16313 13105
L16257 13218
L16257 13443
L16313 13555
L16369 13611
L16482 13668
L16706 13668
L16819 13611
L16875 13555
L16931 13443
L16931 13218
L16875 13105
L16819 13049
L16706 12993
" />
<path d="M17325 12487
L18113 12487
L17606 13668
" />
<path d="M18506 12487
L18506 12712
" />
<path d="M18956 12487
L18956 12712
" />
<path d="M20700 14118
L20643 14061
L20531 13893
L20475 13780
L20419 13611
L20362 13330
L20362 13105
L20419 12824
L20475 12655
L20531 12543
L20643 12374
L20700 12318
" />
<path d="M21093 12599
L21150 12543
L21262 12487
L21543 12487
L21656 12543
L21712 12599
L21768 12712
L21768 12824
L21712 12993
L21037 13668
L21768 13668
" />
<path d="M23174 13668
L23174 12487
" />
<path d="M23681 13668
L23681 13049
L23624 12937
L23512 12880
L23343 12880
L23231 12937
L23174 12993
" />
<path d="M24412 13668
L24299 13611
L24243 13555
L24187 13443
L24187 13105
L24243 12993
L24299 12937
L24412 12880
L24580 12880
L24693 12937
L24749 12993
L24805 13105
L24805 13443
L24749 13555
L24693 13611
L24580 13668
L24412 13668
" />
<path d="M25480 13668
L25368 13611
L25312 13499
L25312 12487
" />
<path d="M26380 13611
L26268 13668
L26043 13668
L25930 13611
L25874 13499
L25874 13049
L25930 12937
L26043 12880
L26268 12880
L26380 12937
L26437 13049
L26437 13161
L25874 13274
" />
<path d="M26886 13611
L26999 13668
L27224 13668
L27336 13611
L27393 13499
L27393 13443
L27336 13330
L27224 13274
L27055 13274
L26943 13218
L26886 13105
L26886 13049
L26943 12937
L27055 12880
L27224 12880
L27336 12937
" />
<path d="M27786 14118
L27843 14061
L27955 13893
L28011 13780
L28068 13611
L28124 13330
L28124 13105
L28068 12824
L28011 12655
L27955 12543
L27843 12374
L27786 12318
" />
<path d="M-2677 13354
L0 16031
" />
<path d="M0 13354
L-2677 16031
" />
<path style="fill:#000000; fill-opacity:0.0; 
stroke:#000000; stroke-width:118.11; stroke-opacity:1; 
stroke-linecap:round; stroke-linejoin:round;fill:none"
d="M -392.053,15639.4
-392.053,13746.4
-2285.11,13746.4
-2285.11,15639.4
Z" /> 
<text x="787.402" y="15283.5"
textLength="27677.2" font-size="1574.8" lengthAdjust="spacingAndGlyphs"
text-anchor="start" opacity="0">6.800mm / 0.2677" (4 holes)</text>
<path d="M1633 14046
L1408 14046
L1296 14102
L1240 14158
L1127 14327
L1071 14552
L1071 15002
L1127 15114
L1183 15170
L1296 15227
L1521 15227
L1633 15170
L1690 15114
L1746 15002
L1746 14721
L1690 14608
L1633 14552
L1521 14496
L1296 14496
L1183 14552
L1127 14608
L1071 14721
" />
<path d="M2252 15114
L2308 15170
L2252 15227
L2196 15170
L2252 15114
L2252 15227
" />
<path d="M2983 14552
L2871 14496
L2814 14439
L2758 14327
L2758 14271
L2814 14158
L2871 14102
L2983 14046
L3208 14046
L3321 14102
L3377 14158
L3433 14271
L3433 14327
L3377 14439
L3321 14496
L3208 14552
L2983 14552
L2871 14608
L2814 14664
L2758 14777
L2758 15002
L2814 15114
L2871 15170
L2983 15227
L3208 15227
L3321 15170
L3377 15114
L3433 15002
L3433 14777
L3377 14664
L3321 14608
L3208 14552
" />
<path d="M4164 14046
L4277 14046
L4389 14102
L4446 14158
L4502 14271
L4558 14496
L4558 14777
L4502 15002
L4446 15114
L4389 15170
L4277 15227
L4164 15227
L4052 15170
L3996 15114
L3939 15002
L3883 14777
L3883 14496
L3939 14271
L3996 14158
L4052 14102
L4164 14046
" />
<path d="M5289 14046
L5402 14046
L5514 14102
L5570 14158
L5627 14271
L5683 14496
L5683 14777
L5627 15002
L5570 15114
L5514 15170
L5402 15227
L5289 15227
L5177 15170
L5120 15114
L5064 15002
L5008 14777
L5008 14496
L5064 14271
L5120 14158
L5177 14102
L5289 14046
" />
<path d="M6189 15227
L6189 14439
" />
<path d="M6189 14552
L6245 14496
L6358 14439
L6526 14439
L6639 14496
L6695 14608
L6695 15227
" />
<path d="M6695 14608
L6751 14496
L6864 14439
L7033 14439
L7145 14496
L7201 14608
L7201 15227
" />
<path d="M7764 15227
L7764 14439
" />
<path d="M7764 14552
L7820 14496
L7933 14439
L8101 14439
L8214 14496
L8270 14608
L8270 15227
" />
<path d="M8270 14608
L8326 14496
L8439 14439
L8607 14439
L8720 14496
L8776 14608
L8776 15227
" />
<path d="M11082 13989
L10070 15508
" />
<path d="M12601 14046
L12713 14046
L12826 14102
L12882 14158
L12938 14271
L12994 14496
L12994 14777
L12938 15002
L12882 15114
L12826 15170
L12713 15227
L12601 15227
L12488 15170
L12432 15114
L12376 15002
L12320 14777
L12320 14496
L12376 14271
L12432 14158
L12488 14102
L12601 14046
" />
<path d="M13501 15114
L13557 15170
L13501 15227
L13444 15170
L13501 15114
L13501 15227
" />
<path d="M14007 14158
L14063 14102
L14176 14046
L14457 14046
L14569 14102
L14625 14158
L14682 14271
L14682 14383
L14625 14552
L13951 15227
L14682 15227
" />
<path d="M15694 14046
L15469 14046
L15357 14102
L15300 14158
L15188 14327
L15132 14552
L15132 15002
L15188 15114
L15244 15170
L15357 15227
L15582 15227
L15694 15170
L15750 15114
L15807 15002
L15807 14721
L15750 14608
L15694 14552
L15582 14496
L15357 14496
L15244 14552
L15188 14608
L15132 14721
" />
<path d="M16200 14046
L16988 14046
L16482 15227
" />
<path d="M17325 14046
L18113 14046
L17606 15227
" />
<path d="M18506 14046
L18506 14271
" />
<path d="M18956 14046
L18956 14271
" />
<path d="M20700 15677
L20643 15620
L20531 15452
L20475 15339
L20419 15170
L20362 14889
L20362 14664
L20419 14383
L20475 14214
L20531 14102
L20643 13933
L20700 13877
" />
<path d="M21656 14439
L21656 15227
" />
<path d="M21375 13989
L21093 14833
L21825 14833
" />
<path d="M23174 15227
L23174 14046
" />
<path d="M23681 15227
L23681 14608
L23624 14496
L23512 14439
L23343 14439
L23231 14496
L23174 14552
" />
<path d="M24412 15227
L24299 15170
L24243 15114
L24187 15002
L24187 14664
L24243 14552
L24299 14496
L24412 14439
L24580 14439
L24693 14496
L24749 14552
L24805 14664
L24805 15002
L24749 15114
L24693 15170
L24580 15227
L24412 15227
" />
<path d="M25480 15227
L25368 15170
L25312 15058
L25312 14046
" />
<path d="M26380 15170
L26268 15227
L26043 15227
L25930 15170
L25874 15058
L25874 14608
L25930 14496
L26043 14439
L26268 14439
L26380 14496
L26437 14608
L26437 14721
L25874 14833
" />
<path d="M26886 15170
L26999 15227
L27224 15227
L27336 15170
L27393 15058
L27393 15002
L27336 14889
L27224 14833
L27055 14833
L26943 14777
L26886 14664
L26886 14608
L26943 14496
L27055 14439
L27224 14439
L27336 14496
" />
<path d="M27786 15677
L27843 15620
L27955 15452
L28011 15339
L28068 15170
L28124 14889
L28124 14664
L28068 14383
L28011 14214
L27955 14102
L27843 13933
L27786 13877
" />
</g> 
</svg>
