M48
; DRILL file {KiCad (5.1.10-1-10_14)} date Friday, September 24, 2021 at 10:22:29 AM
; FORMAT={-:-/ absolute / metric / decimal}
; #@! TF.CreationDate,2021-09-24T10:22:29+02:00
; #@! TF.GenerationSoftware,Kicad,Pcbnew,(5.1.10-1-10_14)
; #@! TF.FileFunction,Plated,1,4,PTH
FMAT,2
METRIC
T1C0.200
T2C0.400
T3C1.000
T4C1.200
T5C1.300
T6C1.700
T7C2.000
T8C6.800
%
G90
G05
T1
X100.443Y-80.29
X100.443Y-81.29
X101.443Y-80.29
X101.443Y-81.29
X102.443Y-80.29
X102.443Y-81.29
T2
X82.79Y-93.76
X84.044Y-137.94
X85.06Y-84.6
X85.06Y-85.87
X85.06Y-87.14
X86.203Y-100.856
X86.33Y-84.6
X86.33Y-85.87
X86.33Y-87.14
X88.87Y-92.22
X89.505Y-120.795
X89.505Y-123.97
X89.505Y-144.925
X90.394Y-96.03
X91.41Y-142.385
X92.87Y-90.251
X93.315Y-104.92
X93.315Y-144.925
X93.68Y-127.256
X93.95Y-84.6
X93.95Y-85.87
X93.95Y-87.14
X95.22Y-84.6
X95.22Y-85.87
X95.22Y-87.14
X95.22Y-115.08
X95.22Y-124.605
X95.855Y-134.765
X95.855Y-136.035
X95.855Y-138.575
X95.855Y-139.845
X95.855Y-141.005
X96.49Y-111.27
X97.125Y-144.925
X98.188Y-122.252
X99.665Y-122.7
X100.3Y-139.845
X100.808Y-96.792
X100.935Y-85.489
X100.935Y-136.035
X100.935Y-141.115
X102.84Y-71.9
X102.84Y-121.43
X103.475Y-128.415
X104.11Y-136.035
X104.11Y-142.385
X105.38Y-141.115
X105.38Y-143.02
X106.65Y-66.82
X106.65Y-71.9
X106.65Y-82.695
X106.65Y-84.6
X106.65Y-143.655
X107.666Y-125.24
X107.92Y-130.955
X107.92Y-140.48
X109.19Y-136.135
X109.825Y-106.19
X110.46Y-77.234
X110.46Y-83.33
X110.46Y-125.875
X112.238Y-63.01
X112.365Y-97.3
X112.492Y-120.16
X113.867Y-152.185
X113.889Y-145.814
X114.905Y-135.4
X115.942Y-64.513
X115.942Y-145.792
X116.175Y-136.035
X116.81Y-131.59
X117.381Y-118.953
X117.445Y-84.6
X117.699Y-152.545
X117.889Y-93.172
X120.025Y-73.025
X120.025Y-153.9
X122.525Y-80.155
X124.43Y-102.253
X125.025Y-65.51
X125.065Y-123.716
X125.065Y-139.21
X125.192Y-120.16
X126.335Y-146.83
X126.87Y-151.275
X126.97Y-71.265
X127.584Y-70.016
X127.605Y-152.545
X128.875Y-96.03
X128.875Y-99.205
X128.875Y-101.745
X128.875Y-106.19
X129.192Y-136.352
X130.082Y-118.953
X132.685Y-102.888
X134.188Y-91.861
X135.479Y-99.713
X137.384Y-91.585
X137.638Y-124.097
X137.765Y-72.535
X137.892Y-120.16
X138.4Y-63.645
X138.4Y-69.36
X138.4Y-144.925
X138.4Y-152.545
X139.035Y-91.204
X139.67Y-75.71
X141.956Y-76.218
X141.957Y-72.535
X142.845Y-146.449
X147.29Y-148.735
X148.56Y-76.345
X148.56Y-143.655
X152.1Y-154.815
X152.37Y-98.57
X152.37Y-103.65
X152.37Y-116.35
X152.37Y-121.43
X153.513Y-151.275
X153.64Y-68.725
X154.275Y-98.57
X154.275Y-103.65
X154.275Y-116.35
X154.275Y-121.43
X154.91Y-63.01
X154.91Y-156.99
X156.18Y-83.965
X156.18Y-85.87
X156.18Y-87.775
X156.18Y-89.68
X156.18Y-91.585
X156.18Y-93.49
X156.18Y-98.57
X156.18Y-103.65
X156.18Y-116.35
X156.18Y-121.43
X156.18Y-126.51
X156.18Y-128.415
X156.18Y-130.32
X156.18Y-132.225
X156.18Y-134.13
X156.18Y-136.035
X157.45Y-66.058
X157.45Y-155.085
X158.085Y-70.249
X158.085Y-93.49
X158.085Y-98.57
X158.085Y-103.65
X158.085Y-116.35
X158.085Y-121.43
X158.085Y-126.51
X158.085Y-150.64
X159.99Y-93.49
X159.99Y-98.57
X159.99Y-103.65
X159.99Y-116.35
X159.99Y-121.43
X159.99Y-126.51
X160.625Y-63.01
X160.625Y-156.99
X161.895Y-93.49
X161.895Y-126.51
X161.895Y-151.275
X163.8Y-75.075
X163.8Y-76.98
X163.8Y-93.49
X163.8Y-126.51
X163.8Y-143.02
X163.8Y-144.925
X165.705Y-75.075
X165.705Y-76.98
X165.705Y-93.49
X165.705Y-126.51
X165.705Y-143.02
X165.705Y-144.925
X166.975Y-104.285
X166.975Y-106.19
X166.975Y-108.095
X166.975Y-110.0
X166.975Y-111.905
X166.975Y-113.81
X166.975Y-115.715
X167.61Y-63.01
X167.61Y-156.99
X170.785Y-81.425
X170.785Y-85.235
X170.785Y-129.685
X170.785Y-133.495
X172.69Y-81.425
X172.69Y-85.235
X173.325Y-129.685
X173.325Y-133.495
X174.595Y-81.425
X174.595Y-85.235
X176.5Y-69.36
X176.5Y-71.265
X176.5Y-73.17
X176.5Y-75.075
X176.5Y-76.98
X176.5Y-143.655
X176.5Y-145.56
X176.5Y-147.465
X176.5Y-149.37
X177.135Y-97.3
X177.135Y-99.205
X177.135Y-101.11
X177.135Y-103.015
X177.135Y-104.92
X177.135Y-106.825
X177.135Y-108.73
X177.135Y-110.635
X177.135Y-112.54
X177.135Y-116.35
X177.135Y-118.255
X177.135Y-120.16
X177.135Y-122.065
X179.04Y-112.54
X179.04Y-116.35
X180.945Y-112.54
X180.945Y-116.35
X182.85Y-63.645
X182.85Y-112.54
X182.85Y-116.35
X182.85Y-156.355
X183.525Y-84.56
X183.525Y-134.805
X184.755Y-112.54
X184.755Y-116.35
X186.66Y-112.54
X186.66Y-116.35
X187.93Y-63.645
X191.74Y-112.54
X191.74Y-116.35
X193.645Y-112.54
X193.645Y-116.35
X194.28Y-82.06
X194.28Y-83.965
X194.28Y-85.87
X194.28Y-87.775
X194.28Y-89.68
X194.28Y-91.585
X194.28Y-93.49
X194.28Y-127.145
X194.28Y-129.05
X194.28Y-130.955
X194.28Y-132.86
X194.28Y-134.765
X194.28Y-136.67
X194.28Y-138.575
X194.915Y-71.265
X194.915Y-147.465
X195.55Y-112.54
X195.55Y-116.35
X196.185Y-69.995
X196.185Y-72.535
X196.185Y-93.49
X196.185Y-127.145
X196.185Y-146.195
X196.185Y-148.735
X196.82Y-76.98
X196.82Y-143.655
X197.455Y-71.265
X197.455Y-73.805
X197.455Y-112.54
X197.455Y-116.35
X197.455Y-147.465
X197.455Y-150.005
X198.09Y-93.49
X198.09Y-127.145
X198.725Y-72.535
X198.725Y-148.735
X199.36Y-112.54
X199.36Y-116.35
X201.265Y-97.3
X201.265Y-99.205
X201.265Y-101.11
X201.265Y-103.015
X201.265Y-104.92
X201.265Y-106.825
X201.265Y-108.73
X201.265Y-110.635
X201.265Y-112.54
X201.265Y-116.35
X201.265Y-118.255
X201.265Y-120.16
X201.265Y-122.065
X205.075Y-98.57
X205.075Y-100.475
X205.075Y-102.38
X205.075Y-104.285
X205.075Y-106.19
X205.075Y-108.095
X205.075Y-110.0
X205.075Y-111.905
X205.075Y-113.81
X205.075Y-115.715
X205.075Y-117.62
X205.075Y-119.525
X205.075Y-121.43
X205.71Y-78.885
X205.71Y-141.115
X205.964Y-156.355
X207.615Y-78.885
X207.615Y-141.115
X208.885Y-81.425
X208.885Y-85.235
X208.885Y-129.685
X208.885Y-133.495
X209.52Y-78.885
X209.52Y-141.115
X210.79Y-81.425
X210.79Y-85.235
X210.79Y-129.685
X210.79Y-133.495
X211.425Y-78.885
X211.425Y-141.115
X212.06Y-63.645
X212.06Y-92.855
X212.06Y-94.76
X212.06Y-156.355
X212.695Y-81.425
X212.695Y-85.235
X212.695Y-129.685
X212.695Y-133.495
X213.33Y-78.885
X213.33Y-141.115
X213.965Y-82.695
X213.965Y-92.855
X213.965Y-94.76
X215.235Y-78.885
X215.235Y-141.115
X215.87Y-82.695
X215.87Y-92.855
X215.87Y-94.76
X217.14Y-67.455
X217.14Y-152.545
X219.045Y-67.455
X219.045Y-152.545
X220.95Y-67.455
X220.95Y-152.545
X222.855Y-67.455
X222.855Y-152.545
X224.76Y-67.455
X224.76Y-152.545
T3
X84.044Y-110.0
X84.044Y-112.54
X84.044Y-115.08
X84.044Y-117.62
X84.044Y-120.16
X84.044Y-122.7
X84.044Y-125.24
X84.044Y-127.78
X84.044Y-130.32
X84.044Y-132.86
X84.044Y-135.4
X84.044Y-137.94
X84.044Y-140.48
X84.044Y-143.02
X84.044Y-145.56
X84.044Y-148.1
X85.06Y-71.265
X85.06Y-90.315
X86.584Y-110.0
X86.584Y-112.54
X86.584Y-115.08
X86.584Y-117.62
X86.584Y-120.16
X86.584Y-122.7
X86.584Y-125.24
X86.584Y-127.78
X86.584Y-130.32
X86.584Y-132.86
X86.584Y-135.4
X86.584Y-137.94
X86.584Y-140.48
X86.584Y-143.02
X86.584Y-145.56
X86.584Y-148.1
X87.6Y-104.92
X91.41Y-150.64
X91.41Y-153.18
X91.41Y-155.72
X92.68Y-120.16
X95.22Y-71.265
X95.22Y-150.64
X95.22Y-153.18
X95.22Y-155.72
X96.236Y-91.712
X96.49Y-120.16
X99.03Y-150.64
X99.03Y-153.18
X99.03Y-155.72
X100.3Y-120.16
X101.57Y-64.915
X105.38Y-127.145
X106.65Y-110.0
X106.65Y-112.54
X109.19Y-145.56
X110.46Y-90.95
X110.46Y-110.0
X110.46Y-112.54
X112.365Y-141.75
X114.27Y-110.0
X114.27Y-112.54
X114.905Y-79.52
X116.175Y-141.75
X118.715Y-129.05
X119.35Y-95.395
X119.35Y-110.0
X119.35Y-112.54
X119.985Y-90.315
X123.16Y-110.0
X123.16Y-112.54
X123.16Y-129.05
X125.065Y-90.315
X126.97Y-110.0
X126.97Y-112.54
X127.605Y-129.05
X130.145Y-79.52
X130.78Y-93.49
X131.415Y-104.92
X132.05Y-110.0
X132.05Y-112.54
X132.05Y-129.05
X135.225Y-83.965
X135.225Y-86.505
X135.225Y-89.045
X135.225Y-104.92
X135.86Y-110.0
X135.86Y-112.54
X136.495Y-129.05
X139.035Y-83.965
X139.035Y-86.505
X139.035Y-89.045
X139.035Y-104.92
X139.307Y-93.49
X139.67Y-110.0
X139.67Y-112.54
X140.305Y-130.955
X140.94Y-64.28
X140.94Y-79.52
X140.94Y-139.845
X140.94Y-155.72
X147.29Y-64.28
X147.29Y-155.72
X173.325Y-75.075
X173.325Y-144.925
X177.77Y-81.425
X177.77Y-90.315
X177.77Y-129.685
X177.77Y-138.575
X196.82Y-64.28
X196.82Y-155.72
X212.695Y-110.0
X215.235Y-90.315
X215.235Y-138.575
X220.0Y-74.01
X220.0Y-77.01
X220.0Y-80.01
X220.0Y-83.01
X220.0Y-86.01
X220.0Y-94.0
X220.0Y-97.0
X220.0Y-100.0
X220.0Y-103.0
X220.0Y-106.0
X220.0Y-114.0
X220.0Y-117.0
X220.0Y-120.0
X220.0Y-123.0
X220.0Y-126.0
X220.0Y-134.0
X220.0Y-137.0
X220.0Y-140.0
X220.0Y-143.0
X220.0Y-146.0
X223.0Y-74.01
X223.0Y-77.01
X223.0Y-83.01
X223.0Y-86.01
X223.0Y-94.0
X223.0Y-97.0
X223.0Y-103.0
X223.0Y-106.0
X223.0Y-114.0
X223.0Y-117.0
X223.0Y-123.0
X223.0Y-126.0
X223.0Y-134.0
X223.0Y-137.0
X223.0Y-143.0
X223.0Y-146.0
X226.0Y-74.01
X226.0Y-86.01
X226.0Y-94.0
X226.0Y-106.0
X226.0Y-114.0
X226.0Y-126.0
X226.0Y-134.0
X226.0Y-146.0
X227.935Y-68.09
X227.935Y-151.91
X230.0Y-74.01
X230.0Y-86.01
X230.0Y-94.0
X230.0Y-106.0
X230.0Y-114.0
X230.0Y-126.0
X230.0Y-134.0
X230.0Y-146.0
X233.0Y-74.01
X233.0Y-77.01
X233.0Y-83.01
X233.0Y-86.01
X233.0Y-94.0
X233.0Y-97.0
X233.0Y-103.0
X233.0Y-106.0
X233.0Y-114.0
X233.0Y-117.0
X233.0Y-123.0
X233.0Y-126.0
X233.0Y-134.0
X233.0Y-137.0
X233.0Y-143.0
X233.0Y-146.0
X236.0Y-74.01
X236.0Y-77.01
X236.0Y-80.01
X236.0Y-83.01
X236.0Y-86.01
X236.0Y-94.0
X236.0Y-97.0
X236.0Y-100.0
X236.0Y-103.0
X236.0Y-106.0
X236.0Y-114.0
X236.0Y-117.0
X236.0Y-120.0
X236.0Y-123.0
X236.0Y-126.0
X236.0Y-134.0
X236.0Y-137.0
X236.0Y-140.0
X236.0Y-143.0
X236.0Y-146.0
T4
X146.1Y-85.87
X146.1Y-134.13
X148.56Y-98.65
X148.56Y-103.65
X148.56Y-116.35
X148.56Y-121.35
X151.1Y-85.87
X151.1Y-134.13
X163.8Y-98.57
X163.8Y-103.57
X163.8Y-116.35
X163.8Y-121.35
T6
X189.2Y-95.395
X189.2Y-124.605
T7
X189.2Y-100.0
X189.2Y-120.0
T8
X228.0Y-80.01
X228.0Y-100.0
X228.0Y-120.0
X228.0Y-140.0
T5
G00X189.2Y-109.5
M15
G01X189.2Y-110.5
M16
G05
G00X189.2Y-126.5
M15
G01X189.2Y-127.5
M16
G05
T0
M30
