<?xml version="1.0" standalone="no"?>
 <!DOCTYPE svg PUBLIC "-//W3C//DTD SVG 1.1//EN" 
 "http://www.w3.org/Graphics/SVG/1.1/DTD/svg11.dtd"> 
<svg
  xmlns:svg="http://www.w3.org/2000/svg"
  xmlns="http://www.w3.org/2000/svg"
  xmlns:xlink="http://www.w3.org/1999/xlink"
  version="1.1"
  width="29.700220cm" height="21.000720cm" viewBox="0 0 297002200 210007200">
<title>SVG Picture created as dual_LT6105-B_Cu.svg date 2021/11/26 09:42:21 </title>
  <desc>Picture generated by PCBNEW </desc>
<g style="fill:#000000; fill-opacity:1.000000;stroke:#000000; stroke-opacity:1.000000;
stroke-linecap:round; stroke-linejoin:round;"
 transform="translate(0 0) scale(1 1)">
</g>
<g style="fill:#000000; fill-opacity:0.0; 
stroke:#000000; stroke-width:0.000000; stroke-opacity:1; 
stroke-linecap:round; stroke-linejoin:round;">
</g>
<g style="fill:#000000; fill-opacity:0.0; 
stroke:#000000; stroke-width:21200.000000; stroke-opacity:1; 
stroke-linecap:round; stroke-linejoin:round;">
</g>
<g style="fill:#000000; fill-opacity:0.0; 
stroke:#000000; stroke-width:150000.000000; stroke-opacity:1; 
stroke-linecap:round; stroke-linejoin:round;">
<rect x="177002200.000000" y="166007200.000000" width="108000000.000000" height="32000000.000000" rx="0.000000" />
</g>
<g style="fill:#000000; fill-opacity:0.0; 
stroke:#000000; stroke-width:21200.000000; stroke-opacity:1; 
stroke-linecap:round; stroke-linejoin:round;">
</g>
<g style="fill:#000000; fill-opacity:0.0; 
stroke:#000000; stroke-width:150000.000000; stroke-opacity:1; 
stroke-linecap:round; stroke-linejoin:round;">
<rect x="10000000.000000" y="10000000.000000" width="277002200.000000" height="190007200.000000" rx="0.000000" />
</g>
<g style="fill:#000000; fill-opacity:0.0; 
stroke:#000000; stroke-width:21200.000000; stroke-opacity:1; 
stroke-linecap:round; stroke-linejoin:round;">
</g>
<g style="fill:#000000; fill-opacity:0.0; 
stroke:#000000; stroke-width:150000.000000; stroke-opacity:1; 
stroke-linecap:round; stroke-linejoin:round;">
<rect x="12000000.000000" y="12000000.000000" width="273002200.000000" height="186007200.000000" rx="0.000000" />
</g>
<g style="fill:#000000; fill-opacity:0.0; 
stroke:#000000; stroke-width:21200.000000; stroke-opacity:1; 
stroke-linecap:round; stroke-linejoin:round;">
</g>
<g style="fill:#000000; fill-opacity:0.0; 
stroke:#000000; stroke-width:150000.000000; stroke-opacity:1; 
stroke-linecap:round; stroke-linejoin:round;">
<path d="M60000000 12000000
L60000000 10000000
" />
</g>
<g style="fill:#000000; fill-opacity:0.0; 
stroke:#000000; stroke-width:21200.000000; stroke-opacity:1; 
stroke-linecap:round; stroke-linejoin:round;">
</g>
<g style="fill:#000000; fill-opacity:0.0; 
stroke:#000000; stroke-width:150000.000000; stroke-opacity:1; 
stroke-linecap:round; stroke-linejoin:round;">
<path d="M110000000 12000000
L110000000 10000000
" />
</g>
<g style="fill:#000000; fill-opacity:0.0; 
stroke:#000000; stroke-width:21200.000000; stroke-opacity:1; 
stroke-linecap:round; stroke-linejoin:round;">
</g>
<g style="fill:#000000; fill-opacity:0.0; 
stroke:#000000; stroke-width:150000.000000; stroke-opacity:1; 
stroke-linecap:round; stroke-linejoin:round;">
<path d="M160000000 12000000
L160000000 10000000
" />
</g>
<g style="fill:#000000; fill-opacity:0.0; 
stroke:#000000; stroke-width:21200.000000; stroke-opacity:1; 
stroke-linecap:round; stroke-linejoin:round;">
</g>
<g style="fill:#000000; fill-opacity:0.0; 
stroke:#000000; stroke-width:150000.000000; stroke-opacity:1; 
stroke-linecap:round; stroke-linejoin:round;">
<path d="M210000000 12000000
L210000000 10000000
" />
</g>
<g style="fill:#000000; fill-opacity:0.0; 
stroke:#000000; stroke-width:21200.000000; stroke-opacity:1; 
stroke-linecap:round; stroke-linejoin:round;">
</g>
<g style="fill:#000000; fill-opacity:0.0; 
stroke:#000000; stroke-width:150000.000000; stroke-opacity:1; 
stroke-linecap:round; stroke-linejoin:round;">
<path d="M260000000 12000000
L260000000 10000000
" />
</g>
<g style="fill:#000000; fill-opacity:0.0; 
stroke:#000000; stroke-width:21200.000000; stroke-opacity:1; 
stroke-linecap:round; stroke-linejoin:round;">
</g>
<g style="fill:#000000; fill-opacity:0.0; 
stroke:#000000; stroke-width:150000.000000; stroke-opacity:1; 
stroke-linecap:round; stroke-linejoin:round;">
<text x="35000000.000000" y="11650000.000000"
textLength="1388095.000000" font-size="1733333.000000" lengthAdjust="spacingAndGlyphs"
text-anchor="start" opacity="0">1</text>
<g class="stroked-text"><desc>1</desc>
<path d="M36065476 11588095
L35322619 11588095
" />
<path d="M35694047 11588095
L35694047 10288095
L35570238 10473809
L35446428 10597619
L35322619 10659523
" />
</g></g>
<g style="fill:#000000; fill-opacity:0.0; 
stroke:#000000; stroke-width:21200.000000; stroke-opacity:1; 
stroke-linecap:round; stroke-linejoin:round;">
</g>
<g style="fill:#000000; fill-opacity:0.0; 
stroke:#000000; stroke-width:150000.000000; stroke-opacity:1; 
stroke-linecap:round; stroke-linejoin:round;">
<text x="85000000.000000" y="11650000.000000"
textLength="1388095.000000" font-size="1733333.000000" lengthAdjust="spacingAndGlyphs"
text-anchor="start" opacity="0">2</text>
<g class="stroked-text"><desc>2</desc>
<path d="M85322619 10411904
L85384523 10350000
L85508333 10288095
L85817857 10288095
L85941666 10350000
L86003571 10411904
L86065476 10535714
L86065476 10659523
L86003571 10845238
L85260714 11588095
L86065476 11588095
" />
</g></g>
<g style="fill:#000000; fill-opacity:0.0; 
stroke:#000000; stroke-width:21200.000000; stroke-opacity:1; 
stroke-linecap:round; stroke-linejoin:round;">
</g>
<g style="fill:#000000; fill-opacity:0.0; 
stroke:#000000; stroke-width:150000.000000; stroke-opacity:1; 
stroke-linecap:round; stroke-linejoin:round;">
<text x="135000000.000000" y="11650000.000000"
textLength="1388095.000000" font-size="1733333.000000" lengthAdjust="spacingAndGlyphs"
text-anchor="start" opacity="0">3</text>
<g class="stroked-text"><desc>3</desc>
<path d="M135260714 10288095
L136065476 10288095
L135632142 10783333
L135817857 10783333
L135941666 10845238
L136003571 10907142
L136065476 11030952
L136065476 11340476
L136003571 11464285
L135941666 11526190
L135817857 11588095
L135446428 11588095
L135322619 11526190
L135260714 11464285
" />
</g></g>
<g style="fill:#000000; fill-opacity:0.0; 
stroke:#000000; stroke-width:21200.000000; stroke-opacity:1; 
stroke-linecap:round; stroke-linejoin:round;">
</g>
<g style="fill:#000000; fill-opacity:0.0; 
stroke:#000000; stroke-width:150000.000000; stroke-opacity:1; 
stroke-linecap:round; stroke-linejoin:round;">
<text x="185000000.000000" y="11650000.000000"
textLength="1388095.000000" font-size="1733333.000000" lengthAdjust="spacingAndGlyphs"
text-anchor="start" opacity="0">4</text>
<g class="stroked-text"><desc>4</desc>
<path d="M185941666 10721428
L185941666 11588095
" />
<path d="M185632142 10226190
L185322619 11154761
L186127380 11154761
" />
</g></g>
<g style="fill:#000000; fill-opacity:0.0; 
stroke:#000000; stroke-width:21200.000000; stroke-opacity:1; 
stroke-linecap:round; stroke-linejoin:round;">
</g>
<g style="fill:#000000; fill-opacity:0.0; 
stroke:#000000; stroke-width:150000.000000; stroke-opacity:1; 
stroke-linecap:round; stroke-linejoin:round;">
<text x="235000000.000000" y="11650000.000000"
textLength="1388095.000000" font-size="1733333.000000" lengthAdjust="spacingAndGlyphs"
text-anchor="start" opacity="0">5</text>
<g class="stroked-text"><desc>5</desc>
<path d="M236003571 10288095
L235384523 10288095
L235322619 10907142
L235384523 10845238
L235508333 10783333
L235817857 10783333
L235941666 10845238
L236003571 10907142
L236065476 11030952
L236065476 11340476
L236003571 11464285
L235941666 11526190
L235817857 11588095
L235508333 11588095
L235384523 11526190
L235322619 11464285
" />
</g></g>
<g style="fill:#000000; fill-opacity:0.0; 
stroke:#000000; stroke-width:21200.000000; stroke-opacity:1; 
stroke-linecap:round; stroke-linejoin:round;">
</g>
<g style="fill:#000000; fill-opacity:0.0; 
stroke:#000000; stroke-width:150000.000000; stroke-opacity:1; 
stroke-linecap:round; stroke-linejoin:round;">
<text x="285000000.000000" y="11650000.000000"
textLength="1388095.000000" font-size="1733333.000000" lengthAdjust="spacingAndGlyphs"
text-anchor="start" opacity="0">6</text>
<g class="stroked-text"><desc>6</desc>
<path d="M285941666 10288095
L285694047 10288095
L285570238 10350000
L285508333 10411904
L285384523 10597619
L285322619 10845238
L285322619 11340476
L285384523 11464285
L285446428 11526190
L285570238 11588095
L285817857 11588095
L285941666 11526190
L286003571 11464285
L286065476 11340476
L286065476 11030952
L286003571 10907142
L285941666 10845238
L285817857 10783333
L285570238 10783333
L285446428 10845238
L285384523 10907142
L285322619 11030952
" />
</g></g>
<g style="fill:#000000; fill-opacity:0.0; 
stroke:#000000; stroke-width:21200.000000; stroke-opacity:1; 
stroke-linecap:round; stroke-linejoin:round;">
</g>
<g style="fill:#000000; fill-opacity:0.0; 
stroke:#000000; stroke-width:150000.000000; stroke-opacity:1; 
stroke-linecap:round; stroke-linejoin:round;">
<path d="M60000000 198007200
L60000000 200007200
" />
</g>
<g style="fill:#000000; fill-opacity:0.0; 
stroke:#000000; stroke-width:21200.000000; stroke-opacity:1; 
stroke-linecap:round; stroke-linejoin:round;">
</g>
<g style="fill:#000000; fill-opacity:0.0; 
stroke:#000000; stroke-width:150000.000000; stroke-opacity:1; 
stroke-linecap:round; stroke-linejoin:round;">
<path d="M110000000 198007200
L110000000 200007200
" />
</g>
<g style="fill:#000000; fill-opacity:0.0; 
stroke:#000000; stroke-width:21200.000000; stroke-opacity:1; 
stroke-linecap:round; stroke-linejoin:round;">
</g>
<g style="fill:#000000; fill-opacity:0.0; 
stroke:#000000; stroke-width:150000.000000; stroke-opacity:1; 
stroke-linecap:round; stroke-linejoin:round;">
<path d="M160000000 198007200
L160000000 200007200
" />
</g>
<g style="fill:#000000; fill-opacity:0.0; 
stroke:#000000; stroke-width:21200.000000; stroke-opacity:1; 
stroke-linecap:round; stroke-linejoin:round;">
</g>
<g style="fill:#000000; fill-opacity:0.0; 
stroke:#000000; stroke-width:150000.000000; stroke-opacity:1; 
stroke-linecap:round; stroke-linejoin:round;">
<path d="M210000000 198007200
L210000000 200007200
" />
</g>
<g style="fill:#000000; fill-opacity:0.0; 
stroke:#000000; stroke-width:21200.000000; stroke-opacity:1; 
stroke-linecap:round; stroke-linejoin:round;">
</g>
<g style="fill:#000000; fill-opacity:0.0; 
stroke:#000000; stroke-width:150000.000000; stroke-opacity:1; 
stroke-linecap:round; stroke-linejoin:round;">
<path d="M260000000 198007200
L260000000 200007200
" />
</g>
<g style="fill:#000000; fill-opacity:0.0; 
stroke:#000000; stroke-width:21200.000000; stroke-opacity:1; 
stroke-linecap:round; stroke-linejoin:round;">
</g>
<g style="fill:#000000; fill-opacity:0.0; 
stroke:#000000; stroke-width:150000.000000; stroke-opacity:1; 
stroke-linecap:round; stroke-linejoin:round;">
<text x="35000000.000000" y="199657200.000000"
textLength="1388095.000000" font-size="1733333.000000" lengthAdjust="spacingAndGlyphs"
text-anchor="start" opacity="0">1</text>
<g class="stroked-text"><desc>1</desc>
<path d="M36065476 199595295
L35322619 199595295
" />
<path d="M35694047 199595295
L35694047 198295295
L35570238 198481009
L35446428 198604819
L35322619 198666723
" />
</g></g>
<g style="fill:#000000; fill-opacity:0.0; 
stroke:#000000; stroke-width:21200.000000; stroke-opacity:1; 
stroke-linecap:round; stroke-linejoin:round;">
</g>
<g style="fill:#000000; fill-opacity:0.0; 
stroke:#000000; stroke-width:150000.000000; stroke-opacity:1; 
stroke-linecap:round; stroke-linejoin:round;">
<text x="85000000.000000" y="199657200.000000"
textLength="1388095.000000" font-size="1733333.000000" lengthAdjust="spacingAndGlyphs"
text-anchor="start" opacity="0">2</text>
<g class="stroked-text"><desc>2</desc>
<path d="M85322619 198419104
L85384523 198357200
L85508333 198295295
L85817857 198295295
L85941666 198357200
L86003571 198419104
L86065476 198542914
L86065476 198666723
L86003571 198852438
L85260714 199595295
L86065476 199595295
" />
</g></g>
<g style="fill:#000000; fill-opacity:0.0; 
stroke:#000000; stroke-width:21200.000000; stroke-opacity:1; 
stroke-linecap:round; stroke-linejoin:round;">
</g>
<g style="fill:#000000; fill-opacity:0.0; 
stroke:#000000; stroke-width:150000.000000; stroke-opacity:1; 
stroke-linecap:round; stroke-linejoin:round;">
<text x="135000000.000000" y="199657200.000000"
textLength="1388095.000000" font-size="1733333.000000" lengthAdjust="spacingAndGlyphs"
text-anchor="start" opacity="0">3</text>
<g class="stroked-text"><desc>3</desc>
<path d="M135260714 198295295
L136065476 198295295
L135632142 198790533
L135817857 198790533
L135941666 198852438
L136003571 198914342
L136065476 199038152
L136065476 199347676
L136003571 199471485
L135941666 199533390
L135817857 199595295
L135446428 199595295
L135322619 199533390
L135260714 199471485
" />
</g></g>
<g style="fill:#000000; fill-opacity:0.0; 
stroke:#000000; stroke-width:21200.000000; stroke-opacity:1; 
stroke-linecap:round; stroke-linejoin:round;">
</g>
<g style="fill:#000000; fill-opacity:0.0; 
stroke:#000000; stroke-width:150000.000000; stroke-opacity:1; 
stroke-linecap:round; stroke-linejoin:round;">
<text x="185000000.000000" y="199657200.000000"
textLength="1388095.000000" font-size="1733333.000000" lengthAdjust="spacingAndGlyphs"
text-anchor="start" opacity="0">4</text>
<g class="stroked-text"><desc>4</desc>
<path d="M185941666 198728628
L185941666 199595295
" />
<path d="M185632142 198233390
L185322619 199161961
L186127380 199161961
" />
</g></g>
<g style="fill:#000000; fill-opacity:0.0; 
stroke:#000000; stroke-width:21200.000000; stroke-opacity:1; 
stroke-linecap:round; stroke-linejoin:round;">
</g>
<g style="fill:#000000; fill-opacity:0.0; 
stroke:#000000; stroke-width:150000.000000; stroke-opacity:1; 
stroke-linecap:round; stroke-linejoin:round;">
<text x="235000000.000000" y="199657200.000000"
textLength="1388095.000000" font-size="1733333.000000" lengthAdjust="spacingAndGlyphs"
text-anchor="start" opacity="0">5</text>
<g class="stroked-text"><desc>5</desc>
<path d="M236003571 198295295
L235384523 198295295
L235322619 198914342
L235384523 198852438
L235508333 198790533
L235817857 198790533
L235941666 198852438
L236003571 198914342
L236065476 199038152
L236065476 199347676
L236003571 199471485
L235941666 199533390
L235817857 199595295
L235508333 199595295
L235384523 199533390
L235322619 199471485
" />
</g></g>
<g style="fill:#000000; fill-opacity:0.0; 
stroke:#000000; stroke-width:21200.000000; stroke-opacity:1; 
stroke-linecap:round; stroke-linejoin:round;">
</g>
<g style="fill:#000000; fill-opacity:0.0; 
stroke:#000000; stroke-width:150000.000000; stroke-opacity:1; 
stroke-linecap:round; stroke-linejoin:round;">
<text x="285000000.000000" y="199657200.000000"
textLength="1388095.000000" font-size="1733333.000000" lengthAdjust="spacingAndGlyphs"
text-anchor="start" opacity="0">6</text>
<g class="stroked-text"><desc>6</desc>
<path d="M285941666 198295295
L285694047 198295295
L285570238 198357200
L285508333 198419104
L285384523 198604819
L285322619 198852438
L285322619 199347676
L285384523 199471485
L285446428 199533390
L285570238 199595295
L285817857 199595295
L285941666 199533390
L286003571 199471485
L286065476 199347676
L286065476 199038152
L286003571 198914342
L285941666 198852438
L285817857 198790533
L285570238 198790533
L285446428 198852438
L285384523 198914342
L285322619 199038152
" />
</g></g>
<g style="fill:#000000; fill-opacity:0.0; 
stroke:#000000; stroke-width:21200.000000; stroke-opacity:1; 
stroke-linecap:round; stroke-linejoin:round;">
</g>
<g style="fill:#000000; fill-opacity:0.0; 
stroke:#000000; stroke-width:150000.000000; stroke-opacity:1; 
stroke-linecap:round; stroke-linejoin:round;">
<path d="M10000000 60000000
L12000000 60000000
" />
</g>
<g style="fill:#000000; fill-opacity:0.0; 
stroke:#000000; stroke-width:21200.000000; stroke-opacity:1; 
stroke-linecap:round; stroke-linejoin:round;">
</g>
<g style="fill:#000000; fill-opacity:0.0; 
stroke:#000000; stroke-width:150000.000000; stroke-opacity:1; 
stroke-linecap:round; stroke-linejoin:round;">
<path d="M10000000 110000000
L12000000 110000000
" />
</g>
<g style="fill:#000000; fill-opacity:0.0; 
stroke:#000000; stroke-width:21200.000000; stroke-opacity:1; 
stroke-linecap:round; stroke-linejoin:round;">
</g>
<g style="fill:#000000; fill-opacity:0.0; 
stroke:#000000; stroke-width:150000.000000; stroke-opacity:1; 
stroke-linecap:round; stroke-linejoin:round;">
<path d="M10000000 160000000
L12000000 160000000
" />
</g>
<g style="fill:#000000; fill-opacity:0.0; 
stroke:#000000; stroke-width:21200.000000; stroke-opacity:1; 
stroke-linecap:round; stroke-linejoin:round;">
</g>
<g style="fill:#000000; fill-opacity:0.0; 
stroke:#000000; stroke-width:150000.000000; stroke-opacity:1; 
stroke-linecap:round; stroke-linejoin:round;">
<text x="11000000.000000" y="35650000.000000"
textLength="1264286.000000" font-size="1733333.000000" lengthAdjust="spacingAndGlyphs"
text-anchor="middle" opacity="0">A</text>
<g class="stroked-text"><desc>A</desc>
<path d="M10690476 35216666
L11309523 35216666
" />
<path d="M10566666 35588095
L11000000 34288095
L11433333 35588095
" />
</g></g>
<g style="fill:#000000; fill-opacity:0.0; 
stroke:#000000; stroke-width:21200.000000; stroke-opacity:1; 
stroke-linecap:round; stroke-linejoin:round;">
</g>
<g style="fill:#000000; fill-opacity:0.0; 
stroke:#000000; stroke-width:150000.000000; stroke-opacity:1; 
stroke-linecap:round; stroke-linejoin:round;">
<text x="11000000.000000" y="85650000.000000"
textLength="1450000.000000" font-size="1733333.000000" lengthAdjust="spacingAndGlyphs"
text-anchor="middle" opacity="0">B</text>
<g class="stroked-text"><desc>B</desc>
<path d="M11092857 84907142
L11278571 84969047
L11340476 85030952
L11402380 85154761
L11402380 85340476
L11340476 85464285
L11278571 85526190
L11154761 85588095
L10659523 85588095
L10659523 84288095
L11092857 84288095
L11216666 84350000
L11278571 84411904
L11340476 84535714
L11340476 84659523
L11278571 84783333
L11216666 84845238
L11092857 84907142
L10659523 84907142
" />
</g></g>
<g style="fill:#000000; fill-opacity:0.0; 
stroke:#000000; stroke-width:21200.000000; stroke-opacity:1; 
stroke-linecap:round; stroke-linejoin:round;">
</g>
<g style="fill:#000000; fill-opacity:0.0; 
stroke:#000000; stroke-width:150000.000000; stroke-opacity:1; 
stroke-linecap:round; stroke-linejoin:round;">
<text x="11000000.000000" y="135650000.000000"
textLength="1450000.000000" font-size="1733333.000000" lengthAdjust="spacingAndGlyphs"
text-anchor="middle" opacity="0">C</text>
<g class="stroked-text"><desc>C</desc>
<path d="M11402380 135464285
L11340476 135526190
L11154761 135588095
L11030952 135588095
L10845238 135526190
L10721428 135402380
L10659523 135278571
L10597619 135030952
L10597619 134845238
L10659523 134597619
L10721428 134473809
L10845238 134350000
L11030952 134288095
L11154761 134288095
L11340476 134350000
L11402380 134411904
" />
</g></g>
<g style="fill:#000000; fill-opacity:0.0; 
stroke:#000000; stroke-width:21200.000000; stroke-opacity:1; 
stroke-linecap:round; stroke-linejoin:round;">
</g>
<g style="fill:#000000; fill-opacity:0.0; 
stroke:#000000; stroke-width:150000.000000; stroke-opacity:1; 
stroke-linecap:round; stroke-linejoin:round;">
<text x="11000000.000000" y="185650000.000000"
textLength="1450000.000000" font-size="1733333.000000" lengthAdjust="spacingAndGlyphs"
text-anchor="middle" opacity="0">D</text>
<g class="stroked-text"><desc>D</desc>
<path d="M10659523 185588095
L10659523 184288095
L10969047 184288095
L11154761 184350000
L11278571 184473809
L11340476 184597619
L11402380 184845238
L11402380 185030952
L11340476 185278571
L11278571 185402380
L11154761 185526190
L10969047 185588095
L10659523 185588095
" />
</g></g>
<g style="fill:#000000; fill-opacity:0.0; 
stroke:#000000; stroke-width:21200.000000; stroke-opacity:1; 
stroke-linecap:round; stroke-linejoin:round;">
</g>
<g style="fill:#000000; fill-opacity:0.0; 
stroke:#000000; stroke-width:150000.000000; stroke-opacity:1; 
stroke-linecap:round; stroke-linejoin:round;">
<path d="M287002200 60000000
L285002200 60000000
" />
</g>
<g style="fill:#000000; fill-opacity:0.0; 
stroke:#000000; stroke-width:21200.000000; stroke-opacity:1; 
stroke-linecap:round; stroke-linejoin:round;">
</g>
<g style="fill:#000000; fill-opacity:0.0; 
stroke:#000000; stroke-width:150000.000000; stroke-opacity:1; 
stroke-linecap:round; stroke-linejoin:round;">
<path d="M287002200 110000000
L285002200 110000000
" />
</g>
<g style="fill:#000000; fill-opacity:0.0; 
stroke:#000000; stroke-width:21200.000000; stroke-opacity:1; 
stroke-linecap:round; stroke-linejoin:round;">
</g>
<g style="fill:#000000; fill-opacity:0.0; 
stroke:#000000; stroke-width:150000.000000; stroke-opacity:1; 
stroke-linecap:round; stroke-linejoin:round;">
<path d="M287002200 160000000
L285002200 160000000
" />
</g>
<g style="fill:#000000; fill-opacity:0.0; 
stroke:#000000; stroke-width:21200.000000; stroke-opacity:1; 
stroke-linecap:round; stroke-linejoin:round;">
</g>
<g style="fill:#000000; fill-opacity:0.0; 
stroke:#000000; stroke-width:150000.000000; stroke-opacity:1; 
stroke-linecap:round; stroke-linejoin:round;">
<text x="286002200.000000" y="35650000.000000"
textLength="1264286.000000" font-size="1733333.000000" lengthAdjust="spacingAndGlyphs"
text-anchor="middle" opacity="0">A</text>
<g class="stroked-text"><desc>A</desc>
<path d="M285692676 35216666
L286311723 35216666
" />
<path d="M285568866 35588095
L286002200 34288095
L286435533 35588095
" />
</g></g>
<g style="fill:#000000; fill-opacity:0.0; 
stroke:#000000; stroke-width:21200.000000; stroke-opacity:1; 
stroke-linecap:round; stroke-linejoin:round;">
</g>
<g style="fill:#000000; fill-opacity:0.0; 
stroke:#000000; stroke-width:150000.000000; stroke-opacity:1; 
stroke-linecap:round; stroke-linejoin:round;">
<text x="286002200.000000" y="85650000.000000"
textLength="1450000.000000" font-size="1733333.000000" lengthAdjust="spacingAndGlyphs"
text-anchor="middle" opacity="0">B</text>
<g class="stroked-text"><desc>B</desc>
<path d="M286095057 84907142
L286280771 84969047
L286342676 85030952
L286404580 85154761
L286404580 85340476
L286342676 85464285
L286280771 85526190
L286156961 85588095
L285661723 85588095
L285661723 84288095
L286095057 84288095
L286218866 84350000
L286280771 84411904
L286342676 84535714
L286342676 84659523
L286280771 84783333
L286218866 84845238
L286095057 84907142
L285661723 84907142
" />
</g></g>
<g style="fill:#000000; fill-opacity:0.0; 
stroke:#000000; stroke-width:21200.000000; stroke-opacity:1; 
stroke-linecap:round; stroke-linejoin:round;">
</g>
<g style="fill:#000000; fill-opacity:0.0; 
stroke:#000000; stroke-width:150000.000000; stroke-opacity:1; 
stroke-linecap:round; stroke-linejoin:round;">
<text x="286002200.000000" y="135650000.000000"
textLength="1450000.000000" font-size="1733333.000000" lengthAdjust="spacingAndGlyphs"
text-anchor="middle" opacity="0">C</text>
<g class="stroked-text"><desc>C</desc>
<path d="M286404580 135464285
L286342676 135526190
L286156961 135588095
L286033152 135588095
L285847438 135526190
L285723628 135402380
L285661723 135278571
L285599819 135030952
L285599819 134845238
L285661723 134597619
L285723628 134473809
L285847438 134350000
L286033152 134288095
L286156961 134288095
L286342676 134350000
L286404580 134411904
" />
</g></g>
<g style="fill:#000000; fill-opacity:0.0; 
stroke:#000000; stroke-width:21200.000000; stroke-opacity:1; 
stroke-linecap:round; stroke-linejoin:round;">
</g>
<g style="fill:#000000; fill-opacity:0.0; 
stroke:#000000; stroke-width:150000.000000; stroke-opacity:1; 
stroke-linecap:round; stroke-linejoin:round;">
<text x="286002200.000000" y="185650000.000000"
textLength="1450000.000000" font-size="1733333.000000" lengthAdjust="spacingAndGlyphs"
text-anchor="middle" opacity="0">D</text>
<g class="stroked-text"><desc>D</desc>
<path d="M285661723 185588095
L285661723 184288095
L285971247 184288095
L286156961 184350000
L286280771 184473809
L286342676 184597619
L286404580 184845238
L286404580 185030952
L286342676 185278571
L286280771 185402380
L286156961 185526190
L285971247 185588095
L285661723 185588095
" />
</g></g>
<g style="fill:#000000; fill-opacity:0.0; 
stroke:#000000; stroke-width:21200.000000; stroke-opacity:1; 
stroke-linecap:round; stroke-linejoin:round;">
</g>
<g style="fill:#000000; fill-opacity:0.0; 
stroke:#000000; stroke-width:150000.000000; stroke-opacity:1; 
stroke-linecap:round; stroke-linejoin:round;">
<text x="200002200.000000" y="193857200.000000"
textLength="7007143.000000" font-size="2000000.000000" lengthAdjust="spacingAndGlyphs"
text-anchor="start" opacity="0">Date: </text>
<g class="stroked-text"><desc>Date: </desc>
<path d="M200434342 193785771
L200434342 192285771
L200791485 192285771
L201005771 192357200
L201148628 192500057
L201220057 192642914
L201291485 192928628
L201291485 193142914
L201220057 193428628
L201148628 193571485
L201005771 193714342
L200791485 193785771
L200434342 193785771
" />
<path d="M202577200 193785771
L202577200 193000057
L202505771 192857200
L202362914 192785771
L202077200 192785771
L201934342 192857200
" />
<path d="M202577200 193714342
L202434342 193785771
L202077200 193785771
L201934342 193714342
L201862914 193571485
L201862914 193428628
L201934342 193285771
L202077200 193214342
L202434342 193214342
L202577200 193142914
" />
<path d="M203077200 192785771
L203648628 192785771
" />
<path d="M203291485 192285771
L203291485 193571485
L203362914 193714342
L203505771 193785771
L203648628 193785771
" />
<path d="M204720057 193714342
L204577200 193785771
L204291485 193785771
L204148628 193714342
L204077200 193571485
L204077200 193000057
L204148628 192857200
L204291485 192785771
L204577200 192785771
L204720057 192857200
L204791485 193000057
L204791485 193142914
L204077200 193285771
" />
<path d="M205434342 193642914
L205505771 193714342
L205434342 193785771
L205362914 193714342
L205434342 193642914
L205434342 193785771
" />
<path d="M205434342 192857200
L205505771 192928628
L205434342 193000057
L205362914 192928628
L205434342 192857200
L205434342 193000057
" />
</g></g>
<g style="fill:#000000; fill-opacity:0.0; 
stroke:#000000; stroke-width:21200.000000; stroke-opacity:1; 
stroke-linecap:round; stroke-linejoin:round;">
</g>
<g style="fill:#000000; fill-opacity:0.0; 
stroke:#000000; stroke-width:150000.000000; stroke-opacity:1; 
stroke-linecap:round; stroke-linejoin:round;">
<path d="M177002200 194507200
L285002200 194507200
" />
</g>
<g style="fill:#000000; fill-opacity:0.0; 
stroke:#000000; stroke-width:21200.000000; stroke-opacity:1; 
stroke-linecap:round; stroke-linejoin:round;">
</g>
<g style="fill:#000000; fill-opacity:0.0; 
stroke:#000000; stroke-width:150000.000000; stroke-opacity:1; 
stroke-linecap:round; stroke-linejoin:round;">
<text x="178002200.000000" y="196657200.000000"
textLength="57792857.000000" font-size="2000000.000000" lengthAdjust="spacingAndGlyphs"
text-anchor="start" opacity="0">KiCad E.D.A.  kicad (5.99.0-13090-gcf6b18ec7e)</text>
<g class="stroked-text"><desc>KiCad E.D.A.  kicad (5.99.0-13090-gcf6b18ec7e)</desc>
<path d="M178434342 196585771
L178434342 195085771
" />
<path d="M179291485 196585771
L178648628 195728628
" />
<path d="M179291485 195085771
L178434342 195942914
" />
<path d="M179934342 196585771
L179934342 195585771
" />
<path d="M179934342 195085771
L179862914 195157200
L179934342 195228628
L180005771 195157200
L179934342 195085771
L179934342 195228628
" />
<path d="M181505771 196442914
L181434342 196514342
L181220057 196585771
L181077200 196585771
L180862914 196514342
L180720057 196371485
L180648628 196228628
L180577200 195942914
L180577200 195728628
L180648628 195442914
L180720057 195300057
L180862914 195157200
L181077200 195085771
L181220057 195085771
L181434342 195157200
L181505771 195228628
" />
<path d="M182791485 196585771
L182791485 195800057
L182720057 195657200
L182577200 195585771
L182291485 195585771
L182148628 195657200
" />
<path d="M182791485 196514342
L182648628 196585771
L182291485 196585771
L182148628 196514342
L182077200 196371485
L182077200 196228628
L182148628 196085771
L182291485 196014342
L182648628 196014342
L182791485 195942914
" />
<path d="M184148628 196585771
L184148628 195085771
" />
<path d="M184148628 196514342
L184005771 196585771
L183720057 196585771
L183577200 196514342
L183505771 196442914
L183434342 196300057
L183434342 195871485
L183505771 195728628
L183577200 195657200
L183720057 195585771
L184005771 195585771
L184148628 195657200
" />
<path d="M186005771 195800057
L186505771 195800057
" />
<path d="M186720057 196585771
L186005771 196585771
L186005771 195085771
L186720057 195085771
" />
<path d="M187362914 196442914
L187434342 196514342
L187362914 196585771
L187291485 196514342
L187362914 196442914
L187362914 196585771
" />
<path d="M188077200 196585771
L188077200 195085771
L188434342 195085771
L188648628 195157200
L188791485 195300057
L188862914 195442914
L188934342 195728628
L188934342 195942914
L188862914 196228628
L188791485 196371485
L188648628 196514342
L188434342 196585771
L188077200 196585771
" />
<path d="M189577200 196442914
L189648628 196514342
L189577200 196585771
L189505771 196514342
L189577200 196442914
L189577200 196585771
" />
<path d="M190220057 196157200
L190934342 196157200
" />
<path d="M190077200 196585771
L190577200 195085771
L191077200 196585771
" />
<path d="M191577200 196442914
L191648628 196514342
L191577200 196585771
L191505771 196514342
L191577200 196442914
L191577200 196585771
" />
<path d="M194577200 196585771
L194577200 195085771
" />
<path d="M194720057 196014342
L195148628 196585771
" />
<path d="M195148628 195585771
L194577200 196157200
" />
<path d="M195791485 196585771
L195791485 195585771
" />
<path d="M195791485 195085771
L195720057 195157200
L195791485 195228628
L195862914 195157200
L195791485 195085771
L195791485 195228628
" />
<path d="M197148628 196514342
L197005771 196585771
L196720057 196585771
L196577200 196514342
L196505771 196442914
L196434342 196300057
L196434342 195871485
L196505771 195728628
L196577200 195657200
L196720057 195585771
L197005771 195585771
L197148628 195657200
" />
<path d="M198434342 196585771
L198434342 195800057
L198362914 195657200
L198220057 195585771
L197934342 195585771
L197791485 195657200
" />
<path d="M198434342 196514342
L198291485 196585771
L197934342 196585771
L197791485 196514342
L197720057 196371485
L197720057 196228628
L197791485 196085771
L197934342 196014342
L198291485 196014342
L198434342 195942914
" />
<path d="M199791485 196585771
L199791485 195085771
" />
<path d="M199791485 196514342
L199648628 196585771
L199362914 196585771
L199220057 196514342
L199148628 196442914
L199077200 196300057
L199077200 195871485
L199148628 195728628
L199220057 195657200
L199362914 195585771
L199648628 195585771
L199791485 195657200
" />
<path d="M202077200 197157200
L202005771 197085771
L201862914 196871485
L201791485 196728628
L201720057 196514342
L201648628 196157200
L201648628 195871485
L201720057 195514342
L201791485 195300057
L201862914 195157200
L202005771 194942914
L202077200 194871485
" />
<path d="M203362914 195085771
L202648628 195085771
L202577200 195800057
L202648628 195728628
L202791485 195657200
L203148628 195657200
L203291485 195728628
L203362914 195800057
L203434342 195942914
L203434342 196300057
L203362914 196442914
L203291485 196514342
L203148628 196585771
L202791485 196585771
L202648628 196514342
L202577200 196442914
" />
<path d="M204077200 196442914
L204148628 196514342
L204077200 196585771
L204005771 196514342
L204077200 196442914
L204077200 196585771
" />
<path d="M204862914 196585771
L205148628 196585771
L205291485 196514342
L205362914 196442914
L205505771 196228628
L205577200 195942914
L205577200 195371485
L205505771 195228628
L205434342 195157200
L205291485 195085771
L205005771 195085771
L204862914 195157200
L204791485 195228628
L204720057 195371485
L204720057 195728628
L204791485 195871485
L204862914 195942914
L205005771 196014342
L205291485 196014342
L205434342 195942914
L205505771 195871485
L205577200 195728628
" />
<path d="M206291485 196585771
L206577200 196585771
L206720057 196514342
L206791485 196442914
L206934342 196228628
L207005771 195942914
L207005771 195371485
L206934342 195228628
L206862914 195157200
L206720057 195085771
L206434342 195085771
L206291485 195157200
L206220057 195228628
L206148628 195371485
L206148628 195728628
L206220057 195871485
L206291485 195942914
L206434342 196014342
L206720057 196014342
L206862914 195942914
L206934342 195871485
L207005771 195728628
" />
<path d="M207648628 196442914
L207720057 196514342
L207648628 196585771
L207577200 196514342
L207648628 196442914
L207648628 196585771
" />
<path d="M208648628 195085771
L208791485 195085771
L208934342 195157200
L209005771 195228628
L209077200 195371485
L209148628 195657200
L209148628 196014342
L209077200 196300057
L209005771 196442914
L208934342 196514342
L208791485 196585771
L208648628 196585771
L208505771 196514342
L208434342 196442914
L208362914 196300057
L208291485 196014342
L208291485 195657200
L208362914 195371485
L208434342 195228628
L208505771 195157200
L208648628 195085771
" />
<path d="M209791485 196014342
L210934342 196014342
" />
<path d="M212434342 196585771
L211577200 196585771
" />
<path d="M212005771 196585771
L212005771 195085771
L211862914 195300057
L211720057 195442914
L211577200 195514342
" />
<path d="M212934342 195085771
L213862914 195085771
L213362914 195657200
L213577200 195657200
L213720057 195728628
L213791485 195800057
L213862914 195942914
L213862914 196300057
L213791485 196442914
L213720057 196514342
L213577200 196585771
L213148628 196585771
L213005771 196514342
L212934342 196442914
" />
<path d="M214791485 195085771
L214934342 195085771
L215077200 195157200
L215148628 195228628
L215220057 195371485
L215291485 195657200
L215291485 196014342
L215220057 196300057
L215148628 196442914
L215077200 196514342
L214934342 196585771
L214791485 196585771
L214648628 196514342
L214577200 196442914
L214505771 196300057
L214434342 196014342
L214434342 195657200
L214505771 195371485
L214577200 195228628
L214648628 195157200
L214791485 195085771
" />
<path d="M216005771 196585771
L216291485 196585771
L216434342 196514342
L216505771 196442914
L216648628 196228628
L216720057 195942914
L216720057 195371485
L216648628 195228628
L216577200 195157200
L216434342 195085771
L216148628 195085771
L216005771 195157200
L215934342 195228628
L215862914 195371485
L215862914 195728628
L215934342 195871485
L216005771 195942914
L216148628 196014342
L216434342 196014342
L216577200 195942914
L216648628 195871485
L216720057 195728628
" />
<path d="M217648628 195085771
L217791485 195085771
L217934342 195157200
L218005771 195228628
L218077200 195371485
L218148628 195657200
L218148628 196014342
L218077200 196300057
L218005771 196442914
L217934342 196514342
L217791485 196585771
L217648628 196585771
L217505771 196514342
L217434342 196442914
L217362914 196300057
L217291485 196014342
L217291485 195657200
L217362914 195371485
L217434342 195228628
L217505771 195157200
L217648628 195085771
" />
<path d="M218791485 196014342
L219934342 196014342
" />
<path d="M221291485 195585771
L221291485 196800057
L221220057 196942914
L221148628 197014342
L221005771 197085771
L220791485 197085771
L220648628 197014342
" />
<path d="M221291485 196514342
L221148628 196585771
L220862914 196585771
L220720057 196514342
L220648628 196442914
L220577200 196300057
L220577200 195871485
L220648628 195728628
L220720057 195657200
L220862914 195585771
L221148628 195585771
L221291485 195657200
" />
<path d="M222648628 196514342
L222505771 196585771
L222220057 196585771
L222077200 196514342
L222005771 196442914
L221934342 196300057
L221934342 195871485
L222005771 195728628
L222077200 195657200
L222220057 195585771
L222505771 195585771
L222648628 195657200
" />
<path d="M223077200 195585771
L223648628 195585771
" />
<path d="M223291485 196585771
L223291485 195300057
L223362914 195157200
L223505771 195085771
L223648628 195085771
" />
<path d="M224791485 195085771
L224505771 195085771
L224362914 195157200
L224291485 195228628
L224148628 195442914
L224077200 195728628
L224077200 196300057
L224148628 196442914
L224220057 196514342
L224362914 196585771
L224648628 196585771
L224791485 196514342
L224862914 196442914
L224934342 196300057
L224934342 195942914
L224862914 195800057
L224791485 195728628
L224648628 195657200
L224362914 195657200
L224220057 195728628
L224148628 195800057
L224077200 195942914
" />
<path d="M225577200 196585771
L225577200 195085771
" />
<path d="M225577200 195657200
L225720057 195585771
L226005771 195585771
L226148628 195657200
L226220057 195728628
L226291485 195871485
L226291485 196300057
L226220057 196442914
L226148628 196514342
L226005771 196585771
L225720057 196585771
L225577200 196514342
" />
<path d="M227720057 196585771
L226862914 196585771
" />
<path d="M227291485 196585771
L227291485 195085771
L227148628 195300057
L227005771 195442914
L226862914 195514342
" />
<path d="M228577200 195728628
L228434342 195657200
L228362914 195585771
L228291485 195442914
L228291485 195371485
L228362914 195228628
L228434342 195157200
L228577200 195085771
L228862914 195085771
L229005771 195157200
L229077200 195228628
L229148628 195371485
L229148628 195442914
L229077200 195585771
L229005771 195657200
L228862914 195728628
L228577200 195728628
L228434342 195800057
L228362914 195871485
L228291485 196014342
L228291485 196300057
L228362914 196442914
L228434342 196514342
L228577200 196585771
L228862914 196585771
L229005771 196514342
L229077200 196442914
L229148628 196300057
L229148628 196014342
L229077200 195871485
L229005771 195800057
L228862914 195728628
" />
<path d="M230362914 196514342
L230220057 196585771
L229934342 196585771
L229791485 196514342
L229720057 196371485
L229720057 195800057
L229791485 195657200
L229934342 195585771
L230220057 195585771
L230362914 195657200
L230434342 195800057
L230434342 195942914
L229720057 196085771
" />
<path d="M231720057 196514342
L231577199 196585771
L231291485 196585771
L231148628 196514342
L231077199 196442914
L231005771 196300057
L231005771 195871485
L231077199 195728628
L231148628 195657200
L231291485 195585771
L231577199 195585771
L231720057 195657200
" />
<path d="M232220057 195085771
L233220057 195085771
L232577199 196585771
" />
<path d="M234362914 196514342
L234220057 196585771
L233934342 196585771
L233791485 196514342
L233720057 196371485
L233720057 195800057
L233791485 195657200
L233934342 195585771
L234220057 195585771
L234362914 195657200
L234434342 195800057
L234434342 195942914
L233720057 196085771
" />
<path d="M234934342 197157200
L235005771 197085771
L235148628 196871485
L235220057 196728628
L235291485 196514342
L235362914 196157200
L235362914 195871485
L235291485 195514342
L235220057 195300057
L235148628 195157200
L235005771 194942914
L234934342 194871485
" />
</g></g>
<g style="fill:#000000; fill-opacity:0.0; 
stroke:#000000; stroke-width:21200.000000; stroke-opacity:1; 
stroke-linecap:round; stroke-linejoin:round;">
</g>
<g style="fill:#000000; fill-opacity:0.0; 
stroke:#000000; stroke-width:150000.000000; stroke-opacity:1; 
stroke-linecap:round; stroke-linejoin:round;">
<path d="M177002200 191507200
L285002200 191507200
" />
</g>
<g style="fill:#000000; fill-opacity:0.0; 
stroke:#000000; stroke-width:21200.000000; stroke-opacity:1; 
stroke-linecap:round; stroke-linejoin:round;">
</g>
<g style="fill:#000000; fill-opacity:0.0; 
stroke:#000000; stroke-width:300000.000000; stroke-opacity:1; 
stroke-linecap:round; stroke-linejoin:round;">
<text x="263002200.000000" y="193857200.000000"
textLength="5935714.000000" font-size="2000000.000000" lengthAdjust="spacingAndGlyphs"
text-anchor="start" opacity="0">Rev: </text>
<g class="stroked-text"><desc>Rev: </desc>
<path d="M264411485 193785771
L263911485 193071485
" />
<path d="M263554342 193785771
L263554342 192285771
L264125771 192285771
L264268628 192357200
L264340057 192428628
L264411485 192571485
L264411485 192785771
L264340057 192928628
L264268628 193000057
L264125771 193071485
L263554342 193071485
" />
<path d="M265625771 193714342
L265482914 193785771
L265197200 193785771
L265054342 193714342
L264982914 193571485
L264982914 193000057
L265054342 192857200
L265197200 192785771
L265482914 192785771
L265625771 192857200
L265697200 193000057
L265697200 193142914
L264982914 193285771
" />
<path d="M266197200 192785771
L266554342 193785771
L266911485 192785771
" />
<path d="M267482914 193642914
L267554342 193714342
L267482914 193785771
L267411485 193714342
L267482914 193642914
L267482914 193785771
" />
<path d="M267482914 192857200
L267554342 192928628
L267482914 193000057
L267411485 192928628
L267482914 192857200
L267482914 193000057
" />
</g></g>
<g style="fill:#000000; fill-opacity:0.0; 
stroke:#000000; stroke-width:21200.000000; stroke-opacity:1; 
stroke-linecap:round; stroke-linejoin:round;">
</g>
<g style="fill:#000000; fill-opacity:0.0; 
stroke:#000000; stroke-width:150000.000000; stroke-opacity:1; 
stroke-linecap:round; stroke-linejoin:round;">
<text x="178002200.000000" y="193857200.000000"
textLength="9604286.000000" font-size="2000000.000000" lengthAdjust="spacingAndGlyphs"
text-anchor="start" opacity="0">Size: A4</text>
<g class="stroked-text"><desc>Size: A4</desc>
<path d="M178362914 193714342
L178577200 193785771
L178934342 193785771
L179077200 193714342
L179148628 193642914
L179220057 193500057
L179220057 193357200
L179148628 193214342
L179077200 193142914
L178934342 193071485
L178648628 193000057
L178505771 192928628
L178434342 192857200
L178362914 192714342
L178362914 192571485
L178434342 192428628
L178505771 192357200
L178648628 192285771
L179005771 192285771
L179220057 192357200
" />
<path d="M179862914 193785771
L179862914 192785771
" />
<path d="M179862914 192285771
L179791485 192357200
L179862914 192428628
L179934342 192357200
L179862914 192285771
L179862914 192428628
" />
<path d="M180434342 192785771
L181220057 192785771
L180434342 193785771
L181220057 193785771
" />
<path d="M182362914 193714342
L182220057 193785771
L181934342 193785771
L181791485 193714342
L181720057 193571485
L181720057 193000057
L181791485 192857200
L181934342 192785771
L182220057 192785771
L182362914 192857200
L182434342 193000057
L182434342 193142914
L181720057 193285771
" />
<path d="M183077200 193642914
L183148628 193714342
L183077200 193785771
L183005771 193714342
L183077200 193642914
L183077200 193785771
" />
<path d="M183077200 192857200
L183148628 192928628
L183077200 193000057
L183005771 192928628
L183077200 192857200
L183077200 193000057
" />
<path d="M184862914 193357200
L185577200 193357200
" />
<path d="M184720057 193785771
L185220057 192285771
L185720057 193785771
" />
<path d="M186862914 192785771
L186862914 193785771
" />
<path d="M186505771 192214342
L186148628 193285771
L187077200 193285771
" />
</g></g>
<g style="fill:#000000; fill-opacity:0.0; 
stroke:#000000; stroke-width:21200.000000; stroke-opacity:1; 
stroke-linecap:round; stroke-linejoin:round;">
</g>
<g style="fill:#000000; fill-opacity:0.0; 
stroke:#000000; stroke-width:150000.000000; stroke-opacity:1; 
stroke-linecap:round; stroke-linejoin:round;">
<text x="263002200.000000" y="196657200.000000"
textLength="8507143.000000" font-size="2000000.000000" lengthAdjust="spacingAndGlyphs"
text-anchor="start" opacity="0">Id: 1/1</text>
<g class="stroked-text"><desc>Id: 1/1</desc>
<path d="M263434342 196585771
L263434342 195085771
" />
<path d="M264791485 196585771
L264791485 195085771
" />
<path d="M264791485 196514342
L264648628 196585771
L264362914 196585771
L264220057 196514342
L264148628 196442914
L264077200 196300057
L264077200 195871485
L264148628 195728628
L264220057 195657200
L264362914 195585771
L264648628 195585771
L264791485 195657200
" />
<path d="M265505771 196442914
L265577200 196514342
L265505771 196585771
L265434342 196514342
L265505771 196442914
L265505771 196585771
" />
<path d="M265505771 195657200
L265577200 195728628
L265505771 195800057
L265434342 195728628
L265505771 195657200
L265505771 195800057
" />
<path d="M268148628 196585771
L267291485 196585771
" />
<path d="M267720057 196585771
L267720057 195085771
L267577200 195300057
L267434342 195442914
L267291485 195514342
" />
<path d="M269862914 195014342
L268577200 196942914
" />
<path d="M271148628 196585771
L270291485 196585771
" />
<path d="M270720057 196585771
L270720057 195085771
L270577200 195300057
L270434342 195442914
L270291485 195514342
" />
</g></g>
<g style="fill:#000000; fill-opacity:0.0; 
stroke:#000000; stroke-width:21200.000000; stroke-opacity:1; 
stroke-linecap:round; stroke-linejoin:round;">
</g>
<g style="fill:#000000; fill-opacity:0.0; 
stroke:#000000; stroke-width:150000.000000; stroke-opacity:1; 
stroke-linecap:round; stroke-linejoin:round;">
<path d="M177002200 187507200
L285002200 187507200
" />
</g>
<g style="fill:#000000; fill-opacity:0.0; 
stroke:#000000; stroke-width:21200.000000; stroke-opacity:1; 
stroke-linecap:round; stroke-linejoin:round;">
</g>
<g style="fill:#000000; fill-opacity:0.0; 
stroke:#000000; stroke-width:400000.000000; stroke-opacity:1; 
stroke-linecap:round; stroke-linejoin:round;">
<text x="178002200.000000" y="190307200.000000"
textLength="9409643.000000" font-size="2666666.000000" lengthAdjust="spacingAndGlyphs"
text-anchor="start" opacity="0">Title: </text>
<g class="stroked-text"><desc>Title: </desc>
<path d="M178714580 188211961
L179857438 188211961
" />
<path d="M179036009 190211961
L179286009 188211961
" />
<path d="M180274104 190211961
L180440771 188878628
" />
<path d="M180524104 188211961
L180416961 188307200
L180500295 188402438
L180607438 188307200
L180524104 188211961
L180500295 188402438
" />
<path d="M181107438 188878628
L181869342 188878628
" />
<path d="M181476485 188211961
L181262200 189926247
L181333628 190116723
L181512200 190211961
L181702676 190211961
" />
<path d="M182655057 190211961
L182476485 190116723
L182405057 189926247
L182619342 188211961
" />
<path d="M184190771 190116723
L183988390 190211961
L183607438 190211961
L183428866 190116723
L183357438 189926247
L183452676 189164342
L183571723 188973866
L183774104 188878628
L184155057 188878628
L184333628 188973866
L184405057 189164342
L184381247 189354819
L183405057 189545295
" />
<path d="M185155057 190021485
L185238390 190116723
L185131247 190211961
L185047914 190116723
L185155057 190021485
L185131247 190211961
" />
<path d="M185286009 188973866
L185369342 189069104
L185262200 189164342
L185178866 189069104
L185286009 188973866
L185262200 189164342
" />
</g></g>
<g style="fill:#000000; fill-opacity:0.0; 
stroke:#000000; stroke-width:21200.000000; stroke-opacity:1; 
stroke-linecap:round; stroke-linejoin:round;">
</g>
<g style="fill:#000000; fill-opacity:0.0; 
stroke:#000000; stroke-width:150000.000000; stroke-opacity:1; 
stroke-linecap:round; stroke-linejoin:round;">
<text x="178002200.000000" y="186457200.000000"
textLength="32305714.000000" font-size="2000000.000000" lengthAdjust="spacingAndGlyphs"
text-anchor="start" opacity="0">File: dual_LT6105.kicad_pcb</text>
<g class="stroked-text"><desc>File: dual_LT6105.kicad_pcb</desc>
<path d="M178934342 185600057
L178434342 185600057
" />
<path d="M178434342 186385771
L178434342 184885771
L179148628 184885771
" />
<path d="M179720057 186385771
L179720057 185385771
" />
<path d="M179720057 184885771
L179648628 184957200
L179720057 185028628
L179791485 184957200
L179720057 184885771
L179720057 185028628
" />
<path d="M180648628 186385771
L180505771 186314342
L180434342 186171485
L180434342 184885771
" />
<path d="M181791485 186314342
L181648628 186385771
L181362914 186385771
L181220057 186314342
L181148628 186171485
L181148628 185600057
L181220057 185457200
L181362914 185385771
L181648628 185385771
L181791485 185457200
L181862914 185600057
L181862914 185742914
L181148628 185885771
" />
<path d="M182505771 186242914
L182577200 186314342
L182505771 186385771
L182434342 186314342
L182505771 186242914
L182505771 186385771
" />
<path d="M182505771 185457200
L182577200 185528628
L182505771 185600057
L182434342 185528628
L182505771 185457200
L182505771 185600057
" />
<path d="M185005771 186385771
L185005771 184885771
" />
<path d="M185005771 186314342
L184862914 186385771
L184577200 186385771
L184434342 186314342
L184362914 186242914
L184291485 186100057
L184291485 185671485
L184362914 185528628
L184434342 185457200
L184577200 185385771
L184862914 185385771
L185005771 185457200
" />
<path d="M186362914 185385771
L186362914 186385771
" />
<path d="M185720057 185385771
L185720057 186171485
L185791485 186314342
L185934342 186385771
L186148628 186385771
L186291485 186314342
L186362914 186242914
" />
<path d="M187720057 186385771
L187720057 185600057
L187648628 185457200
L187505771 185385771
L187220057 185385771
L187077200 185457200
" />
<path d="M187720057 186314342
L187577200 186385771
L187220057 186385771
L187077200 186314342
L187005771 186171485
L187005771 186028628
L187077200 185885771
L187220057 185814342
L187577200 185814342
L187720057 185742914
" />
<path d="M188648628 186385771
L188505771 186314342
L188434342 186171485
L188434342 184885771
" />
<path d="M188862914 186528628
L190005771 186528628
" />
<path d="M191077200 186385771
L190362914 186385771
L190362914 184885771
" />
<path d="M191362914 184885771
L192220057 184885771
" />
<path d="M191791485 186385771
L191791485 184885771
" />
<path d="M193362914 184885771
L193077200 184885771
L192934342 184957200
L192862914 185028628
L192720057 185242914
L192648628 185528628
L192648628 186100057
L192720057 186242914
L192791485 186314342
L192934342 186385771
L193220057 186385771
L193362914 186314342
L193434342 186242914
L193505771 186100057
L193505771 185742914
L193434342 185600057
L193362914 185528628
L193220057 185457200
L192934342 185457200
L192791485 185528628
L192720057 185600057
L192648628 185742914
" />
<path d="M194934342 186385771
L194077200 186385771
" />
<path d="M194505771 186385771
L194505771 184885771
L194362914 185100057
L194220057 185242914
L194077200 185314342
" />
<path d="M195862914 184885771
L196005771 184885771
L196148628 184957200
L196220057 185028628
L196291485 185171485
L196362914 185457200
L196362914 185814342
L196291485 186100057
L196220057 186242914
L196148628 186314342
L196005771 186385771
L195862914 186385771
L195720057 186314342
L195648628 186242914
L195577200 186100057
L195505771 185814342
L195505771 185457200
L195577200 185171485
L195648628 185028628
L195720057 184957200
L195862914 184885771
" />
<path d="M197720057 184885771
L197005771 184885771
L196934342 185600057
L197005771 185528628
L197148628 185457200
L197505771 185457200
L197648628 185528628
L197720057 185600057
L197791485 185742914
L197791485 186100057
L197720057 186242914
L197648628 186314342
L197505771 186385771
L197148628 186385771
L197005771 186314342
L196934342 186242914
" />
<path d="M198434342 186242914
L198505771 186314342
L198434342 186385771
L198362914 186314342
L198434342 186242914
L198434342 186385771
" />
<path d="M199148628 186385771
L199148628 184885771
" />
<path d="M199291485 185814342
L199720057 186385771
" />
<path d="M199720057 185385771
L199148628 185957200
" />
<path d="M200362914 186385771
L200362914 185385771
" />
<path d="M200362914 184885771
L200291485 184957200
L200362914 185028628
L200434342 184957200
L200362914 184885771
L200362914 185028628
" />
<path d="M201720057 186314342
L201577200 186385771
L201291485 186385771
L201148628 186314342
L201077200 186242914
L201005771 186100057
L201005771 185671485
L201077200 185528628
L201148628 185457200
L201291485 185385771
L201577200 185385771
L201720057 185457200
" />
<path d="M203005771 186385771
L203005771 185600057
L202934342 185457200
L202791485 185385771
L202505771 185385771
L202362914 185457200
" />
<path d="M203005771 186314342
L202862914 186385771
L202505771 186385771
L202362914 186314342
L202291485 186171485
L202291485 186028628
L202362914 185885771
L202505771 185814342
L202862914 185814342
L203005771 185742914
" />
<path d="M204362914 186385771
L204362914 184885771
" />
<path d="M204362914 186314342
L204220057 186385771
L203934342 186385771
L203791485 186314342
L203720057 186242914
L203648628 186100057
L203648628 185671485
L203720057 185528628
L203791485 185457200
L203934342 185385771
L204220057 185385771
L204362914 185457200
" />
<path d="M204720057 186528628
L205862914 186528628
" />
<path d="M206220057 185385771
L206220057 186885771
" />
<path d="M206220057 185457200
L206362914 185385771
L206648628 185385771
L206791485 185457200
L206862914 185528628
L206934342 185671485
L206934342 186100057
L206862914 186242914
L206791485 186314342
L206648628 186385771
L206362914 186385771
L206220057 186314342
" />
<path d="M208220057 186314342
L208077200 186385771
L207791485 186385771
L207648628 186314342
L207577200 186242914
L207505771 186100057
L207505771 185671485
L207577200 185528628
L207648628 185457200
L207791485 185385771
L208077200 185385771
L208220057 185457200
" />
<path d="M208862914 186385771
L208862914 184885771
" />
<path d="M208862914 185457200
L209005771 185385771
L209291485 185385771
L209434342 185457200
L209505771 185528628
L209577200 185671485
L209577200 186100057
L209505771 186242914
L209434342 186314342
L209291485 186385771
L209005771 186385771
L208862914 186314342
" />
</g></g>
<g style="fill:#000000; fill-opacity:0.0; 
stroke:#000000; stroke-width:21200.000000; stroke-opacity:1; 
stroke-linecap:round; stroke-linejoin:round;">
</g>
<g style="fill:#000000; fill-opacity:0.0; 
stroke:#000000; stroke-width:150000.000000; stroke-opacity:1; 
stroke-linecap:round; stroke-linejoin:round;">
<path d="M177002200 181507200
L285002200 181507200
" />
</g>
<g style="fill:#000000; fill-opacity:0.0; 
stroke:#000000; stroke-width:21200.000000; stroke-opacity:1; 
stroke-linecap:round; stroke-linejoin:round;">
</g>
<g style="fill:#000000; fill-opacity:0.0; 
stroke:#000000; stroke-width:150000.000000; stroke-opacity:1; 
stroke-linecap:round; stroke-linejoin:round;">
<text x="178002200.000000" y="183757200.000000"
textLength="8221429.000000" font-size="2000000.000000" lengthAdjust="spacingAndGlyphs"
text-anchor="start" opacity="0">Sheet: </text>
<g class="stroked-text"><desc>Sheet: </desc>
<path d="M178362914 183614342
L178577200 183685771
L178934342 183685771
L179077200 183614342
L179148628 183542914
L179220057 183400057
L179220057 183257200
L179148628 183114342
L179077200 183042914
L178934342 182971485
L178648628 182900057
L178505771 182828628
L178434342 182757200
L178362914 182614342
L178362914 182471485
L178434342 182328628
L178505771 182257200
L178648628 182185771
L179005771 182185771
L179220057 182257200
" />
<path d="M179862914 183685771
L179862914 182185771
" />
<path d="M180505771 183685771
L180505771 182900057
L180434342 182757200
L180291485 182685771
L180077200 182685771
L179934342 182757200
L179862914 182828628
" />
<path d="M181791485 183614342
L181648628 183685771
L181362914 183685771
L181220057 183614342
L181148628 183471485
L181148628 182900057
L181220057 182757200
L181362914 182685771
L181648628 182685771
L181791485 182757200
L181862914 182900057
L181862914 183042914
L181148628 183185771
" />
<path d="M183077200 183614342
L182934342 183685771
L182648628 183685771
L182505771 183614342
L182434342 183471485
L182434342 182900057
L182505771 182757200
L182648628 182685771
L182934342 182685771
L183077200 182757200
L183148628 182900057
L183148628 183042914
L182434342 183185771
" />
<path d="M183577200 182685771
L184148628 182685771
" />
<path d="M183791485 182185771
L183791485 183471485
L183862914 183614342
L184005771 183685771
L184148628 183685771
" />
<path d="M184648628 183542914
L184720057 183614342
L184648628 183685771
L184577200 183614342
L184648628 183542914
L184648628 183685771
" />
<path d="M184648628 182757200
L184720057 182828628
L184648628 182900057
L184577200 182828628
L184648628 182757200
L184648628 182900057
" />
</g></g>
<g style="fill:#000000; fill-opacity:0.0; 
stroke:#000000; stroke-width:21200.000000; stroke-opacity:1; 
stroke-linecap:round; stroke-linejoin:round;">
</g>
<g style="fill:#000000; fill-opacity:0.0; 
stroke:#000000; stroke-width:300000.000000; stroke-opacity:1; 
stroke-linecap:round; stroke-linejoin:round;">
<text x="178002200.000000" y="180757200.000000"
textLength="150000.000000" font-size="2000000.000000" lengthAdjust="spacingAndGlyphs"
text-anchor="start" opacity="0"></text>
<g class="stroked-text"><desc></desc>
</g></g>
<g style="fill:#000000; fill-opacity:0.0; 
stroke:#000000; stroke-width:21200.000000; stroke-opacity:1; 
stroke-linecap:round; stroke-linejoin:round;">
</g>
<g style="fill:#000000; fill-opacity:0.0; 
stroke:#000000; stroke-width:150000.000000; stroke-opacity:1; 
stroke-linecap:round; stroke-linejoin:round;">
<text x="178002200.000000" y="177757200.000000"
textLength="300000.000000" font-size="2000000.000000" lengthAdjust="spacingAndGlyphs"
text-anchor="start" opacity="0"></text>
<g class="stroked-text"><desc></desc>
</g></g>
<g style="fill:#000000; fill-opacity:0.0; 
stroke:#000000; stroke-width:21200.000000; stroke-opacity:1; 
stroke-linecap:round; stroke-linejoin:round;">
</g>
<g style="fill:#000000; fill-opacity:0.0; 
stroke:#000000; stroke-width:150000.000000; stroke-opacity:1; 
stroke-linecap:round; stroke-linejoin:round;">
<text x="178002200.000000" y="174757200.000000"
textLength="150000.000000" font-size="2000000.000000" lengthAdjust="spacingAndGlyphs"
text-anchor="start" opacity="0"></text>
<g class="stroked-text"><desc></desc>
</g></g>
<g style="fill:#000000; fill-opacity:0.0; 
stroke:#000000; stroke-width:21200.000000; stroke-opacity:1; 
stroke-linecap:round; stroke-linejoin:round;">
</g>
<g style="fill:#000000; fill-opacity:0.0; 
stroke:#000000; stroke-width:150000.000000; stroke-opacity:1; 
stroke-linecap:round; stroke-linejoin:round;">
<text x="178002200.000000" y="171757200.000000"
textLength="150000.000000" font-size="2000000.000000" lengthAdjust="spacingAndGlyphs"
text-anchor="start" opacity="0"></text>
<g class="stroked-text"><desc></desc>
</g></g>
<g style="fill:#000000; fill-opacity:0.0; 
stroke:#000000; stroke-width:21200.000000; stroke-opacity:1; 
stroke-linecap:round; stroke-linejoin:round;">
</g>
<g style="fill:#000000; fill-opacity:0.0; 
stroke:#000000; stroke-width:150000.000000; stroke-opacity:1; 
stroke-linecap:round; stroke-linejoin:round;">
<text x="178002200.000000" y="168757200.000000"
textLength="150000.000000" font-size="2000000.000000" lengthAdjust="spacingAndGlyphs"
text-anchor="start" opacity="0"></text>
<g class="stroked-text"><desc></desc>
</g></g>
<g style="fill:#000000; fill-opacity:0.0; 
stroke:#000000; stroke-width:21200.000000; stroke-opacity:1; 
stroke-linecap:round; stroke-linejoin:round;">
</g>
<g style="fill:#000000; fill-opacity:0.0; 
stroke:#000000; stroke-width:150000.000000; stroke-opacity:1; 
stroke-linecap:round; stroke-linejoin:round;">
<path d="M197002200 191507200
L197002200 194507200
" />
</g>
<g style="fill:#000000; fill-opacity:0.0; 
stroke:#000000; stroke-width:21200.000000; stroke-opacity:1; 
stroke-linecap:round; stroke-linejoin:round;">
</g>
<g style="fill:#000000; fill-opacity:0.0; 
stroke:#000000; stroke-width:150000.000000; stroke-opacity:1; 
stroke-linecap:round; stroke-linejoin:round;">
<path d="M261002200 191507200
L261002200 198007200
" />
</g>
<g style="fill:#000000; fill-opacity:0.0; 
stroke:#000000; stroke-width:100000.000000; stroke-opacity:1; 
stroke-linecap:round; stroke-linejoin:round;">
<path d="M123500000 103750000
L142000000 103750000
" />
<path d="M142000000 103750000
L142000000 95250000
" />
<path d="M142000000 95250000
L123500000 95250000
" />
<path d="M123500000 95250000
L123500000 103750000
" />
<g >
</g>
<g >
</g>
<g >
</g>
<g style="fill:#000000; fill-opacity:0.0; 
stroke:#000000; stroke-width:100000.000000; stroke-opacity:1; 
stroke-linecap:round; stroke-linejoin:round;">
</g>
<g style="fill:#000000; fill-opacity:1.0; 
stroke:#000000; stroke-width:1.000000; stroke-opacity:1; 
stroke-linecap:round; stroke-linejoin:round;">
<circle cx="134620000.000000" cy="95250000.000000" r="1000000.000000" /> 
</g>
<g style="fill:#000000; fill-opacity:1.0; 
stroke:#000000; stroke-width:21200.000000; stroke-opacity:1; 
stroke-linecap:round; stroke-linejoin:round;">
</g>
<g >
</g>
<g >
</g>
<g >
</g>
<g style="fill:#000000; fill-opacity:1.0; 
stroke:#000000; stroke-width:21200.000000; stroke-opacity:1; 
stroke-linecap:round; stroke-linejoin:round;">
</g>
<g style="fill:#000000; fill-opacity:1.0; 
stroke:#000000; stroke-width:1.000000; stroke-opacity:1; 
stroke-linecap:round; stroke-linejoin:round;">
<circle cx="130810000.000000" cy="95250000.000000" r="1000000.000000" /> 
</g>
<g style="fill:#000000; fill-opacity:1.0; 
stroke:#000000; stroke-width:21200.000000; stroke-opacity:1; 
stroke-linecap:round; stroke-linejoin:round;">
</g>
<g >
</g>
<g >
</g>
<g >
</g>
<g style="fill:#000000; fill-opacity:1.0; 
stroke:#000000; stroke-width:21200.000000; stroke-opacity:1; 
stroke-linecap:round; stroke-linejoin:round;">
</g>
<g style="fill:#000000; fill-opacity:1.0; 
stroke:#000000; stroke-width:1.000000; stroke-opacity:1; 
stroke-linecap:round; stroke-linejoin:round;">
<circle cx="127000000.000000" cy="95250000.000000" r="1000000.000000" /> 
</g>
<g style="fill:#000000; fill-opacity:1.0; 
stroke:#000000; stroke-width:21200.000000; stroke-opacity:1; 
stroke-linecap:round; stroke-linejoin:round;">
</g>
<g >
</g>
<g style="fill:#000000; fill-opacity:1.0; 
stroke:#000000; stroke-width:21200.000000; stroke-opacity:1; 
stroke-linecap:round; stroke-linejoin:round;">
</g>
<g style="fill:#000000; fill-opacity:1.0; 
stroke:#000000; stroke-width:1.000000; stroke-opacity:1; 
stroke-linecap:round; stroke-linejoin:round;">
<circle cx="138430000.000000" cy="95250000.000000" r="1000000.000000" /> 
</g>
<g style="fill:#000000; fill-opacity:1.0; 
stroke:#000000; stroke-width:21200.000000; stroke-opacity:1; 
stroke-linecap:round; stroke-linejoin:round;">
</g>
<g >
</g>
<g >
</g>
<g >
</g>
<g style="fill:#000000; fill-opacity:1.0; 
stroke:#000000; stroke-width:21200.000000; stroke-opacity:1; 
stroke-linecap:round; stroke-linejoin:round;">
</g>
<g style="fill:#000000; fill-opacity:1.0; 
stroke:#000000; stroke-width:1.000000; stroke-opacity:1; 
stroke-linecap:round; stroke-linejoin:round;">
<circle cx="136377000.000000" cy="99370000.000000" r="400000.000000" /> 
</g>
<g style="fill:#000000; fill-opacity:1.0; 
stroke:#000000; stroke-width:21200.000000; stroke-opacity:1; 
stroke-linecap:round; stroke-linejoin:round;">
</g>
<g style="fill:#000000; fill-opacity:1.0; 
stroke:#000000; stroke-width:1.000000; stroke-opacity:1; 
stroke-linecap:round; stroke-linejoin:round;">
<circle cx="128757000.000000" cy="99370000.000000" r="400000.000000" /> 
</g>
<g style="fill:#000000; fill-opacity:1.0; 
stroke:#000000; stroke-width:21200.000000; stroke-opacity:1; 
stroke-linecap:round; stroke-linejoin:round;">
</g>
<g style="fill:#000000; fill-opacity:1.0; 
stroke:#000000; stroke-width:1.000000; stroke-opacity:1; 
stroke-linecap:round; stroke-linejoin:round;">
<circle cx="135925000.000000" cy="97155000.000000" r="400000.000000" /> 
</g>
<g style="fill:#000000; fill-opacity:1.0; 
stroke:#000000; stroke-width:21200.000000; stroke-opacity:1; 
stroke-linecap:round; stroke-linejoin:round;">
</g>
<g style="fill:#000000; fill-opacity:1.0; 
stroke:#000000; stroke-width:1.000000; stroke-opacity:1; 
stroke-linecap:round; stroke-linejoin:round;">
<circle cx="141005000.000000" cy="101727000.000000" r="400000.000000" /> 
</g>
<g style="fill:#000000; fill-opacity:1.0; 
stroke:#000000; stroke-width:21200.000000; stroke-opacity:1; 
stroke-linecap:round; stroke-linejoin:round;">
</g>
<g style="fill:#000000; fill-opacity:1.0; 
stroke:#000000; stroke-width:1.000000; stroke-opacity:1; 
stroke-linecap:round; stroke-linejoin:round;">
<circle cx="132765500.000000" cy="101234500.000000" r="400000.000000" /> 
</g>
<g style="fill:#000000; fill-opacity:1.0; 
stroke:#000000; stroke-width:21200.000000; stroke-opacity:1; 
stroke-linecap:round; stroke-linejoin:round;">
</g>
<g style="fill:#000000; fill-opacity:1.0; 
stroke:#000000; stroke-width:1.000000; stroke-opacity:1; 
stroke-linecap:round; stroke-linejoin:round;">
<circle cx="125476000.000000" cy="97282000.000000" r="400000.000000" /> 
</g>
<g style="fill:#000000; fill-opacity:1.0; 
stroke:#000000; stroke-width:21200.000000; stroke-opacity:1; 
stroke-linecap:round; stroke-linejoin:round;">
</g>
<g style="fill:#000000; fill-opacity:1.0; 
stroke:#000000; stroke-width:1.000000; stroke-opacity:1; 
stroke-linecap:round; stroke-linejoin:round;">
<circle cx="140202000.000000" cy="100670000.000000" r="400000.000000" /> 
</g>
<g style="fill:#000000; fill-opacity:1.0; 
stroke:#000000; stroke-width:21200.000000; stroke-opacity:1; 
stroke-linecap:round; stroke-linejoin:round;">
</g>
<g style="fill:#000000; fill-opacity:1.0; 
stroke:#000000; stroke-width:1.000000; stroke-opacity:1; 
stroke-linecap:round; stroke-linejoin:round;">
<circle cx="129362000.000000" cy="100670000.000000" r="400000.000000" /> 
</g>
<g style="fill:#000000; fill-opacity:1.0; 
stroke:#000000; stroke-width:21200.000000; stroke-opacity:1; 
stroke-linecap:round; stroke-linejoin:round;">
</g>
<g style="fill:#000000; fill-opacity:1.0; 
stroke:#000000; stroke-width:1.000000; stroke-opacity:1; 
stroke-linecap:round; stroke-linejoin:round;">
<circle cx="124460000.000000" cy="100295000.000000" r="400000.000000" /> 
</g>
<g style="fill:#000000; fill-opacity:1.0; 
stroke:#000000; stroke-width:21200.000000; stroke-opacity:1; 
stroke-linecap:round; stroke-linejoin:round;">
</g>
<g >
</g>
<g style="fill:#000000; fill-opacity:1.0; 
stroke:#000000; stroke-width:21200.000000; stroke-opacity:1; 
stroke-linecap:round; stroke-linejoin:round;">
</g>
<g style="fill:#000000; fill-opacity:1.0; 
stroke:#000000; stroke-width:250000.000000; stroke-opacity:1; 
stroke-linecap:round; stroke-linejoin:round;">
</g>
<g style="fill:#000000; fill-opacity:0.0; 
stroke:#000000; stroke-width:250000.000000; stroke-opacity:1; 
stroke-linecap:round; stroke-linejoin:round;">
<path d="M136377000 99370000
L136433000 99314000
" />
<path d="M128757000 99370000
L136377000 99370000
" />
<path d="M125476000 97282000
L133477000 97282000
" />
<path d="M133477000 97282000
L133667500 97091500
" />
<path d="M134620000 96139000
L134620000 95375020
" />
<path d="M133667500 97091500
L134620000 96139000
" />
<path d="M138764000 102108000
L129321000 102108000
" />
<path d="M140202000 100670000
L138764000 102108000
" />
<path d="M126273000 102108000
L124460000 100295000
" />
<path d="M127543000 102108000
L126273000 102108000
" />
<path d="M129362000 100670000
L129362000 102067000
" />
<path d="M129362000 102067000
L129321000 102108000
" />
<path d="M127543000 102108000
L129321000 102108000
" />
</g>
<g >
</g>
<g style="fill:#000000; fill-opacity:0.0; 
stroke:#000000; stroke-width:250000.000000; stroke-opacity:1; 
stroke-linecap:round; stroke-linejoin:round;">
<g >
</g>
<g style="fill:#000000; fill-opacity:1.0; 
stroke:#000000; stroke-width:1.000000; stroke-opacity:1; 
stroke-linecap:round; stroke-linejoin:round;">
<path style="fill:#000000; fill-opacity:1.0; 
stroke:#000000; stroke-width:1.000000; stroke-opacity:1; 
stroke-linecap:round; stroke-linejoin:round;fill-rule:evenodd;"
d="M 125782215.000000,95470002.000000
125828708.000000,95523658.000000
125836217.000000,95544984.000000
125863511.000000,95652452.000000
125865928.000000,95657694.000000
125865928.000000,95657695.000000
125904046.000000,95740379.000000
125955883.000000,95852821.000000
126083222.000000,96033002.000000
126241264.000000,96186961.000000
126246060.000000,96190166.000000
126246063.000000,96190168.000000
126330261.000000,96246427.000000
126424717.000000,96309540.000000
126430020.000000,96311818.000000
126430023.000000,96311820.000000
126622129.000000,96394355.000000
126627436.000000,96396635.000000
126707088.000000,96414658.000000
126836995.000000,96444054.000000
126837001.000000,96444055.000000
126842632.000000,96445329.000000
126848403.000000,96445556.000000
126848405.000000,96445556.000000
126916211.000000,96448220.000000
127063098.000000,96453991.000000
127172275.000000,96438161.000000
127275738.000000,96423160.000000
127275743.000000,96423159.000000
127281452.000000,96422331.000000
127286916.000000,96420476.000000
127286921.000000,96420475.000000
127484907.000000,96353268.000000
127484912.000000,96353266.000000
127490379.000000,96351410.000000
127682884.000000,96243602.000000
127852518.000000,96102518.000000
127993602.000000,95932884.000000
128101410.000000,95740379.000000
128103266.000000,95734912.000000
128103268.000000,95734907.000000
128157209.000000,95576000.000000
128170957.000000,95535498.000000
128211794.000000,95477423.000000
128277547.000000,95450644.000000
128290270.000000,95450000.000000
129524094.000000,95450000.000000
129592215.000000,95470002.000000
129638708.000000,95523658.000000
129646217.000000,95544984.000000
129673511.000000,95652452.000000
129675928.000000,95657694.000000
129675928.000000,95657695.000000
129714046.000000,95740379.000000
129765883.000000,95852821.000000
129893222.000000,96033002.000000
130051264.000000,96186961.000000
130056060.000000,96190166.000000
130056063.000000,96190168.000000
130140261.000000,96246427.000000
130234717.000000,96309540.000000
130240020.000000,96311818.000000
130240023.000000,96311820.000000
130432129.000000,96394355.000000
130437436.000000,96396635.000000
130517088.000000,96414658.000000
130646995.000000,96444054.000000
130647001.000000,96444055.000000
130652632.000000,96445329.000000
130658403.000000,96445556.000000
130658405.000000,96445556.000000
130726211.000000,96448220.000000
130873098.000000,96453991.000000
130982275.000000,96438161.000000
131085738.000000,96423160.000000
131085743.000000,96423159.000000
131091452.000000,96422331.000000
131096916.000000,96420476.000000
131096921.000000,96420475.000000
131294907.000000,96353268.000000
131294912.000000,96353266.000000
131300379.000000,96351410.000000
131492884.000000,96243602.000000
131662518.000000,96102518.000000
131803602.000000,95932884.000000
131911410.000000,95740379.000000
131913266.000000,95734912.000000
131913268.000000,95734907.000000
131967209.000000,95576000.000000
131980957.000000,95535498.000000
132021794.000000,95477423.000000
132087547.000000,95450644.000000
132100270.000000,95450000.000000
133334094.000000,95450000.000000
133402215.000000,95470002.000000
133448708.000000,95523658.000000
133456217.000000,95544984.000000
133483511.000000,95652452.000000
133485928.000000,95657694.000000
133485928.000000,95657695.000000
133524046.000000,95740379.000000
133575883.000000,95852821.000000
133703222.000000,96033002.000000
133861264.000000,96186961.000000
133866060.000000,96190166.000000
133866063.000000,96190168.000000
133883740.000000,96201979.000000
133929268.000000,96256456.000000
133938116.000000,96326899.000000
133902834.000000,96395839.000000
133457472.000000,96841202.000000
133379079.000000,96919595.000000
133316766.000000,96953620.000000
133289983.000000,96956500.000000
126045286.000000,96956500.000000
125977165.000000,96936498.000000
125945323.000000,96907204.000000
125909305.000000,96860264.000000
125904282.000000,96853718.000000
125778841.000000,96757464.000000
125632762.000000,96696956.000000
125476000.000000,96676318.000000
125319238.000000,96696956.000000
125173159.000000,96757464.000000
125047718.000000,96853718.000000
124951464.000000,96979159.000000
124890956.000000,97125238.000000
124870318.000000,97282000.000000
124890956.000000,97438762.000000
124951464.000000,97584841.000000
125047718.000000,97710282.000000
125173159.000000,97806536.000000
125319238.000000,97867044.000000
125476000.000000,97887682.000000
125484188.000000,97886604.000000
125624574.000000,97868122.000000
125632762.000000,97867044.000000
125778841.000000,97806536.000000
125904282.000000,97710282.000000
125945323.000000,97656796.000000
126002661.000000,97614929.000000
126045286.000000,97607500.000000
133457290.000000,97607500.000000
133468272.000000,97607980.000000
133494820.000000,97610303.000000
133494822.000000,97610303.000000
133505807.000000,97611264.000000
133542215.000000,97601508.000000
133552942.000000,97599130.000000
133556301.000000,97598538.000000
133590045.000000,97592588.000000
133599590.000000,97587077.000000
133602866.000000,97585885.000000
133606034.000000,97584408.000000
133616684.000000,97581554.000000
133647544.000000,97559945.000000
133656815.000000,97554039.000000
133679906.000000,97540707.000000
133689455.000000,97535194.000000
133713685.000000,97506317.000000
133721111.000000,97498215.000000
133917798.000000,97301528.000000
134749687.000000,96469640.000000
134811999.000000,96435614.000000
134820693.000000,96434041.000000
134901452.000000,96422331.000000
134906916.000000,96420476.000000
134906921.000000,96420475.000000
135104907.000000,96353268.000000
135104912.000000,96353266.000000
135110379.000000,96351410.000000
135302884.000000,96243602.000000
135472518.000000,96102518.000000
135613602.000000,95932884.000000
135721410.000000,95740379.000000
135723266.000000,95734912.000000
135723268.000000,95734907.000000
135777209.000000,95576000.000000
135790957.000000,95535498.000000
135831794.000000,95477423.000000
135897547.000000,95450644.000000
135910270.000000,95450000.000000
137144094.000000,95450000.000000
137212215.000000,95470002.000000
137258708.000000,95523658.000000
137266217.000000,95544984.000000
137293511.000000,95652452.000000
137295928.000000,95657694.000000
137295928.000000,95657695.000000
137334046.000000,95740379.000000
137385883.000000,95852821.000000
137513222.000000,96033002.000000
137671264.000000,96186961.000000
137676060.000000,96190166.000000
137676063.000000,96190168.000000
137760261.000000,96246427.000000
137854717.000000,96309540.000000
137860020.000000,96311818.000000
137860023.000000,96311820.000000
138052129.000000,96394355.000000
138057436.000000,96396635.000000
138137088.000000,96414658.000000
138266995.000000,96444054.000000
138267001.000000,96444055.000000
138272632.000000,96445329.000000
138278403.000000,96445556.000000
138278405.000000,96445556.000000
138346211.000000,96448220.000000
138493098.000000,96453991.000000
138602275.000000,96438161.000000
138705738.000000,96423160.000000
138705743.000000,96423159.000000
138711452.000000,96422331.000000
138716916.000000,96420476.000000
138716921.000000,96420475.000000
138914907.000000,96353268.000000
138914912.000000,96353266.000000
138920379.000000,96351410.000000
139112884.000000,96243602.000000
139282518.000000,96102518.000000
139423602.000000,95932884.000000
139531410.000000,95740379.000000
139533266.000000,95734912.000000
139533268.000000,95734907.000000
139587209.000000,95576000.000000
139600957.000000,95535498.000000
139641794.000000,95477423.000000
139707547.000000,95450644.000000
139720270.000000,95450000.000000
141674000.000000,95450000.000000
141742121.000000,95470002.000000
141788614.000000,95523658.000000
141800000.000000,95576000.000000
141800000.000000,103424000.000000
141779998.000000,103492121.000000
141726342.000000,103538614.000000
141674000.000000,103550000.000000
123826000.000000,103550000.000000
123757879.000000,103529998.000000
123711386.000000,103476342.000000
123700000.000000,103424000.000000
123700000.000000,100658088.000000
123720002.000000,100589967.000000
123773658.000000,100543474.000000
123843932.000000,100533370.000000
123908512.000000,100562864.000000
123933523.000000,100593154.000000
123935464.000000,100597841.000000
123940493.000000,100604395.000000
123984551.000000,100661812.000000
124031718.000000,100723282.000000
124157159.000000,100819536.000000
124303238.000000,100880044.000000
124460000.000000,100900682.000000
124526843.000000,100891882.000000
124596990.000000,100902821.000000
124632383.000000,100927709.000000
126028895.000000,102324222.000000
126036315.000000,102332318.000000
126060545.000000,102361194.000000
126070088.000000,102366704.000000
126070092.000000,102366707.000000
126093179.000000,102380036.000000
126102448.000000,102385940.000000
126133316.000000,102407554.000000
126143964.000000,102410407.000000
126147135.000000,102411886.000000
126150411.000000,102413078.000000
126159955.000000,102418588.000000
126197076.000000,102425134.000000
126207783.000000,102427508.000000
126244193.000000,102437263.000000
126255168.000000,102436303.000000
126255170.000000,102436303.000000
126281731.000000,102433979.000000
126292712.000000,102433500.000000
129301290.000000,102433500.000000
129312272.000000,102433980.000000
129338819.000000,102436303.000000
129338821.000000,102436303.000000
129349807.000000,102437264.000000
129360460.000000,102434409.000000
129365379.000000,102433979.000000
129376361.000000,102433500.000000
138744290.000000,102433500.000000
138755272.000000,102433980.000000
138781820.000000,102436303.000000
138781822.000000,102436303.000000
138792807.000000,102437264.000000
138829215.000000,102427508.000000
138839942.000000,102425130.000000
138843301.000000,102424538.000000
138877045.000000,102418588.000000
138886590.000000,102413077.000000
138889866.000000,102411885.000000
138893034.000000,102410408.000000
138903684.000000,102407554.000000
138934550.000000,102385941.000000
138943815.000000,102380039.000000
138966906.000000,102366707.000000
138976455.000000,102361194.000000
139000685.000000,102332317.000000
139008111.000000,102324215.000000
140029617.000000,101302709.000000
140091929.000000,101268683.000000
140135157.000000,101266882.000000
140202000.000000,101275682.000000
140210188.000000,101274604.000000
140350574.000000,101256122.000000
140358762.000000,101255044.000000
140504841.000000,101194536.000000
140630282.000000,101098282.000000
140726536.000000,100972841.000000
140787044.000000,100826762.000000
140807682.000000,100670000.000000
140787044.000000,100513238.000000
140726536.000000,100367159.000000
140630282.000000,100241718.000000
140504841.000000,100145464.000000
140358762.000000,100084956.000000
140202000.000000,100064318.000000
140045238.000000,100084956.000000
139899159.000000,100145464.000000
139773718.000000,100241718.000000
139677464.000000,100367159.000000
139616956.000000,100513238.000000
139596318.000000,100670000.000000
139597396.000000,100678188.000000
139605118.000000,100736842.000000
139594179.000000,100806990.000000
139569291.000000,100842383.000000
138666079.000000,101745595.000000
138603767.000000,101779621.000000
138576984.000000,101782500.000000
129813500.000000,101782500.000000
129745379.000000,101762498.000000
129698886.000000,101708842.000000
129687500.000000,101656500.000000
129687500.000000,101239286.000000
129707502.000000,101171165.000000
129736796.000000,101139323.000000
129783736.000000,101103305.000000
129790282.000000,101098282.000000
129886536.000000,100972841.000000
129947044.000000,100826762.000000
129967682.000000,100670000.000000
129947044.000000,100513238.000000
129886536.000000,100367159.000000
129790282.000000,100241718.000000
129664841.000000,100145464.000000
129518762.000000,100084956.000000
129362000.000000,100064318.000000
129207251.000000,100084691.000000
129207249.000000,100084691.000000
129205238.000000,100084956.000000
129205197.000000,100084642.000000
129139157.000000,100083068.000000
129080363.000000,100043271.000000
129052418.000000,99978006.000000
129064193.000000,99907993.000000
129100824.000000,99863089.000000
129178733.000000,99803308.000000
129178736.000000,99803305.000000
129185282.000000,99798282.000000
129226323.000000,99744796.000000
129283661.000000,99702929.000000
129326286.000000,99695500.000000
135807714.000000,99695500.000000
135875835.000000,99715502.000000
135907677.000000,99744796.000000
135948718.000000,99798282.000000
136074159.000000,99894536.000000
136220238.000000,99955044.000000
136377000.000000,99975682.000000
136385188.000000,99974604.000000
136525574.000000,99956122.000000
136533762.000000,99955044.000000
136679841.000000,99894536.000000
136805282.000000,99798282.000000
136901536.000000,99672841.000000
136962044.000000,99526762.000000
136982682.000000,99370000.000000
136962044.000000,99213238.000000
136901536.000000,99067159.000000
136805282.000000,98941718.000000
136679841.000000,98845464.000000
136533762.000000,98784956.000000
136377000.000000,98764318.000000
136220238.000000,98784956.000000
136074159.000000,98845464.000000
135948718.000000,98941718.000000
135943695.000000,98948264.000000
135907677.000000,98995204.000000
135850339.000000,99037071.000000
135807714.000000,99044500.000000
129326286.000000,99044500.000000
129258165.000000,99024498.000000
129226323.000000,98995204.000000
129190305.000000,98948264.000000
129185282.000000,98941718.000000
129059841.000000,98845464.000000
128913762.000000,98784956.000000
128757000.000000,98764318.000000
128600238.000000,98784956.000000
128454159.000000,98845464.000000
128328718.000000,98941718.000000
128232464.000000,99067159.000000
128171956.000000,99213238.000000
128151318.000000,99370000.000000
128171956.000000,99526762.000000
128232464.000000,99672841.000000
128328718.000000,99798282.000000
128454159.000000,99894536.000000
128600238.000000,99955044.000000
128757000.000000,99975682.000000
128765188.000000,99974604.000000
128905574.000000,99956122.000000
128911749.000000,99955309.000000
128911751.000000,99955309.000000
128913762.000000,99955044.000000
128913803.000000,99955358.000000
128979843.000000,99956932.000000
129038637.000000,99996729.000000
129066582.000000,100061994.000000
129054807.000000,100132007.000000
129018176.000000,100176911.000000
128940267.000000,100236692.000000
128940264.000000,100236695.000000
128933718.000000,100241718.000000
128837464.000000,100367159.000000
128776956.000000,100513238.000000
128756318.000000,100670000.000000
128776956.000000,100826762.000000
128837464.000000,100972841.000000
128933718.000000,101098282.000000
128940264.000000,101103305.000000
128987204.000000,101139323.000000
129029071.000000,101196661.000000
129036500.000000,101239286.000000
129036500.000000,101656500.000000
129016498.000000,101724621.000000
128962842.000000,101771114.000000
128910500.000000,101782500.000000
126460017.000000,101782500.000000
126391896.000000,101762498.000000
126370922.000000,101745595.000000
125764650.000000,101139323.000000
125092709.000000,100467383.000000
125058684.000000,100405071.000000
125056882.000000,100361842.000000
125057045.000000,100360608.000000
125065682.000000,100295000.000000
125045044.000000,100138238.000000
124984536.000000,99992159.000000
124888282.000000,99866718.000000
124762841.000000,99770464.000000
124616762.000000,99709956.000000
124460000.000000,99689318.000000
124303238.000000,99709956.000000
124157159.000000,99770464.000000
124031718.000000,99866718.000000
124026695.000000,99873264.000000
123950069.000000,99973125.000000
123935464.000000,99992159.000000
123933805.000000,99996165.000000
123883739.000000,100043904.000000
123814026.000000,100057342.000000
123748114.000000,100030956.000000
123706931.000000,99973125.000000
123700000.000000,99931912.000000
123700000.000000,95576000.000000
123720002.000000,95507879.000000
123773658.000000,95461386.000000
123826000.000000,95450000.000000
125714094.000000,95450000.000000
Z" /> 
</g>
</g>
</g> 
</svg>
