%TF.GenerationSoftware,KiCad,Pcbnew,(5.99.0-12060-g1fa5e43597)*%
%TF.CreationDate,2021-10-09T22:14:02+02:00*%
%TF.ProjectId,dual_LT6105,6475616c-5f4c-4543-9631-30352e6b6963,rev?*%
%TF.SameCoordinates,Original*%
%TF.FileFunction,Legend,Top*%
%TF.FilePolarity,Positive*%
%FSLAX46Y46*%
G04 Gerber Fmt 4.6, Leading zero omitted, Abs format (unit mm)*
G04 Created by KiCad (PCBNEW (5.99.0-12060-g1fa5e43597)) date 2021-10-09 22:14:02*
%MOMM*%
%LPD*%
G01*
G04 APERTURE LIST*
%ADD10C,0.800000*%
%ADD11C,0.150000*%
%ADD12C,0.120000*%
G04 APERTURE END LIST*
D10*
X131650000Y-102750000D02*
G75*
G03*
X131650000Y-102750000I-400000J0D01*
G01*
D11*
%TO.C,U1*%
X128143095Y-96697380D02*
X128143095Y-97506904D01*
X128190714Y-97602142D01*
X128238333Y-97649761D01*
X128333571Y-97697380D01*
X128524047Y-97697380D01*
X128619285Y-97649761D01*
X128666904Y-97602142D01*
X128714523Y-97506904D01*
X128714523Y-96697380D01*
X129714523Y-97697380D02*
X129143095Y-97697380D01*
X129428809Y-97697380D02*
X129428809Y-96697380D01*
X129333571Y-96840238D01*
X129238333Y-96935476D01*
X129143095Y-96983095D01*
%TO.C,U2*%
X135763095Y-96697380D02*
X135763095Y-97506904D01*
X135810714Y-97602142D01*
X135858333Y-97649761D01*
X135953571Y-97697380D01*
X136144047Y-97697380D01*
X136239285Y-97649761D01*
X136286904Y-97602142D01*
X136334523Y-97506904D01*
X136334523Y-96697380D01*
X136763095Y-96792619D02*
X136810714Y-96745000D01*
X136905952Y-96697380D01*
X137144047Y-96697380D01*
X137239285Y-96745000D01*
X137286904Y-96792619D01*
X137334523Y-96887857D01*
X137334523Y-96983095D01*
X137286904Y-97125952D01*
X136715476Y-97697380D01*
X137334523Y-97697380D01*
%TO.C,OUT*%
X123947380Y-97901000D02*
X123947380Y-97710523D01*
X123995000Y-97615285D01*
X124090238Y-97520047D01*
X124280714Y-97472428D01*
X124614047Y-97472428D01*
X124804523Y-97520047D01*
X124899761Y-97615285D01*
X124947380Y-97710523D01*
X124947380Y-97901000D01*
X124899761Y-97996238D01*
X124804523Y-98091476D01*
X124614047Y-98139095D01*
X124280714Y-98139095D01*
X124090238Y-98091476D01*
X123995000Y-97996238D01*
X123947380Y-97901000D01*
X123947380Y-97043857D02*
X124756904Y-97043857D01*
X124852142Y-96996238D01*
X124899761Y-96948619D01*
X124947380Y-96853380D01*
X124947380Y-96662904D01*
X124899761Y-96567666D01*
X124852142Y-96520047D01*
X124756904Y-96472428D01*
X123947380Y-96472428D01*
X123947380Y-96139095D02*
X123947380Y-95567666D01*
X124947380Y-95853380D02*
X123947380Y-95853380D01*
%TO.C,C1*%
X140584333Y-102973142D02*
X140536714Y-103020761D01*
X140393857Y-103068380D01*
X140298619Y-103068380D01*
X140155761Y-103020761D01*
X140060523Y-102925523D01*
X140012904Y-102830285D01*
X139965285Y-102639809D01*
X139965285Y-102496952D01*
X140012904Y-102306476D01*
X140060523Y-102211238D01*
X140155761Y-102116000D01*
X140298619Y-102068380D01*
X140393857Y-102068380D01*
X140536714Y-102116000D01*
X140584333Y-102163619D01*
X141536714Y-103068380D02*
X140965285Y-103068380D01*
X141251000Y-103068380D02*
X141251000Y-102068380D01*
X141155761Y-102211238D01*
X141060523Y-102306476D01*
X140965285Y-102354095D01*
%TO.C,OUT*%
X140457380Y-97901000D02*
X140457380Y-97710523D01*
X140505000Y-97615285D01*
X140600238Y-97520047D01*
X140790714Y-97472428D01*
X141124047Y-97472428D01*
X141314523Y-97520047D01*
X141409761Y-97615285D01*
X141457380Y-97710523D01*
X141457380Y-97901000D01*
X141409761Y-97996238D01*
X141314523Y-98091476D01*
X141124047Y-98139095D01*
X140790714Y-98139095D01*
X140600238Y-98091476D01*
X140505000Y-97996238D01*
X140457380Y-97901000D01*
X140457380Y-97043857D02*
X141266904Y-97043857D01*
X141362142Y-96996238D01*
X141409761Y-96948619D01*
X141457380Y-96853380D01*
X141457380Y-96662904D01*
X141409761Y-96567666D01*
X141362142Y-96520047D01*
X141266904Y-96472428D01*
X140457380Y-96472428D01*
X140457380Y-96139095D02*
X140457380Y-95567666D01*
X141457380Y-95853380D02*
X140457380Y-95853380D01*
%TO.C,+*%
X135163047Y-101925428D02*
X135924952Y-101925428D01*
X135544000Y-102306380D02*
X135544000Y-101544476D01*
%TO.C,-*%
X129575047Y-101798428D02*
X130336952Y-101798428D01*
%TO.C,R1*%
X124582333Y-103195380D02*
X124249000Y-102719190D01*
X124010904Y-103195380D02*
X124010904Y-102195380D01*
X124391857Y-102195380D01*
X124487095Y-102243000D01*
X124534714Y-102290619D01*
X124582333Y-102385857D01*
X124582333Y-102528714D01*
X124534714Y-102623952D01*
X124487095Y-102671571D01*
X124391857Y-102719190D01*
X124010904Y-102719190D01*
X125534714Y-103195380D02*
X124963285Y-103195380D01*
X125249000Y-103195380D02*
X125249000Y-102195380D01*
X125153761Y-102338238D01*
X125058523Y-102433476D01*
X124963285Y-102481095D01*
D12*
%TO.C,U1*%
X128905000Y-101305000D02*
X130405000Y-101305000D01*
X128905000Y-98085000D02*
X125980000Y-98085000D01*
X128905000Y-98085000D02*
X130405000Y-98085000D01*
X128905000Y-101305000D02*
X127405000Y-101305000D01*
%TO.C,U2*%
X136525000Y-101305000D02*
X138025000Y-101305000D01*
X136525000Y-98085000D02*
X133600000Y-98085000D01*
X136525000Y-101305000D02*
X135025000Y-101305000D01*
X136525000Y-98085000D02*
X138025000Y-98085000D01*
%TO.C,J4*%
X135871000Y-95250000D02*
G75*
G03*
X135871000Y-95250000I-1251000J0D01*
G01*
%TO.C,C1*%
X137568748Y-103351000D02*
X138091252Y-103351000D01*
X137568748Y-101881000D02*
X138091252Y-101881000D01*
%TO.C,J6*%
X132061000Y-95250000D02*
G75*
G03*
X132061000Y-95250000I-1251000J0D01*
G01*
%TO.C,J3*%
X128251000Y-95250000D02*
G75*
G03*
X128251000Y-95250000I-1251000J0D01*
G01*
%TO.C,J5*%
X139681000Y-95250000D02*
G75*
G03*
X139681000Y-95250000I-1251000J0D01*
G01*
%TO.C,R1*%
X127315936Y-101881000D02*
X127770064Y-101881000D01*
X127315936Y-103351000D02*
X127770064Y-103351000D01*
%TD*%
M02*
