%TF.GenerationSoftware,KiCad,Pcbnew,(5.99.0-12060-g1fa5e43597)*%
%TF.CreationDate,2021-10-09T22:14:02+02:00*%
%TF.ProjectId,dual_LT6105,6475616c-5f4c-4543-9631-30352e6b6963,rev?*%
%TF.SameCoordinates,Original*%
%TF.FileFunction,Copper,L1,Top*%
%TF.FilePolarity,Positive*%
%FSLAX46Y46*%
G04 Gerber Fmt 4.6, Leading zero omitted, Abs format (unit mm)*
G04 Created by KiCad (PCBNEW (5.99.0-12060-g1fa5e43597)) date 2021-10-09 22:14:02*
%MOMM*%
%LPD*%
G01*
G04 APERTURE LIST*
G04 Aperture macros list*
%AMRoundRect*
0 Rectangle with rounded corners*
0 $1 Rounding radius*
0 $2 $3 $4 $5 $6 $7 $8 $9 X,Y pos of 4 corners*
0 Add a 4 corners polygon primitive as box body*
4,1,4,$2,$3,$4,$5,$6,$7,$8,$9,$2,$3,0*
0 Add four circle primitives for the rounded corners*
1,1,$1+$1,$2,$3*
1,1,$1+$1,$4,$5*
1,1,$1+$1,$6,$7*
1,1,$1+$1,$8,$9*
0 Add four rect primitives between the rounded corners*
20,1,$1+$1,$2,$3,$4,$5,0*
20,1,$1+$1,$4,$5,$6,$7,0*
20,1,$1+$1,$6,$7,$8,$9,0*
20,1,$1+$1,$8,$9,$2,$3,0*%
G04 Aperture macros list end*
%TA.AperFunction,SMDPad,CuDef*%
%ADD10RoundRect,0.100000X-0.712500X-0.100000X0.712500X-0.100000X0.712500X0.100000X-0.712500X0.100000X0*%
%TD*%
%TA.AperFunction,ComponentPad*%
%ADD11C,2.000000*%
%TD*%
%TA.AperFunction,SMDPad,CuDef*%
%ADD12C,1.524000*%
%TD*%
%TA.AperFunction,SMDPad,CuDef*%
%ADD13RoundRect,0.250000X-0.337500X-0.475000X0.337500X-0.475000X0.337500X0.475000X-0.337500X0.475000X0*%
%TD*%
%TA.AperFunction,SMDPad,CuDef*%
%ADD14RoundRect,0.250000X-0.350000X-0.450000X0.350000X-0.450000X0.350000X0.450000X-0.350000X0.450000X0*%
%TD*%
%TA.AperFunction,ViaPad*%
%ADD15C,0.800000*%
%TD*%
%TA.AperFunction,Conductor*%
%ADD16C,0.250000*%
%TD*%
G04 APERTURE END LIST*
D10*
%TO.P,U1,1,-*%
%TO.N,Net-(J4-Pad1)*%
X126792500Y-98720000D03*
%TO.P,U1,2,V+*%
%TO.N,VCC*%
X126792500Y-99370000D03*
%TO.P,U1,3*%
%TO.N,N/C*%
X126792500Y-100020000D03*
%TO.P,U1,4,V-*%
%TO.N,GND*%
X126792500Y-100670000D03*
%TO.P,U1,5*%
%TO.N,Net-(J7-Pad1)*%
X131017500Y-100670000D03*
%TO.P,U1,6*%
%TO.N,N/C*%
X131017500Y-100020000D03*
%TO.P,U1,7*%
X131017500Y-99370000D03*
%TO.P,U1,8,+*%
%TO.N,Net-(J3-Pad1)*%
X131017500Y-98720000D03*
%TD*%
%TO.P,U2,1,-*%
%TO.N,Net-(J6-Pad1)*%
X134412500Y-98720000D03*
%TO.P,U2,2,V+*%
%TO.N,VCC*%
X134412500Y-99370000D03*
%TO.P,U2,3*%
%TO.N,N/C*%
X134412500Y-100020000D03*
%TO.P,U2,4,V-*%
%TO.N,GND*%
X134412500Y-100670000D03*
%TO.P,U2,5*%
%TO.N,Net-(J7-Pad1)*%
X138637500Y-100670000D03*
%TO.P,U2,6*%
%TO.N,N/C*%
X138637500Y-100020000D03*
%TO.P,U2,7*%
X138637500Y-99370000D03*
%TO.P,U2,8,+*%
%TO.N,Net-(J5-Pad1)*%
X138637500Y-98720000D03*
%TD*%
D11*
%TO.P,J4,1,Pin_1*%
%TO.N,Net-(J4-Pad1)*%
X134620000Y-95250000D03*
%TD*%
D12*
%TO.P,OUT,1,Pin_1*%
%TO.N,Net-(J7-Pad1)*%
X124460000Y-99060000D03*
%TD*%
D13*
%TO.P,C1,1*%
%TO.N,VCC*%
X136792500Y-102616000D03*
%TO.P,C1,2*%
%TO.N,GND*%
X138867500Y-102616000D03*
%TD*%
D11*
%TO.P,J6,1,Pin_1*%
%TO.N,Net-(J6-Pad1)*%
X130810000Y-95250000D03*
%TD*%
D12*
%TO.P,OUT,1,Pin_1*%
%TO.N,Net-(J7-Pad1)*%
X140970000Y-99060000D03*
%TD*%
%TO.P,+,1,Pin_1*%
%TO.N,VCC*%
X134250000Y-102750000D03*
%TD*%
D11*
%TO.P,J3,1,Pin_1*%
%TO.N,Net-(J3-Pad1)*%
X127000000Y-95250000D03*
%TD*%
%TO.P,J5,1,Pin_1*%
%TO.N,Net-(J5-Pad1)*%
X138430000Y-95250000D03*
%TD*%
D12*
%TO.P,-,1,Pin_1*%
%TO.N,GND*%
X131250000Y-102750000D03*
%TD*%
D14*
%TO.P,R1,1*%
%TO.N,Net-(J7-Pad1)*%
X126543000Y-102616000D03*
%TO.P,R1,2*%
%TO.N,GND*%
X128543000Y-102616000D03*
%TD*%
D15*
%TO.N,VCC*%
X136377000Y-99370000D03*
X128757000Y-99370000D03*
%TO.N,GND*%
X141005000Y-101727000D03*
X132765500Y-101234500D03*
%TO.N,Net-(J4-Pad1)*%
X125476000Y-97282000D03*
%TO.N,Net-(J7-Pad1)*%
X141005000Y-100584000D03*
X129362000Y-100670000D03*
X124460000Y-102073000D03*
%TD*%
D16*
%TO.N,VCC*%
X134412500Y-99370000D02*
X136377000Y-99370000D01*
X136377000Y-100623000D02*
X136377000Y-99370000D01*
%TO.N,Net-(J7-Pad1)*%
X129362000Y-100670000D02*
X131017500Y-100670000D01*
X124460000Y-102073000D02*
X124460000Y-99060000D01*
X126543000Y-102616000D02*
X125003000Y-102616000D01*
X125003000Y-102616000D02*
X124460000Y-102073000D01*
%TO.N,VCC*%
X128757000Y-99370000D02*
X126792500Y-99370000D01*
X136377000Y-100623000D02*
X136792500Y-101038500D01*
X136792500Y-101038500D02*
X136792500Y-102616000D01*
X128757000Y-99370000D02*
X128813000Y-99314000D01*
X136792500Y-102616000D02*
X134384000Y-102616000D01*
X134384000Y-102616000D02*
X134250000Y-102750000D01*
%TO.N,GND*%
X138867500Y-102616000D02*
X140243000Y-102616000D01*
X128010000Y-100670000D02*
X128543000Y-101203000D01*
X128543000Y-101203000D02*
X128543000Y-101616000D01*
X128543000Y-101489000D02*
X128543000Y-101616000D01*
X128686000Y-101346000D02*
X128543000Y-101489000D01*
X134412500Y-100670000D02*
X133330000Y-100670000D01*
X128543000Y-101616000D02*
X128543000Y-102616000D01*
X140243000Y-102616000D02*
X141005000Y-101854000D01*
X141005000Y-101854000D02*
X141005000Y-101727000D01*
X129846000Y-101346000D02*
X128686000Y-101346000D01*
X126792500Y-100670000D02*
X128010000Y-100670000D01*
X128686000Y-101346000D02*
X128543000Y-101203000D01*
X133330000Y-100670000D02*
X131250000Y-102750000D01*
X131250000Y-102750000D02*
X129846000Y-101346000D01*
%TO.N,Net-(J3-Pad1)*%
X129835000Y-98720000D02*
X127000000Y-95885000D01*
X127000000Y-95885000D02*
X127000000Y-95375020D01*
X131017500Y-98720000D02*
X129835000Y-98720000D01*
%TO.N,Net-(J4-Pad1)*%
X125476000Y-98298000D02*
X125476000Y-97282000D01*
X126792500Y-98720000D02*
X125898000Y-98720000D01*
X125898000Y-98720000D02*
X125476000Y-98298000D01*
%TO.N,Net-(J5-Pad1)*%
X137160000Y-98425000D02*
X137160000Y-96520000D01*
X137455000Y-98720000D02*
X137160000Y-98425000D01*
X138637500Y-98720000D02*
X137455000Y-98720000D01*
X138304980Y-95375020D02*
X138430000Y-95375020D01*
X137160000Y-96520000D02*
X138304980Y-95375020D01*
%TO.N,Net-(J6-Pad1)*%
X133010000Y-98720000D02*
X132715000Y-98425000D01*
X132715000Y-98425000D02*
X132715000Y-97155000D01*
X134412500Y-98720000D02*
X133010000Y-98720000D01*
X130935020Y-95375020D02*
X130810000Y-95375020D01*
X132715000Y-97155000D02*
X130935020Y-95375020D01*
%TO.N,Net-(J7-Pad1)*%
X140970000Y-99060000D02*
X140970000Y-100203000D01*
X129362000Y-100670000D02*
X129321000Y-100711000D01*
X140919000Y-100670000D02*
X140970000Y-100619000D01*
X140503000Y-100670000D02*
X140919000Y-100670000D01*
X140970000Y-100203000D02*
X140970000Y-100619000D01*
X124882000Y-98720000D02*
X124841000Y-98679000D01*
X140503000Y-100670000D02*
X138637500Y-100670000D01*
%TD*%
%TA.AperFunction,Conductor*%
%TO.N,GND*%
G36*
X129592215Y-95470002D02*
G01*
X129638708Y-95523658D01*
X129646217Y-95544984D01*
X129673511Y-95652452D01*
X129675928Y-95657694D01*
X129675928Y-95657695D01*
X129714046Y-95740379D01*
X129765883Y-95852821D01*
X129893222Y-96033002D01*
X130051264Y-96186961D01*
X130056060Y-96190166D01*
X130056063Y-96190168D01*
X130188377Y-96278577D01*
X130234717Y-96309540D01*
X130240020Y-96311818D01*
X130240023Y-96311820D01*
X130431615Y-96394134D01*
X130437436Y-96396635D01*
X130483044Y-96406955D01*
X130646995Y-96444054D01*
X130647001Y-96444055D01*
X130652632Y-96445329D01*
X130658403Y-96445556D01*
X130658405Y-96445556D01*
X130726211Y-96448220D01*
X130873098Y-96453991D01*
X130982275Y-96438161D01*
X131085738Y-96423160D01*
X131085743Y-96423159D01*
X131091452Y-96422331D01*
X131096916Y-96420476D01*
X131096921Y-96420475D01*
X131294907Y-96353268D01*
X131294912Y-96353266D01*
X131300379Y-96351410D01*
X131313765Y-96343913D01*
X131382970Y-96328079D01*
X131449753Y-96352174D01*
X131464426Y-96364752D01*
X132352595Y-97252921D01*
X132386621Y-97315233D01*
X132389500Y-97342016D01*
X132389500Y-98405290D01*
X132389020Y-98416272D01*
X132385736Y-98453807D01*
X132388590Y-98464456D01*
X132395491Y-98490210D01*
X132397870Y-98500942D01*
X132404412Y-98538045D01*
X132409923Y-98547590D01*
X132411115Y-98550866D01*
X132412592Y-98554034D01*
X132415446Y-98564684D01*
X132425531Y-98579086D01*
X132437055Y-98595544D01*
X132442961Y-98604815D01*
X132456293Y-98627906D01*
X132461806Y-98637455D01*
X132470251Y-98644541D01*
X132490682Y-98661685D01*
X132498785Y-98669111D01*
X132765889Y-98936215D01*
X132773316Y-98944319D01*
X132797545Y-98973194D01*
X132807094Y-98978707D01*
X132830185Y-98992039D01*
X132839453Y-98997943D01*
X132870316Y-99019554D01*
X132880966Y-99022408D01*
X132884134Y-99023885D01*
X132887410Y-99025077D01*
X132896955Y-99030588D01*
X132930699Y-99036538D01*
X132934058Y-99037130D01*
X132944785Y-99039508D01*
X132981193Y-99049264D01*
X132992178Y-99048303D01*
X132992180Y-99048303D01*
X133018728Y-99045980D01*
X133029710Y-99045500D01*
X133281045Y-99045500D01*
X133349166Y-99065502D01*
X133395659Y-99119158D01*
X133405763Y-99189432D01*
X133404651Y-99194795D01*
X133402494Y-99199673D01*
X133399500Y-99225354D01*
X133399500Y-99514646D01*
X133402618Y-99540846D01*
X133406456Y-99549486D01*
X133406456Y-99549487D01*
X133448061Y-99643153D01*
X133444199Y-99644868D01*
X133459353Y-99691146D01*
X133445046Y-99746088D01*
X133447759Y-99747287D01*
X133402494Y-99849673D01*
X133399500Y-99875354D01*
X133399500Y-99972079D01*
X133379498Y-100040200D01*
X133350205Y-100072041D01*
X133272917Y-100131347D01*
X133261344Y-100142920D01*
X133173941Y-100256824D01*
X133165753Y-100271007D01*
X133110811Y-100403649D01*
X133106572Y-100419469D01*
X133102284Y-100452040D01*
X133104495Y-100466222D01*
X133117652Y-100470000D01*
X135706965Y-100470000D01*
X135720736Y-100465956D01*
X135722765Y-100452417D01*
X135718428Y-100419467D01*
X135714190Y-100403652D01*
X135659247Y-100271007D01*
X135651059Y-100256824D01*
X135563656Y-100142920D01*
X135552083Y-100131347D01*
X135474795Y-100072041D01*
X135432928Y-100014703D01*
X135425500Y-99972079D01*
X135425500Y-99875354D01*
X135425002Y-99871165D01*
X135423499Y-99858541D01*
X135422382Y-99849154D01*
X135422596Y-99849129D01*
X135423730Y-99783905D01*
X135463147Y-99724855D01*
X135528230Y-99696490D01*
X135543991Y-99695500D01*
X135807714Y-99695500D01*
X135875835Y-99715502D01*
X135907677Y-99744796D01*
X135948718Y-99798282D01*
X135955264Y-99803305D01*
X136002204Y-99839323D01*
X136044071Y-99896661D01*
X136051500Y-99939286D01*
X136051500Y-100603290D01*
X136051020Y-100614272D01*
X136047736Y-100651807D01*
X136057491Y-100688210D01*
X136059870Y-100698942D01*
X136066412Y-100736045D01*
X136071923Y-100745590D01*
X136073115Y-100748866D01*
X136074592Y-100752034D01*
X136077446Y-100762684D01*
X136083770Y-100771715D01*
X136099055Y-100793544D01*
X136104961Y-100802815D01*
X136109677Y-100810983D01*
X136123806Y-100835455D01*
X136132251Y-100842541D01*
X136152682Y-100859685D01*
X136160785Y-100867111D01*
X136430095Y-101136421D01*
X136464121Y-101198733D01*
X136467000Y-101225516D01*
X136467000Y-101571720D01*
X136446998Y-101639841D01*
X136393342Y-101686334D01*
X136372839Y-101693178D01*
X136369631Y-101693481D01*
X136362393Y-101696023D01*
X136362392Y-101696023D01*
X136342533Y-101702997D01*
X136241816Y-101738366D01*
X136234246Y-101743958D01*
X136234243Y-101743959D01*
X136181567Y-101782867D01*
X136132850Y-101818850D01*
X136127258Y-101826421D01*
X136057959Y-101920243D01*
X136057958Y-101920246D01*
X136052366Y-101927816D01*
X136007481Y-102055631D01*
X136004500Y-102087166D01*
X136004500Y-102164500D01*
X135984498Y-102232621D01*
X135930842Y-102279114D01*
X135878500Y-102290500D01*
X135171534Y-102290500D01*
X135103413Y-102270498D01*
X135060281Y-102223651D01*
X135058459Y-102220224D01*
X135055566Y-102214783D01*
X134936266Y-102068508D01*
X134929521Y-102062928D01*
X134795577Y-101952120D01*
X134795574Y-101952118D01*
X134790827Y-101948191D01*
X134624788Y-101858414D01*
X134444474Y-101802597D01*
X134438356Y-101801954D01*
X134438351Y-101801953D01*
X134262881Y-101783511D01*
X134262879Y-101783511D01*
X134256752Y-101782867D01*
X134141126Y-101793390D01*
X134074914Y-101799415D01*
X134074913Y-101799415D01*
X134068773Y-101799974D01*
X133887697Y-101853268D01*
X133882232Y-101856125D01*
X133728108Y-101936699D01*
X133720420Y-101940718D01*
X133573316Y-102058993D01*
X133451986Y-102203588D01*
X133361052Y-102368996D01*
X133303978Y-102548917D01*
X133303292Y-102555036D01*
X133303291Y-102555039D01*
X133291737Y-102658044D01*
X133282937Y-102736496D01*
X133283453Y-102742639D01*
X133296159Y-102893945D01*
X133298732Y-102924590D01*
X133300431Y-102930515D01*
X133339711Y-103067500D01*
X133350760Y-103106034D01*
X133382977Y-103168722D01*
X133418206Y-103237269D01*
X133437040Y-103273917D01*
X133440867Y-103278746D01*
X133440868Y-103278747D01*
X133493962Y-103345735D01*
X133520600Y-103411545D01*
X133507429Y-103481310D01*
X133458632Y-103532879D01*
X133395217Y-103550000D01*
X132476024Y-103550000D01*
X132407903Y-103529998D01*
X132361410Y-103476342D01*
X132351306Y-103406068D01*
X132361829Y-103370750D01*
X132445645Y-103191007D01*
X132449391Y-103180715D01*
X132504059Y-102976691D01*
X132505962Y-102965896D01*
X132524372Y-102755475D01*
X132524372Y-102744525D01*
X132505962Y-102534104D01*
X132504059Y-102523309D01*
X132449391Y-102319285D01*
X132445645Y-102308993D01*
X132356377Y-102117559D01*
X132350897Y-102108068D01*
X132320206Y-102064235D01*
X132309729Y-102055860D01*
X132296282Y-102062928D01*
X131339095Y-103020115D01*
X131276783Y-103054141D01*
X131205968Y-103049076D01*
X131160905Y-103020115D01*
X130202997Y-102062207D01*
X130191223Y-102055777D01*
X130179207Y-102065074D01*
X130149103Y-102108068D01*
X130143623Y-102117559D01*
X130054355Y-102308993D01*
X130050609Y-102319285D01*
X129995941Y-102523309D01*
X129994038Y-102534104D01*
X129975628Y-102744525D01*
X129975628Y-102755475D01*
X129994038Y-102965896D01*
X129995941Y-102976691D01*
X130050609Y-103180715D01*
X130054355Y-103191007D01*
X130138171Y-103370750D01*
X130148832Y-103440942D01*
X130119852Y-103505754D01*
X130060432Y-103544611D01*
X130023976Y-103550000D01*
X129705642Y-103550000D01*
X129637521Y-103529998D01*
X129591028Y-103476342D01*
X129580924Y-103406068D01*
X129586049Y-103384333D01*
X129638137Y-103227293D01*
X129641005Y-103213914D01*
X129650672Y-103119562D01*
X129651000Y-103113146D01*
X129651000Y-102888115D01*
X129646525Y-102872876D01*
X129645135Y-102871671D01*
X129637452Y-102870000D01*
X128415000Y-102870000D01*
X128346879Y-102849998D01*
X128300386Y-102796342D01*
X128289000Y-102744000D01*
X128289000Y-101426116D01*
X128284525Y-101410877D01*
X128283135Y-101409672D01*
X128275452Y-101408001D01*
X128145905Y-101408001D01*
X128139388Y-101408338D01*
X128038445Y-101418812D01*
X127968623Y-101405947D01*
X127916841Y-101357376D01*
X127899539Y-101288520D01*
X127922209Y-101221241D01*
X127936346Y-101204390D01*
X127943656Y-101197080D01*
X128031059Y-101083176D01*
X128039247Y-101068993D01*
X128094189Y-100936351D01*
X128098428Y-100920531D01*
X128102716Y-100887960D01*
X128100505Y-100873778D01*
X128087348Y-100870000D01*
X127010615Y-100870000D01*
X126995376Y-100874475D01*
X126994171Y-100875865D01*
X126992500Y-100883548D01*
X126992500Y-101359884D01*
X126996975Y-101375123D01*
X126998365Y-101376328D01*
X127006048Y-101377999D01*
X127540723Y-101377999D01*
X127548933Y-101377461D01*
X127596102Y-101371251D01*
X127666251Y-101382190D01*
X127719349Y-101429319D01*
X127738539Y-101497673D01*
X127717728Y-101565550D01*
X127701721Y-101585191D01*
X127599261Y-101687829D01*
X127590249Y-101699240D01*
X127505184Y-101837243D01*
X127499037Y-101850424D01*
X127489091Y-101880410D01*
X127448660Y-101938770D01*
X127383096Y-101966006D01*
X127313214Y-101953472D01*
X127268147Y-101915601D01*
X127220745Y-101851424D01*
X127220742Y-101851421D01*
X127215150Y-101843850D01*
X127172358Y-101812243D01*
X127113757Y-101768959D01*
X127113754Y-101768958D01*
X127106184Y-101763366D01*
X126978369Y-101718481D01*
X126970723Y-101717758D01*
X126970722Y-101717758D01*
X126964752Y-101717194D01*
X126946834Y-101715500D01*
X126139166Y-101715500D01*
X126121248Y-101717194D01*
X126115278Y-101717758D01*
X126115277Y-101717758D01*
X126107631Y-101718481D01*
X125979816Y-101763366D01*
X125972246Y-101768958D01*
X125972243Y-101768959D01*
X125913642Y-101812243D01*
X125870850Y-101843850D01*
X125861438Y-101856593D01*
X125795959Y-101945243D01*
X125795958Y-101945246D01*
X125790366Y-101952816D01*
X125745481Y-102080631D01*
X125742500Y-102112166D01*
X125742500Y-102164500D01*
X125722498Y-102232621D01*
X125668842Y-102279114D01*
X125616500Y-102290500D01*
X125190016Y-102290500D01*
X125121895Y-102270498D01*
X125100921Y-102253595D01*
X125092709Y-102245383D01*
X125058683Y-102183071D01*
X125056882Y-102139842D01*
X125059639Y-102118905D01*
X125065682Y-102073000D01*
X125045044Y-101916238D01*
X124984536Y-101770159D01*
X124888282Y-101644718D01*
X124834796Y-101603677D01*
X124792929Y-101546339D01*
X124785500Y-101503714D01*
X124785500Y-100887583D01*
X125482235Y-100887583D01*
X125486572Y-100920533D01*
X125490810Y-100936348D01*
X125545753Y-101068993D01*
X125553941Y-101083176D01*
X125641344Y-101197080D01*
X125652920Y-101208656D01*
X125766824Y-101296059D01*
X125781007Y-101304247D01*
X125913650Y-101359190D01*
X125929468Y-101363428D01*
X126036066Y-101377462D01*
X126044275Y-101378000D01*
X126574385Y-101378000D01*
X126589624Y-101373525D01*
X126590829Y-101372135D01*
X126592500Y-101364452D01*
X126592500Y-100888115D01*
X126588025Y-100872876D01*
X126586635Y-100871671D01*
X126578952Y-100870000D01*
X125498035Y-100870000D01*
X125484264Y-100874044D01*
X125482235Y-100887583D01*
X124785500Y-100887583D01*
X124785500Y-100051467D01*
X124805502Y-99983346D01*
X124854689Y-99939002D01*
X124978229Y-99876598D01*
X125126970Y-99760388D01*
X125130996Y-99755724D01*
X125130999Y-99755721D01*
X125246278Y-99622169D01*
X125246279Y-99622167D01*
X125250307Y-99617501D01*
X125343542Y-99453378D01*
X125403123Y-99274272D01*
X125426780Y-99087005D01*
X125427157Y-99060000D01*
X125423392Y-99021602D01*
X125436651Y-98951855D01*
X125485514Y-98900348D01*
X125554467Y-98883435D01*
X125621617Y-98906485D01*
X125637886Y-98920212D01*
X125653889Y-98936215D01*
X125661316Y-98944319D01*
X125685545Y-98973194D01*
X125695094Y-98978707D01*
X125718185Y-98992039D01*
X125727453Y-98997943D01*
X125752731Y-99015643D01*
X125797058Y-99071099D01*
X125804367Y-99141718D01*
X125795700Y-99169801D01*
X125786325Y-99191007D01*
X125782494Y-99199673D01*
X125779500Y-99225354D01*
X125779500Y-99514646D01*
X125782618Y-99540846D01*
X125786456Y-99549486D01*
X125786456Y-99549487D01*
X125828061Y-99643153D01*
X125824199Y-99644868D01*
X125839353Y-99691146D01*
X125825046Y-99746088D01*
X125827759Y-99747287D01*
X125782494Y-99849673D01*
X125779500Y-99875354D01*
X125779500Y-99972079D01*
X125759498Y-100040200D01*
X125730205Y-100072041D01*
X125652917Y-100131347D01*
X125641344Y-100142920D01*
X125553941Y-100256824D01*
X125545753Y-100271007D01*
X125490811Y-100403649D01*
X125486572Y-100419469D01*
X125482284Y-100452040D01*
X125484495Y-100466222D01*
X125497652Y-100470000D01*
X128086965Y-100470000D01*
X128100736Y-100465956D01*
X128102765Y-100452417D01*
X128098428Y-100419467D01*
X128094190Y-100403652D01*
X128039247Y-100271007D01*
X128031059Y-100256824D01*
X127943656Y-100142920D01*
X127932083Y-100131347D01*
X127854795Y-100072041D01*
X127812928Y-100014703D01*
X127805500Y-99972079D01*
X127805500Y-99875354D01*
X127805002Y-99871165D01*
X127803499Y-99858541D01*
X127802382Y-99849154D01*
X127802596Y-99849129D01*
X127803730Y-99783905D01*
X127843147Y-99724855D01*
X127908230Y-99696490D01*
X127923991Y-99695500D01*
X128187714Y-99695500D01*
X128255835Y-99715502D01*
X128287677Y-99744796D01*
X128328718Y-99798282D01*
X128454159Y-99894536D01*
X128600238Y-99955044D01*
X128757000Y-99975682D01*
X128765188Y-99974604D01*
X128784368Y-99972079D01*
X128911749Y-99955309D01*
X128911751Y-99955309D01*
X128913762Y-99955044D01*
X128913803Y-99955358D01*
X128979843Y-99956932D01*
X129038637Y-99996729D01*
X129066582Y-100061994D01*
X129054807Y-100132007D01*
X129018176Y-100176911D01*
X128940267Y-100236692D01*
X128940264Y-100236695D01*
X128933718Y-100241718D01*
X128837464Y-100367159D01*
X128776956Y-100513238D01*
X128756318Y-100670000D01*
X128776956Y-100826762D01*
X128837464Y-100972841D01*
X128933718Y-101098282D01*
X128940264Y-101103305D01*
X129045392Y-101183972D01*
X129087259Y-101241310D01*
X129091481Y-101312181D01*
X129056717Y-101374084D01*
X128994005Y-101407365D01*
X128955845Y-101409279D01*
X128946560Y-101408328D01*
X128940145Y-101408000D01*
X128815115Y-101408000D01*
X128799876Y-101412475D01*
X128798671Y-101413865D01*
X128797000Y-101421548D01*
X128797000Y-102343885D01*
X128801475Y-102359124D01*
X128802865Y-102360329D01*
X128810548Y-102362000D01*
X129632884Y-102362000D01*
X129648123Y-102357525D01*
X129649328Y-102356135D01*
X129650999Y-102348452D01*
X129650999Y-102118905D01*
X129650662Y-102112386D01*
X129640743Y-102016794D01*
X129637851Y-102003400D01*
X129586412Y-101849216D01*
X129580239Y-101836038D01*
X129494937Y-101698193D01*
X129488658Y-101690271D01*
X130555860Y-101690271D01*
X130562928Y-101703718D01*
X131237188Y-102377978D01*
X131251132Y-102385592D01*
X131252965Y-102385461D01*
X131259580Y-102381210D01*
X131937793Y-101702997D01*
X131944223Y-101691223D01*
X131934926Y-101679207D01*
X131891931Y-101649102D01*
X131882445Y-101643624D01*
X131691007Y-101554355D01*
X131680715Y-101550609D01*
X131476691Y-101495941D01*
X131465896Y-101494038D01*
X131255475Y-101475628D01*
X131244525Y-101475628D01*
X131034104Y-101494038D01*
X131023309Y-101495941D01*
X130819285Y-101550609D01*
X130808993Y-101554355D01*
X130617559Y-101643623D01*
X130608068Y-101649103D01*
X130564235Y-101679794D01*
X130555860Y-101690271D01*
X129488658Y-101690271D01*
X129485901Y-101686792D01*
X129371171Y-101572261D01*
X129359757Y-101563247D01*
X129267321Y-101506269D01*
X129219827Y-101453497D01*
X129208403Y-101383426D01*
X129236677Y-101318302D01*
X129295671Y-101278802D01*
X129349878Y-101274086D01*
X129362000Y-101275682D01*
X129370188Y-101274604D01*
X129510574Y-101256122D01*
X129518762Y-101255044D01*
X129664841Y-101194536D01*
X129754082Y-101126059D01*
X129783736Y-101103305D01*
X129790282Y-101098282D01*
X129831323Y-101044796D01*
X129888661Y-101002929D01*
X129931286Y-100995500D01*
X130057999Y-100995500D01*
X130126849Y-101016812D01*
X130132287Y-101022241D01*
X130234673Y-101067506D01*
X130260354Y-101070500D01*
X131774646Y-101070500D01*
X131778350Y-101070059D01*
X131778353Y-101070059D01*
X131787309Y-101068993D01*
X131800846Y-101067382D01*
X131821496Y-101058210D01*
X131892518Y-101026663D01*
X131903153Y-101021939D01*
X131912794Y-101012282D01*
X131959782Y-100965211D01*
X131982241Y-100942713D01*
X132006448Y-100887960D01*
X132006615Y-100887583D01*
X133102235Y-100887583D01*
X133106572Y-100920533D01*
X133110810Y-100936348D01*
X133165753Y-101068993D01*
X133173941Y-101083176D01*
X133261344Y-101197080D01*
X133272920Y-101208656D01*
X133386824Y-101296059D01*
X133401007Y-101304247D01*
X133533650Y-101359190D01*
X133549468Y-101363428D01*
X133656066Y-101377462D01*
X133664275Y-101378000D01*
X134194385Y-101378000D01*
X134209624Y-101373525D01*
X134210829Y-101372135D01*
X134212500Y-101364452D01*
X134212500Y-100888115D01*
X134211159Y-100883548D01*
X134612500Y-100883548D01*
X134612500Y-101359884D01*
X134616975Y-101375123D01*
X134618365Y-101376328D01*
X134626048Y-101377999D01*
X135160723Y-101377999D01*
X135168935Y-101377461D01*
X135275533Y-101363428D01*
X135291348Y-101359190D01*
X135423993Y-101304247D01*
X135438176Y-101296059D01*
X135552080Y-101208656D01*
X135563656Y-101197080D01*
X135651059Y-101083176D01*
X135659247Y-101068993D01*
X135714189Y-100936351D01*
X135718428Y-100920531D01*
X135722716Y-100887960D01*
X135720505Y-100873778D01*
X135707348Y-100870000D01*
X134630615Y-100870000D01*
X134615376Y-100874475D01*
X134614171Y-100875865D01*
X134612500Y-100883548D01*
X134211159Y-100883548D01*
X134208025Y-100872876D01*
X134206635Y-100871671D01*
X134198952Y-100870000D01*
X133118035Y-100870000D01*
X133104264Y-100874044D01*
X133102235Y-100887583D01*
X132006615Y-100887583D01*
X132023675Y-100848992D01*
X132027506Y-100840327D01*
X132030500Y-100814646D01*
X132030500Y-100525354D01*
X132027382Y-100499154D01*
X131981939Y-100396847D01*
X131985801Y-100395132D01*
X131970647Y-100348854D01*
X131984954Y-100293912D01*
X131982241Y-100292713D01*
X132023675Y-100198992D01*
X132027506Y-100190327D01*
X132030500Y-100164646D01*
X132030500Y-99875354D01*
X132030002Y-99871165D01*
X132028499Y-99858541D01*
X132027382Y-99849154D01*
X132021188Y-99835208D01*
X131981939Y-99746847D01*
X131985801Y-99745132D01*
X131970647Y-99698854D01*
X131984954Y-99643912D01*
X131982241Y-99642713D01*
X132027506Y-99540327D01*
X132030500Y-99514646D01*
X132030500Y-99225354D01*
X132027382Y-99199154D01*
X131981939Y-99096847D01*
X131985801Y-99095132D01*
X131970647Y-99048854D01*
X131984954Y-98993912D01*
X131982241Y-98992713D01*
X131988433Y-98978707D01*
X132027506Y-98890327D01*
X132030500Y-98864646D01*
X132030500Y-98575354D01*
X132027382Y-98549154D01*
X132017627Y-98527191D01*
X131986663Y-98457482D01*
X131981939Y-98446847D01*
X131902713Y-98367759D01*
X131892076Y-98363056D01*
X131892074Y-98363055D01*
X131810698Y-98327079D01*
X131800327Y-98322494D01*
X131774646Y-98319500D01*
X130260354Y-98319500D01*
X130256650Y-98319941D01*
X130256647Y-98319941D01*
X130249254Y-98320821D01*
X130234154Y-98322618D01*
X130225514Y-98326456D01*
X130225513Y-98326456D01*
X130200771Y-98337446D01*
X130131847Y-98368061D01*
X130126763Y-98373154D01*
X130058015Y-98394500D01*
X130022017Y-98394500D01*
X129953896Y-98374498D01*
X129932922Y-98357595D01*
X128917343Y-97342016D01*
X127853903Y-96278577D01*
X127819878Y-96216265D01*
X127824942Y-96145450D01*
X127852528Y-96102526D01*
X127852518Y-96102518D01*
X127852586Y-96102436D01*
X127993602Y-95932884D01*
X128101410Y-95740379D01*
X128103266Y-95734912D01*
X128103268Y-95734907D01*
X128157209Y-95576000D01*
X128170957Y-95535498D01*
X128211794Y-95477423D01*
X128277547Y-95450644D01*
X128290270Y-95450000D01*
X129524094Y-95450000D01*
X129592215Y-95470002D01*
G37*
%TD.AperFunction*%
%TA.AperFunction,Conductor*%
G36*
X133402215Y-95470002D02*
G01*
X133448708Y-95523658D01*
X133456217Y-95544984D01*
X133483511Y-95652452D01*
X133485928Y-95657694D01*
X133485928Y-95657695D01*
X133524046Y-95740379D01*
X133575883Y-95852821D01*
X133703222Y-96033002D01*
X133861264Y-96186961D01*
X133866060Y-96190166D01*
X133866063Y-96190168D01*
X133998377Y-96278577D01*
X134044717Y-96309540D01*
X134050020Y-96311818D01*
X134050023Y-96311820D01*
X134241615Y-96394134D01*
X134247436Y-96396635D01*
X134293044Y-96406955D01*
X134456995Y-96444054D01*
X134457001Y-96444055D01*
X134462632Y-96445329D01*
X134468403Y-96445556D01*
X134468405Y-96445556D01*
X134536211Y-96448220D01*
X134683098Y-96453991D01*
X134792275Y-96438161D01*
X134895738Y-96423160D01*
X134895743Y-96423159D01*
X134901452Y-96422331D01*
X134906916Y-96420476D01*
X134906921Y-96420475D01*
X135104907Y-96353268D01*
X135104912Y-96353266D01*
X135110379Y-96351410D01*
X135121922Y-96344946D01*
X135190875Y-96306330D01*
X135302884Y-96243602D01*
X135377157Y-96181830D01*
X135468086Y-96106204D01*
X135472518Y-96102518D01*
X135613602Y-95932884D01*
X135721410Y-95740379D01*
X135723266Y-95734912D01*
X135723268Y-95734907D01*
X135777209Y-95576000D01*
X135790957Y-95535498D01*
X135831794Y-95477423D01*
X135897547Y-95450644D01*
X135910270Y-95450000D01*
X137144094Y-95450000D01*
X137212215Y-95470002D01*
X137258708Y-95523658D01*
X137266217Y-95544984D01*
X137293511Y-95652452D01*
X137295928Y-95657694D01*
X137295928Y-95657695D01*
X137343112Y-95760045D01*
X137353467Y-95830282D01*
X137324204Y-95894968D01*
X137317782Y-95901891D01*
X136943779Y-96275895D01*
X136935675Y-96283321D01*
X136906806Y-96307545D01*
X136901293Y-96317094D01*
X136887961Y-96340185D01*
X136882055Y-96349456D01*
X136860446Y-96380316D01*
X136857592Y-96390966D01*
X136856115Y-96394134D01*
X136854923Y-96397410D01*
X136849412Y-96406955D01*
X136846555Y-96423160D01*
X136842870Y-96444058D01*
X136840492Y-96454785D01*
X136830736Y-96491193D01*
X136831697Y-96502178D01*
X136831697Y-96502180D01*
X136834020Y-96528728D01*
X136834500Y-96539710D01*
X136834500Y-98405290D01*
X136834020Y-98416272D01*
X136830736Y-98453807D01*
X136833590Y-98464456D01*
X136840491Y-98490210D01*
X136842870Y-98500942D01*
X136849412Y-98538045D01*
X136854923Y-98547590D01*
X136856115Y-98550866D01*
X136857592Y-98554034D01*
X136860446Y-98564684D01*
X136870531Y-98579086D01*
X136882055Y-98595544D01*
X136887961Y-98604815D01*
X136901293Y-98627906D01*
X136906806Y-98637455D01*
X136915251Y-98644541D01*
X136935682Y-98661685D01*
X136943785Y-98669111D01*
X137210889Y-98936215D01*
X137218316Y-98944319D01*
X137242545Y-98973194D01*
X137252094Y-98978707D01*
X137275185Y-98992039D01*
X137284453Y-98997943D01*
X137315316Y-99019554D01*
X137325966Y-99022408D01*
X137329134Y-99023885D01*
X137332410Y-99025077D01*
X137341955Y-99030588D01*
X137375699Y-99036538D01*
X137379058Y-99037130D01*
X137389785Y-99039508D01*
X137426193Y-99049264D01*
X137437178Y-99048303D01*
X137437180Y-99048303D01*
X137463728Y-99045980D01*
X137474710Y-99045500D01*
X137506045Y-99045500D01*
X137574166Y-99065502D01*
X137620659Y-99119158D01*
X137630763Y-99189432D01*
X137629651Y-99194795D01*
X137627494Y-99199673D01*
X137624500Y-99225354D01*
X137624500Y-99514646D01*
X137627618Y-99540846D01*
X137631456Y-99549486D01*
X137631456Y-99549487D01*
X137673061Y-99643153D01*
X137669199Y-99644868D01*
X137684353Y-99691146D01*
X137670046Y-99746088D01*
X137672759Y-99747287D01*
X137627494Y-99849673D01*
X137624500Y-99875354D01*
X137624500Y-100164646D01*
X137627618Y-100190846D01*
X137631456Y-100199486D01*
X137631456Y-100199487D01*
X137673061Y-100293153D01*
X137669199Y-100294868D01*
X137684353Y-100341146D01*
X137670046Y-100396088D01*
X137672759Y-100397287D01*
X137627494Y-100499673D01*
X137624500Y-100525354D01*
X137624500Y-100814646D01*
X137627618Y-100840846D01*
X137631456Y-100849486D01*
X137631456Y-100849487D01*
X137665200Y-100925455D01*
X137673061Y-100943153D01*
X137681294Y-100951372D01*
X137681295Y-100951373D01*
X137709363Y-100979392D01*
X137752287Y-101022241D01*
X137762924Y-101026944D01*
X137762926Y-101026945D01*
X137821215Y-101052714D01*
X137854673Y-101067506D01*
X137880354Y-101070500D01*
X139394646Y-101070500D01*
X139398350Y-101070059D01*
X139398353Y-101070059D01*
X139407309Y-101068993D01*
X139420846Y-101067382D01*
X139441496Y-101058210D01*
X139512518Y-101026663D01*
X139523153Y-101021939D01*
X139528237Y-101016846D01*
X139596985Y-100995500D01*
X140512075Y-100995500D01*
X140580196Y-101015502D01*
X140588779Y-101021537D01*
X140629410Y-101052714D01*
X140702159Y-101108536D01*
X140848238Y-101169044D01*
X141005000Y-101189682D01*
X141013188Y-101188604D01*
X141153574Y-101170122D01*
X141161762Y-101169044D01*
X141307841Y-101108536D01*
X141421221Y-101021537D01*
X141426736Y-101017305D01*
X141433282Y-101012282D01*
X141529536Y-100886841D01*
X141557591Y-100819110D01*
X141602139Y-100763829D01*
X141669503Y-100741408D01*
X141738294Y-100758966D01*
X141786672Y-100810928D01*
X141800000Y-100867328D01*
X141800000Y-103424000D01*
X141779998Y-103492121D01*
X141726342Y-103538614D01*
X141674000Y-103550000D01*
X140025934Y-103550000D01*
X139957813Y-103529998D01*
X139911320Y-103476342D01*
X139901216Y-103406068D01*
X139906341Y-103384332D01*
X139950138Y-103252290D01*
X139953005Y-103238914D01*
X139962672Y-103144562D01*
X139963000Y-103138146D01*
X139963000Y-102888115D01*
X139958525Y-102872876D01*
X139957135Y-102871671D01*
X139949452Y-102870000D01*
X138739500Y-102870000D01*
X138671379Y-102849998D01*
X138624886Y-102796342D01*
X138613500Y-102744000D01*
X138613500Y-101401116D01*
X138612159Y-101396548D01*
X139121500Y-101396548D01*
X139121500Y-102343885D01*
X139125975Y-102359124D01*
X139127365Y-102360329D01*
X139135048Y-102362000D01*
X139944884Y-102362000D01*
X139960123Y-102357525D01*
X139961328Y-102356135D01*
X139962999Y-102348452D01*
X139962999Y-102093905D01*
X139962662Y-102087386D01*
X139952743Y-101991794D01*
X139949851Y-101978400D01*
X139898412Y-101824216D01*
X139892239Y-101811038D01*
X139806937Y-101673193D01*
X139797901Y-101661792D01*
X139683171Y-101547261D01*
X139671760Y-101538249D01*
X139533757Y-101453184D01*
X139520576Y-101447037D01*
X139366290Y-101395862D01*
X139352914Y-101392995D01*
X139258562Y-101383328D01*
X139252145Y-101383000D01*
X139139615Y-101383000D01*
X139124376Y-101387475D01*
X139123171Y-101388865D01*
X139121500Y-101396548D01*
X138612159Y-101396548D01*
X138609025Y-101385877D01*
X138607635Y-101384672D01*
X138599952Y-101383001D01*
X138482905Y-101383001D01*
X138476386Y-101383338D01*
X138380794Y-101393257D01*
X138367400Y-101396149D01*
X138213216Y-101447588D01*
X138200038Y-101453761D01*
X138062193Y-101539063D01*
X138050792Y-101548099D01*
X137936261Y-101662829D01*
X137927249Y-101674240D01*
X137842184Y-101812243D01*
X137836037Y-101825424D01*
X137787389Y-101972092D01*
X137746958Y-102030451D01*
X137681394Y-102057688D01*
X137611512Y-102045154D01*
X137559500Y-101996830D01*
X137548913Y-101974172D01*
X137544533Y-101961699D01*
X137532634Y-101927816D01*
X137527042Y-101920246D01*
X137527041Y-101920243D01*
X137457742Y-101826421D01*
X137452150Y-101818850D01*
X137403433Y-101782867D01*
X137350757Y-101743959D01*
X137350754Y-101743958D01*
X137343184Y-101738366D01*
X137242467Y-101702997D01*
X137222608Y-101696023D01*
X137222607Y-101696023D01*
X137215369Y-101693481D01*
X137214447Y-101693394D01*
X137154745Y-101660656D01*
X137120832Y-101598283D01*
X137118000Y-101571720D01*
X137118000Y-101058210D01*
X137118480Y-101047228D01*
X137120803Y-101020680D01*
X137120803Y-101020678D01*
X137121764Y-101009693D01*
X137112008Y-100973285D01*
X137109630Y-100962558D01*
X137106208Y-100943153D01*
X137103088Y-100925455D01*
X137097577Y-100915910D01*
X137096385Y-100912634D01*
X137094908Y-100909466D01*
X137092054Y-100898816D01*
X137070445Y-100867956D01*
X137064539Y-100858685D01*
X137051207Y-100835594D01*
X137045694Y-100826045D01*
X137016817Y-100801815D01*
X137008715Y-100794389D01*
X136739405Y-100525079D01*
X136705379Y-100462767D01*
X136702500Y-100435984D01*
X136702500Y-99939286D01*
X136722502Y-99871165D01*
X136751796Y-99839323D01*
X136798736Y-99803305D01*
X136805282Y-99798282D01*
X136830140Y-99765887D01*
X136853196Y-99735839D01*
X136901536Y-99672841D01*
X136962044Y-99526762D01*
X136982682Y-99370000D01*
X136962044Y-99213238D01*
X136901536Y-99067159D01*
X136805282Y-98941718D01*
X136798120Y-98936222D01*
X136714612Y-98872145D01*
X136679841Y-98845464D01*
X136533762Y-98784956D01*
X136377000Y-98764318D01*
X136220238Y-98784956D01*
X136074159Y-98845464D01*
X136039388Y-98872145D01*
X135955881Y-98936222D01*
X135948718Y-98941718D01*
X135943695Y-98948264D01*
X135907677Y-98995204D01*
X135850339Y-99037071D01*
X135807714Y-99044500D01*
X135543955Y-99044500D01*
X135475834Y-99024498D01*
X135429341Y-98970842D01*
X135419237Y-98900568D01*
X135420349Y-98895205D01*
X135422506Y-98890327D01*
X135425500Y-98864646D01*
X135425500Y-98575354D01*
X135422382Y-98549154D01*
X135412627Y-98527191D01*
X135381663Y-98457482D01*
X135376939Y-98446847D01*
X135297713Y-98367759D01*
X135287076Y-98363056D01*
X135287074Y-98363055D01*
X135205698Y-98327079D01*
X135195327Y-98322494D01*
X135169646Y-98319500D01*
X133655354Y-98319500D01*
X133651650Y-98319941D01*
X133651647Y-98319941D01*
X133644254Y-98320821D01*
X133629154Y-98322618D01*
X133620514Y-98326456D01*
X133620513Y-98326456D01*
X133595771Y-98337446D01*
X133526847Y-98368061D01*
X133521763Y-98373154D01*
X133453015Y-98394500D01*
X133197016Y-98394500D01*
X133128895Y-98374498D01*
X133107921Y-98357595D01*
X133077405Y-98327079D01*
X133043379Y-98264767D01*
X133040500Y-98237984D01*
X133040500Y-97174710D01*
X133040980Y-97163728D01*
X133043303Y-97137180D01*
X133043303Y-97137178D01*
X133044264Y-97126193D01*
X133034508Y-97089785D01*
X133032130Y-97079058D01*
X133031538Y-97075699D01*
X133025588Y-97041955D01*
X133020077Y-97032410D01*
X133018885Y-97029134D01*
X133017408Y-97025966D01*
X133014554Y-97015316D01*
X132992945Y-96984456D01*
X132987039Y-96975185D01*
X132973707Y-96952094D01*
X132968194Y-96942545D01*
X132939317Y-96918315D01*
X132931215Y-96910889D01*
X131924752Y-95904426D01*
X131890726Y-95842114D01*
X131895791Y-95771299D01*
X131903909Y-95753774D01*
X131911410Y-95740379D01*
X131913266Y-95734912D01*
X131913268Y-95734907D01*
X131967209Y-95576000D01*
X131980957Y-95535498D01*
X132021794Y-95477423D01*
X132087547Y-95450644D01*
X132100270Y-95450000D01*
X133334094Y-95450000D01*
X133402215Y-95470002D01*
G37*
%TD.AperFunction*%
%TD*%
M02*
