%TF.GenerationSoftware,KiCad,Pcbnew,(5.99.0-12060-g1fa5e43597)*%
%TF.CreationDate,2021-10-09T22:14:02+02:00*%
%TF.ProjectId,dual_LT6105,6475616c-5f4c-4543-9631-30352e6b6963,rev?*%
%TF.SameCoordinates,Original*%
%TF.FileFunction,Legend,Bot*%
%TF.FilePolarity,Positive*%
%FSLAX46Y46*%
G04 Gerber Fmt 4.6, Leading zero omitted, Abs format (unit mm)*
G04 Created by KiCad (PCBNEW (5.99.0-12060-g1fa5e43597)) date 2021-10-09 22:14:02*
%MOMM*%
%LPD*%
G01*
G04 APERTURE LIST*
%ADD10C,0.200000*%
G04 APERTURE END LIST*
D10*
X135289666Y-97473761D02*
X135146809Y-97521380D01*
X134908714Y-97521380D01*
X134813476Y-97473761D01*
X134765857Y-97426142D01*
X134718238Y-97330904D01*
X134718238Y-97235666D01*
X134765857Y-97140428D01*
X134813476Y-97092809D01*
X134908714Y-97045190D01*
X135099190Y-96997571D01*
X135194428Y-96949952D01*
X135242047Y-96902333D01*
X135289666Y-96807095D01*
X135289666Y-96711857D01*
X135242047Y-96616619D01*
X135194428Y-96569000D01*
X135099190Y-96521380D01*
X134861095Y-96521380D01*
X134718238Y-96569000D01*
X134289666Y-96997571D02*
X133956333Y-96997571D01*
X133813476Y-97521380D02*
X134289666Y-97521380D01*
X134289666Y-96521380D01*
X133813476Y-96521380D01*
X133432523Y-97473761D02*
X133289666Y-97521380D01*
X133051571Y-97521380D01*
X132956333Y-97473761D01*
X132908714Y-97426142D01*
X132861095Y-97330904D01*
X132861095Y-97235666D01*
X132908714Y-97140428D01*
X132956333Y-97092809D01*
X133051571Y-97045190D01*
X133242047Y-96997571D01*
X133337285Y-96949952D01*
X133384904Y-96902333D01*
X133432523Y-96807095D01*
X133432523Y-96711857D01*
X133384904Y-96616619D01*
X133337285Y-96569000D01*
X133242047Y-96521380D01*
X133003952Y-96521380D01*
X132861095Y-96569000D01*
X132480142Y-97235666D02*
X132003952Y-97235666D01*
X132575380Y-97521380D02*
X132242047Y-96521380D01*
X131908714Y-97521380D01*
X131575380Y-97521380D02*
X131575380Y-96521380D01*
X131242047Y-97235666D01*
X130908714Y-96521380D01*
X130908714Y-97521380D01*
X130432523Y-96997571D02*
X130099190Y-96997571D01*
X129956333Y-97521380D02*
X130432523Y-97521380D01*
X130432523Y-96521380D01*
X129956333Y-96521380D01*
X140694428Y-99036142D02*
X140742047Y-99083761D01*
X140884904Y-99131380D01*
X140980142Y-99131380D01*
X141123000Y-99083761D01*
X141218238Y-98988523D01*
X141265857Y-98893285D01*
X141313476Y-98702809D01*
X141313476Y-98559952D01*
X141265857Y-98369476D01*
X141218238Y-98274238D01*
X141123000Y-98179000D01*
X140980142Y-98131380D01*
X140884904Y-98131380D01*
X140742047Y-98179000D01*
X140694428Y-98226619D01*
X139837285Y-98464714D02*
X139837285Y-99131380D01*
X140265857Y-98464714D02*
X140265857Y-98988523D01*
X140218238Y-99083761D01*
X140123000Y-99131380D01*
X139980142Y-99131380D01*
X139884904Y-99083761D01*
X139837285Y-99036142D01*
X139361095Y-99131380D02*
X139361095Y-98464714D01*
X139361095Y-98655190D02*
X139313476Y-98559952D01*
X139265857Y-98512333D01*
X139170619Y-98464714D01*
X139075380Y-98464714D01*
X138742047Y-99131380D02*
X138742047Y-98464714D01*
X138742047Y-98655190D02*
X138694428Y-98559952D01*
X138646809Y-98512333D01*
X138551571Y-98464714D01*
X138456333Y-98464714D01*
X137742047Y-99083761D02*
X137837285Y-99131380D01*
X138027761Y-99131380D01*
X138123000Y-99083761D01*
X138170619Y-98988523D01*
X138170619Y-98607571D01*
X138123000Y-98512333D01*
X138027761Y-98464714D01*
X137837285Y-98464714D01*
X137742047Y-98512333D01*
X137694428Y-98607571D01*
X137694428Y-98702809D01*
X138170619Y-98798047D01*
X137265857Y-98464714D02*
X137265857Y-99131380D01*
X137265857Y-98559952D02*
X137218238Y-98512333D01*
X137123000Y-98464714D01*
X136980142Y-98464714D01*
X136884904Y-98512333D01*
X136837285Y-98607571D01*
X136837285Y-99131380D01*
X136503952Y-98464714D02*
X136123000Y-98464714D01*
X136361095Y-98131380D02*
X136361095Y-98988523D01*
X136313476Y-99083761D01*
X136218238Y-99131380D01*
X136123000Y-99131380D01*
X135027761Y-99131380D02*
X135027761Y-98464714D01*
X135027761Y-98559952D02*
X134980142Y-98512333D01*
X134884904Y-98464714D01*
X134742047Y-98464714D01*
X134646809Y-98512333D01*
X134599190Y-98607571D01*
X134599190Y-99131380D01*
X134599190Y-98607571D02*
X134551571Y-98512333D01*
X134456333Y-98464714D01*
X134313476Y-98464714D01*
X134218238Y-98512333D01*
X134170619Y-98607571D01*
X134170619Y-99131380D01*
X133313476Y-99083761D02*
X133408714Y-99131380D01*
X133599190Y-99131380D01*
X133694428Y-99083761D01*
X133742047Y-98988523D01*
X133742047Y-98607571D01*
X133694428Y-98512333D01*
X133599190Y-98464714D01*
X133408714Y-98464714D01*
X133313476Y-98512333D01*
X133265857Y-98607571D01*
X133265857Y-98702809D01*
X133742047Y-98798047D01*
X132408714Y-99131380D02*
X132408714Y-98607571D01*
X132456333Y-98512333D01*
X132551571Y-98464714D01*
X132742047Y-98464714D01*
X132837285Y-98512333D01*
X132408714Y-99083761D02*
X132503952Y-99131380D01*
X132742047Y-99131380D01*
X132837285Y-99083761D01*
X132884904Y-98988523D01*
X132884904Y-98893285D01*
X132837285Y-98798047D01*
X132742047Y-98750428D01*
X132503952Y-98750428D01*
X132408714Y-98702809D01*
X131980142Y-99083761D02*
X131884904Y-99131380D01*
X131694428Y-99131380D01*
X131599190Y-99083761D01*
X131551571Y-98988523D01*
X131551571Y-98940904D01*
X131599190Y-98845666D01*
X131694428Y-98798047D01*
X131837285Y-98798047D01*
X131932523Y-98750428D01*
X131980142Y-98655190D01*
X131980142Y-98607571D01*
X131932523Y-98512333D01*
X131837285Y-98464714D01*
X131694428Y-98464714D01*
X131599190Y-98512333D01*
X130694428Y-98464714D02*
X130694428Y-99131380D01*
X131123000Y-98464714D02*
X131123000Y-98988523D01*
X131075380Y-99083761D01*
X130980142Y-99131380D01*
X130837285Y-99131380D01*
X130742047Y-99083761D01*
X130694428Y-99036142D01*
X130218238Y-99131380D02*
X130218238Y-98464714D01*
X130218238Y-98655190D02*
X130170619Y-98559952D01*
X130123000Y-98512333D01*
X130027761Y-98464714D01*
X129932523Y-98464714D01*
X129218238Y-99083761D02*
X129313476Y-99131380D01*
X129503952Y-99131380D01*
X129599190Y-99083761D01*
X129646809Y-98988523D01*
X129646809Y-98607571D01*
X129599190Y-98512333D01*
X129503952Y-98464714D01*
X129313476Y-98464714D01*
X129218238Y-98512333D01*
X129170619Y-98607571D01*
X129170619Y-98702809D01*
X129646809Y-98798047D01*
X127980142Y-99131380D02*
X127980142Y-98131380D01*
X127980142Y-98512333D02*
X127884904Y-98464714D01*
X127694428Y-98464714D01*
X127599190Y-98512333D01*
X127551571Y-98559952D01*
X127503952Y-98655190D01*
X127503952Y-98940904D01*
X127551571Y-99036142D01*
X127599190Y-99083761D01*
X127694428Y-99131380D01*
X127884904Y-99131380D01*
X127980142Y-99083761D01*
X126932523Y-99131380D02*
X127027761Y-99083761D01*
X127075380Y-99036142D01*
X127123000Y-98940904D01*
X127123000Y-98655190D01*
X127075380Y-98559952D01*
X127027761Y-98512333D01*
X126932523Y-98464714D01*
X126789666Y-98464714D01*
X126694428Y-98512333D01*
X126646809Y-98559952D01*
X126599190Y-98655190D01*
X126599190Y-98940904D01*
X126646809Y-99036142D01*
X126694428Y-99083761D01*
X126789666Y-99131380D01*
X126932523Y-99131380D01*
X125742047Y-99131380D02*
X125742047Y-98131380D01*
X125742047Y-99083761D02*
X125837285Y-99131380D01*
X126027761Y-99131380D01*
X126123000Y-99083761D01*
X126170619Y-99036142D01*
X126218238Y-98940904D01*
X126218238Y-98655190D01*
X126170619Y-98559952D01*
X126123000Y-98512333D01*
X126027761Y-98464714D01*
X125837285Y-98464714D01*
X125742047Y-98512333D01*
X124837285Y-98464714D02*
X124837285Y-99274238D01*
X124884904Y-99369476D01*
X124932523Y-99417095D01*
X125027761Y-99464714D01*
X125170619Y-99464714D01*
X125265857Y-99417095D01*
X124837285Y-99083761D02*
X124932523Y-99131380D01*
X125123000Y-99131380D01*
X125218238Y-99083761D01*
X125265857Y-99036142D01*
X125313476Y-98940904D01*
X125313476Y-98655190D01*
X125265857Y-98559952D01*
X125218238Y-98512333D01*
X125123000Y-98464714D01*
X124932523Y-98464714D01*
X124837285Y-98512333D01*
X123980142Y-99083761D02*
X124075380Y-99131380D01*
X124265857Y-99131380D01*
X124361095Y-99083761D01*
X124408714Y-98988523D01*
X124408714Y-98607571D01*
X124361095Y-98512333D01*
X124265857Y-98464714D01*
X124075380Y-98464714D01*
X123980142Y-98512333D01*
X123932523Y-98607571D01*
X123932523Y-98702809D01*
X124408714Y-98798047D01*
X135956333Y-99741380D02*
X135765857Y-99741380D01*
X135670619Y-99789000D01*
X135575380Y-99884238D01*
X135527761Y-100074714D01*
X135527761Y-100408047D01*
X135575380Y-100598523D01*
X135670619Y-100693761D01*
X135765857Y-100741380D01*
X135956333Y-100741380D01*
X136051571Y-100693761D01*
X136146809Y-100598523D01*
X136194428Y-100408047D01*
X136194428Y-100074714D01*
X136146809Y-99884238D01*
X136051571Y-99789000D01*
X135956333Y-99741380D01*
X134670619Y-100693761D02*
X134765857Y-100741380D01*
X134956333Y-100741380D01*
X135051571Y-100693761D01*
X135099190Y-100646142D01*
X135146809Y-100550904D01*
X135146809Y-100265190D01*
X135099190Y-100169952D01*
X135051571Y-100122333D01*
X134956333Y-100074714D01*
X134765857Y-100074714D01*
X134670619Y-100122333D01*
X134384904Y-100074714D02*
X134003952Y-100074714D01*
X134242047Y-99741380D02*
X134242047Y-100598523D01*
X134194428Y-100693761D01*
X134099190Y-100741380D01*
X134003952Y-100741380D01*
X133670619Y-100646142D02*
X133623000Y-100693761D01*
X133670619Y-100741380D01*
X133718238Y-100693761D01*
X133670619Y-100646142D01*
X133670619Y-100741380D01*
X132480142Y-99836619D02*
X132432523Y-99789000D01*
X132337285Y-99741380D01*
X132099190Y-99741380D01*
X132003952Y-99789000D01*
X131956333Y-99836619D01*
X131908714Y-99931857D01*
X131908714Y-100027095D01*
X131956333Y-100169952D01*
X132527761Y-100741380D01*
X131908714Y-100741380D01*
X131289666Y-99741380D02*
X131194428Y-99741380D01*
X131099190Y-99789000D01*
X131051571Y-99836619D01*
X131003952Y-99931857D01*
X130956333Y-100122333D01*
X130956333Y-100360428D01*
X131003952Y-100550904D01*
X131051571Y-100646142D01*
X131099190Y-100693761D01*
X131194428Y-100741380D01*
X131289666Y-100741380D01*
X131384904Y-100693761D01*
X131432523Y-100646142D01*
X131480142Y-100550904D01*
X131527761Y-100360428D01*
X131527761Y-100122333D01*
X131480142Y-99931857D01*
X131432523Y-99836619D01*
X131384904Y-99789000D01*
X131289666Y-99741380D01*
X130575380Y-99836619D02*
X130527761Y-99789000D01*
X130432523Y-99741380D01*
X130194428Y-99741380D01*
X130099190Y-99789000D01*
X130051571Y-99836619D01*
X130003952Y-99931857D01*
X130003952Y-100027095D01*
X130051571Y-100169952D01*
X130623000Y-100741380D01*
X130003952Y-100741380D01*
X129051571Y-100741380D02*
X129623000Y-100741380D01*
X129337285Y-100741380D02*
X129337285Y-99741380D01*
X129432523Y-99884238D01*
X129527761Y-99979476D01*
X129623000Y-100027095D01*
M02*
